%TF.GenerationSoftware,KiCad,Pcbnew,9.0.4*%
%TF.CreationDate,2026-07-23T14:42:52-05:00*%
%TF.ProjectId,esp32attachment,65737033-3261-4747-9461-63686d656e74,rev?*%
%TF.SameCoordinates,Original*%
%TF.FileFunction,Paste,Top*%
%TF.FilePolarity,Positive*%
%FSLAX46Y46*%
G04 Gerber Fmt 4.6, Leading zero omitted, Abs format (unit mm)*
G04 Created by KiCad (PCBNEW 9.0.4) date 2026-07-23 14:42:52*
%MOMM*%
%LPD*%
G01*
G04 APERTURE LIST*
G04 Aperture macros list*
%AMRoundRect*
0 Rectangle with rounded corners*
0 $1 Rounding radius*
0 $2 $3 $4 $5 $6 $7 $8 $9 X,Y pos of 4 corners*
0 Add a 4 corners polygon primitive as box body*
4,1,4,$2,$3,$4,$5,$6,$7,$8,$9,$2,$3,0*
0 Add four circle primitives for the rounded corners*
1,1,$1+$1,$2,$3*
1,1,$1+$1,$4,$5*
1,1,$1+$1,$6,$7*
1,1,$1+$1,$8,$9*
0 Add four rect primitives between the rounded corners*
20,1,$1+$1,$2,$3,$4,$5,0*
20,1,$1+$1,$4,$5,$6,$7,0*
20,1,$1+$1,$6,$7,$8,$9,0*
20,1,$1+$1,$8,$9,$2,$3,0*%
G04 Aperture macros list end*
%ADD10C,0.010000*%
%ADD11R,3.020000X0.970000*%
%ADD12RoundRect,0.250000X1.000000X-1.400000X1.000000X1.400000X-1.000000X1.400000X-1.000000X-1.400000X0*%
%ADD13RoundRect,0.250001X0.799999X-1.999999X0.799999X1.999999X-0.799999X1.999999X-0.799999X-1.999999X0*%
%ADD14RoundRect,0.250000X0.350000X0.450000X-0.350000X0.450000X-0.350000X-0.450000X0.350000X-0.450000X0*%
%ADD15RoundRect,0.250000X-0.350000X-0.450000X0.350000X-0.450000X0.350000X0.450000X-0.350000X0.450000X0*%
%ADD16RoundRect,0.250000X-1.000000X1.400000X-1.000000X-1.400000X1.000000X-1.400000X1.000000X1.400000X0*%
G04 APERTURE END LIST*
D10*
%TO.C,Q6*%
X166400000Y-86675000D02*
X165040000Y-86675000D01*
X165040000Y-84955000D01*
X166400000Y-84955000D01*
X166400000Y-86675000D01*
G36*
X166400000Y-86675000D02*
G01*
X165040000Y-86675000D01*
X165040000Y-84955000D01*
X166400000Y-84955000D01*
X166400000Y-86675000D01*
G37*
X166400000Y-89495000D02*
X165040000Y-89495000D01*
X165040000Y-87775000D01*
X166400000Y-87775000D01*
X166400000Y-89495000D01*
G36*
X166400000Y-89495000D02*
G01*
X165040000Y-89495000D01*
X165040000Y-87775000D01*
X166400000Y-87775000D01*
X166400000Y-89495000D01*
G37*
X168510000Y-86675000D02*
X167150000Y-86675000D01*
X167150000Y-84955000D01*
X168510000Y-84955000D01*
X168510000Y-86675000D01*
G36*
X168510000Y-86675000D02*
G01*
X167150000Y-86675000D01*
X167150000Y-84955000D01*
X168510000Y-84955000D01*
X168510000Y-86675000D01*
G37*
X168510000Y-89495000D02*
X167150000Y-89495000D01*
X167150000Y-87775000D01*
X168510000Y-87775000D01*
X168510000Y-89495000D01*
G36*
X168510000Y-89495000D02*
G01*
X167150000Y-89495000D01*
X167150000Y-87775000D01*
X168510000Y-87775000D01*
X168510000Y-89495000D01*
G37*
X170620000Y-86675000D02*
X169260000Y-86675000D01*
X169260000Y-84955000D01*
X170620000Y-84955000D01*
X170620000Y-86675000D01*
G36*
X170620000Y-86675000D02*
G01*
X169260000Y-86675000D01*
X169260000Y-84955000D01*
X170620000Y-84955000D01*
X170620000Y-86675000D01*
G37*
X170620000Y-89495000D02*
X169260000Y-89495000D01*
X169260000Y-87775000D01*
X170620000Y-87775000D01*
X170620000Y-89495000D01*
G36*
X170620000Y-89495000D02*
G01*
X169260000Y-89495000D01*
X169260000Y-87775000D01*
X170620000Y-87775000D01*
X170620000Y-89495000D01*
G37*
%TO.C,Q3*%
X79130000Y-87450000D02*
X77770000Y-87450000D01*
X77770000Y-85730000D01*
X79130000Y-85730000D01*
X79130000Y-87450000D01*
G36*
X79130000Y-87450000D02*
G01*
X77770000Y-87450000D01*
X77770000Y-85730000D01*
X79130000Y-85730000D01*
X79130000Y-87450000D01*
G37*
X79130000Y-90270000D02*
X77770000Y-90270000D01*
X77770000Y-88550000D01*
X79130000Y-88550000D01*
X79130000Y-90270000D01*
G36*
X79130000Y-90270000D02*
G01*
X77770000Y-90270000D01*
X77770000Y-88550000D01*
X79130000Y-88550000D01*
X79130000Y-90270000D01*
G37*
X81240000Y-87450000D02*
X79880000Y-87450000D01*
X79880000Y-85730000D01*
X81240000Y-85730000D01*
X81240000Y-87450000D01*
G36*
X81240000Y-87450000D02*
G01*
X79880000Y-87450000D01*
X79880000Y-85730000D01*
X81240000Y-85730000D01*
X81240000Y-87450000D01*
G37*
X81240000Y-90270000D02*
X79880000Y-90270000D01*
X79880000Y-88550000D01*
X81240000Y-88550000D01*
X81240000Y-90270000D01*
G36*
X81240000Y-90270000D02*
G01*
X79880000Y-90270000D01*
X79880000Y-88550000D01*
X81240000Y-88550000D01*
X81240000Y-90270000D01*
G37*
X83350000Y-87450000D02*
X81990000Y-87450000D01*
X81990000Y-85730000D01*
X83350000Y-85730000D01*
X83350000Y-87450000D01*
G36*
X83350000Y-87450000D02*
G01*
X81990000Y-87450000D01*
X81990000Y-85730000D01*
X83350000Y-85730000D01*
X83350000Y-87450000D01*
G37*
X83350000Y-90270000D02*
X81990000Y-90270000D01*
X81990000Y-88550000D01*
X83350000Y-88550000D01*
X83350000Y-90270000D01*
G36*
X83350000Y-90270000D02*
G01*
X81990000Y-90270000D01*
X81990000Y-88550000D01*
X83350000Y-88550000D01*
X83350000Y-90270000D01*
G37*
%TO.C,Q1*%
X79130000Y-53450000D02*
X77770000Y-53450000D01*
X77770000Y-51730000D01*
X79130000Y-51730000D01*
X79130000Y-53450000D01*
G36*
X79130000Y-53450000D02*
G01*
X77770000Y-53450000D01*
X77770000Y-51730000D01*
X79130000Y-51730000D01*
X79130000Y-53450000D01*
G37*
X79130000Y-56270000D02*
X77770000Y-56270000D01*
X77770000Y-54550000D01*
X79130000Y-54550000D01*
X79130000Y-56270000D01*
G36*
X79130000Y-56270000D02*
G01*
X77770000Y-56270000D01*
X77770000Y-54550000D01*
X79130000Y-54550000D01*
X79130000Y-56270000D01*
G37*
X81240000Y-53450000D02*
X79880000Y-53450000D01*
X79880000Y-51730000D01*
X81240000Y-51730000D01*
X81240000Y-53450000D01*
G36*
X81240000Y-53450000D02*
G01*
X79880000Y-53450000D01*
X79880000Y-51730000D01*
X81240000Y-51730000D01*
X81240000Y-53450000D01*
G37*
X81240000Y-56270000D02*
X79880000Y-56270000D01*
X79880000Y-54550000D01*
X81240000Y-54550000D01*
X81240000Y-56270000D01*
G36*
X81240000Y-56270000D02*
G01*
X79880000Y-56270000D01*
X79880000Y-54550000D01*
X81240000Y-54550000D01*
X81240000Y-56270000D01*
G37*
X83350000Y-53450000D02*
X81990000Y-53450000D01*
X81990000Y-51730000D01*
X83350000Y-51730000D01*
X83350000Y-53450000D01*
G36*
X83350000Y-53450000D02*
G01*
X81990000Y-53450000D01*
X81990000Y-51730000D01*
X83350000Y-51730000D01*
X83350000Y-53450000D01*
G37*
X83350000Y-56270000D02*
X81990000Y-56270000D01*
X81990000Y-54550000D01*
X83350000Y-54550000D01*
X83350000Y-56270000D01*
G36*
X83350000Y-56270000D02*
G01*
X81990000Y-56270000D01*
X81990000Y-54550000D01*
X83350000Y-54550000D01*
X83350000Y-56270000D01*
G37*
%TO.C,Q2*%
X79130000Y-70450000D02*
X77770000Y-70450000D01*
X77770000Y-68730000D01*
X79130000Y-68730000D01*
X79130000Y-70450000D01*
G36*
X79130000Y-70450000D02*
G01*
X77770000Y-70450000D01*
X77770000Y-68730000D01*
X79130000Y-68730000D01*
X79130000Y-70450000D01*
G37*
X79130000Y-73270000D02*
X77770000Y-73270000D01*
X77770000Y-71550000D01*
X79130000Y-71550000D01*
X79130000Y-73270000D01*
G36*
X79130000Y-73270000D02*
G01*
X77770000Y-73270000D01*
X77770000Y-71550000D01*
X79130000Y-71550000D01*
X79130000Y-73270000D01*
G37*
X81240000Y-70450000D02*
X79880000Y-70450000D01*
X79880000Y-68730000D01*
X81240000Y-68730000D01*
X81240000Y-70450000D01*
G36*
X81240000Y-70450000D02*
G01*
X79880000Y-70450000D01*
X79880000Y-68730000D01*
X81240000Y-68730000D01*
X81240000Y-70450000D01*
G37*
X81240000Y-73270000D02*
X79880000Y-73270000D01*
X79880000Y-71550000D01*
X81240000Y-71550000D01*
X81240000Y-73270000D01*
G36*
X81240000Y-73270000D02*
G01*
X79880000Y-73270000D01*
X79880000Y-71550000D01*
X81240000Y-71550000D01*
X81240000Y-73270000D01*
G37*
X83350000Y-70450000D02*
X81990000Y-70450000D01*
X81990000Y-68730000D01*
X83350000Y-68730000D01*
X83350000Y-70450000D01*
G36*
X83350000Y-70450000D02*
G01*
X81990000Y-70450000D01*
X81990000Y-68730000D01*
X83350000Y-68730000D01*
X83350000Y-70450000D01*
G37*
X83350000Y-73270000D02*
X81990000Y-73270000D01*
X81990000Y-71550000D01*
X83350000Y-71550000D01*
X83350000Y-73270000D01*
G36*
X83350000Y-73270000D02*
G01*
X81990000Y-73270000D01*
X81990000Y-71550000D01*
X83350000Y-71550000D01*
X83350000Y-73270000D01*
G37*
%TO.C,Q5*%
X166400000Y-70400000D02*
X165040000Y-70400000D01*
X165040000Y-68680000D01*
X166400000Y-68680000D01*
X166400000Y-70400000D01*
G36*
X166400000Y-70400000D02*
G01*
X165040000Y-70400000D01*
X165040000Y-68680000D01*
X166400000Y-68680000D01*
X166400000Y-70400000D01*
G37*
X166400000Y-73220000D02*
X165040000Y-73220000D01*
X165040000Y-71500000D01*
X166400000Y-71500000D01*
X166400000Y-73220000D01*
G36*
X166400000Y-73220000D02*
G01*
X165040000Y-73220000D01*
X165040000Y-71500000D01*
X166400000Y-71500000D01*
X166400000Y-73220000D01*
G37*
X168510000Y-70400000D02*
X167150000Y-70400000D01*
X167150000Y-68680000D01*
X168510000Y-68680000D01*
X168510000Y-70400000D01*
G36*
X168510000Y-70400000D02*
G01*
X167150000Y-70400000D01*
X167150000Y-68680000D01*
X168510000Y-68680000D01*
X168510000Y-70400000D01*
G37*
X168510000Y-73220000D02*
X167150000Y-73220000D01*
X167150000Y-71500000D01*
X168510000Y-71500000D01*
X168510000Y-73220000D01*
G36*
X168510000Y-73220000D02*
G01*
X167150000Y-73220000D01*
X167150000Y-71500000D01*
X168510000Y-71500000D01*
X168510000Y-73220000D01*
G37*
X170620000Y-70400000D02*
X169260000Y-70400000D01*
X169260000Y-68680000D01*
X170620000Y-68680000D01*
X170620000Y-70400000D01*
G36*
X170620000Y-70400000D02*
G01*
X169260000Y-70400000D01*
X169260000Y-68680000D01*
X170620000Y-68680000D01*
X170620000Y-70400000D01*
G37*
X170620000Y-73220000D02*
X169260000Y-73220000D01*
X169260000Y-71500000D01*
X170620000Y-71500000D01*
X170620000Y-73220000D01*
G36*
X170620000Y-73220000D02*
G01*
X169260000Y-73220000D01*
X169260000Y-71500000D01*
X170620000Y-71500000D01*
X170620000Y-73220000D01*
G37*
%TO.C,Q4*%
X166400000Y-53700000D02*
X165040000Y-53700000D01*
X165040000Y-51980000D01*
X166400000Y-51980000D01*
X166400000Y-53700000D01*
G36*
X166400000Y-53700000D02*
G01*
X165040000Y-53700000D01*
X165040000Y-51980000D01*
X166400000Y-51980000D01*
X166400000Y-53700000D01*
G37*
X166400000Y-56520000D02*
X165040000Y-56520000D01*
X165040000Y-54800000D01*
X166400000Y-54800000D01*
X166400000Y-56520000D01*
G36*
X166400000Y-56520000D02*
G01*
X165040000Y-56520000D01*
X165040000Y-54800000D01*
X166400000Y-54800000D01*
X166400000Y-56520000D01*
G37*
X168510000Y-53700000D02*
X167150000Y-53700000D01*
X167150000Y-51980000D01*
X168510000Y-51980000D01*
X168510000Y-53700000D01*
G36*
X168510000Y-53700000D02*
G01*
X167150000Y-53700000D01*
X167150000Y-51980000D01*
X168510000Y-51980000D01*
X168510000Y-53700000D01*
G37*
X168510000Y-56520000D02*
X167150000Y-56520000D01*
X167150000Y-54800000D01*
X168510000Y-54800000D01*
X168510000Y-56520000D01*
G36*
X168510000Y-56520000D02*
G01*
X167150000Y-56520000D01*
X167150000Y-54800000D01*
X168510000Y-54800000D01*
X168510000Y-56520000D01*
G37*
X170620000Y-53700000D02*
X169260000Y-53700000D01*
X169260000Y-51980000D01*
X170620000Y-51980000D01*
X170620000Y-53700000D01*
G36*
X170620000Y-53700000D02*
G01*
X169260000Y-53700000D01*
X169260000Y-51980000D01*
X170620000Y-51980000D01*
X170620000Y-53700000D01*
G37*
X170620000Y-56520000D02*
X169260000Y-56520000D01*
X169260000Y-54800000D01*
X170620000Y-54800000D01*
X170620000Y-56520000D01*
G36*
X170620000Y-56520000D02*
G01*
X169260000Y-56520000D01*
X169260000Y-54800000D01*
X170620000Y-54800000D01*
X170620000Y-56520000D01*
G37*
%TD*%
D11*
%TO.C,Q6*%
X161300000Y-84939000D03*
X161300000Y-89511000D03*
%TD*%
D12*
%TO.C,D3*%
X66600000Y-88000000D03*
X73400000Y-88000000D03*
%TD*%
D13*
%TO.C,C1*%
X94675000Y-70525000D03*
X94675000Y-63325000D03*
%TD*%
D14*
%TO.C,R3*%
X108250000Y-88050000D03*
X106250000Y-88050000D03*
%TD*%
D11*
%TO.C,Q3*%
X87090000Y-90286000D03*
X87090000Y-85714000D03*
%TD*%
D15*
%TO.C,R12*%
X166575000Y-93375000D03*
X168575000Y-93375000D03*
%TD*%
D11*
%TO.C,Q1*%
X87090000Y-56286000D03*
X87090000Y-51714000D03*
%TD*%
D14*
%TO.C,R2*%
X108250000Y-92975000D03*
X106250000Y-92975000D03*
%TD*%
D15*
%TO.C,R7*%
X82000000Y-94000000D03*
X84000000Y-94000000D03*
%TD*%
%TO.C,R8*%
X82000000Y-77000000D03*
X84000000Y-77000000D03*
%TD*%
D11*
%TO.C,Q2*%
X87090000Y-73286000D03*
X87090000Y-68714000D03*
%TD*%
D16*
%TO.C,D5*%
X181625000Y-70950000D03*
X174825000Y-70950000D03*
%TD*%
D11*
%TO.C,Q5*%
X161300000Y-68664000D03*
X161300000Y-73236000D03*
%TD*%
D14*
%TO.C,R4*%
X108250000Y-83250000D03*
X106250000Y-83250000D03*
%TD*%
D15*
%TO.C,R5*%
X142096000Y-71165000D03*
X144096000Y-71165000D03*
%TD*%
%TO.C,R10*%
X167165000Y-60175000D03*
X169165000Y-60175000D03*
%TD*%
%TO.C,R6*%
X142221000Y-76130000D03*
X144221000Y-76130000D03*
%TD*%
D12*
%TO.C,D1*%
X66600000Y-54000000D03*
X73400000Y-54000000D03*
%TD*%
D16*
%TO.C,D4*%
X181625000Y-54250000D03*
X174825000Y-54250000D03*
%TD*%
D11*
%TO.C,Q4*%
X161300000Y-51964000D03*
X161300000Y-56536000D03*
%TD*%
D15*
%TO.C,R11*%
X166890000Y-77025000D03*
X168890000Y-77025000D03*
%TD*%
D12*
%TO.C,D2*%
X66600000Y-71000000D03*
X73400000Y-71000000D03*
%TD*%
D13*
%TO.C,C2*%
X104525000Y-70525000D03*
X104525000Y-63325000D03*
%TD*%
D14*
%TO.C,R1*%
X108275000Y-96800000D03*
X106275000Y-96800000D03*
%TD*%
D16*
%TO.C,D6*%
X181625000Y-87225000D03*
X174825000Y-87225000D03*
%TD*%
D15*
%TO.C,R9*%
X82000000Y-60000000D03*
X84000000Y-60000000D03*
%TD*%
M02*
