%TF.GenerationSoftware,KiCad,Pcbnew,9.0.4*%
%TF.CreationDate,2026-07-23T14:42:52-05:00*%
%TF.ProjectId,esp32attachment,65737033-3261-4747-9461-63686d656e74,rev?*%
%TF.SameCoordinates,Original*%
%TF.FileFunction,Legend,Top*%
%TF.FilePolarity,Positive*%
%FSLAX46Y46*%
G04 Gerber Fmt 4.6, Leading zero omitted, Abs format (unit mm)*
G04 Created by KiCad (PCBNEW 9.0.4) date 2026-07-23 14:42:52*
%MOMM*%
%LPD*%
G01*
G04 APERTURE LIST*
%ADD10C,0.300000*%
%ADD11C,0.200000*%
%ADD12C,0.150000*%
%ADD13C,0.127000*%
%ADD14C,0.120000*%
%ADD15C,0.000000*%
G04 APERTURE END LIST*
D10*
X143747368Y-84900828D02*
X143747368Y-85900828D01*
X143104510Y-84900828D02*
X143104510Y-85686542D01*
X143104510Y-85686542D02*
X143175939Y-85829400D01*
X143175939Y-85829400D02*
X143318796Y-85900828D01*
X143318796Y-85900828D02*
X143533082Y-85900828D01*
X143533082Y-85900828D02*
X143675939Y-85829400D01*
X143675939Y-85829400D02*
X143747368Y-85757971D01*
X144461653Y-84900828D02*
X144461653Y-85900828D01*
X144461653Y-85043685D02*
X144533082Y-84972257D01*
X144533082Y-84972257D02*
X144675939Y-84900828D01*
X144675939Y-84900828D02*
X144890225Y-84900828D01*
X144890225Y-84900828D02*
X145033082Y-84972257D01*
X145033082Y-84972257D02*
X145104511Y-85115114D01*
X145104511Y-85115114D02*
X145104511Y-85900828D01*
X146461654Y-85900828D02*
X146461654Y-85115114D01*
X146461654Y-85115114D02*
X146390225Y-84972257D01*
X146390225Y-84972257D02*
X146247368Y-84900828D01*
X146247368Y-84900828D02*
X145961654Y-84900828D01*
X145961654Y-84900828D02*
X145818796Y-84972257D01*
X146461654Y-85829400D02*
X146318796Y-85900828D01*
X146318796Y-85900828D02*
X145961654Y-85900828D01*
X145961654Y-85900828D02*
X145818796Y-85829400D01*
X145818796Y-85829400D02*
X145747368Y-85686542D01*
X145747368Y-85686542D02*
X145747368Y-85543685D01*
X145747368Y-85543685D02*
X145818796Y-85400828D01*
X145818796Y-85400828D02*
X145961654Y-85329400D01*
X145961654Y-85329400D02*
X146318796Y-85329400D01*
X146318796Y-85329400D02*
X146461654Y-85257971D01*
X148175939Y-84900828D02*
X148533082Y-85900828D01*
X148890225Y-84900828D02*
X148533082Y-85900828D01*
X148533082Y-85900828D02*
X148390225Y-86257971D01*
X148390225Y-86257971D02*
X148318796Y-86329400D01*
X148318796Y-86329400D02*
X148175939Y-86400828D01*
X150104511Y-85900828D02*
X150104511Y-85115114D01*
X150104511Y-85115114D02*
X150033082Y-84972257D01*
X150033082Y-84972257D02*
X149890225Y-84900828D01*
X149890225Y-84900828D02*
X149604511Y-84900828D01*
X149604511Y-84900828D02*
X149461653Y-84972257D01*
X150104511Y-85829400D02*
X149961653Y-85900828D01*
X149961653Y-85900828D02*
X149604511Y-85900828D01*
X149604511Y-85900828D02*
X149461653Y-85829400D01*
X149461653Y-85829400D02*
X149390225Y-85686542D01*
X149390225Y-85686542D02*
X149390225Y-85543685D01*
X149390225Y-85543685D02*
X149461653Y-85400828D01*
X149461653Y-85400828D02*
X149604511Y-85329400D01*
X149604511Y-85329400D02*
X149961653Y-85329400D01*
X149961653Y-85329400D02*
X150104511Y-85257971D01*
X150818796Y-85900828D02*
X150818796Y-84400828D01*
X151461654Y-85900828D02*
X151461654Y-85115114D01*
X151461654Y-85115114D02*
X151390225Y-84972257D01*
X151390225Y-84972257D02*
X151247368Y-84900828D01*
X151247368Y-84900828D02*
X151033082Y-84900828D01*
X151033082Y-84900828D02*
X150890225Y-84972257D01*
X150890225Y-84972257D02*
X150818796Y-85043685D01*
X152818797Y-85900828D02*
X152818797Y-85115114D01*
X152818797Y-85115114D02*
X152747368Y-84972257D01*
X152747368Y-84972257D02*
X152604511Y-84900828D01*
X152604511Y-84900828D02*
X152318797Y-84900828D01*
X152318797Y-84900828D02*
X152175939Y-84972257D01*
X152818797Y-85829400D02*
X152675939Y-85900828D01*
X152675939Y-85900828D02*
X152318797Y-85900828D01*
X152318797Y-85900828D02*
X152175939Y-85829400D01*
X152175939Y-85829400D02*
X152104511Y-85686542D01*
X152104511Y-85686542D02*
X152104511Y-85543685D01*
X152104511Y-85543685D02*
X152175939Y-85400828D01*
X152175939Y-85400828D02*
X152318797Y-85329400D01*
X152318797Y-85329400D02*
X152675939Y-85329400D01*
X152675939Y-85329400D02*
X152818797Y-85257971D01*
D11*
X141736339Y-47796451D02*
X142193482Y-47796451D01*
X142041101Y-47415499D02*
X141736339Y-48710737D01*
X142574435Y-47720261D02*
X142803006Y-48025023D01*
X142422054Y-48025023D02*
X142422054Y-48939309D01*
X142422054Y-48939309D02*
X142269673Y-49015499D01*
X142269673Y-49015499D02*
X142041101Y-48939309D01*
X142041101Y-48939309D02*
X142041101Y-48634547D01*
X142041101Y-48634547D02*
X142269673Y-48558356D01*
X142269673Y-48558356D02*
X142726816Y-48939309D01*
X143945863Y-47491690D02*
X143488720Y-49167880D01*
X143488720Y-49167880D02*
X143869672Y-48405975D01*
X143869672Y-48405975D02*
X144022053Y-48405975D01*
X144022053Y-48405975D02*
X144174434Y-49167880D01*
X144174434Y-49167880D02*
X144250625Y-49167880D01*
X144250625Y-49167880D02*
X144479196Y-48786928D01*
X145088719Y-47796451D02*
X146079196Y-47644070D01*
X146003005Y-47339309D02*
X146155386Y-47567880D01*
X146231577Y-47263118D02*
X146383958Y-47491690D01*
X145926815Y-47720261D02*
X145622053Y-47948832D01*
X145622053Y-47948832D02*
X145469672Y-48329785D01*
X145469672Y-48329785D02*
X145469672Y-48786928D01*
X145469672Y-48786928D02*
X145622053Y-49015499D01*
X145622053Y-49015499D02*
X145850624Y-49091690D01*
X147831576Y-47415499D02*
X147831576Y-47720261D01*
X147831576Y-47720261D02*
X147526814Y-47720261D01*
X147526814Y-47720261D02*
X147526814Y-48329785D01*
X147526814Y-48329785D02*
X147222052Y-48329785D01*
X147222052Y-48329785D02*
X147222052Y-47415499D01*
X147222052Y-47415499D02*
X147831576Y-47415499D01*
X148288718Y-48101213D02*
X150269671Y-48101213D01*
X148441099Y-47567880D02*
X150117290Y-47567880D01*
X148517290Y-47872642D02*
X150041099Y-47872642D01*
X148745861Y-49091690D02*
X149812528Y-49091690D01*
X148745861Y-48710737D02*
X149812528Y-48710737D01*
X148822052Y-48329785D02*
X148822052Y-49167880D01*
X148822052Y-48405975D02*
X149812528Y-48405975D01*
X149812528Y-48405975D02*
X149812528Y-49167880D01*
X149279195Y-47415499D02*
X148974433Y-48101213D01*
X148974433Y-48101213D02*
X148593480Y-48558356D01*
X148593480Y-48558356D02*
X148288718Y-48634547D01*
X149507766Y-47872642D02*
X149583957Y-48177404D01*
X149583957Y-48177404D02*
X149888718Y-48482166D01*
X149888718Y-48482166D02*
X150269671Y-48634547D01*
X150650623Y-49015499D02*
X152631576Y-49015499D01*
X150650623Y-48253594D02*
X152631576Y-48253594D01*
X150650623Y-47491690D02*
X150650623Y-49167880D01*
X150650623Y-47491690D02*
X152631576Y-47491690D01*
X152631576Y-47491690D02*
X152631576Y-49167880D01*
X153012528Y-48177404D02*
X154231576Y-48177404D01*
X153164909Y-47948832D02*
X154079195Y-47948832D01*
X153164909Y-47644070D02*
X154079195Y-47644070D01*
X153164909Y-47415499D02*
X153164909Y-47872642D01*
X153164909Y-48710737D02*
X154079195Y-48710737D01*
X153164909Y-48405975D02*
X153164909Y-48710737D01*
X153241100Y-48863118D02*
X153012528Y-49091690D01*
X153393481Y-49167880D02*
X153622052Y-49167880D01*
X153622052Y-47948832D02*
X153622052Y-48177404D01*
X153622052Y-48710737D02*
X153622052Y-49167880D01*
X153926814Y-48863118D02*
X154155386Y-49015499D01*
X153164909Y-47415499D02*
X154079195Y-47415499D01*
X154079195Y-47415499D02*
X154079195Y-47872642D01*
X153164909Y-48405975D02*
X154079195Y-48405975D01*
X154079195Y-48405975D02*
X154079195Y-48710737D01*
X154764909Y-47415499D02*
X154536338Y-47720261D01*
X154536338Y-47720261D02*
X154307767Y-47796451D01*
X154841100Y-47948832D02*
X154612528Y-48253594D01*
X154612528Y-48253594D02*
X154307767Y-48405975D01*
X154993481Y-48634547D02*
X154612528Y-48939309D01*
X154612528Y-48939309D02*
X154231576Y-49167880D01*
X155526814Y-49167880D02*
X155526814Y-48863118D01*
X155526814Y-48863118D02*
X155907767Y-48863118D01*
X155907767Y-48863118D02*
X155907767Y-48253594D01*
X155907767Y-48253594D02*
X156212529Y-48253594D01*
X156212529Y-48253594D02*
X156212529Y-49167880D01*
X156212529Y-49167880D02*
X155526814Y-49167880D01*
X141812530Y-50219980D02*
X142269673Y-51743790D01*
X142117292Y-50067600D02*
X142345863Y-50296171D01*
X141660149Y-50829504D02*
X142574435Y-50524742D01*
X142574435Y-50524742D02*
X142726816Y-50600933D01*
X142726816Y-50600933D02*
X142803006Y-50905695D01*
X142803006Y-50905695D02*
X142574435Y-51134266D01*
X142574435Y-51134266D02*
X142345863Y-51134266D01*
X143412529Y-50829504D02*
X144098244Y-50677123D01*
X144098244Y-50677123D02*
X144326815Y-50753314D01*
X144326815Y-50753314D02*
X144403006Y-51058076D01*
X144403006Y-51058076D02*
X144250625Y-51286647D01*
X144250625Y-51286647D02*
X143793482Y-51515219D01*
X145088719Y-50372361D02*
X145622053Y-50372361D01*
X145469672Y-49991409D02*
X145088719Y-51591409D01*
X145545862Y-50753314D02*
X146003005Y-50753314D01*
X145469672Y-51134266D02*
X145545862Y-51439028D01*
X145545862Y-51439028D02*
X145698243Y-51591409D01*
X145698243Y-51591409D02*
X146079196Y-51591409D01*
X147298243Y-50219980D02*
X146993481Y-51439028D01*
X146993481Y-51439028D02*
X146764909Y-51210457D01*
X146764909Y-51210457D02*
X146764909Y-50600933D01*
X146764909Y-50600933D02*
X146917290Y-50296171D01*
X146917290Y-50296171D02*
X147298243Y-50143790D01*
X147298243Y-50143790D02*
X147603005Y-50219980D01*
X147603005Y-50219980D02*
X147831576Y-50600933D01*
X147831576Y-50600933D02*
X147831576Y-51058076D01*
X147831576Y-51058076D02*
X147755386Y-51362838D01*
X147755386Y-51362838D02*
X147374433Y-51591409D01*
X148517290Y-51591409D02*
X148593480Y-51667600D01*
X148593480Y-51667600D02*
X148517290Y-51743790D01*
X148517290Y-51743790D02*
X148441099Y-51667600D01*
X148441099Y-51667600D02*
X148517290Y-51591409D01*
X148517290Y-51591409D02*
X148517290Y-51743790D01*
X148517290Y-51134266D02*
X148441099Y-50219980D01*
X148441099Y-50219980D02*
X148517290Y-50143790D01*
X148517290Y-50143790D02*
X148593480Y-50219980D01*
X148593480Y-50219980D02*
X148517290Y-51134266D01*
X148517290Y-51134266D02*
X148517290Y-50143790D01*
X149736338Y-51515219D02*
X149812528Y-51591409D01*
X149812528Y-51591409D02*
X149736338Y-51667600D01*
X149736338Y-51667600D02*
X149660147Y-51591409D01*
X149660147Y-51591409D02*
X149736338Y-51515219D01*
X149736338Y-51515219D02*
X149736338Y-51667600D01*
X149431576Y-50143790D02*
X149583957Y-50067600D01*
X149583957Y-50067600D02*
X149964909Y-50067600D01*
X149964909Y-50067600D02*
X150117290Y-50143790D01*
X150117290Y-50143790D02*
X150193481Y-50296171D01*
X150193481Y-50296171D02*
X150193481Y-50448552D01*
X150193481Y-50448552D02*
X150117290Y-50600933D01*
X150117290Y-50600933D02*
X150041100Y-50677123D01*
X150041100Y-50677123D02*
X149888719Y-50753314D01*
X149888719Y-50753314D02*
X149812528Y-50829504D01*
X149812528Y-50829504D02*
X149736338Y-50981885D01*
X149736338Y-50981885D02*
X149736338Y-51058076D01*
D12*
X167679587Y-83226081D02*
X167584174Y-83178374D01*
X167584174Y-83178374D02*
X167488761Y-83082962D01*
X167488761Y-83082962D02*
X167345642Y-82939842D01*
X167345642Y-82939842D02*
X167250229Y-82892136D01*
X167250229Y-82892136D02*
X167154816Y-82892136D01*
X167202522Y-83130668D02*
X167107110Y-83082962D01*
X167107110Y-83082962D02*
X167011697Y-82987549D01*
X167011697Y-82987549D02*
X166963990Y-82796723D01*
X166963990Y-82796723D02*
X166963990Y-82462778D01*
X166963990Y-82462778D02*
X167011697Y-82271952D01*
X167011697Y-82271952D02*
X167107110Y-82176539D01*
X167107110Y-82176539D02*
X167202522Y-82128833D01*
X167202522Y-82128833D02*
X167393348Y-82128833D01*
X167393348Y-82128833D02*
X167488761Y-82176539D01*
X167488761Y-82176539D02*
X167584174Y-82271952D01*
X167584174Y-82271952D02*
X167631880Y-82462778D01*
X167631880Y-82462778D02*
X167631880Y-82796723D01*
X167631880Y-82796723D02*
X167584174Y-82987549D01*
X167584174Y-82987549D02*
X167488761Y-83082962D01*
X167488761Y-83082962D02*
X167393348Y-83130668D01*
X167393348Y-83130668D02*
X167202522Y-83130668D01*
X168490596Y-82128833D02*
X168299770Y-82128833D01*
X168299770Y-82128833D02*
X168204357Y-82176539D01*
X168204357Y-82176539D02*
X168156651Y-82224246D01*
X168156651Y-82224246D02*
X168061238Y-82367365D01*
X168061238Y-82367365D02*
X168013531Y-82558191D01*
X168013531Y-82558191D02*
X168013531Y-82939842D01*
X168013531Y-82939842D02*
X168061238Y-83035255D01*
X168061238Y-83035255D02*
X168108944Y-83082962D01*
X168108944Y-83082962D02*
X168204357Y-83130668D01*
X168204357Y-83130668D02*
X168395183Y-83130668D01*
X168395183Y-83130668D02*
X168490596Y-83082962D01*
X168490596Y-83082962D02*
X168538302Y-83035255D01*
X168538302Y-83035255D02*
X168586008Y-82939842D01*
X168586008Y-82939842D02*
X168586008Y-82701310D01*
X168586008Y-82701310D02*
X168538302Y-82605897D01*
X168538302Y-82605897D02*
X168490596Y-82558191D01*
X168490596Y-82558191D02*
X168395183Y-82510484D01*
X168395183Y-82510484D02*
X168204357Y-82510484D01*
X168204357Y-82510484D02*
X168108944Y-82558191D01*
X168108944Y-82558191D02*
X168061238Y-82605897D01*
X168061238Y-82605897D02*
X168013531Y-82701310D01*
X183352319Y-54558333D02*
X184066604Y-54558333D01*
X184066604Y-54558333D02*
X184209461Y-54605952D01*
X184209461Y-54605952D02*
X184304700Y-54701190D01*
X184304700Y-54701190D02*
X184352319Y-54844047D01*
X184352319Y-54844047D02*
X184352319Y-54939285D01*
X183685652Y-53653571D02*
X184352319Y-53653571D01*
X183304700Y-53891666D02*
X184018985Y-54129761D01*
X184018985Y-54129761D02*
X184018985Y-53510714D01*
X69261905Y-84354819D02*
X69261905Y-83354819D01*
X69261905Y-83354819D02*
X69500000Y-83354819D01*
X69500000Y-83354819D02*
X69642857Y-83402438D01*
X69642857Y-83402438D02*
X69738095Y-83497676D01*
X69738095Y-83497676D02*
X69785714Y-83592914D01*
X69785714Y-83592914D02*
X69833333Y-83783390D01*
X69833333Y-83783390D02*
X69833333Y-83926247D01*
X69833333Y-83926247D02*
X69785714Y-84116723D01*
X69785714Y-84116723D02*
X69738095Y-84211961D01*
X69738095Y-84211961D02*
X69642857Y-84307200D01*
X69642857Y-84307200D02*
X69500000Y-84354819D01*
X69500000Y-84354819D02*
X69261905Y-84354819D01*
X70166667Y-83354819D02*
X70785714Y-83354819D01*
X70785714Y-83354819D02*
X70452381Y-83735771D01*
X70452381Y-83735771D02*
X70595238Y-83735771D01*
X70595238Y-83735771D02*
X70690476Y-83783390D01*
X70690476Y-83783390D02*
X70738095Y-83831009D01*
X70738095Y-83831009D02*
X70785714Y-83926247D01*
X70785714Y-83926247D02*
X70785714Y-84164342D01*
X70785714Y-84164342D02*
X70738095Y-84259580D01*
X70738095Y-84259580D02*
X70690476Y-84307200D01*
X70690476Y-84307200D02*
X70595238Y-84354819D01*
X70595238Y-84354819D02*
X70309524Y-84354819D01*
X70309524Y-84354819D02*
X70214286Y-84307200D01*
X70214286Y-84307200D02*
X70166667Y-84259580D01*
X89834580Y-67091666D02*
X89882200Y-67139285D01*
X89882200Y-67139285D02*
X89929819Y-67282142D01*
X89929819Y-67282142D02*
X89929819Y-67377380D01*
X89929819Y-67377380D02*
X89882200Y-67520237D01*
X89882200Y-67520237D02*
X89786961Y-67615475D01*
X89786961Y-67615475D02*
X89691723Y-67663094D01*
X89691723Y-67663094D02*
X89501247Y-67710713D01*
X89501247Y-67710713D02*
X89358390Y-67710713D01*
X89358390Y-67710713D02*
X89167914Y-67663094D01*
X89167914Y-67663094D02*
X89072676Y-67615475D01*
X89072676Y-67615475D02*
X88977438Y-67520237D01*
X88977438Y-67520237D02*
X88929819Y-67377380D01*
X88929819Y-67377380D02*
X88929819Y-67282142D01*
X88929819Y-67282142D02*
X88977438Y-67139285D01*
X88977438Y-67139285D02*
X89025057Y-67091666D01*
X89929819Y-66139285D02*
X89929819Y-66710713D01*
X89929819Y-66424999D02*
X88929819Y-66424999D01*
X88929819Y-66424999D02*
X89072676Y-66520237D01*
X89072676Y-66520237D02*
X89167914Y-66615475D01*
X89167914Y-66615475D02*
X89215533Y-66710713D01*
X107083333Y-90154819D02*
X106750000Y-89678628D01*
X106511905Y-90154819D02*
X106511905Y-89154819D01*
X106511905Y-89154819D02*
X106892857Y-89154819D01*
X106892857Y-89154819D02*
X106988095Y-89202438D01*
X106988095Y-89202438D02*
X107035714Y-89250057D01*
X107035714Y-89250057D02*
X107083333Y-89345295D01*
X107083333Y-89345295D02*
X107083333Y-89488152D01*
X107083333Y-89488152D02*
X107035714Y-89583390D01*
X107035714Y-89583390D02*
X106988095Y-89631009D01*
X106988095Y-89631009D02*
X106892857Y-89678628D01*
X106892857Y-89678628D02*
X106511905Y-89678628D01*
X107416667Y-89154819D02*
X108035714Y-89154819D01*
X108035714Y-89154819D02*
X107702381Y-89535771D01*
X107702381Y-89535771D02*
X107845238Y-89535771D01*
X107845238Y-89535771D02*
X107940476Y-89583390D01*
X107940476Y-89583390D02*
X107988095Y-89631009D01*
X107988095Y-89631009D02*
X108035714Y-89726247D01*
X108035714Y-89726247D02*
X108035714Y-89964342D01*
X108035714Y-89964342D02*
X107988095Y-90059580D01*
X107988095Y-90059580D02*
X107940476Y-90107200D01*
X107940476Y-90107200D02*
X107845238Y-90154819D01*
X107845238Y-90154819D02*
X107559524Y-90154819D01*
X107559524Y-90154819D02*
X107464286Y-90107200D01*
X107464286Y-90107200D02*
X107416667Y-90059580D01*
X81604587Y-84001081D02*
X81509174Y-83953374D01*
X81509174Y-83953374D02*
X81413761Y-83857962D01*
X81413761Y-83857962D02*
X81270642Y-83714842D01*
X81270642Y-83714842D02*
X81175229Y-83667136D01*
X81175229Y-83667136D02*
X81079816Y-83667136D01*
X81127522Y-83905668D02*
X81032110Y-83857962D01*
X81032110Y-83857962D02*
X80936697Y-83762549D01*
X80936697Y-83762549D02*
X80888990Y-83571723D01*
X80888990Y-83571723D02*
X80888990Y-83237778D01*
X80888990Y-83237778D02*
X80936697Y-83046952D01*
X80936697Y-83046952D02*
X81032110Y-82951539D01*
X81032110Y-82951539D02*
X81127522Y-82903833D01*
X81127522Y-82903833D02*
X81318348Y-82903833D01*
X81318348Y-82903833D02*
X81413761Y-82951539D01*
X81413761Y-82951539D02*
X81509174Y-83046952D01*
X81509174Y-83046952D02*
X81556880Y-83237778D01*
X81556880Y-83237778D02*
X81556880Y-83571723D01*
X81556880Y-83571723D02*
X81509174Y-83762549D01*
X81509174Y-83762549D02*
X81413761Y-83857962D01*
X81413761Y-83857962D02*
X81318348Y-83905668D01*
X81318348Y-83905668D02*
X81127522Y-83905668D01*
X81890825Y-82903833D02*
X82511008Y-82903833D01*
X82511008Y-82903833D02*
X82177063Y-83285484D01*
X82177063Y-83285484D02*
X82320183Y-83285484D01*
X82320183Y-83285484D02*
X82415596Y-83333191D01*
X82415596Y-83333191D02*
X82463302Y-83380897D01*
X82463302Y-83380897D02*
X82511008Y-83476310D01*
X82511008Y-83476310D02*
X82511008Y-83714842D01*
X82511008Y-83714842D02*
X82463302Y-83810255D01*
X82463302Y-83810255D02*
X82415596Y-83857962D01*
X82415596Y-83857962D02*
X82320183Y-83905668D01*
X82320183Y-83905668D02*
X82033944Y-83905668D01*
X82033944Y-83905668D02*
X81938531Y-83857962D01*
X81938531Y-83857962D02*
X81890825Y-83810255D01*
X166932142Y-92029819D02*
X166598809Y-91553628D01*
X166360714Y-92029819D02*
X166360714Y-91029819D01*
X166360714Y-91029819D02*
X166741666Y-91029819D01*
X166741666Y-91029819D02*
X166836904Y-91077438D01*
X166836904Y-91077438D02*
X166884523Y-91125057D01*
X166884523Y-91125057D02*
X166932142Y-91220295D01*
X166932142Y-91220295D02*
X166932142Y-91363152D01*
X166932142Y-91363152D02*
X166884523Y-91458390D01*
X166884523Y-91458390D02*
X166836904Y-91506009D01*
X166836904Y-91506009D02*
X166741666Y-91553628D01*
X166741666Y-91553628D02*
X166360714Y-91553628D01*
X167884523Y-92029819D02*
X167313095Y-92029819D01*
X167598809Y-92029819D02*
X167598809Y-91029819D01*
X167598809Y-91029819D02*
X167503571Y-91172676D01*
X167503571Y-91172676D02*
X167408333Y-91267914D01*
X167408333Y-91267914D02*
X167313095Y-91315533D01*
X168265476Y-91125057D02*
X168313095Y-91077438D01*
X168313095Y-91077438D02*
X168408333Y-91029819D01*
X168408333Y-91029819D02*
X168646428Y-91029819D01*
X168646428Y-91029819D02*
X168741666Y-91077438D01*
X168741666Y-91077438D02*
X168789285Y-91125057D01*
X168789285Y-91125057D02*
X168836904Y-91220295D01*
X168836904Y-91220295D02*
X168836904Y-91315533D01*
X168836904Y-91315533D02*
X168789285Y-91458390D01*
X168789285Y-91458390D02*
X168217857Y-92029819D01*
X168217857Y-92029819D02*
X168836904Y-92029819D01*
X183352319Y-87583333D02*
X184066604Y-87583333D01*
X184066604Y-87583333D02*
X184209461Y-87630952D01*
X184209461Y-87630952D02*
X184304700Y-87726190D01*
X184304700Y-87726190D02*
X184352319Y-87869047D01*
X184352319Y-87869047D02*
X184352319Y-87964285D01*
X183352319Y-86678571D02*
X183352319Y-86869047D01*
X183352319Y-86869047D02*
X183399938Y-86964285D01*
X183399938Y-86964285D02*
X183447557Y-87011904D01*
X183447557Y-87011904D02*
X183590414Y-87107142D01*
X183590414Y-87107142D02*
X183780890Y-87154761D01*
X183780890Y-87154761D02*
X184161842Y-87154761D01*
X184161842Y-87154761D02*
X184257080Y-87107142D01*
X184257080Y-87107142D02*
X184304700Y-87059523D01*
X184304700Y-87059523D02*
X184352319Y-86964285D01*
X184352319Y-86964285D02*
X184352319Y-86773809D01*
X184352319Y-86773809D02*
X184304700Y-86678571D01*
X184304700Y-86678571D02*
X184257080Y-86630952D01*
X184257080Y-86630952D02*
X184161842Y-86583333D01*
X184161842Y-86583333D02*
X183923747Y-86583333D01*
X183923747Y-86583333D02*
X183828509Y-86630952D01*
X183828509Y-86630952D02*
X183780890Y-86678571D01*
X183780890Y-86678571D02*
X183733271Y-86773809D01*
X183733271Y-86773809D02*
X183733271Y-86964285D01*
X183733271Y-86964285D02*
X183780890Y-87059523D01*
X183780890Y-87059523D02*
X183828509Y-87107142D01*
X183828509Y-87107142D02*
X183923747Y-87154761D01*
X81879587Y-49976081D02*
X81784174Y-49928374D01*
X81784174Y-49928374D02*
X81688761Y-49832962D01*
X81688761Y-49832962D02*
X81545642Y-49689842D01*
X81545642Y-49689842D02*
X81450229Y-49642136D01*
X81450229Y-49642136D02*
X81354816Y-49642136D01*
X81402522Y-49880668D02*
X81307110Y-49832962D01*
X81307110Y-49832962D02*
X81211697Y-49737549D01*
X81211697Y-49737549D02*
X81163990Y-49546723D01*
X81163990Y-49546723D02*
X81163990Y-49212778D01*
X81163990Y-49212778D02*
X81211697Y-49021952D01*
X81211697Y-49021952D02*
X81307110Y-48926539D01*
X81307110Y-48926539D02*
X81402522Y-48878833D01*
X81402522Y-48878833D02*
X81593348Y-48878833D01*
X81593348Y-48878833D02*
X81688761Y-48926539D01*
X81688761Y-48926539D02*
X81784174Y-49021952D01*
X81784174Y-49021952D02*
X81831880Y-49212778D01*
X81831880Y-49212778D02*
X81831880Y-49546723D01*
X81831880Y-49546723D02*
X81784174Y-49737549D01*
X81784174Y-49737549D02*
X81688761Y-49832962D01*
X81688761Y-49832962D02*
X81593348Y-49880668D01*
X81593348Y-49880668D02*
X81402522Y-49880668D01*
X82786008Y-49880668D02*
X82213531Y-49880668D01*
X82499770Y-49880668D02*
X82499770Y-48878833D01*
X82499770Y-48878833D02*
X82404357Y-49021952D01*
X82404357Y-49021952D02*
X82308944Y-49117365D01*
X82308944Y-49117365D02*
X82213531Y-49165072D01*
X63532319Y-71183333D02*
X64246604Y-71183333D01*
X64246604Y-71183333D02*
X64389461Y-71230952D01*
X64389461Y-71230952D02*
X64484700Y-71326190D01*
X64484700Y-71326190D02*
X64532319Y-71469047D01*
X64532319Y-71469047D02*
X64532319Y-71564285D01*
X63627557Y-70754761D02*
X63579938Y-70707142D01*
X63579938Y-70707142D02*
X63532319Y-70611904D01*
X63532319Y-70611904D02*
X63532319Y-70373809D01*
X63532319Y-70373809D02*
X63579938Y-70278571D01*
X63579938Y-70278571D02*
X63627557Y-70230952D01*
X63627557Y-70230952D02*
X63722795Y-70183333D01*
X63722795Y-70183333D02*
X63818033Y-70183333D01*
X63818033Y-70183333D02*
X63960890Y-70230952D01*
X63960890Y-70230952D02*
X64532319Y-70802380D01*
X64532319Y-70802380D02*
X64532319Y-70183333D01*
X107083333Y-95079819D02*
X106750000Y-94603628D01*
X106511905Y-95079819D02*
X106511905Y-94079819D01*
X106511905Y-94079819D02*
X106892857Y-94079819D01*
X106892857Y-94079819D02*
X106988095Y-94127438D01*
X106988095Y-94127438D02*
X107035714Y-94175057D01*
X107035714Y-94175057D02*
X107083333Y-94270295D01*
X107083333Y-94270295D02*
X107083333Y-94413152D01*
X107083333Y-94413152D02*
X107035714Y-94508390D01*
X107035714Y-94508390D02*
X106988095Y-94556009D01*
X106988095Y-94556009D02*
X106892857Y-94603628D01*
X106892857Y-94603628D02*
X106511905Y-94603628D01*
X107464286Y-94175057D02*
X107511905Y-94127438D01*
X107511905Y-94127438D02*
X107607143Y-94079819D01*
X107607143Y-94079819D02*
X107845238Y-94079819D01*
X107845238Y-94079819D02*
X107940476Y-94127438D01*
X107940476Y-94127438D02*
X107988095Y-94175057D01*
X107988095Y-94175057D02*
X108035714Y-94270295D01*
X108035714Y-94270295D02*
X108035714Y-94365533D01*
X108035714Y-94365533D02*
X107988095Y-94508390D01*
X107988095Y-94508390D02*
X107416667Y-95079819D01*
X107416667Y-95079819D02*
X108035714Y-95079819D01*
X63532319Y-88383333D02*
X64246604Y-88383333D01*
X64246604Y-88383333D02*
X64389461Y-88430952D01*
X64389461Y-88430952D02*
X64484700Y-88526190D01*
X64484700Y-88526190D02*
X64532319Y-88669047D01*
X64532319Y-88669047D02*
X64532319Y-88764285D01*
X63532319Y-88002380D02*
X63532319Y-87383333D01*
X63532319Y-87383333D02*
X63913271Y-87716666D01*
X63913271Y-87716666D02*
X63913271Y-87573809D01*
X63913271Y-87573809D02*
X63960890Y-87478571D01*
X63960890Y-87478571D02*
X64008509Y-87430952D01*
X64008509Y-87430952D02*
X64103747Y-87383333D01*
X64103747Y-87383333D02*
X64341842Y-87383333D01*
X64341842Y-87383333D02*
X64437080Y-87430952D01*
X64437080Y-87430952D02*
X64484700Y-87478571D01*
X64484700Y-87478571D02*
X64532319Y-87573809D01*
X64532319Y-87573809D02*
X64532319Y-87859523D01*
X64532319Y-87859523D02*
X64484700Y-87954761D01*
X64484700Y-87954761D02*
X64437080Y-88002380D01*
X82833333Y-92804819D02*
X82500000Y-92328628D01*
X82261905Y-92804819D02*
X82261905Y-91804819D01*
X82261905Y-91804819D02*
X82642857Y-91804819D01*
X82642857Y-91804819D02*
X82738095Y-91852438D01*
X82738095Y-91852438D02*
X82785714Y-91900057D01*
X82785714Y-91900057D02*
X82833333Y-91995295D01*
X82833333Y-91995295D02*
X82833333Y-92138152D01*
X82833333Y-92138152D02*
X82785714Y-92233390D01*
X82785714Y-92233390D02*
X82738095Y-92281009D01*
X82738095Y-92281009D02*
X82642857Y-92328628D01*
X82642857Y-92328628D02*
X82261905Y-92328628D01*
X83166667Y-91804819D02*
X83833333Y-91804819D01*
X83833333Y-91804819D02*
X83404762Y-92804819D01*
X82833333Y-75804819D02*
X82500000Y-75328628D01*
X82261905Y-75804819D02*
X82261905Y-74804819D01*
X82261905Y-74804819D02*
X82642857Y-74804819D01*
X82642857Y-74804819D02*
X82738095Y-74852438D01*
X82738095Y-74852438D02*
X82785714Y-74900057D01*
X82785714Y-74900057D02*
X82833333Y-74995295D01*
X82833333Y-74995295D02*
X82833333Y-75138152D01*
X82833333Y-75138152D02*
X82785714Y-75233390D01*
X82785714Y-75233390D02*
X82738095Y-75281009D01*
X82738095Y-75281009D02*
X82642857Y-75328628D01*
X82642857Y-75328628D02*
X82261905Y-75328628D01*
X83404762Y-75233390D02*
X83309524Y-75185771D01*
X83309524Y-75185771D02*
X83261905Y-75138152D01*
X83261905Y-75138152D02*
X83214286Y-75042914D01*
X83214286Y-75042914D02*
X83214286Y-74995295D01*
X83214286Y-74995295D02*
X83261905Y-74900057D01*
X83261905Y-74900057D02*
X83309524Y-74852438D01*
X83309524Y-74852438D02*
X83404762Y-74804819D01*
X83404762Y-74804819D02*
X83595238Y-74804819D01*
X83595238Y-74804819D02*
X83690476Y-74852438D01*
X83690476Y-74852438D02*
X83738095Y-74900057D01*
X83738095Y-74900057D02*
X83785714Y-74995295D01*
X83785714Y-74995295D02*
X83785714Y-75042914D01*
X83785714Y-75042914D02*
X83738095Y-75138152D01*
X83738095Y-75138152D02*
X83690476Y-75185771D01*
X83690476Y-75185771D02*
X83595238Y-75233390D01*
X83595238Y-75233390D02*
X83404762Y-75233390D01*
X83404762Y-75233390D02*
X83309524Y-75281009D01*
X83309524Y-75281009D02*
X83261905Y-75328628D01*
X83261905Y-75328628D02*
X83214286Y-75423866D01*
X83214286Y-75423866D02*
X83214286Y-75614342D01*
X83214286Y-75614342D02*
X83261905Y-75709580D01*
X83261905Y-75709580D02*
X83309524Y-75757200D01*
X83309524Y-75757200D02*
X83404762Y-75804819D01*
X83404762Y-75804819D02*
X83595238Y-75804819D01*
X83595238Y-75804819D02*
X83690476Y-75757200D01*
X83690476Y-75757200D02*
X83738095Y-75709580D01*
X83738095Y-75709580D02*
X83785714Y-75614342D01*
X83785714Y-75614342D02*
X83785714Y-75423866D01*
X83785714Y-75423866D02*
X83738095Y-75328628D01*
X83738095Y-75328628D02*
X83690476Y-75281009D01*
X83690476Y-75281009D02*
X83595238Y-75233390D01*
X150268095Y-68289819D02*
X150268095Y-69099342D01*
X150268095Y-69099342D02*
X150315714Y-69194580D01*
X150315714Y-69194580D02*
X150363333Y-69242200D01*
X150363333Y-69242200D02*
X150458571Y-69289819D01*
X150458571Y-69289819D02*
X150649047Y-69289819D01*
X150649047Y-69289819D02*
X150744285Y-69242200D01*
X150744285Y-69242200D02*
X150791904Y-69194580D01*
X150791904Y-69194580D02*
X150839523Y-69099342D01*
X150839523Y-69099342D02*
X150839523Y-68289819D01*
X151220476Y-68289819D02*
X151839523Y-68289819D01*
X151839523Y-68289819D02*
X151506190Y-68670771D01*
X151506190Y-68670771D02*
X151649047Y-68670771D01*
X151649047Y-68670771D02*
X151744285Y-68718390D01*
X151744285Y-68718390D02*
X151791904Y-68766009D01*
X151791904Y-68766009D02*
X151839523Y-68861247D01*
X151839523Y-68861247D02*
X151839523Y-69099342D01*
X151839523Y-69099342D02*
X151791904Y-69194580D01*
X151791904Y-69194580D02*
X151744285Y-69242200D01*
X151744285Y-69242200D02*
X151649047Y-69289819D01*
X151649047Y-69289819D02*
X151363333Y-69289819D01*
X151363333Y-69289819D02*
X151268095Y-69242200D01*
X151268095Y-69242200D02*
X151220476Y-69194580D01*
X80929587Y-67026081D02*
X80834174Y-66978374D01*
X80834174Y-66978374D02*
X80738761Y-66882962D01*
X80738761Y-66882962D02*
X80595642Y-66739842D01*
X80595642Y-66739842D02*
X80500229Y-66692136D01*
X80500229Y-66692136D02*
X80404816Y-66692136D01*
X80452522Y-66930668D02*
X80357110Y-66882962D01*
X80357110Y-66882962D02*
X80261697Y-66787549D01*
X80261697Y-66787549D02*
X80213990Y-66596723D01*
X80213990Y-66596723D02*
X80213990Y-66262778D01*
X80213990Y-66262778D02*
X80261697Y-66071952D01*
X80261697Y-66071952D02*
X80357110Y-65976539D01*
X80357110Y-65976539D02*
X80452522Y-65928833D01*
X80452522Y-65928833D02*
X80643348Y-65928833D01*
X80643348Y-65928833D02*
X80738761Y-65976539D01*
X80738761Y-65976539D02*
X80834174Y-66071952D01*
X80834174Y-66071952D02*
X80881880Y-66262778D01*
X80881880Y-66262778D02*
X80881880Y-66596723D01*
X80881880Y-66596723D02*
X80834174Y-66787549D01*
X80834174Y-66787549D02*
X80738761Y-66882962D01*
X80738761Y-66882962D02*
X80643348Y-66930668D01*
X80643348Y-66930668D02*
X80452522Y-66930668D01*
X81263531Y-66024246D02*
X81311238Y-65976539D01*
X81311238Y-65976539D02*
X81406651Y-65928833D01*
X81406651Y-65928833D02*
X81645183Y-65928833D01*
X81645183Y-65928833D02*
X81740596Y-65976539D01*
X81740596Y-65976539D02*
X81788302Y-66024246D01*
X81788302Y-66024246D02*
X81836008Y-66119659D01*
X81836008Y-66119659D02*
X81836008Y-66215072D01*
X81836008Y-66215072D02*
X81788302Y-66358191D01*
X81788302Y-66358191D02*
X81215825Y-66930668D01*
X81215825Y-66930668D02*
X81836008Y-66930668D01*
X177761905Y-66229819D02*
X177761905Y-65229819D01*
X177761905Y-65229819D02*
X178000000Y-65229819D01*
X178000000Y-65229819D02*
X178142857Y-65277438D01*
X178142857Y-65277438D02*
X178238095Y-65372676D01*
X178238095Y-65372676D02*
X178285714Y-65467914D01*
X178285714Y-65467914D02*
X178333333Y-65658390D01*
X178333333Y-65658390D02*
X178333333Y-65801247D01*
X178333333Y-65801247D02*
X178285714Y-65991723D01*
X178285714Y-65991723D02*
X178238095Y-66086961D01*
X178238095Y-66086961D02*
X178142857Y-66182200D01*
X178142857Y-66182200D02*
X178000000Y-66229819D01*
X178000000Y-66229819D02*
X177761905Y-66229819D01*
X179238095Y-65229819D02*
X178761905Y-65229819D01*
X178761905Y-65229819D02*
X178714286Y-65706009D01*
X178714286Y-65706009D02*
X178761905Y-65658390D01*
X178761905Y-65658390D02*
X178857143Y-65610771D01*
X178857143Y-65610771D02*
X179095238Y-65610771D01*
X179095238Y-65610771D02*
X179190476Y-65658390D01*
X179190476Y-65658390D02*
X179238095Y-65706009D01*
X179238095Y-65706009D02*
X179285714Y-65801247D01*
X179285714Y-65801247D02*
X179285714Y-66039342D01*
X179285714Y-66039342D02*
X179238095Y-66134580D01*
X179238095Y-66134580D02*
X179190476Y-66182200D01*
X179190476Y-66182200D02*
X179095238Y-66229819D01*
X179095238Y-66229819D02*
X178857143Y-66229819D01*
X178857143Y-66229819D02*
X178761905Y-66182200D01*
X178761905Y-66182200D02*
X178714286Y-66134580D01*
X167504587Y-66876081D02*
X167409174Y-66828374D01*
X167409174Y-66828374D02*
X167313761Y-66732962D01*
X167313761Y-66732962D02*
X167170642Y-66589842D01*
X167170642Y-66589842D02*
X167075229Y-66542136D01*
X167075229Y-66542136D02*
X166979816Y-66542136D01*
X167027522Y-66780668D02*
X166932110Y-66732962D01*
X166932110Y-66732962D02*
X166836697Y-66637549D01*
X166836697Y-66637549D02*
X166788990Y-66446723D01*
X166788990Y-66446723D02*
X166788990Y-66112778D01*
X166788990Y-66112778D02*
X166836697Y-65921952D01*
X166836697Y-65921952D02*
X166932110Y-65826539D01*
X166932110Y-65826539D02*
X167027522Y-65778833D01*
X167027522Y-65778833D02*
X167218348Y-65778833D01*
X167218348Y-65778833D02*
X167313761Y-65826539D01*
X167313761Y-65826539D02*
X167409174Y-65921952D01*
X167409174Y-65921952D02*
X167456880Y-66112778D01*
X167456880Y-66112778D02*
X167456880Y-66446723D01*
X167456880Y-66446723D02*
X167409174Y-66637549D01*
X167409174Y-66637549D02*
X167313761Y-66732962D01*
X167313761Y-66732962D02*
X167218348Y-66780668D01*
X167218348Y-66780668D02*
X167027522Y-66780668D01*
X168363302Y-65778833D02*
X167886238Y-65778833D01*
X167886238Y-65778833D02*
X167838531Y-66255897D01*
X167838531Y-66255897D02*
X167886238Y-66208191D01*
X167886238Y-66208191D02*
X167981651Y-66160484D01*
X167981651Y-66160484D02*
X168220183Y-66160484D01*
X168220183Y-66160484D02*
X168315596Y-66208191D01*
X168315596Y-66208191D02*
X168363302Y-66255897D01*
X168363302Y-66255897D02*
X168411008Y-66351310D01*
X168411008Y-66351310D02*
X168411008Y-66589842D01*
X168411008Y-66589842D02*
X168363302Y-66685255D01*
X168363302Y-66685255D02*
X168315596Y-66732962D01*
X168315596Y-66732962D02*
X168220183Y-66780668D01*
X168220183Y-66780668D02*
X167981651Y-66780668D01*
X167981651Y-66780668D02*
X167886238Y-66732962D01*
X167886238Y-66732962D02*
X167838531Y-66685255D01*
X107083333Y-85354819D02*
X106750000Y-84878628D01*
X106511905Y-85354819D02*
X106511905Y-84354819D01*
X106511905Y-84354819D02*
X106892857Y-84354819D01*
X106892857Y-84354819D02*
X106988095Y-84402438D01*
X106988095Y-84402438D02*
X107035714Y-84450057D01*
X107035714Y-84450057D02*
X107083333Y-84545295D01*
X107083333Y-84545295D02*
X107083333Y-84688152D01*
X107083333Y-84688152D02*
X107035714Y-84783390D01*
X107035714Y-84783390D02*
X106988095Y-84831009D01*
X106988095Y-84831009D02*
X106892857Y-84878628D01*
X106892857Y-84878628D02*
X106511905Y-84878628D01*
X107940476Y-84688152D02*
X107940476Y-85354819D01*
X107702381Y-84307200D02*
X107464286Y-85021485D01*
X107464286Y-85021485D02*
X108083333Y-85021485D01*
X142929333Y-69969819D02*
X142596000Y-69493628D01*
X142357905Y-69969819D02*
X142357905Y-68969819D01*
X142357905Y-68969819D02*
X142738857Y-68969819D01*
X142738857Y-68969819D02*
X142834095Y-69017438D01*
X142834095Y-69017438D02*
X142881714Y-69065057D01*
X142881714Y-69065057D02*
X142929333Y-69160295D01*
X142929333Y-69160295D02*
X142929333Y-69303152D01*
X142929333Y-69303152D02*
X142881714Y-69398390D01*
X142881714Y-69398390D02*
X142834095Y-69446009D01*
X142834095Y-69446009D02*
X142738857Y-69493628D01*
X142738857Y-69493628D02*
X142357905Y-69493628D01*
X143834095Y-68969819D02*
X143357905Y-68969819D01*
X143357905Y-68969819D02*
X143310286Y-69446009D01*
X143310286Y-69446009D02*
X143357905Y-69398390D01*
X143357905Y-69398390D02*
X143453143Y-69350771D01*
X143453143Y-69350771D02*
X143691238Y-69350771D01*
X143691238Y-69350771D02*
X143786476Y-69398390D01*
X143786476Y-69398390D02*
X143834095Y-69446009D01*
X143834095Y-69446009D02*
X143881714Y-69541247D01*
X143881714Y-69541247D02*
X143881714Y-69779342D01*
X143881714Y-69779342D02*
X143834095Y-69874580D01*
X143834095Y-69874580D02*
X143786476Y-69922200D01*
X143786476Y-69922200D02*
X143691238Y-69969819D01*
X143691238Y-69969819D02*
X143453143Y-69969819D01*
X143453143Y-69969819D02*
X143357905Y-69922200D01*
X143357905Y-69922200D02*
X143310286Y-69874580D01*
X167522142Y-58979819D02*
X167188809Y-58503628D01*
X166950714Y-58979819D02*
X166950714Y-57979819D01*
X166950714Y-57979819D02*
X167331666Y-57979819D01*
X167331666Y-57979819D02*
X167426904Y-58027438D01*
X167426904Y-58027438D02*
X167474523Y-58075057D01*
X167474523Y-58075057D02*
X167522142Y-58170295D01*
X167522142Y-58170295D02*
X167522142Y-58313152D01*
X167522142Y-58313152D02*
X167474523Y-58408390D01*
X167474523Y-58408390D02*
X167426904Y-58456009D01*
X167426904Y-58456009D02*
X167331666Y-58503628D01*
X167331666Y-58503628D02*
X166950714Y-58503628D01*
X168474523Y-58979819D02*
X167903095Y-58979819D01*
X168188809Y-58979819D02*
X168188809Y-57979819D01*
X168188809Y-57979819D02*
X168093571Y-58122676D01*
X168093571Y-58122676D02*
X167998333Y-58217914D01*
X167998333Y-58217914D02*
X167903095Y-58265533D01*
X169093571Y-57979819D02*
X169188809Y-57979819D01*
X169188809Y-57979819D02*
X169284047Y-58027438D01*
X169284047Y-58027438D02*
X169331666Y-58075057D01*
X169331666Y-58075057D02*
X169379285Y-58170295D01*
X169379285Y-58170295D02*
X169426904Y-58360771D01*
X169426904Y-58360771D02*
X169426904Y-58598866D01*
X169426904Y-58598866D02*
X169379285Y-58789342D01*
X169379285Y-58789342D02*
X169331666Y-58884580D01*
X169331666Y-58884580D02*
X169284047Y-58932200D01*
X169284047Y-58932200D02*
X169188809Y-58979819D01*
X169188809Y-58979819D02*
X169093571Y-58979819D01*
X169093571Y-58979819D02*
X168998333Y-58932200D01*
X168998333Y-58932200D02*
X168950714Y-58884580D01*
X168950714Y-58884580D02*
X168903095Y-58789342D01*
X168903095Y-58789342D02*
X168855476Y-58598866D01*
X168855476Y-58598866D02*
X168855476Y-58360771D01*
X168855476Y-58360771D02*
X168903095Y-58170295D01*
X168903095Y-58170295D02*
X168950714Y-58075057D01*
X168950714Y-58075057D02*
X168998333Y-58027438D01*
X168998333Y-58027438D02*
X169093571Y-57979819D01*
X143054333Y-74934819D02*
X142721000Y-74458628D01*
X142482905Y-74934819D02*
X142482905Y-73934819D01*
X142482905Y-73934819D02*
X142863857Y-73934819D01*
X142863857Y-73934819D02*
X142959095Y-73982438D01*
X142959095Y-73982438D02*
X143006714Y-74030057D01*
X143006714Y-74030057D02*
X143054333Y-74125295D01*
X143054333Y-74125295D02*
X143054333Y-74268152D01*
X143054333Y-74268152D02*
X143006714Y-74363390D01*
X143006714Y-74363390D02*
X142959095Y-74411009D01*
X142959095Y-74411009D02*
X142863857Y-74458628D01*
X142863857Y-74458628D02*
X142482905Y-74458628D01*
X143911476Y-73934819D02*
X143721000Y-73934819D01*
X143721000Y-73934819D02*
X143625762Y-73982438D01*
X143625762Y-73982438D02*
X143578143Y-74030057D01*
X143578143Y-74030057D02*
X143482905Y-74172914D01*
X143482905Y-74172914D02*
X143435286Y-74363390D01*
X143435286Y-74363390D02*
X143435286Y-74744342D01*
X143435286Y-74744342D02*
X143482905Y-74839580D01*
X143482905Y-74839580D02*
X143530524Y-74887200D01*
X143530524Y-74887200D02*
X143625762Y-74934819D01*
X143625762Y-74934819D02*
X143816238Y-74934819D01*
X143816238Y-74934819D02*
X143911476Y-74887200D01*
X143911476Y-74887200D02*
X143959095Y-74839580D01*
X143959095Y-74839580D02*
X144006714Y-74744342D01*
X144006714Y-74744342D02*
X144006714Y-74506247D01*
X144006714Y-74506247D02*
X143959095Y-74411009D01*
X143959095Y-74411009D02*
X143911476Y-74363390D01*
X143911476Y-74363390D02*
X143816238Y-74315771D01*
X143816238Y-74315771D02*
X143625762Y-74315771D01*
X143625762Y-74315771D02*
X143530524Y-74363390D01*
X143530524Y-74363390D02*
X143482905Y-74411009D01*
X143482905Y-74411009D02*
X143435286Y-74506247D01*
X98688095Y-96579819D02*
X98688095Y-97389342D01*
X98688095Y-97389342D02*
X98735714Y-97484580D01*
X98735714Y-97484580D02*
X98783333Y-97532200D01*
X98783333Y-97532200D02*
X98878571Y-97579819D01*
X98878571Y-97579819D02*
X99069047Y-97579819D01*
X99069047Y-97579819D02*
X99164285Y-97532200D01*
X99164285Y-97532200D02*
X99211904Y-97484580D01*
X99211904Y-97484580D02*
X99259523Y-97389342D01*
X99259523Y-97389342D02*
X99259523Y-96579819D01*
X99688095Y-96675057D02*
X99735714Y-96627438D01*
X99735714Y-96627438D02*
X99830952Y-96579819D01*
X99830952Y-96579819D02*
X100069047Y-96579819D01*
X100069047Y-96579819D02*
X100164285Y-96627438D01*
X100164285Y-96627438D02*
X100211904Y-96675057D01*
X100211904Y-96675057D02*
X100259523Y-96770295D01*
X100259523Y-96770295D02*
X100259523Y-96865533D01*
X100259523Y-96865533D02*
X100211904Y-97008390D01*
X100211904Y-97008390D02*
X99640476Y-97579819D01*
X99640476Y-97579819D02*
X100259523Y-97579819D01*
X183352319Y-71183333D02*
X184066604Y-71183333D01*
X184066604Y-71183333D02*
X184209461Y-71230952D01*
X184209461Y-71230952D02*
X184304700Y-71326190D01*
X184304700Y-71326190D02*
X184352319Y-71469047D01*
X184352319Y-71469047D02*
X184352319Y-71564285D01*
X183352319Y-70230952D02*
X183352319Y-70707142D01*
X183352319Y-70707142D02*
X183828509Y-70754761D01*
X183828509Y-70754761D02*
X183780890Y-70707142D01*
X183780890Y-70707142D02*
X183733271Y-70611904D01*
X183733271Y-70611904D02*
X183733271Y-70373809D01*
X183733271Y-70373809D02*
X183780890Y-70278571D01*
X183780890Y-70278571D02*
X183828509Y-70230952D01*
X183828509Y-70230952D02*
X183923747Y-70183333D01*
X183923747Y-70183333D02*
X184161842Y-70183333D01*
X184161842Y-70183333D02*
X184257080Y-70230952D01*
X184257080Y-70230952D02*
X184304700Y-70278571D01*
X184304700Y-70278571D02*
X184352319Y-70373809D01*
X184352319Y-70373809D02*
X184352319Y-70611904D01*
X184352319Y-70611904D02*
X184304700Y-70707142D01*
X184304700Y-70707142D02*
X184257080Y-70754761D01*
X69261905Y-50354819D02*
X69261905Y-49354819D01*
X69261905Y-49354819D02*
X69500000Y-49354819D01*
X69500000Y-49354819D02*
X69642857Y-49402438D01*
X69642857Y-49402438D02*
X69738095Y-49497676D01*
X69738095Y-49497676D02*
X69785714Y-49592914D01*
X69785714Y-49592914D02*
X69833333Y-49783390D01*
X69833333Y-49783390D02*
X69833333Y-49926247D01*
X69833333Y-49926247D02*
X69785714Y-50116723D01*
X69785714Y-50116723D02*
X69738095Y-50211961D01*
X69738095Y-50211961D02*
X69642857Y-50307200D01*
X69642857Y-50307200D02*
X69500000Y-50354819D01*
X69500000Y-50354819D02*
X69261905Y-50354819D01*
X70785714Y-50354819D02*
X70214286Y-50354819D01*
X70500000Y-50354819D02*
X70500000Y-49354819D01*
X70500000Y-49354819D02*
X70404762Y-49497676D01*
X70404762Y-49497676D02*
X70309524Y-49592914D01*
X70309524Y-49592914D02*
X70214286Y-49640533D01*
X178336905Y-49804819D02*
X178336905Y-48804819D01*
X178336905Y-48804819D02*
X178575000Y-48804819D01*
X178575000Y-48804819D02*
X178717857Y-48852438D01*
X178717857Y-48852438D02*
X178813095Y-48947676D01*
X178813095Y-48947676D02*
X178860714Y-49042914D01*
X178860714Y-49042914D02*
X178908333Y-49233390D01*
X178908333Y-49233390D02*
X178908333Y-49376247D01*
X178908333Y-49376247D02*
X178860714Y-49566723D01*
X178860714Y-49566723D02*
X178813095Y-49661961D01*
X178813095Y-49661961D02*
X178717857Y-49757200D01*
X178717857Y-49757200D02*
X178575000Y-49804819D01*
X178575000Y-49804819D02*
X178336905Y-49804819D01*
X179765476Y-49138152D02*
X179765476Y-49804819D01*
X179527381Y-48757200D02*
X179289286Y-49471485D01*
X179289286Y-49471485D02*
X179908333Y-49471485D01*
X168054587Y-50301081D02*
X167959174Y-50253374D01*
X167959174Y-50253374D02*
X167863761Y-50157962D01*
X167863761Y-50157962D02*
X167720642Y-50014842D01*
X167720642Y-50014842D02*
X167625229Y-49967136D01*
X167625229Y-49967136D02*
X167529816Y-49967136D01*
X167577522Y-50205668D02*
X167482110Y-50157962D01*
X167482110Y-50157962D02*
X167386697Y-50062549D01*
X167386697Y-50062549D02*
X167338990Y-49871723D01*
X167338990Y-49871723D02*
X167338990Y-49537778D01*
X167338990Y-49537778D02*
X167386697Y-49346952D01*
X167386697Y-49346952D02*
X167482110Y-49251539D01*
X167482110Y-49251539D02*
X167577522Y-49203833D01*
X167577522Y-49203833D02*
X167768348Y-49203833D01*
X167768348Y-49203833D02*
X167863761Y-49251539D01*
X167863761Y-49251539D02*
X167959174Y-49346952D01*
X167959174Y-49346952D02*
X168006880Y-49537778D01*
X168006880Y-49537778D02*
X168006880Y-49871723D01*
X168006880Y-49871723D02*
X167959174Y-50062549D01*
X167959174Y-50062549D02*
X167863761Y-50157962D01*
X167863761Y-50157962D02*
X167768348Y-50205668D01*
X167768348Y-50205668D02*
X167577522Y-50205668D01*
X168865596Y-49537778D02*
X168865596Y-50205668D01*
X168627063Y-49156127D02*
X168388531Y-49871723D01*
X168388531Y-49871723D02*
X169008715Y-49871723D01*
X167247142Y-75829819D02*
X166913809Y-75353628D01*
X166675714Y-75829819D02*
X166675714Y-74829819D01*
X166675714Y-74829819D02*
X167056666Y-74829819D01*
X167056666Y-74829819D02*
X167151904Y-74877438D01*
X167151904Y-74877438D02*
X167199523Y-74925057D01*
X167199523Y-74925057D02*
X167247142Y-75020295D01*
X167247142Y-75020295D02*
X167247142Y-75163152D01*
X167247142Y-75163152D02*
X167199523Y-75258390D01*
X167199523Y-75258390D02*
X167151904Y-75306009D01*
X167151904Y-75306009D02*
X167056666Y-75353628D01*
X167056666Y-75353628D02*
X166675714Y-75353628D01*
X168199523Y-75829819D02*
X167628095Y-75829819D01*
X167913809Y-75829819D02*
X167913809Y-74829819D01*
X167913809Y-74829819D02*
X167818571Y-74972676D01*
X167818571Y-74972676D02*
X167723333Y-75067914D01*
X167723333Y-75067914D02*
X167628095Y-75115533D01*
X169151904Y-75829819D02*
X168580476Y-75829819D01*
X168866190Y-75829819D02*
X168866190Y-74829819D01*
X168866190Y-74829819D02*
X168770952Y-74972676D01*
X168770952Y-74972676D02*
X168675714Y-75067914D01*
X168675714Y-75067914D02*
X168580476Y-75115533D01*
X63532319Y-54558333D02*
X64246604Y-54558333D01*
X64246604Y-54558333D02*
X64389461Y-54605952D01*
X64389461Y-54605952D02*
X64484700Y-54701190D01*
X64484700Y-54701190D02*
X64532319Y-54844047D01*
X64532319Y-54844047D02*
X64532319Y-54939285D01*
X64532319Y-53558333D02*
X64532319Y-54129761D01*
X64532319Y-53844047D02*
X63532319Y-53844047D01*
X63532319Y-53844047D02*
X63675176Y-53939285D01*
X63675176Y-53939285D02*
X63770414Y-54034523D01*
X63770414Y-54034523D02*
X63818033Y-54129761D01*
X101116666Y-53029819D02*
X101116666Y-53744104D01*
X101116666Y-53744104D02*
X101069047Y-53886961D01*
X101069047Y-53886961D02*
X100973809Y-53982200D01*
X100973809Y-53982200D02*
X100830952Y-54029819D01*
X100830952Y-54029819D02*
X100735714Y-54029819D01*
X101735714Y-53458390D02*
X101640476Y-53410771D01*
X101640476Y-53410771D02*
X101592857Y-53363152D01*
X101592857Y-53363152D02*
X101545238Y-53267914D01*
X101545238Y-53267914D02*
X101545238Y-53220295D01*
X101545238Y-53220295D02*
X101592857Y-53125057D01*
X101592857Y-53125057D02*
X101640476Y-53077438D01*
X101640476Y-53077438D02*
X101735714Y-53029819D01*
X101735714Y-53029819D02*
X101926190Y-53029819D01*
X101926190Y-53029819D02*
X102021428Y-53077438D01*
X102021428Y-53077438D02*
X102069047Y-53125057D01*
X102069047Y-53125057D02*
X102116666Y-53220295D01*
X102116666Y-53220295D02*
X102116666Y-53267914D01*
X102116666Y-53267914D02*
X102069047Y-53363152D01*
X102069047Y-53363152D02*
X102021428Y-53410771D01*
X102021428Y-53410771D02*
X101926190Y-53458390D01*
X101926190Y-53458390D02*
X101735714Y-53458390D01*
X101735714Y-53458390D02*
X101640476Y-53506009D01*
X101640476Y-53506009D02*
X101592857Y-53553628D01*
X101592857Y-53553628D02*
X101545238Y-53648866D01*
X101545238Y-53648866D02*
X101545238Y-53839342D01*
X101545238Y-53839342D02*
X101592857Y-53934580D01*
X101592857Y-53934580D02*
X101640476Y-53982200D01*
X101640476Y-53982200D02*
X101735714Y-54029819D01*
X101735714Y-54029819D02*
X101926190Y-54029819D01*
X101926190Y-54029819D02*
X102021428Y-53982200D01*
X102021428Y-53982200D02*
X102069047Y-53934580D01*
X102069047Y-53934580D02*
X102116666Y-53839342D01*
X102116666Y-53839342D02*
X102116666Y-53648866D01*
X102116666Y-53648866D02*
X102069047Y-53553628D01*
X102069047Y-53553628D02*
X102021428Y-53506009D01*
X102021428Y-53506009D02*
X101926190Y-53458390D01*
X123977095Y-72814819D02*
X123977095Y-73624342D01*
X123977095Y-73624342D02*
X124024714Y-73719580D01*
X124024714Y-73719580D02*
X124072333Y-73767200D01*
X124072333Y-73767200D02*
X124167571Y-73814819D01*
X124167571Y-73814819D02*
X124358047Y-73814819D01*
X124358047Y-73814819D02*
X124453285Y-73767200D01*
X124453285Y-73767200D02*
X124500904Y-73719580D01*
X124500904Y-73719580D02*
X124548523Y-73624342D01*
X124548523Y-73624342D02*
X124548523Y-72814819D01*
X125548523Y-73814819D02*
X124977095Y-73814819D01*
X125262809Y-73814819D02*
X125262809Y-72814819D01*
X125262809Y-72814819D02*
X125167571Y-72957676D01*
X125167571Y-72957676D02*
X125072333Y-73052914D01*
X125072333Y-73052914D02*
X124977095Y-73100533D01*
X69261905Y-67354819D02*
X69261905Y-66354819D01*
X69261905Y-66354819D02*
X69500000Y-66354819D01*
X69500000Y-66354819D02*
X69642857Y-66402438D01*
X69642857Y-66402438D02*
X69738095Y-66497676D01*
X69738095Y-66497676D02*
X69785714Y-66592914D01*
X69785714Y-66592914D02*
X69833333Y-66783390D01*
X69833333Y-66783390D02*
X69833333Y-66926247D01*
X69833333Y-66926247D02*
X69785714Y-67116723D01*
X69785714Y-67116723D02*
X69738095Y-67211961D01*
X69738095Y-67211961D02*
X69642857Y-67307200D01*
X69642857Y-67307200D02*
X69500000Y-67354819D01*
X69500000Y-67354819D02*
X69261905Y-67354819D01*
X70214286Y-66450057D02*
X70261905Y-66402438D01*
X70261905Y-66402438D02*
X70357143Y-66354819D01*
X70357143Y-66354819D02*
X70595238Y-66354819D01*
X70595238Y-66354819D02*
X70690476Y-66402438D01*
X70690476Y-66402438D02*
X70738095Y-66450057D01*
X70738095Y-66450057D02*
X70785714Y-66545295D01*
X70785714Y-66545295D02*
X70785714Y-66640533D01*
X70785714Y-66640533D02*
X70738095Y-66783390D01*
X70738095Y-66783390D02*
X70166667Y-67354819D01*
X70166667Y-67354819D02*
X70785714Y-67354819D01*
X109984580Y-67091666D02*
X110032200Y-67139285D01*
X110032200Y-67139285D02*
X110079819Y-67282142D01*
X110079819Y-67282142D02*
X110079819Y-67377380D01*
X110079819Y-67377380D02*
X110032200Y-67520237D01*
X110032200Y-67520237D02*
X109936961Y-67615475D01*
X109936961Y-67615475D02*
X109841723Y-67663094D01*
X109841723Y-67663094D02*
X109651247Y-67710713D01*
X109651247Y-67710713D02*
X109508390Y-67710713D01*
X109508390Y-67710713D02*
X109317914Y-67663094D01*
X109317914Y-67663094D02*
X109222676Y-67615475D01*
X109222676Y-67615475D02*
X109127438Y-67520237D01*
X109127438Y-67520237D02*
X109079819Y-67377380D01*
X109079819Y-67377380D02*
X109079819Y-67282142D01*
X109079819Y-67282142D02*
X109127438Y-67139285D01*
X109127438Y-67139285D02*
X109175057Y-67091666D01*
X109175057Y-66710713D02*
X109127438Y-66663094D01*
X109127438Y-66663094D02*
X109079819Y-66567856D01*
X109079819Y-66567856D02*
X109079819Y-66329761D01*
X109079819Y-66329761D02*
X109127438Y-66234523D01*
X109127438Y-66234523D02*
X109175057Y-66186904D01*
X109175057Y-66186904D02*
X109270295Y-66139285D01*
X109270295Y-66139285D02*
X109365533Y-66139285D01*
X109365533Y-66139285D02*
X109508390Y-66186904D01*
X109508390Y-66186904D02*
X110079819Y-66758332D01*
X110079819Y-66758332D02*
X110079819Y-66139285D01*
X107133333Y-98979819D02*
X106800000Y-98503628D01*
X106561905Y-98979819D02*
X106561905Y-97979819D01*
X106561905Y-97979819D02*
X106942857Y-97979819D01*
X106942857Y-97979819D02*
X107038095Y-98027438D01*
X107038095Y-98027438D02*
X107085714Y-98075057D01*
X107085714Y-98075057D02*
X107133333Y-98170295D01*
X107133333Y-98170295D02*
X107133333Y-98313152D01*
X107133333Y-98313152D02*
X107085714Y-98408390D01*
X107085714Y-98408390D02*
X107038095Y-98456009D01*
X107038095Y-98456009D02*
X106942857Y-98503628D01*
X106942857Y-98503628D02*
X106561905Y-98503628D01*
X108085714Y-98979819D02*
X107514286Y-98979819D01*
X107800000Y-98979819D02*
X107800000Y-97979819D01*
X107800000Y-97979819D02*
X107704762Y-98122676D01*
X107704762Y-98122676D02*
X107609524Y-98217914D01*
X107609524Y-98217914D02*
X107514286Y-98265533D01*
X177486905Y-82579819D02*
X177486905Y-81579819D01*
X177486905Y-81579819D02*
X177725000Y-81579819D01*
X177725000Y-81579819D02*
X177867857Y-81627438D01*
X177867857Y-81627438D02*
X177963095Y-81722676D01*
X177963095Y-81722676D02*
X178010714Y-81817914D01*
X178010714Y-81817914D02*
X178058333Y-82008390D01*
X178058333Y-82008390D02*
X178058333Y-82151247D01*
X178058333Y-82151247D02*
X178010714Y-82341723D01*
X178010714Y-82341723D02*
X177963095Y-82436961D01*
X177963095Y-82436961D02*
X177867857Y-82532200D01*
X177867857Y-82532200D02*
X177725000Y-82579819D01*
X177725000Y-82579819D02*
X177486905Y-82579819D01*
X178915476Y-81579819D02*
X178725000Y-81579819D01*
X178725000Y-81579819D02*
X178629762Y-81627438D01*
X178629762Y-81627438D02*
X178582143Y-81675057D01*
X178582143Y-81675057D02*
X178486905Y-81817914D01*
X178486905Y-81817914D02*
X178439286Y-82008390D01*
X178439286Y-82008390D02*
X178439286Y-82389342D01*
X178439286Y-82389342D02*
X178486905Y-82484580D01*
X178486905Y-82484580D02*
X178534524Y-82532200D01*
X178534524Y-82532200D02*
X178629762Y-82579819D01*
X178629762Y-82579819D02*
X178820238Y-82579819D01*
X178820238Y-82579819D02*
X178915476Y-82532200D01*
X178915476Y-82532200D02*
X178963095Y-82484580D01*
X178963095Y-82484580D02*
X179010714Y-82389342D01*
X179010714Y-82389342D02*
X179010714Y-82151247D01*
X179010714Y-82151247D02*
X178963095Y-82056009D01*
X178963095Y-82056009D02*
X178915476Y-82008390D01*
X178915476Y-82008390D02*
X178820238Y-81960771D01*
X178820238Y-81960771D02*
X178629762Y-81960771D01*
X178629762Y-81960771D02*
X178534524Y-82008390D01*
X178534524Y-82008390D02*
X178486905Y-82056009D01*
X178486905Y-82056009D02*
X178439286Y-82151247D01*
X82833333Y-58804819D02*
X82500000Y-58328628D01*
X82261905Y-58804819D02*
X82261905Y-57804819D01*
X82261905Y-57804819D02*
X82642857Y-57804819D01*
X82642857Y-57804819D02*
X82738095Y-57852438D01*
X82738095Y-57852438D02*
X82785714Y-57900057D01*
X82785714Y-57900057D02*
X82833333Y-57995295D01*
X82833333Y-57995295D02*
X82833333Y-58138152D01*
X82833333Y-58138152D02*
X82785714Y-58233390D01*
X82785714Y-58233390D02*
X82738095Y-58281009D01*
X82738095Y-58281009D02*
X82642857Y-58328628D01*
X82642857Y-58328628D02*
X82261905Y-58328628D01*
X83309524Y-58804819D02*
X83500000Y-58804819D01*
X83500000Y-58804819D02*
X83595238Y-58757200D01*
X83595238Y-58757200D02*
X83642857Y-58709580D01*
X83642857Y-58709580D02*
X83738095Y-58566723D01*
X83738095Y-58566723D02*
X83785714Y-58376247D01*
X83785714Y-58376247D02*
X83785714Y-57995295D01*
X83785714Y-57995295D02*
X83738095Y-57900057D01*
X83738095Y-57900057D02*
X83690476Y-57852438D01*
X83690476Y-57852438D02*
X83595238Y-57804819D01*
X83595238Y-57804819D02*
X83404762Y-57804819D01*
X83404762Y-57804819D02*
X83309524Y-57852438D01*
X83309524Y-57852438D02*
X83261905Y-57900057D01*
X83261905Y-57900057D02*
X83214286Y-57995295D01*
X83214286Y-57995295D02*
X83214286Y-58233390D01*
X83214286Y-58233390D02*
X83261905Y-58328628D01*
X83261905Y-58328628D02*
X83309524Y-58376247D01*
X83309524Y-58376247D02*
X83404762Y-58423866D01*
X83404762Y-58423866D02*
X83595238Y-58423866D01*
X83595238Y-58423866D02*
X83690476Y-58376247D01*
X83690476Y-58376247D02*
X83738095Y-58328628D01*
X83738095Y-58328628D02*
X83785714Y-58233390D01*
D13*
%TO.C,Q6*%
X163346000Y-90625000D02*
X163346000Y-83825000D01*
X169566000Y-83825000D02*
X163346000Y-83825000D01*
X169566000Y-90625000D02*
X163346000Y-90625000D01*
D11*
X159229000Y-84939000D02*
G75*
G02*
X159029000Y-84939000I-100000J0D01*
G01*
X159029000Y-84939000D02*
G75*
G02*
X159229000Y-84939000I100000J0D01*
G01*
D14*
%TO.C,J4*%
X184897500Y-50605000D02*
X192737500Y-50605000D01*
X184897500Y-57845000D02*
X184897500Y-50605000D01*
X191117500Y-57845000D02*
X191117500Y-50605000D01*
X192217500Y-57845000D02*
X192217500Y-50605000D01*
X192737500Y-50605000D02*
X192737500Y-55675000D01*
X192737500Y-56275000D02*
X192737500Y-57845000D01*
X192737500Y-57845000D02*
X184897500Y-57845000D01*
X193347500Y-56415000D02*
X192737500Y-55975000D01*
X193347500Y-55535000D01*
X193347500Y-56415000D01*
G36*
X193347500Y-56415000D02*
G01*
X192737500Y-55975000D01*
X193347500Y-55535000D01*
X193347500Y-56415000D01*
G37*
%TO.C,D3*%
X65090000Y-84750000D02*
X73600000Y-84750000D01*
X65090000Y-91250000D02*
X65090000Y-84750000D01*
X65090000Y-91250000D02*
X73600000Y-91250000D01*
%TO.C,C1*%
X90415000Y-62665000D02*
X93365000Y-62665000D01*
X90415000Y-70120563D02*
X90415000Y-62665000D01*
X91479437Y-71185000D02*
X90415000Y-70120563D01*
X91479437Y-71185000D02*
X93365000Y-71185000D01*
X97870563Y-71185000D02*
X95985000Y-71185000D01*
X97870563Y-71185000D02*
X98935000Y-70120563D01*
X98935000Y-62665000D02*
X95985000Y-62665000D01*
X98935000Y-70120563D02*
X98935000Y-62665000D01*
%TO.C,R3*%
X107477064Y-87315000D02*
X107022936Y-87315000D01*
X107477064Y-88785000D02*
X107022936Y-88785000D01*
D13*
%TO.C,Q3*%
X78824000Y-84600000D02*
X85044000Y-84600000D01*
X78824000Y-91400000D02*
X85044000Y-91400000D01*
X85044000Y-84600000D02*
X85044000Y-91400000D01*
D11*
X89361000Y-90286000D02*
G75*
G02*
X89161000Y-90286000I-100000J0D01*
G01*
X89161000Y-90286000D02*
G75*
G02*
X89361000Y-90286000I100000J0D01*
G01*
D14*
%TO.C,R12*%
X167347936Y-92640000D02*
X167802064Y-92640000D01*
X167347936Y-94110000D02*
X167802064Y-94110000D01*
%TO.C,J6*%
X184897500Y-83630000D02*
X192737500Y-83630000D01*
X184897500Y-90870000D02*
X184897500Y-83630000D01*
X191117500Y-90870000D02*
X191117500Y-83630000D01*
X192217500Y-90870000D02*
X192217500Y-83630000D01*
X192737500Y-83630000D02*
X192737500Y-88700000D01*
X192737500Y-89300000D02*
X192737500Y-90870000D01*
X192737500Y-90870000D02*
X184897500Y-90870000D01*
X193347500Y-89440000D02*
X192737500Y-89000000D01*
X193347500Y-88560000D01*
X193347500Y-89440000D01*
G36*
X193347500Y-89440000D02*
G01*
X192737500Y-89000000D01*
X193347500Y-88560000D01*
X193347500Y-89440000D01*
G37*
D13*
%TO.C,Q1*%
X78824000Y-50600000D02*
X85044000Y-50600000D01*
X78824000Y-57400000D02*
X85044000Y-57400000D01*
X85044000Y-50600000D02*
X85044000Y-57400000D01*
D11*
X89361000Y-56286000D02*
G75*
G02*
X89161000Y-56286000I-100000J0D01*
G01*
X89161000Y-56286000D02*
G75*
G02*
X89361000Y-56286000I100000J0D01*
G01*
D14*
%TO.C,J2*%
X55237500Y-67230000D02*
X63077500Y-67230000D01*
X55237500Y-68800000D02*
X55237500Y-67230000D01*
X55237500Y-74470000D02*
X55237500Y-69400000D01*
X55757500Y-67230000D02*
X55757500Y-74470000D01*
X56857500Y-67230000D02*
X56857500Y-74470000D01*
X63077500Y-67230000D02*
X63077500Y-74470000D01*
X63077500Y-74470000D02*
X55237500Y-74470000D01*
X55237500Y-69100000D02*
X54627500Y-69540000D01*
X54627500Y-68660000D01*
X55237500Y-69100000D01*
G36*
X55237500Y-69100000D02*
G01*
X54627500Y-69540000D01*
X54627500Y-68660000D01*
X55237500Y-69100000D01*
G37*
%TO.C,R2*%
X107477064Y-92240000D02*
X107022936Y-92240000D01*
X107477064Y-93710000D02*
X107022936Y-93710000D01*
%TO.C,J3*%
X55237500Y-84430000D02*
X63077500Y-84430000D01*
X55237500Y-86000000D02*
X55237500Y-84430000D01*
X55237500Y-91670000D02*
X55237500Y-86600000D01*
X55757500Y-84430000D02*
X55757500Y-91670000D01*
X56857500Y-84430000D02*
X56857500Y-91670000D01*
X63077500Y-84430000D02*
X63077500Y-91670000D01*
X63077500Y-91670000D02*
X55237500Y-91670000D01*
X55237500Y-86300000D02*
X54627500Y-86740000D01*
X54627500Y-85860000D01*
X55237500Y-86300000D01*
G36*
X55237500Y-86300000D02*
G01*
X54627500Y-86740000D01*
X54627500Y-85860000D01*
X55237500Y-86300000D01*
G37*
%TO.C,R7*%
X82772936Y-93265000D02*
X83227064Y-93265000D01*
X82772936Y-94735000D02*
X83227064Y-94735000D01*
%TO.C,R8*%
X82772936Y-76265000D02*
X83227064Y-76265000D01*
X82772936Y-77735000D02*
X83227064Y-77735000D01*
%TO.C,U3*%
X148380000Y-69835000D02*
X148380000Y-80115000D01*
X148380000Y-80115000D02*
X153680000Y-80115000D01*
X150030000Y-69835000D02*
X148380000Y-69835000D01*
X153680000Y-69835000D02*
X152030000Y-69835000D01*
X153680000Y-80115000D02*
X153680000Y-69835000D01*
X152030000Y-69835000D02*
G75*
G02*
X150030000Y-69835000I-1000000J0D01*
G01*
D13*
%TO.C,Q2*%
X78824000Y-67600000D02*
X85044000Y-67600000D01*
X78824000Y-74400000D02*
X85044000Y-74400000D01*
X85044000Y-67600000D02*
X85044000Y-74400000D01*
D11*
X89361000Y-73286000D02*
G75*
G02*
X89161000Y-73286000I-100000J0D01*
G01*
X89161000Y-73286000D02*
G75*
G02*
X89361000Y-73286000I100000J0D01*
G01*
D14*
%TO.C,D5*%
X183135000Y-67700000D02*
X174625000Y-67700000D01*
X183135000Y-67700000D02*
X183135000Y-74200000D01*
X183135000Y-74200000D02*
X174625000Y-74200000D01*
D15*
%TO.C,G\u002A\u002A\u002A*%
G36*
X143455982Y-92885442D02*
G01*
X143474846Y-92901583D01*
X143503258Y-92929995D01*
X143432101Y-93068437D01*
X143387202Y-93150448D01*
X143349768Y-93206412D01*
X143318637Y-93237334D01*
X143292645Y-93244220D01*
X143270631Y-93228076D01*
X143262560Y-93215175D01*
X143253326Y-93171720D01*
X143260173Y-93114787D01*
X143279932Y-93051777D01*
X143309436Y-92990086D01*
X143345517Y-92937115D01*
X143385006Y-92900263D01*
X143401070Y-92891683D01*
X143434198Y-92880967D01*
X143455982Y-92885442D01*
G37*
G36*
X143738750Y-92996279D02*
G01*
X143765239Y-93014429D01*
X143776418Y-93028903D01*
X143779487Y-93043953D01*
X143772623Y-93065505D01*
X143754003Y-93099487D01*
X143724159Y-93148053D01*
X143686005Y-93206757D01*
X143657337Y-93243210D01*
X143634466Y-93260315D01*
X143613704Y-93260977D01*
X143594289Y-93250293D01*
X143580271Y-93236667D01*
X143575651Y-93217848D01*
X143579695Y-93185327D01*
X143586091Y-93155177D01*
X143610653Y-93073303D01*
X143641572Y-93018244D01*
X143678576Y-92990403D01*
X143699645Y-92986813D01*
X143738750Y-92996279D01*
G37*
G36*
X146870035Y-92800011D02*
G01*
X146886521Y-92817715D01*
X146886413Y-92840575D01*
X146872819Y-92880857D01*
X146848956Y-92933017D01*
X146818040Y-92991512D01*
X146783287Y-93050800D01*
X146747913Y-93105337D01*
X146715135Y-93149579D01*
X146688168Y-93177985D01*
X146673077Y-93185583D01*
X146653891Y-93178174D01*
X146629976Y-93163481D01*
X146604329Y-93131661D01*
X146601077Y-93086780D01*
X146620353Y-93027378D01*
X146646997Y-92976925D01*
X146697229Y-92901444D01*
X146747076Y-92844398D01*
X146794111Y-92807402D01*
X146835907Y-92792069D01*
X146870035Y-92800011D01*
G37*
G36*
X147152870Y-92930753D02*
G01*
X147170006Y-92956193D01*
X147169224Y-92985229D01*
X147149379Y-93024078D01*
X147130790Y-93050703D01*
X147104074Y-93091180D01*
X147076025Y-93139697D01*
X147068953Y-93153163D01*
X147035737Y-93205995D01*
X147003742Y-93230915D01*
X146972192Y-93228335D01*
X146953693Y-93214304D01*
X146934178Y-93191361D01*
X146927205Y-93168708D01*
X146933045Y-93138524D01*
X146951971Y-93092990D01*
X146958402Y-93079099D01*
X147000169Y-93002492D01*
X147042637Y-92948423D01*
X147084052Y-92918230D01*
X147122657Y-92913253D01*
X147152870Y-92930753D01*
G37*
G36*
X147412780Y-92942412D02*
G01*
X147433829Y-92972933D01*
X147436096Y-92988448D01*
X147429247Y-93011203D01*
X147411251Y-93050072D01*
X147385928Y-93098341D01*
X147357103Y-93149298D01*
X147328598Y-93196230D01*
X147304236Y-93232423D01*
X147287839Y-93251165D01*
X147285889Y-93252216D01*
X147265876Y-93246718D01*
X147246938Y-93230954D01*
X147228102Y-93196361D01*
X147223439Y-93170267D01*
X147231634Y-93125792D01*
X147252611Y-93074030D01*
X147282004Y-93021778D01*
X147315451Y-92975831D01*
X147348588Y-92942984D01*
X147377049Y-92930032D01*
X147377727Y-92930021D01*
X147412780Y-92942412D01*
G37*
G36*
X143206191Y-92828601D02*
G01*
X143228312Y-92852795D01*
X143238476Y-92874164D01*
X143234562Y-92895197D01*
X143214271Y-92926026D01*
X143210613Y-92930884D01*
X143187716Y-92966249D01*
X143158608Y-93018398D01*
X143128364Y-93078061D01*
X143117804Y-93100396D01*
X143083494Y-93174265D01*
X143058584Y-93226286D01*
X143040640Y-93260422D01*
X143027227Y-93280639D01*
X143015914Y-93290901D01*
X143004266Y-93295172D01*
X142997543Y-93296302D01*
X142964922Y-93289730D01*
X142949598Y-93277907D01*
X142933949Y-93237095D01*
X142938262Y-93177153D01*
X142962382Y-93098997D01*
X142989876Y-93036213D01*
X143039166Y-92943944D01*
X143086269Y-92876412D01*
X143130358Y-92834254D01*
X143170608Y-92818105D01*
X143206191Y-92828601D01*
G37*
G36*
X144530056Y-90391414D02*
G01*
X144576541Y-90399693D01*
X144605503Y-90416660D01*
X144622292Y-90445086D01*
X144630363Y-90476926D01*
X144634139Y-90502677D01*
X144631435Y-90520683D01*
X144618128Y-90532529D01*
X144590097Y-90539803D01*
X144543217Y-90544090D01*
X144473366Y-90546977D01*
X144446058Y-90547847D01*
X144385556Y-90550523D01*
X144339638Y-90555840D01*
X144298731Y-90566371D01*
X144253259Y-90584692D01*
X144193649Y-90613378D01*
X144183397Y-90618484D01*
X144117926Y-90653369D01*
X144060361Y-90689939D01*
X144002981Y-90733831D01*
X143938066Y-90790683D01*
X143903023Y-90823233D01*
X143770827Y-90956014D01*
X143653046Y-91091400D01*
X143552006Y-91226106D01*
X143470037Y-91356845D01*
X143409465Y-91480330D01*
X143381264Y-91559926D01*
X143369234Y-91614383D01*
X143358886Y-91684591D01*
X143351974Y-91757907D01*
X143350780Y-91779808D01*
X143346764Y-91840321D01*
X143340784Y-91890915D01*
X143333830Y-91924277D01*
X143330118Y-91932435D01*
X143300743Y-91949232D01*
X143264745Y-91940285D01*
X143233260Y-91914591D01*
X143216437Y-91892978D01*
X143205570Y-91866691D01*
X143198867Y-91828422D01*
X143194537Y-91770862D01*
X143193630Y-91752925D01*
X143191998Y-91685379D01*
X143195433Y-91628480D01*
X143205416Y-91570361D01*
X143223428Y-91499156D01*
X143226806Y-91486997D01*
X143291737Y-91306150D01*
X143382789Y-91131656D01*
X143497805Y-90967324D01*
X143567391Y-90886033D01*
X143694914Y-90752891D01*
X143812840Y-90643463D01*
X143924230Y-90556045D01*
X144032146Y-90488934D01*
X144139650Y-90440426D01*
X144249804Y-90408818D01*
X144365670Y-90392406D01*
X144460699Y-90389053D01*
X144530056Y-90391414D01*
G37*
G36*
X146418206Y-90621088D02*
G01*
X146491453Y-90631933D01*
X146581207Y-90651780D01*
X146691240Y-90681123D01*
X146773993Y-90705099D01*
X146825722Y-90722919D01*
X146873816Y-90745934D01*
X146922793Y-90777392D01*
X146977174Y-90820541D01*
X147041478Y-90878630D01*
X147116644Y-90951370D01*
X147186830Y-91024206D01*
X147246023Y-91094773D01*
X147299114Y-91170100D01*
X147350993Y-91257215D01*
X147406552Y-91363147D01*
X147415007Y-91380091D01*
X147463290Y-91479452D01*
X147499269Y-91559998D01*
X147524609Y-91627638D01*
X147540979Y-91688279D01*
X147550043Y-91747827D01*
X147553469Y-91812190D01*
X147553284Y-91870302D01*
X147550444Y-92024501D01*
X147477342Y-92175556D01*
X147446558Y-92237507D01*
X147418133Y-92291736D01*
X147395399Y-92332061D01*
X147382473Y-92351458D01*
X147353718Y-92371340D01*
X147323287Y-92375003D01*
X147302119Y-92361588D01*
X147300363Y-92357904D01*
X147298613Y-92337399D01*
X147298900Y-92294584D01*
X147301069Y-92235459D01*
X147304963Y-92166027D01*
X147305590Y-92156516D01*
X147311031Y-92009362D01*
X147304905Y-91880024D01*
X147285459Y-91761356D01*
X147250941Y-91646213D01*
X147199597Y-91527449D01*
X147129674Y-91397920D01*
X147112212Y-91368255D01*
X147031591Y-91242394D01*
X146949639Y-91135239D01*
X146859139Y-91037715D01*
X146818648Y-90999110D01*
X146776076Y-90959738D01*
X146739562Y-90925936D01*
X146715790Y-90903894D01*
X146713004Y-90901302D01*
X146684225Y-90880863D01*
X146641588Y-90861928D01*
X146580796Y-90843013D01*
X146497550Y-90822631D01*
X146463993Y-90815238D01*
X146380729Y-90799774D01*
X146313691Y-90792448D01*
X146269288Y-90793677D01*
X146229014Y-90796400D01*
X146199866Y-90784244D01*
X146180099Y-90766652D01*
X146156140Y-90739468D01*
X146144345Y-90719760D01*
X146144089Y-90717999D01*
X146157119Y-90694801D01*
X146192998Y-90668558D01*
X146246907Y-90642618D01*
X146259824Y-90637612D01*
X146306162Y-90624422D01*
X146357699Y-90618749D01*
X146418206Y-90621088D01*
G37*
G36*
X146228859Y-92158135D02*
G01*
X146280918Y-92165801D01*
X146329821Y-92176053D01*
X146398578Y-92191795D01*
X146446087Y-92204676D01*
X146478849Y-92217872D01*
X146503363Y-92234563D01*
X146526127Y-92257926D01*
X146545954Y-92281727D01*
X146597634Y-92352715D01*
X146629964Y-92419040D01*
X146647420Y-92491487D01*
X146652318Y-92538082D01*
X146652688Y-92613723D01*
X146638769Y-92671442D01*
X146606778Y-92719698D01*
X146552934Y-92766948D01*
X146548519Y-92770236D01*
X146458895Y-92825002D01*
X146367949Y-92859491D01*
X146280192Y-92872983D01*
X146200132Y-92864758D01*
X146135422Y-92836244D01*
X146077623Y-92794380D01*
X146032247Y-92752349D01*
X145990040Y-92700686D01*
X145958342Y-92655094D01*
X145957212Y-92653164D01*
X146229276Y-92653164D01*
X146240869Y-92682311D01*
X146270487Y-92698968D01*
X146310392Y-92702581D01*
X146352847Y-92692600D01*
X146390112Y-92668470D01*
X146393598Y-92664890D01*
X146414602Y-92635688D01*
X146417298Y-92615781D01*
X146416109Y-92614250D01*
X146396440Y-92609865D01*
X146360244Y-92612312D01*
X146316476Y-92619726D01*
X146274089Y-92630241D01*
X146242038Y-92641993D01*
X146229277Y-92653116D01*
X146229276Y-92653164D01*
X145957212Y-92653164D01*
X145922648Y-92594130D01*
X145905749Y-92540829D01*
X145906709Y-92485675D01*
X145924586Y-92419148D01*
X145932817Y-92396327D01*
X145933083Y-92395798D01*
X146138842Y-92395798D01*
X146150557Y-92424888D01*
X146164190Y-92440290D01*
X146212458Y-92471539D01*
X146265419Y-92475775D01*
X146319820Y-92453247D01*
X146352972Y-92425823D01*
X146382672Y-92390605D01*
X146389569Y-92364268D01*
X146372100Y-92344040D01*
X146328700Y-92327151D01*
X146292122Y-92318038D01*
X146246395Y-92309028D01*
X146218330Y-92308457D01*
X146198214Y-92317209D01*
X146185420Y-92327755D01*
X146150092Y-92365384D01*
X146138842Y-92395798D01*
X145933083Y-92395798D01*
X145968923Y-92324560D01*
X146018843Y-92258610D01*
X146076336Y-92205061D01*
X146135161Y-92170496D01*
X146152348Y-92164755D01*
X146188927Y-92157973D01*
X146228859Y-92158135D01*
G37*
G36*
X145366792Y-93128754D02*
G01*
X145374468Y-93131507D01*
X145409117Y-93148283D01*
X145422534Y-93167013D01*
X145422695Y-93186442D01*
X145417959Y-93223478D01*
X145411935Y-93270319D01*
X145410801Y-93279108D01*
X145408526Y-93319171D01*
X145418674Y-93345980D01*
X145446782Y-93373717D01*
X145448237Y-93374944D01*
X145480985Y-93398851D01*
X145507319Y-93411920D01*
X145512284Y-93412749D01*
X145536673Y-93403518D01*
X145568372Y-93381148D01*
X145598103Y-93353623D01*
X145616588Y-93328929D01*
X145618768Y-93321116D01*
X145629975Y-93289781D01*
X145656936Y-93257304D01*
X145689658Y-93233827D01*
X145710346Y-93228177D01*
X145747827Y-93237994D01*
X145766546Y-93265029D01*
X145767023Y-93305652D01*
X145749779Y-93356235D01*
X145715335Y-93413151D01*
X145677198Y-93459246D01*
X145643497Y-93496757D01*
X145626212Y-93522193D01*
X145621986Y-93543861D01*
X145627463Y-93570069D01*
X145629584Y-93577100D01*
X145635753Y-93634403D01*
X145623780Y-93693206D01*
X145597026Y-93743772D01*
X145561212Y-93775190D01*
X145507918Y-93794008D01*
X145467044Y-93789794D01*
X145449710Y-93776382D01*
X145440143Y-93746314D01*
X145442454Y-93699750D01*
X145442829Y-93625492D01*
X145419918Y-93562682D01*
X145375369Y-93515519D01*
X145368340Y-93510920D01*
X145336312Y-93492983D01*
X145310850Y-93487411D01*
X145279125Y-93493163D01*
X145252111Y-93501501D01*
X145177937Y-93515912D01*
X145097135Y-93516277D01*
X145019376Y-93503683D01*
X144954332Y-93479217D01*
X144933120Y-93465654D01*
X144877888Y-93414186D01*
X144841918Y-93361215D01*
X144825460Y-93310661D01*
X144828764Y-93266446D01*
X144852083Y-93232488D01*
X144895667Y-93212710D01*
X144916739Y-93209789D01*
X144947501Y-93213615D01*
X144972752Y-93234577D01*
X144988307Y-93256573D01*
X145021281Y-93301776D01*
X145057677Y-93342214D01*
X145091300Y-93371757D01*
X145115954Y-93384271D01*
X145117413Y-93384353D01*
X145142503Y-93378805D01*
X145170866Y-93367877D01*
X145194313Y-93352541D01*
X145204788Y-93328485D01*
X145207029Y-93290270D01*
X145214241Y-93229494D01*
X145233480Y-93175606D01*
X145261148Y-93136137D01*
X145288572Y-93119557D01*
X145323536Y-93119108D01*
X145366792Y-93128754D01*
G37*
G36*
X144276048Y-92109497D02*
G01*
X144345836Y-92132708D01*
X144396386Y-92158218D01*
X144458263Y-92193534D01*
X144501230Y-92222503D01*
X144531843Y-92251350D01*
X144556652Y-92286297D01*
X144582213Y-92333568D01*
X144583300Y-92335717D01*
X144605202Y-92381658D01*
X144615626Y-92416057D01*
X144616509Y-92451727D01*
X144609786Y-92501485D01*
X144609037Y-92506091D01*
X144594107Y-92587783D01*
X144578491Y-92647479D01*
X144559551Y-92691513D01*
X144534650Y-92726217D01*
X144505746Y-92754037D01*
X144440776Y-92796150D01*
X144360756Y-92827935D01*
X144274545Y-92847493D01*
X144191001Y-92852923D01*
X144118982Y-92842324D01*
X144109303Y-92839082D01*
X144027922Y-92795505D01*
X143964484Y-92730955D01*
X143932312Y-92670608D01*
X144173503Y-92670608D01*
X144177899Y-92689007D01*
X144197536Y-92697164D01*
X144234483Y-92697276D01*
X144279310Y-92690849D01*
X144322587Y-92679392D01*
X144354884Y-92664411D01*
X144360679Y-92659787D01*
X144378757Y-92631093D01*
X144378681Y-92611255D01*
X144369293Y-92596773D01*
X144352064Y-92598220D01*
X144330565Y-92608175D01*
X144288597Y-92624619D01*
X144240775Y-92637198D01*
X144238522Y-92637617D01*
X144192114Y-92651317D01*
X144173503Y-92670608D01*
X143932312Y-92670608D01*
X143918530Y-92644755D01*
X143889597Y-92536232D01*
X143885854Y-92512087D01*
X143878362Y-92417737D01*
X143882372Y-92383403D01*
X144113793Y-92383403D01*
X144121920Y-92429882D01*
X144142256Y-92472279D01*
X144162061Y-92493219D01*
X144174387Y-92501054D01*
X144185513Y-92501694D01*
X144205338Y-92493341D01*
X144230444Y-92480806D01*
X144265613Y-92457835D01*
X144302241Y-92425629D01*
X144334608Y-92390523D01*
X144356990Y-92358850D01*
X144363667Y-92336944D01*
X144362688Y-92334411D01*
X144345943Y-92319227D01*
X144313274Y-92296728D01*
X144291425Y-92283360D01*
X144253266Y-92262336D01*
X144228264Y-92254967D01*
X144205539Y-92259785D01*
X144186095Y-92269141D01*
X144138786Y-92305675D01*
X144116309Y-92354830D01*
X144113793Y-92383403D01*
X143882372Y-92383403D01*
X143887150Y-92342491D01*
X143914991Y-92280847D01*
X143964661Y-92227305D01*
X144038933Y-92176362D01*
X144061702Y-92163370D01*
X144141879Y-92124707D01*
X144210695Y-92106790D01*
X144276048Y-92109497D01*
G37*
G36*
X145478194Y-87434717D02*
G01*
X145534283Y-87455362D01*
X145581009Y-87482059D01*
X145629199Y-87521609D01*
X145653895Y-87545068D01*
X145692639Y-87584449D01*
X145720754Y-87618839D01*
X145742912Y-87656180D01*
X145763786Y-87704414D01*
X145788050Y-87771481D01*
X145789391Y-87775341D01*
X145811374Y-87835550D01*
X145831458Y-87884913D01*
X145847195Y-87917742D01*
X145855247Y-87928375D01*
X145868244Y-87919088D01*
X145888957Y-87890133D01*
X145913103Y-87847575D01*
X145915199Y-87843480D01*
X145957840Y-87767711D01*
X146005719Y-87696018D01*
X146053668Y-87635449D01*
X146096518Y-87593056D01*
X146101697Y-87589061D01*
X146142430Y-87569985D01*
X146199287Y-87556369D01*
X146260221Y-87550095D01*
X146313185Y-87553046D01*
X146321215Y-87554769D01*
X146362749Y-87575141D01*
X146412312Y-87614613D01*
X146464067Y-87667504D01*
X146512177Y-87728132D01*
X146535129Y-87762979D01*
X146564844Y-87821290D01*
X146593500Y-87893379D01*
X146615001Y-87963343D01*
X146627847Y-88018708D01*
X146635805Y-88068139D01*
X146639483Y-88120202D01*
X146639487Y-88183463D01*
X146636447Y-88266019D01*
X146627713Y-88384980D01*
X146613410Y-88493397D01*
X146597502Y-88571273D01*
X146581262Y-88636249D01*
X146570271Y-88683341D01*
X146562668Y-88722161D01*
X146556595Y-88762318D01*
X146550193Y-88813420D01*
X146549435Y-88819736D01*
X146536340Y-88906418D01*
X146515920Y-89013149D01*
X146489751Y-89133015D01*
X146459408Y-89259102D01*
X146426466Y-89384493D01*
X146398287Y-89483065D01*
X146372720Y-89556962D01*
X146338288Y-89639789D01*
X146297918Y-89725986D01*
X146254537Y-89809990D01*
X146211070Y-89886241D01*
X146170444Y-89949177D01*
X146135587Y-89993235D01*
X146124061Y-90004206D01*
X146103251Y-90014946D01*
X146079257Y-90007632D01*
X146066297Y-89999660D01*
X146034088Y-89969740D01*
X146023271Y-89933275D01*
X146033618Y-89885722D01*
X146057980Y-89834819D01*
X146080748Y-89790223D01*
X146096436Y-89753229D01*
X146101238Y-89734748D01*
X146107271Y-89712664D01*
X146123179Y-89672372D01*
X146146048Y-89621017D01*
X146157355Y-89597190D01*
X146195167Y-89506809D01*
X146233414Y-89392508D01*
X146270943Y-89258717D01*
X146306597Y-89109867D01*
X146339223Y-88950390D01*
X146365517Y-88798439D01*
X146378813Y-88719947D01*
X146395428Y-88629874D01*
X146412360Y-88544323D01*
X146417130Y-88521581D01*
X146439629Y-88383779D01*
X146449250Y-88246266D01*
X146446006Y-88116126D01*
X146429911Y-88000445D01*
X146416039Y-87946987D01*
X146394633Y-87886054D01*
X146371733Y-87841846D01*
X146340535Y-87803192D01*
X146310598Y-87773905D01*
X146268790Y-87737478D01*
X146240407Y-87719622D01*
X146220282Y-87717446D01*
X146214132Y-87719907D01*
X146184378Y-87746632D01*
X146148764Y-87796149D01*
X146109895Y-87864149D01*
X146070379Y-87946320D01*
X146053687Y-87985299D01*
X146023302Y-88055733D01*
X145988909Y-88130717D01*
X145956913Y-88196373D01*
X145950448Y-88208924D01*
X145908514Y-88299912D01*
X145881052Y-88388425D01*
X145865845Y-88484217D01*
X145860675Y-88597043D01*
X145860637Y-88604031D01*
X145859049Y-88671941D01*
X145855227Y-88736230D01*
X145849857Y-88786836D01*
X145847045Y-88802801D01*
X145840251Y-88841454D01*
X145832039Y-88899757D01*
X145823557Y-88969082D01*
X145817455Y-89025605D01*
X145797359Y-89172613D01*
X145767725Y-89317651D01*
X145730212Y-89455234D01*
X145686480Y-89579878D01*
X145638186Y-89686101D01*
X145596819Y-89754937D01*
X145579329Y-89785157D01*
X145583430Y-89802711D01*
X145612080Y-89814871D01*
X145622317Y-89817634D01*
X145659081Y-89834514D01*
X145669125Y-89857632D01*
X145652835Y-89884765D01*
X145610598Y-89913692D01*
X145605111Y-89916522D01*
X145541258Y-89942039D01*
X145491069Y-89945689D01*
X145449968Y-89927369D01*
X145433829Y-89912583D01*
X145400118Y-89876699D01*
X145437488Y-89802550D01*
X145489155Y-89693501D01*
X145530276Y-89590174D01*
X145562600Y-89485897D01*
X145587874Y-89374000D01*
X145607844Y-89247813D01*
X145624258Y-89100665D01*
X145625887Y-89083284D01*
X145639850Y-88896887D01*
X145647793Y-88709511D01*
X145649763Y-88526707D01*
X145645809Y-88354026D01*
X145635980Y-88197018D01*
X145620324Y-88061235D01*
X145616788Y-88038853D01*
X145598206Y-87953204D01*
X145571910Y-87867859D01*
X145540042Y-87786900D01*
X145504740Y-87714406D01*
X145468147Y-87654459D01*
X145432403Y-87611141D01*
X145399648Y-87588531D01*
X145379847Y-87587155D01*
X145357714Y-87603515D01*
X145327174Y-87639570D01*
X145292139Y-87689426D01*
X145256518Y-87747192D01*
X145224222Y-87806974D01*
X145202588Y-87854281D01*
X145184642Y-87906796D01*
X145163873Y-87981810D01*
X145141506Y-88073716D01*
X145118768Y-88176906D01*
X145096885Y-88285775D01*
X145077081Y-88394716D01*
X145060585Y-88498121D01*
X145058234Y-88514482D01*
X145033846Y-88690391D01*
X145013709Y-88842733D01*
X144997304Y-88975935D01*
X144984111Y-89094421D01*
X144973611Y-89202617D01*
X144965286Y-89304950D01*
X144964948Y-89309563D01*
X144955106Y-89415181D01*
X144941111Y-89524698D01*
X144924109Y-89631522D01*
X144905244Y-89729063D01*
X144885661Y-89810727D01*
X144868488Y-89864893D01*
X144848854Y-89896972D01*
X144828324Y-89914024D01*
X144806197Y-89917993D01*
X144760781Y-89921596D01*
X144697183Y-89924584D01*
X144620510Y-89926710D01*
X144546828Y-89927667D01*
X144450795Y-89928690D01*
X144374081Y-89930985D01*
X144308188Y-89935458D01*
X144244616Y-89943015D01*
X144174868Y-89954563D01*
X144090444Y-89971007D01*
X144036674Y-89982052D01*
X143948042Y-90001278D01*
X143862480Y-90021383D01*
X143786560Y-90040711D01*
X143726857Y-90057604D01*
X143695925Y-90067967D01*
X143633195Y-90091590D01*
X143562403Y-90117507D01*
X143517482Y-90133537D01*
X143451251Y-90160087D01*
X143369022Y-90197999D01*
X143278673Y-90243272D01*
X143188085Y-90291903D01*
X143105138Y-90339890D01*
X143077348Y-90357069D01*
X142994744Y-90415058D01*
X142901721Y-90490118D01*
X142804808Y-90576536D01*
X142710533Y-90668600D01*
X142658510Y-90723560D01*
X142604561Y-90782167D01*
X142548898Y-90842127D01*
X142499206Y-90895185D01*
X142471799Y-90924102D01*
X142428592Y-90971986D01*
X142387566Y-91021902D01*
X142359574Y-91060202D01*
X142330480Y-91103648D01*
X142303017Y-91143247D01*
X142294334Y-91155287D01*
X142270749Y-91190973D01*
X142244513Y-91235709D01*
X142238080Y-91247573D01*
X142215370Y-91287429D01*
X142194723Y-91318918D01*
X142189410Y-91325661D01*
X142165972Y-91360255D01*
X142135415Y-91416830D01*
X142099902Y-91490530D01*
X142061592Y-91576500D01*
X142022649Y-91669885D01*
X141985233Y-91765828D01*
X141951505Y-91859474D01*
X141950584Y-91862163D01*
X141924202Y-91938784D01*
X141900628Y-92006179D01*
X141881525Y-92059683D01*
X141868553Y-92094631D01*
X141863736Y-92106048D01*
X141854570Y-92134013D01*
X141845313Y-92185756D01*
X141836375Y-92256668D01*
X141828167Y-92342136D01*
X141821098Y-92437548D01*
X141815577Y-92538294D01*
X141812015Y-92639760D01*
X141810982Y-92699676D01*
X141810273Y-92798136D01*
X141810698Y-92875172D01*
X141812870Y-92937751D01*
X141817398Y-92992838D01*
X141824892Y-93047400D01*
X141835964Y-93108404D01*
X141851223Y-93182816D01*
X141854802Y-93199781D01*
X141884625Y-93332929D01*
X141912938Y-93441565D01*
X141941002Y-93529438D01*
X141970078Y-93600295D01*
X142001427Y-93657885D01*
X142016435Y-93680225D01*
X142044345Y-93721215D01*
X142065670Y-93756148D01*
X142073266Y-93771409D01*
X142088329Y-93800975D01*
X142116329Y-93847349D01*
X142153249Y-93904560D01*
X142195071Y-93966636D01*
X142237778Y-94027606D01*
X142277354Y-94081499D01*
X142307783Y-94119984D01*
X142354712Y-94174319D01*
X142389994Y-94208155D01*
X142419655Y-94223221D01*
X142449719Y-94221244D01*
X142486210Y-94203953D01*
X142522154Y-94181502D01*
X142614074Y-94134169D01*
X142714779Y-94102891D01*
X142817385Y-94088476D01*
X142915009Y-94091737D01*
X143000768Y-94113485D01*
X143021170Y-94122720D01*
X143117575Y-94178378D01*
X143202706Y-94240853D01*
X143272804Y-94306522D01*
X143324107Y-94371762D01*
X143352858Y-94432951D01*
X143355701Y-94445071D01*
X143359320Y-94483141D01*
X143360381Y-94538315D01*
X143358702Y-94599400D01*
X143358320Y-94606384D01*
X143353538Y-94666802D01*
X143345339Y-94709742D01*
X143330303Y-94746124D01*
X143305010Y-94786867D01*
X143299044Y-94795593D01*
X143257056Y-94848878D01*
X143221239Y-94876458D01*
X143189215Y-94879708D01*
X143170184Y-94870079D01*
X143158898Y-94856966D01*
X143154311Y-94834863D01*
X143155864Y-94796893D01*
X143160746Y-94753688D01*
X143168427Y-94643112D01*
X143159602Y-94552476D01*
X143132608Y-94477509D01*
X143085784Y-94413944D01*
X143017467Y-94357512D01*
X143002644Y-94347708D01*
X142919178Y-94295961D01*
X142853325Y-94260683D01*
X142800244Y-94240959D01*
X142755095Y-94235875D01*
X142713038Y-94244515D01*
X142669233Y-94265966D01*
X142646411Y-94280380D01*
X142593666Y-94319832D01*
X142565130Y-94355125D01*
X142560863Y-94390486D01*
X142580923Y-94430140D01*
X142625369Y-94478317D01*
X142649488Y-94500473D01*
X142714853Y-94558851D01*
X142675358Y-94631417D01*
X142651957Y-94680957D01*
X142639810Y-94728151D01*
X142635698Y-94786780D01*
X142635554Y-94801732D01*
X142641743Y-94891947D01*
X142659362Y-94979065D01*
X142686141Y-95054712D01*
X142718881Y-95109395D01*
X142774867Y-95162297D01*
X142843201Y-95198011D01*
X142928584Y-95218354D01*
X143017670Y-95224911D01*
X143084218Y-95228138D01*
X143135827Y-95234258D01*
X143166538Y-95242491D01*
X143170297Y-95244825D01*
X143189663Y-95274270D01*
X143184895Y-95305470D01*
X143159564Y-95333952D01*
X143117239Y-95355239D01*
X143075300Y-95363913D01*
X143039293Y-95365061D01*
X142984845Y-95363979D01*
X142921803Y-95360917D01*
X142899874Y-95359448D01*
X142836596Y-95354028D01*
X142791945Y-95346654D01*
X142756180Y-95334237D01*
X142719554Y-95313689D01*
X142686906Y-95291937D01*
X142596934Y-95216959D01*
X142530732Y-95130307D01*
X142487098Y-95029493D01*
X142464827Y-94912030D01*
X142461238Y-94825438D01*
X142463329Y-94760747D01*
X142468193Y-94700461D01*
X142474907Y-94654905D01*
X142477318Y-94645051D01*
X142484614Y-94613540D01*
X142482256Y-94588921D01*
X142467226Y-94561221D01*
X142441585Y-94526971D01*
X142401052Y-94482657D01*
X142354438Y-94442490D01*
X142330835Y-94426488D01*
X142288896Y-94396025D01*
X142235244Y-94348568D01*
X142175308Y-94289755D01*
X142114519Y-94225227D01*
X142058308Y-94160625D01*
X142012104Y-94101588D01*
X141996855Y-94079605D01*
X141914886Y-93953215D01*
X141847797Y-93844054D01*
X141793416Y-93746650D01*
X141749568Y-93655528D01*
X141714080Y-93565214D01*
X141684779Y-93470234D01*
X141659492Y-93365113D01*
X141636044Y-93244379D01*
X141614533Y-93116700D01*
X141606194Y-93062951D01*
X141600146Y-93016414D01*
X141596263Y-92971749D01*
X141594417Y-92923614D01*
X141594482Y-92866670D01*
X141596330Y-92795575D01*
X141599834Y-92704990D01*
X141602996Y-92631866D01*
X141608908Y-92512543D01*
X141615970Y-92410777D01*
X141625346Y-92320991D01*
X141638201Y-92237609D01*
X141655699Y-92155057D01*
X141679004Y-92067759D01*
X141709280Y-91970139D01*
X141747691Y-91856621D01*
X141789771Y-91737400D01*
X141836519Y-91612008D01*
X141882304Y-91502876D01*
X141931388Y-91401506D01*
X141988030Y-91299400D01*
X142056493Y-91188057D01*
X142095107Y-91128375D01*
X142165398Y-91024860D01*
X142237070Y-90927807D01*
X142314318Y-90832224D01*
X142401336Y-90733118D01*
X142502321Y-90625497D01*
X142608965Y-90516881D01*
X142784665Y-90359305D01*
X142979391Y-90220040D01*
X143194114Y-90098575D01*
X143429807Y-89994396D01*
X143687443Y-89906992D01*
X143849233Y-89863306D01*
X144011817Y-89826401D01*
X144157113Y-89800878D01*
X144293371Y-89785707D01*
X144428843Y-89779861D01*
X144514305Y-89780428D01*
X144594805Y-89781255D01*
X144658829Y-89779814D01*
X144702419Y-89776289D01*
X144721621Y-89770862D01*
X144730399Y-89748239D01*
X144740311Y-89700331D01*
X144750937Y-89630208D01*
X144761858Y-89540938D01*
X144772652Y-89435589D01*
X144781809Y-89330860D01*
X144789789Y-89241603D01*
X144799738Y-89143833D01*
X144810250Y-89050806D01*
X144817931Y-88990111D01*
X144828130Y-88911549D01*
X144839684Y-88817307D01*
X144851082Y-88719959D01*
X144859724Y-88642263D01*
X144884305Y-88431217D01*
X144910119Y-88242991D01*
X144936983Y-88078514D01*
X144964713Y-87938717D01*
X144993124Y-87824528D01*
X145022031Y-87736877D01*
X145051179Y-87676807D01*
X145067310Y-87649568D01*
X145087387Y-87613552D01*
X145087731Y-87612917D01*
X145147792Y-87530866D01*
X145227098Y-87468312D01*
X145299385Y-87435420D01*
X145386554Y-87406412D01*
X145478194Y-87434717D01*
G37*
G36*
X146596641Y-90077931D02*
G01*
X146657584Y-90085209D01*
X146737483Y-90098480D01*
X146839555Y-90117966D01*
X146924972Y-90135229D01*
X146996960Y-90157400D01*
X147087580Y-90197755D01*
X147194657Y-90255157D01*
X147316015Y-90328467D01*
X147405896Y-90387030D01*
X147469697Y-90429543D01*
X147529061Y-90468773D01*
X147577943Y-90500746D01*
X147610296Y-90521487D01*
X147613585Y-90523529D01*
X147714863Y-90595889D01*
X147810460Y-90682636D01*
X147884976Y-90768151D01*
X147926206Y-90821576D01*
X147968897Y-90875016D01*
X148004120Y-90917305D01*
X148005500Y-90918899D01*
X148061828Y-90989269D01*
X148117258Y-91068161D01*
X148165697Y-91146301D01*
X148201053Y-91214416D01*
X148203865Y-91220859D01*
X148215728Y-91248576D01*
X148226842Y-91274085D01*
X148239367Y-91302125D01*
X148255462Y-91337437D01*
X148277285Y-91384762D01*
X148306995Y-91448841D01*
X148342112Y-91524432D01*
X148365660Y-91579899D01*
X148393317Y-91652777D01*
X148423611Y-91738349D01*
X148455067Y-91831900D01*
X148486215Y-91928716D01*
X148515579Y-92024082D01*
X148541688Y-92113283D01*
X148563069Y-92191604D01*
X148578247Y-92254329D01*
X148585751Y-92296744D01*
X148586291Y-92306025D01*
X148598398Y-92339161D01*
X148632810Y-92358363D01*
X148665318Y-92362106D01*
X148708146Y-92367076D01*
X148758804Y-92383213D01*
X148821620Y-92412358D01*
X148900921Y-92456349D01*
X148936171Y-92477277D01*
X149021469Y-92533578D01*
X149085979Y-92589272D01*
X149136295Y-92651272D01*
X149179012Y-92726492D01*
X149184236Y-92737360D01*
X149211002Y-92804430D01*
X149222556Y-92866044D01*
X149219228Y-92931470D01*
X149201351Y-93009979D01*
X149194775Y-93032315D01*
X149179261Y-93086779D01*
X149175167Y-93122115D01*
X149186322Y-93143247D01*
X149216557Y-93155100D01*
X149269703Y-93162595D01*
X149298389Y-93165492D01*
X149391118Y-93185727D01*
X149471787Y-93227939D01*
X149542357Y-93293783D01*
X149604791Y-93384915D01*
X149639783Y-93453774D01*
X149665117Y-93505859D01*
X149690255Y-93552543D01*
X149708304Y-93581555D01*
X149735503Y-93632397D01*
X149751582Y-93696772D01*
X149757041Y-93778730D01*
X149752383Y-93882320D01*
X149749481Y-93914259D01*
X149729686Y-94042642D01*
X149696469Y-94150522D01*
X149647513Y-94243530D01*
X149580500Y-94327297D01*
X149578700Y-94329188D01*
X149552923Y-94359572D01*
X149538493Y-94383160D01*
X149537381Y-94387873D01*
X149550546Y-94403827D01*
X149586189Y-94415262D01*
X149638530Y-94420465D01*
X149647871Y-94420604D01*
X149728755Y-94434530D01*
X149804396Y-94475773D01*
X149875102Y-94544572D01*
X149941180Y-94641169D01*
X149950016Y-94656811D01*
X149988292Y-94737069D01*
X150005583Y-94806200D01*
X150002150Y-94871921D01*
X149978251Y-94941950D01*
X149960772Y-94977142D01*
X149928994Y-95028674D01*
X149892675Y-95075838D01*
X149866123Y-95102642D01*
X149771299Y-95166265D01*
X149657321Y-95219232D01*
X149532305Y-95258799D01*
X149404367Y-95282224D01*
X149318913Y-95287541D01*
X149217929Y-95288212D01*
X149155467Y-95366268D01*
X149110884Y-95414194D01*
X149049308Y-95466772D01*
X148967254Y-95526836D01*
X148914103Y-95562788D01*
X148840455Y-95611067D01*
X148775301Y-95652142D01*
X148714876Y-95687602D01*
X148655415Y-95719037D01*
X148593152Y-95748038D01*
X148524322Y-95776192D01*
X148445160Y-95805091D01*
X148351900Y-95836323D01*
X148240777Y-95871479D01*
X148108025Y-95912148D01*
X148032406Y-95935034D01*
X147903002Y-95973532D01*
X147791027Y-96005118D01*
X147691112Y-96030672D01*
X147597885Y-96051072D01*
X147505975Y-96067199D01*
X147410012Y-96079932D01*
X147304623Y-96090151D01*
X147184437Y-96098735D01*
X147044085Y-96106563D01*
X146959547Y-96110713D01*
X146868738Y-96115276D01*
X146787641Y-96119804D01*
X146720497Y-96124023D01*
X146671547Y-96127659D01*
X146645030Y-96130437D01*
X146641655Y-96131247D01*
X146621516Y-96135010D01*
X146576822Y-96138137D01*
X146511409Y-96140594D01*
X146429113Y-96142345D01*
X146333767Y-96143355D01*
X146229207Y-96143589D01*
X146119269Y-96143012D01*
X146007787Y-96141588D01*
X145898597Y-96139282D01*
X145865442Y-96138372D01*
X145769079Y-96135179D01*
X145681838Y-96131555D01*
X145607839Y-96127730D01*
X145551200Y-96123934D01*
X145516041Y-96120398D01*
X145506516Y-96118268D01*
X145487826Y-96114505D01*
X145445378Y-96109979D01*
X145383787Y-96105052D01*
X145307669Y-96100089D01*
X145221639Y-96095453D01*
X145210150Y-96094902D01*
X144976895Y-96079386D01*
X144766843Y-96055621D01*
X144575807Y-96022852D01*
X144399601Y-95980322D01*
X144234037Y-95927275D01*
X144189432Y-95910594D01*
X144114338Y-95881858D01*
X144035833Y-95852192D01*
X143965215Y-95825848D01*
X143929220Y-95812639D01*
X143864500Y-95786764D01*
X143797868Y-95756347D01*
X143744648Y-95728468D01*
X143658737Y-95677550D01*
X143576124Y-95627029D01*
X143502192Y-95580307D01*
X143442325Y-95540785D01*
X143402430Y-95512269D01*
X143354345Y-95475008D01*
X143378892Y-95423532D01*
X143400797Y-95387901D01*
X143425710Y-95373450D01*
X143440996Y-95372056D01*
X143486179Y-95378855D01*
X143548430Y-95397192D01*
X143620477Y-95423979D01*
X143695049Y-95456127D01*
X143764874Y-95490546D01*
X143822681Y-95524148D01*
X143854791Y-95547840D01*
X143876550Y-95564306D01*
X143905049Y-95579945D01*
X143944844Y-95596552D01*
X144000492Y-95615918D01*
X144076548Y-95639838D01*
X144127991Y-95655363D01*
X144202302Y-95679057D01*
X144281494Y-95706655D01*
X144351600Y-95733230D01*
X144369355Y-95740511D01*
X144443919Y-95767216D01*
X144540344Y-95794695D01*
X144652173Y-95821621D01*
X144772947Y-95846665D01*
X144896209Y-95868502D01*
X145015502Y-95885802D01*
X145124369Y-95897239D01*
X145136040Y-95898127D01*
X145223833Y-95904803D01*
X145317457Y-95912429D01*
X145405158Y-95920020D01*
X145469690Y-95926047D01*
X145637006Y-95940003D01*
X145816793Y-95950372D01*
X146005517Y-95957253D01*
X146199643Y-95960747D01*
X146395636Y-95960952D01*
X146589962Y-95957968D01*
X146779085Y-95951893D01*
X146959472Y-95942828D01*
X147127587Y-95930872D01*
X147279896Y-95916124D01*
X147412863Y-95898684D01*
X147522955Y-95878651D01*
X147570976Y-95866973D01*
X147626061Y-95852248D01*
X147698471Y-95833299D01*
X147777981Y-95812786D01*
X147840735Y-95796809D01*
X147958369Y-95765154D01*
X148080239Y-95728934D01*
X148200763Y-95690071D01*
X148314359Y-95650489D01*
X148415444Y-95612110D01*
X148498438Y-95576859D01*
X148543530Y-95554670D01*
X148744605Y-95432132D01*
X148941377Y-95283153D01*
X148990763Y-95241067D01*
X149068258Y-95177456D01*
X149134167Y-95133631D01*
X149194509Y-95107097D01*
X149255306Y-95095362D01*
X149322577Y-95095933D01*
X149337795Y-95097352D01*
X149394904Y-95099622D01*
X149452843Y-95092762D01*
X149523411Y-95075285D01*
X149531652Y-95072886D01*
X149590346Y-95054057D01*
X149633757Y-95034472D01*
X149672140Y-95007951D01*
X149715749Y-94968309D01*
X149732602Y-94951724D01*
X149772671Y-94908972D01*
X149803329Y-94870659D01*
X149819796Y-94842998D01*
X149821339Y-94836428D01*
X149814411Y-94788219D01*
X149796670Y-94728845D01*
X149772676Y-94670860D01*
X149746990Y-94626816D01*
X149743659Y-94622644D01*
X149694787Y-94584115D01*
X149623935Y-94555554D01*
X149536258Y-94538566D01*
X149460223Y-94534381D01*
X149405195Y-94533323D01*
X149370295Y-94528684D01*
X149347288Y-94518270D01*
X149327940Y-94499886D01*
X149327067Y-94498887D01*
X149303635Y-94477509D01*
X149274871Y-94466821D01*
X149230462Y-94463475D01*
X149217706Y-94463392D01*
X149171297Y-94461603D01*
X149138412Y-94452973D01*
X149107180Y-94432610D01*
X149075713Y-94404866D01*
X149023384Y-94345750D01*
X148995588Y-94284154D01*
X148990189Y-94213113D01*
X148998676Y-94153625D01*
X149011281Y-94101932D01*
X149025684Y-94056347D01*
X149034058Y-94036389D01*
X149053059Y-94009245D01*
X149083523Y-93975047D01*
X149118583Y-93940445D01*
X149151369Y-93912086D01*
X149175013Y-93896619D01*
X149179636Y-93895477D01*
X149204162Y-93907214D01*
X149213125Y-93941015D01*
X149208116Y-93985003D01*
X149191408Y-94063433D01*
X149180250Y-94119653D01*
X149174120Y-94159190D01*
X149172497Y-94187573D01*
X149174859Y-94210330D01*
X149180683Y-94232989D01*
X149183770Y-94242959D01*
X149202135Y-94293871D01*
X149221096Y-94322120D01*
X149246809Y-94332891D01*
X149285430Y-94331369D01*
X149288329Y-94330995D01*
X149334312Y-94318343D01*
X149373797Y-94289729D01*
X149393136Y-94269182D01*
X149427750Y-94226896D01*
X149452654Y-94187613D01*
X149470522Y-94144177D01*
X149484031Y-94089433D01*
X149495857Y-94016226D01*
X149500444Y-93982252D01*
X149511940Y-93856695D01*
X149510178Y-93753716D01*
X149494891Y-93670643D01*
X149465810Y-93604806D01*
X149462089Y-93599000D01*
X149433598Y-93552579D01*
X149404019Y-93499461D01*
X149395738Y-93483421D01*
X149352890Y-93410812D01*
X149305389Y-93360312D01*
X149246146Y-93326812D01*
X149168075Y-93305207D01*
X149142090Y-93300627D01*
X149092566Y-93293914D01*
X149056815Y-93294690D01*
X149022173Y-93305037D01*
X148975976Y-93327037D01*
X148973370Y-93328362D01*
X148912988Y-93355152D01*
X148842979Y-93380641D01*
X148796064Y-93394568D01*
X148745453Y-93407053D01*
X148713683Y-93411960D01*
X148692150Y-93408984D01*
X148672247Y-93397820D01*
X148661185Y-93389788D01*
X148627450Y-93357606D01*
X148603096Y-93322736D01*
X148586450Y-93295801D01*
X148573149Y-93284968D01*
X148562964Y-93297380D01*
X148548859Y-93329038D01*
X148533545Y-93371581D01*
X148519734Y-93416644D01*
X148510138Y-93455866D01*
X148507469Y-93480883D01*
X148508465Y-93484434D01*
X148508819Y-93505824D01*
X148501202Y-93525836D01*
X148488505Y-93557741D01*
X148475720Y-93601994D01*
X148472718Y-93614866D01*
X148437761Y-93742126D01*
X148391380Y-93861404D01*
X148336997Y-93964520D01*
X148309234Y-94005632D01*
X148255973Y-94071679D01*
X148192140Y-94141441D01*
X148121518Y-94211686D01*
X148047891Y-94279187D01*
X147975040Y-94340714D01*
X147906750Y-94393038D01*
X147846804Y-94432929D01*
X147798985Y-94457158D01*
X147773295Y-94463109D01*
X147743256Y-94459353D01*
X147736747Y-94445525D01*
X147753419Y-94418698D01*
X147766196Y-94404005D01*
X147870656Y-94285525D01*
X147955712Y-94180760D01*
X148024251Y-94085836D01*
X148079162Y-93996880D01*
X148103052Y-93952161D01*
X148129529Y-93897776D01*
X148151667Y-93846284D01*
X148170852Y-93792781D01*
X148188470Y-93732362D01*
X148205907Y-93660123D01*
X148224549Y-93571159D01*
X148245783Y-93460566D01*
X148253096Y-93421187D01*
X148289355Y-93205518D01*
X148296656Y-93147844D01*
X148582147Y-93147844D01*
X148647199Y-93209307D01*
X148682963Y-93241354D01*
X148711304Y-93263590D01*
X148724747Y-93270770D01*
X148744545Y-93266500D01*
X148780960Y-93255627D01*
X148804061Y-93248003D01*
X148863883Y-93218053D01*
X148904353Y-93180563D01*
X148962720Y-93084313D01*
X148993449Y-92989096D01*
X148996538Y-92896208D01*
X148971987Y-92806944D01*
X148919795Y-92722599D01*
X148904718Y-92704959D01*
X148865816Y-92668632D01*
X148816663Y-92632448D01*
X148763183Y-92599581D01*
X148711298Y-92573203D01*
X148666932Y-92556488D01*
X148636007Y-92552611D01*
X148627495Y-92556420D01*
X148620744Y-92577717D01*
X148616067Y-92623899D01*
X148613718Y-92691510D01*
X148613572Y-92747316D01*
X148612692Y-92828921D01*
X148609246Y-92913210D01*
X148603818Y-92989031D01*
X148598543Y-93035383D01*
X148582147Y-93147844D01*
X148296656Y-93147844D01*
X148313984Y-93010950D01*
X148326999Y-92832687D01*
X148328418Y-92665932D01*
X148318258Y-92505889D01*
X148296536Y-92347763D01*
X148263268Y-92186758D01*
X148257597Y-92163336D01*
X148236823Y-92080319D01*
X148216639Y-92002088D01*
X148198710Y-91934916D01*
X148184697Y-91885072D01*
X148178558Y-91865181D01*
X148153141Y-91796533D01*
X148116692Y-91708404D01*
X148071676Y-91606297D01*
X148020563Y-91495711D01*
X147965820Y-91382148D01*
X147927223Y-91304932D01*
X147878614Y-91212409D01*
X147834155Y-91136420D01*
X147787359Y-91067169D01*
X147731742Y-90994861D01*
X147682436Y-90935220D01*
X147615660Y-90856531D01*
X147561513Y-90795070D01*
X147514614Y-90746110D01*
X147469582Y-90704925D01*
X147421036Y-90666789D01*
X147363595Y-90626976D01*
X147291878Y-90580761D01*
X147245957Y-90551877D01*
X147203551Y-90523782D01*
X147158164Y-90491609D01*
X147151549Y-90486699D01*
X147119821Y-90465360D01*
X147070016Y-90434659D01*
X147009031Y-90398745D01*
X146945487Y-90362726D01*
X146862521Y-90318711D01*
X146794223Y-90287833D01*
X146732184Y-90266682D01*
X146675728Y-90253335D01*
X146602729Y-90238010D01*
X146552056Y-90224284D01*
X146517928Y-90209703D01*
X146494567Y-90191814D01*
X146476619Y-90168817D01*
X146461273Y-90141542D01*
X146463100Y-90123108D01*
X146478068Y-90104280D01*
X146495366Y-90089819D01*
X146518750Y-90080458D01*
X146551435Y-90076421D01*
X146596641Y-90077931D01*
G37*
D13*
%TO.C,Q5*%
X163346000Y-74350000D02*
X163346000Y-67550000D01*
X169566000Y-67550000D02*
X163346000Y-67550000D01*
X169566000Y-74350000D02*
X163346000Y-74350000D01*
D11*
X159229000Y-68664000D02*
G75*
G02*
X159029000Y-68664000I-100000J0D01*
G01*
X159029000Y-68664000D02*
G75*
G02*
X159229000Y-68664000I100000J0D01*
G01*
D15*
%TO.C,G\u002A\u002A\u002A*%
G36*
X141968744Y-63966551D02*
G01*
X141956231Y-63979064D01*
X141943719Y-63966551D01*
X141956231Y-63954039D01*
X141968744Y-63966551D01*
G37*
G36*
X149294183Y-59434487D02*
G01*
X149286720Y-59445861D01*
X149261338Y-59447630D01*
X149234636Y-59441519D01*
X149246219Y-59432511D01*
X149285329Y-59429528D01*
X149294183Y-59434487D01*
G37*
G36*
X150651639Y-59945062D02*
G01*
X150661340Y-59962611D01*
X150669469Y-59995186D01*
X150667081Y-60000148D01*
X150646174Y-59983598D01*
X150627266Y-59962611D01*
X150612039Y-59932126D01*
X150621524Y-59925074D01*
X150651639Y-59945062D01*
G37*
G36*
X150675387Y-59763557D02*
G01*
X150677315Y-59771972D01*
X150659053Y-59807349D01*
X150652290Y-59812463D01*
X150629194Y-59811319D01*
X150627266Y-59802904D01*
X150645528Y-59767527D01*
X150652290Y-59762414D01*
X150675387Y-59763557D01*
G37*
G36*
X150961701Y-59646302D02*
G01*
X150968707Y-59687357D01*
X150968326Y-59739751D01*
X150958186Y-59743179D01*
X150942751Y-59710318D01*
X150928297Y-59650765D01*
X150941827Y-59625272D01*
X150946330Y-59624796D01*
X150961701Y-59646302D01*
G37*
G36*
X149327294Y-59194755D02*
G01*
X149328286Y-59197215D01*
X149343629Y-59252408D01*
X149343805Y-59283536D01*
X149330002Y-59286326D01*
X149318065Y-59264865D01*
X149303879Y-59203927D01*
X149302547Y-59178544D01*
X149309544Y-59162321D01*
X149327294Y-59194755D01*
G37*
G36*
X150675815Y-60251691D02*
G01*
X150653987Y-60286555D01*
X150629750Y-60310707D01*
X150589025Y-60335229D01*
X150567403Y-60329835D01*
X150575194Y-60301059D01*
X150614632Y-60265287D01*
X150614968Y-60265067D01*
X150662063Y-60242227D01*
X150675815Y-60251691D01*
G37*
G36*
X150778017Y-59997943D02*
G01*
X150822957Y-60033988D01*
X150852851Y-60063084D01*
X150906578Y-60121001D01*
X150923344Y-60145378D01*
X150903509Y-60136026D01*
X150847430Y-60092752D01*
X150827623Y-60076474D01*
X150778499Y-60030697D01*
X150754165Y-59997724D01*
X150754259Y-59989935D01*
X150778017Y-59997943D01*
G37*
G36*
X150677879Y-58381583D02*
G01*
X150693861Y-58429227D01*
X150710105Y-58509192D01*
X150713272Y-58529950D01*
X150721532Y-58611708D01*
X150716337Y-58647549D01*
X150697919Y-58636366D01*
X150692805Y-58628611D01*
X150683195Y-58594095D01*
X150671846Y-58526983D01*
X150664788Y-58472207D01*
X150660015Y-58399110D01*
X150665488Y-58370223D01*
X150677879Y-58381583D01*
G37*
G36*
X150167551Y-58136123D02*
G01*
X150137895Y-58170267D01*
X150087476Y-58211251D01*
X150026743Y-58252362D01*
X149967814Y-58286669D01*
X149922808Y-58307246D01*
X149903843Y-58307163D01*
X149904324Y-58303810D01*
X149928102Y-58275324D01*
X149977846Y-58233130D01*
X150040468Y-58186516D01*
X150102877Y-58144771D01*
X150151984Y-58117185D01*
X150174180Y-58112316D01*
X150167551Y-58136123D01*
G37*
G36*
X141900407Y-63990245D02*
G01*
X141873093Y-64008069D01*
X141822556Y-64036311D01*
X141759625Y-64069106D01*
X141695130Y-64100587D01*
X141649680Y-64120886D01*
X141594907Y-64140828D01*
X141572084Y-64137890D01*
X141568350Y-64120333D01*
X141591257Y-64093671D01*
X141653244Y-64063172D01*
X141712241Y-64043102D01*
X141796190Y-64018118D01*
X141864014Y-63997759D01*
X141893670Y-63988708D01*
X141900407Y-63990245D01*
G37*
G36*
X148740703Y-59262956D02*
G01*
X148836742Y-59274782D01*
X148932820Y-59292212D01*
X149013177Y-59312992D01*
X149113276Y-59344559D01*
X149013177Y-59344072D01*
X148925938Y-59338718D01*
X148845511Y-59326282D01*
X148838005Y-59324483D01*
X148759233Y-59310360D01*
X148672180Y-59302525D01*
X148669088Y-59302419D01*
X148608728Y-59294143D01*
X148576771Y-59277339D01*
X148575246Y-59272441D01*
X148597711Y-59260652D01*
X148656945Y-59257868D01*
X148740703Y-59262956D01*
G37*
G36*
X150251188Y-58165902D02*
G01*
X150233247Y-58205348D01*
X150186139Y-58262333D01*
X150121845Y-58325903D01*
X150052345Y-58385105D01*
X149989622Y-58428986D01*
X149945656Y-58446594D01*
X149944153Y-58446588D01*
X149909017Y-58443407D01*
X149916027Y-58433284D01*
X149953813Y-58415307D01*
X150004324Y-58381879D01*
X150071862Y-58323690D01*
X150134533Y-58260936D01*
X150191742Y-58203229D01*
X150233390Y-58168891D01*
X150251063Y-58164777D01*
X150251188Y-58165902D01*
G37*
G36*
X150859356Y-59638587D02*
G01*
X150880693Y-59672932D01*
X150881882Y-59749052D01*
X150883036Y-59825959D01*
X150910812Y-59882891D01*
X150936437Y-59911200D01*
X150972809Y-59955159D01*
X150970883Y-59974548D01*
X150965777Y-59975123D01*
X150927686Y-59956938D01*
X150882225Y-59912804D01*
X150879328Y-59909187D01*
X150851002Y-59855536D01*
X150832568Y-59787622D01*
X150825059Y-59719408D01*
X150829505Y-59664860D01*
X150846936Y-59637941D01*
X150859356Y-59638587D01*
G37*
G36*
X151878497Y-66362410D02*
G01*
X151857761Y-66383383D01*
X151803295Y-66419318D01*
X151726709Y-66463991D01*
X151639615Y-66511175D01*
X151553625Y-66554642D01*
X151480350Y-66588168D01*
X151431401Y-66605526D01*
X151423020Y-66606650D01*
X151408084Y-66598267D01*
X151432445Y-66571863D01*
X151498197Y-66525553D01*
X151549304Y-66493066D01*
X151647433Y-66436467D01*
X151738619Y-66391737D01*
X151813625Y-66362543D01*
X151863216Y-66352549D01*
X151878497Y-66362410D01*
G37*
G36*
X150593680Y-58256545D02*
G01*
X150601497Y-58288397D01*
X150605487Y-58355015D01*
X150605022Y-58431183D01*
X150606309Y-58526878D01*
X150614913Y-58611816D01*
X150625477Y-58656624D01*
X150637161Y-58704213D01*
X150629324Y-58723891D01*
X150602796Y-58703907D01*
X150592406Y-58684308D01*
X150584958Y-58643127D01*
X150580091Y-58573795D01*
X150577769Y-58489204D01*
X150577951Y-58402247D01*
X150580600Y-58325816D01*
X150585677Y-58272802D01*
X150593144Y-58256099D01*
X150593680Y-58256545D01*
G37*
G36*
X150849544Y-59965788D02*
G01*
X150905470Y-60007597D01*
X150977522Y-60067638D01*
X151004884Y-60091713D01*
X151095508Y-60168958D01*
X151188836Y-60242679D01*
X151266632Y-60298552D01*
X151275699Y-60304422D01*
X151330863Y-60343113D01*
X151356413Y-60368890D01*
X151351623Y-60375410D01*
X151310670Y-60362144D01*
X151247655Y-60328580D01*
X151212957Y-60306592D01*
X151149436Y-60260205D01*
X151074724Y-60200003D01*
X150996966Y-60133374D01*
X150924308Y-60067711D01*
X150864895Y-60010402D01*
X150826873Y-59968839D01*
X150818386Y-59950411D01*
X150820041Y-59950098D01*
X150849544Y-59965788D01*
G37*
G36*
X148041572Y-59044846D02*
G01*
X148081924Y-59056274D01*
X148162015Y-59071149D01*
X148271792Y-59087870D01*
X148401201Y-59104830D01*
X148462878Y-59112081D01*
X148600881Y-59129315D01*
X148726694Y-59147953D01*
X148829278Y-59166146D01*
X148897595Y-59182048D01*
X148913079Y-59187451D01*
X148988152Y-59220301D01*
X148923505Y-59222343D01*
X148871227Y-59220503D01*
X148848432Y-59214567D01*
X148821158Y-59208142D01*
X148753395Y-59197219D01*
X148654361Y-59183153D01*
X148533272Y-59167295D01*
X148487660Y-59161606D01*
X148320441Y-59138357D01*
X148180862Y-59113623D01*
X148073915Y-59088660D01*
X148004597Y-59064723D01*
X147977902Y-59043066D01*
X147981182Y-59034343D01*
X148011688Y-59033050D01*
X148041572Y-59044846D01*
G37*
G36*
X148030296Y-66249573D02*
G01*
X148199722Y-66292011D01*
X148384712Y-66366405D01*
X148580400Y-66471807D01*
X148650320Y-66515719D01*
X148720973Y-66563378D01*
X148752984Y-66590777D01*
X148750738Y-66603223D01*
X148724947Y-66606009D01*
X148665873Y-66592535D01*
X148592377Y-66557928D01*
X148565592Y-66541181D01*
X148418242Y-66453914D01*
X148261609Y-66383325D01*
X148105909Y-66332256D01*
X147961355Y-66303548D01*
X147838164Y-66300042D01*
X147761375Y-66317492D01*
X147701027Y-66354891D01*
X147664108Y-66400004D01*
X147662572Y-66404168D01*
X147640117Y-66445804D01*
X147622624Y-66456502D01*
X147599874Y-66440335D01*
X147608251Y-66399386D01*
X147644225Y-66344985D01*
X147664058Y-66323481D01*
X147757598Y-66264360D01*
X147881300Y-66240040D01*
X148030296Y-66249573D01*
G37*
G36*
X144557909Y-65525107D02*
G01*
X144571305Y-65564057D01*
X144559400Y-65595812D01*
X144526603Y-65662843D01*
X144477289Y-65757224D01*
X144415835Y-65871031D01*
X144346616Y-65996337D01*
X144274009Y-66125216D01*
X144202390Y-66249743D01*
X144136134Y-66361992D01*
X144082014Y-66450246D01*
X144029857Y-66526222D01*
X143983603Y-66581831D01*
X143952338Y-66606314D01*
X143949931Y-66606650D01*
X143924506Y-66594849D01*
X143924836Y-66586004D01*
X143939566Y-66557241D01*
X143974324Y-66492440D01*
X144024859Y-66399331D01*
X144086923Y-66285643D01*
X144156266Y-66159107D01*
X144228639Y-66027450D01*
X144299791Y-65898403D01*
X144365474Y-65779696D01*
X144421438Y-65679057D01*
X144463433Y-65604216D01*
X144487209Y-65562903D01*
X144488322Y-65561074D01*
X144525636Y-65523544D01*
X144557909Y-65525107D01*
G37*
G36*
X151123870Y-59314984D02*
G01*
X151193468Y-59359013D01*
X151252936Y-59429507D01*
X151296744Y-59520933D01*
X151319360Y-59627759D01*
X151315257Y-59744454D01*
X151304940Y-59792489D01*
X151259838Y-59891231D01*
X151190469Y-59962470D01*
X151107487Y-59996450D01*
X151080590Y-59997891D01*
X151041527Y-59995149D01*
X151045198Y-59988198D01*
X151094360Y-59972791D01*
X151097466Y-59971894D01*
X151174786Y-59929853D01*
X151209424Y-59863808D01*
X151199211Y-59779145D01*
X151186762Y-59750287D01*
X151156685Y-59700460D01*
X151131086Y-59690947D01*
X151111578Y-59702896D01*
X151083270Y-59714689D01*
X151050151Y-59696873D01*
X151001119Y-59643359D01*
X150999522Y-59641426D01*
X150947618Y-59586975D01*
X150902739Y-59554106D01*
X150888202Y-59549704D01*
X150856760Y-59533088D01*
X150861554Y-59485025D01*
X150873675Y-59462118D01*
X150927561Y-59462118D01*
X150940074Y-59474630D01*
X150952586Y-59462118D01*
X150940074Y-59449606D01*
X150927561Y-59462118D01*
X150873675Y-59462118D01*
X150902210Y-59408192D01*
X150909592Y-59397001D01*
X150976402Y-59328446D01*
X151049671Y-59302951D01*
X151123870Y-59314984D01*
G37*
G36*
X148939909Y-58393812D02*
G01*
X149051995Y-58451408D01*
X149130493Y-58542354D01*
X149171065Y-58662581D01*
X149175798Y-58727673D01*
X149154976Y-58846183D01*
X149098816Y-58944975D01*
X149016602Y-59019137D01*
X148917618Y-59063753D01*
X148811150Y-59073911D01*
X148706481Y-59044695D01*
X148648837Y-59006587D01*
X148585037Y-58940302D01*
X148537822Y-58867622D01*
X148510503Y-58799034D01*
X148584039Y-58799034D01*
X148597785Y-58867678D01*
X148601315Y-58876560D01*
X148659764Y-58957797D01*
X148747450Y-59007629D01*
X148851598Y-59021856D01*
X148959434Y-58996278D01*
X148961950Y-58995145D01*
X149009360Y-58962631D01*
X149024797Y-58917247D01*
X149008106Y-58850651D01*
X148959135Y-58754495D01*
X148957476Y-58751606D01*
X148936817Y-58756905D01*
X148914002Y-58773174D01*
X148864478Y-58792347D01*
X148819812Y-58779010D01*
X148800468Y-58739403D01*
X148782495Y-58714217D01*
X148744872Y-58711983D01*
X148712040Y-58731974D01*
X148706782Y-58742190D01*
X148679191Y-58758772D01*
X148651944Y-58756592D01*
X148602954Y-58759964D01*
X148584039Y-58799034D01*
X148510503Y-58799034D01*
X148510246Y-58798390D01*
X148505359Y-58742447D01*
X148526213Y-58709634D01*
X148555452Y-58705418D01*
X148605371Y-58693793D01*
X148619848Y-58667586D01*
X148611225Y-58631184D01*
X148581252Y-58623793D01*
X148526351Y-58612884D01*
X148514655Y-58577491D01*
X148520829Y-58561231D01*
X148600271Y-58561231D01*
X148612783Y-58573744D01*
X148625295Y-58561231D01*
X148612783Y-58548719D01*
X148600271Y-58561231D01*
X148520829Y-58561231D01*
X148529204Y-58539172D01*
X148588313Y-58447157D01*
X148657063Y-58395589D01*
X148750588Y-58375169D01*
X148798574Y-58373640D01*
X148939909Y-58393812D01*
G37*
G36*
X144028031Y-58129901D02*
G01*
X143985915Y-58177073D01*
X143917097Y-58240924D01*
X143828610Y-58315274D01*
X143727487Y-58393947D01*
X143620762Y-58470765D01*
X143620369Y-58471036D01*
X143457213Y-58575553D01*
X143256146Y-58691730D01*
X143026571Y-58814916D01*
X142777895Y-58940458D01*
X142519522Y-59063704D01*
X142260856Y-59180002D01*
X142011302Y-59284700D01*
X141843620Y-59349887D01*
X141749060Y-59385357D01*
X141668776Y-59415712D01*
X141617595Y-59435341D01*
X141612143Y-59437492D01*
X141582392Y-59441398D01*
X141570646Y-59413378D01*
X141569492Y-59370953D01*
X141574288Y-59329108D01*
X141662557Y-59329108D01*
X141669465Y-59332931D01*
X141699635Y-59323560D01*
X141749818Y-59304498D01*
X141756034Y-59302108D01*
X141839810Y-59268948D01*
X141948741Y-59224504D01*
X142062013Y-59177287D01*
X142084689Y-59167695D01*
X142194209Y-59114961D01*
X142307243Y-59050059D01*
X142413245Y-58980238D01*
X142501668Y-58912747D01*
X142561965Y-58854837D01*
X142580681Y-58826735D01*
X142580580Y-58807916D01*
X142552814Y-58801019D01*
X142488346Y-58804793D01*
X142451527Y-58808862D01*
X142301238Y-58842969D01*
X142185197Y-58907532D01*
X142154258Y-58934934D01*
X142123538Y-58961100D01*
X142063235Y-59009573D01*
X141983513Y-59072248D01*
X141932561Y-59111773D01*
X141813914Y-59203422D01*
X141731532Y-59267857D01*
X141682163Y-59308585D01*
X141662557Y-59329108D01*
X141574288Y-59329108D01*
X141574712Y-59325405D01*
X141594462Y-59285612D01*
X141636990Y-59241314D01*
X141710544Y-59182252D01*
X141737620Y-59161822D01*
X141867263Y-59062452D01*
X141967896Y-58980638D01*
X142035765Y-58919611D01*
X142067117Y-58882600D01*
X142068842Y-58876818D01*
X142045617Y-58870594D01*
X141982990Y-58867431D01*
X141891531Y-58867623D01*
X141818596Y-58869809D01*
X141568350Y-58879860D01*
X141568350Y-58814388D01*
X141575107Y-58769007D01*
X141605506Y-58751280D01*
X141649680Y-58748760D01*
X141698719Y-58743862D01*
X141787841Y-58730295D01*
X141908131Y-58709604D01*
X142050676Y-58683331D01*
X142206561Y-58653020D01*
X142231502Y-58648028D01*
X142616433Y-58566690D01*
X142959404Y-58485906D01*
X143258887Y-58406120D01*
X143513358Y-58327775D01*
X143721291Y-58251314D01*
X143881158Y-58177181D01*
X143912966Y-58159339D01*
X143978037Y-58124466D01*
X144023823Y-58105992D01*
X144036413Y-58105584D01*
X144028031Y-58129901D01*
G37*
G36*
X149380189Y-60286325D02*
G01*
X149456533Y-60315982D01*
X149555179Y-60359792D01*
X149659613Y-60410367D01*
X149774025Y-60465574D01*
X149881267Y-60513052D01*
X149968507Y-60547370D01*
X150018880Y-60562436D01*
X150097437Y-60581785D01*
X150192824Y-60611377D01*
X150237324Y-60627175D01*
X150314699Y-60662180D01*
X150369764Y-60705667D01*
X150405962Y-60766065D01*
X150426739Y-60851808D01*
X150435538Y-60971328D01*
X150436076Y-61113744D01*
X150420616Y-61378165D01*
X150382201Y-61614842D01*
X150322250Y-61816264D01*
X150289086Y-61892457D01*
X150233192Y-61984832D01*
X150160758Y-62074632D01*
X150082114Y-62151763D01*
X150007595Y-62206132D01*
X149947531Y-62227648D01*
X149945904Y-62227681D01*
X149875390Y-62232468D01*
X149838990Y-62237882D01*
X149792614Y-62238576D01*
X149711328Y-62232029D01*
X149609536Y-62219554D01*
X149563719Y-62212798D01*
X149275311Y-62155743D01*
X149020462Y-62080097D01*
X148801576Y-61987458D01*
X148621054Y-61879426D01*
X148481299Y-61757599D01*
X148409351Y-61657764D01*
X148460815Y-61657764D01*
X148469367Y-61681187D01*
X148508124Y-61725969D01*
X148567476Y-61783145D01*
X148637812Y-61843751D01*
X148709519Y-61898823D01*
X148745012Y-61922840D01*
X148869365Y-61988714D01*
X149022017Y-62049222D01*
X149192660Y-62102234D01*
X149370986Y-62145620D01*
X149546684Y-62177252D01*
X149709447Y-62195000D01*
X149848964Y-62196733D01*
X149954928Y-62180324D01*
X149968740Y-62175623D01*
X150064490Y-62124376D01*
X150122581Y-62060507D01*
X150137296Y-61990753D01*
X150135234Y-61979457D01*
X150098406Y-61870894D01*
X150047809Y-61781581D01*
X149990757Y-61721827D01*
X149938319Y-61701822D01*
X149940902Y-61722093D01*
X149958784Y-61772408D01*
X149965390Y-61788605D01*
X149998163Y-61895320D01*
X149994723Y-61970637D01*
X149955207Y-62012951D01*
X149946035Y-62016397D01*
X149833383Y-62034368D01*
X149685042Y-62031258D01*
X149509751Y-62009030D01*
X149316248Y-61969648D01*
X149113274Y-61915075D01*
X148909567Y-61847274D01*
X148713865Y-61768208D01*
X148599289Y-61713837D01*
X148528420Y-61680149D01*
X148477728Y-61660221D01*
X148460815Y-61657764D01*
X148409351Y-61657764D01*
X148384714Y-61623577D01*
X148371863Y-61587145D01*
X148550221Y-61587145D01*
X148573478Y-61623329D01*
X148638257Y-61667178D01*
X148737068Y-61716213D01*
X148862423Y-61767955D01*
X149006832Y-61819925D01*
X149162808Y-61869642D01*
X149322860Y-61914629D01*
X149479501Y-61952405D01*
X149625241Y-61980491D01*
X149752591Y-61996408D01*
X149793362Y-61998710D01*
X149864432Y-61995769D01*
X149899140Y-61977892D01*
X149907701Y-61958325D01*
X149903299Y-61880592D01*
X149865085Y-61792472D01*
X149818554Y-61730595D01*
X149741973Y-61669554D01*
X149627292Y-61605041D01*
X149536517Y-61564187D01*
X149676330Y-61564187D01*
X149688842Y-61576699D01*
X149701354Y-61564187D01*
X149688842Y-61551675D01*
X149676330Y-61564187D01*
X149536517Y-61564187D01*
X149485852Y-61541385D01*
X149328991Y-61482917D01*
X149168047Y-61433967D01*
X149014361Y-61398865D01*
X148911888Y-61384343D01*
X148776933Y-61386414D01*
X148668064Y-61417570D01*
X148591471Y-61474341D01*
X148553342Y-61553255D01*
X148550221Y-61587145D01*
X148371863Y-61587145D01*
X148333702Y-61478958D01*
X148325956Y-61389015D01*
X148334009Y-61338965D01*
X148675345Y-61338965D01*
X148687857Y-61351478D01*
X148700369Y-61338965D01*
X148687857Y-61326453D01*
X148675345Y-61338965D01*
X148334009Y-61338965D01*
X148338036Y-61313941D01*
X148750418Y-61313941D01*
X148762931Y-61326453D01*
X148775443Y-61313941D01*
X148762931Y-61301428D01*
X148750418Y-61313941D01*
X148338036Y-61313941D01*
X148345315Y-61268701D01*
X148397436Y-61127287D01*
X148476264Y-60975263D01*
X148575745Y-60823124D01*
X148689822Y-60681359D01*
X148795662Y-60575137D01*
X148887621Y-60501962D01*
X148918858Y-60481011D01*
X149000665Y-60481011D01*
X149023622Y-60490484D01*
X149084254Y-60497448D01*
X149170198Y-60500582D01*
X149184346Y-60500640D01*
X149396062Y-60518396D01*
X149623640Y-60568830D01*
X149849160Y-60647697D01*
X149901551Y-60670641D01*
X149997507Y-60718642D01*
X150091043Y-60772478D01*
X150173074Y-60825960D01*
X150234511Y-60872902D01*
X150266268Y-60907116D01*
X150266890Y-60919407D01*
X150239852Y-60916086D01*
X150206286Y-60892539D01*
X150151483Y-60855951D01*
X150105284Y-60863492D01*
X150066281Y-60898748D01*
X150010746Y-60943709D01*
X149949792Y-60976857D01*
X149892414Y-61008158D01*
X149881674Y-61042094D01*
X149915480Y-61089860D01*
X149926576Y-61101231D01*
X149986068Y-61141274D01*
X150057862Y-61147198D01*
X150153796Y-61119565D01*
X150170454Y-61112789D01*
X150290806Y-61046414D01*
X150362825Y-60968193D01*
X150386344Y-60878400D01*
X150366461Y-60789241D01*
X150345073Y-60744153D01*
X150318576Y-60709961D01*
X150278114Y-60681838D01*
X150214829Y-60654960D01*
X150119865Y-60624501D01*
X150001650Y-60590508D01*
X149877734Y-60550428D01*
X149758150Y-60502937D01*
X149662020Y-60455872D01*
X149638793Y-60441827D01*
X149527959Y-60372990D01*
X149444439Y-60331926D01*
X149376293Y-60315357D01*
X149311578Y-60320006D01*
X149255035Y-60336525D01*
X149162088Y-60373976D01*
X149080888Y-60414914D01*
X149023172Y-60452672D01*
X149000675Y-60480584D01*
X149000665Y-60481011D01*
X148918858Y-60481011D01*
X148995781Y-60429418D01*
X149108224Y-60364103D01*
X149213035Y-60312612D01*
X149298297Y-60281541D01*
X149337133Y-60275418D01*
X149380189Y-60286325D01*
G37*
G36*
X147449138Y-54416020D02*
G01*
X147431696Y-54439597D01*
X147383604Y-54490505D01*
X147311211Y-54562371D01*
X147220866Y-54648821D01*
X147167611Y-54698620D01*
X147044993Y-54814687D01*
X146905558Y-54950460D01*
X146758102Y-55097030D01*
X146611422Y-55245489D01*
X146474314Y-55386929D01*
X146355576Y-55512441D01*
X146264003Y-55613119D01*
X146259658Y-55618069D01*
X146208342Y-55676266D01*
X146168243Y-55721033D01*
X146159376Y-55730679D01*
X146132829Y-55761186D01*
X146083461Y-55819574D01*
X146020244Y-55895070D01*
X145952150Y-55976899D01*
X145888152Y-56054289D01*
X145837220Y-56116465D01*
X145813213Y-56146354D01*
X145670327Y-56334083D01*
X145508221Y-56557503D01*
X145332247Y-56808707D01*
X145147762Y-57079788D01*
X144960120Y-57362837D01*
X144774676Y-57649946D01*
X144596785Y-57933208D01*
X144533795Y-58035714D01*
X144448558Y-58174604D01*
X144364678Y-58310005D01*
X144288598Y-58431612D01*
X144226758Y-58529118D01*
X144191352Y-58583622D01*
X144135032Y-58670988D01*
X144084641Y-58753564D01*
X144053578Y-58808843D01*
X144022406Y-58864612D01*
X143999137Y-58897596D01*
X143997482Y-58899064D01*
X143977932Y-58923001D01*
X143935276Y-58980289D01*
X143875101Y-59063272D01*
X143802993Y-59164295D01*
X143773306Y-59206273D01*
X143696688Y-59314111D01*
X143628456Y-59408700D01*
X143574660Y-59481756D01*
X143541351Y-59524999D01*
X143535618Y-59531594D01*
X143504650Y-59567672D01*
X143456132Y-59628514D01*
X143417217Y-59679081D01*
X143353395Y-59760504D01*
X143274613Y-59857210D01*
X143205483Y-59939380D01*
X143142393Y-60012908D01*
X143090196Y-60073816D01*
X143059136Y-60110148D01*
X143057315Y-60112290D01*
X143031575Y-60140200D01*
X142977989Y-60196699D01*
X142903561Y-60274455D01*
X142815294Y-60366133D01*
X142782044Y-60400549D01*
X142700008Y-60487389D01*
X142639216Y-60555785D01*
X142603649Y-60600886D01*
X142597289Y-60617843D01*
X142606872Y-60613913D01*
X142694783Y-60558064D01*
X142813339Y-60478935D01*
X142953049Y-60383154D01*
X143104426Y-60277347D01*
X143257982Y-60168141D01*
X143404228Y-60062162D01*
X143522620Y-59974369D01*
X143625460Y-59896928D01*
X143710871Y-59832178D01*
X143785469Y-59774733D01*
X143855871Y-59719205D01*
X143928692Y-59660209D01*
X144010548Y-59592358D01*
X144108055Y-59510266D01*
X144227830Y-59408546D01*
X144376488Y-59281812D01*
X144443410Y-59224709D01*
X144519388Y-59160855D01*
X144563114Y-59127693D01*
X144579729Y-59122651D01*
X144574377Y-59143159D01*
X144563907Y-59164445D01*
X144509215Y-59243782D01*
X144416677Y-59346581D01*
X144290566Y-59469270D01*
X144135153Y-59608276D01*
X143954713Y-59760027D01*
X143753517Y-59920951D01*
X143535839Y-60087473D01*
X143305952Y-60256023D01*
X143068128Y-60423027D01*
X143016328Y-60458416D01*
X142793161Y-60606740D01*
X142565089Y-60752129D01*
X142339640Y-60890167D01*
X142124343Y-61016441D01*
X141926726Y-61126538D01*
X141754319Y-61216044D01*
X141614651Y-61280546D01*
X141612143Y-61281592D01*
X141594214Y-61285447D01*
X141581962Y-61274477D01*
X141574318Y-61241245D01*
X141570216Y-61178314D01*
X141568589Y-61078249D01*
X141568350Y-60976504D01*
X141568350Y-60653192D01*
X141679213Y-60576916D01*
X141743673Y-60534346D01*
X141790562Y-60506659D01*
X141805171Y-60500640D01*
X141833084Y-60487007D01*
X141894707Y-60449329D01*
X141982872Y-60392440D01*
X142090410Y-60321173D01*
X142210153Y-60240360D01*
X142334934Y-60154833D01*
X142457584Y-60069427D01*
X142570934Y-59988974D01*
X142657040Y-59926301D01*
X142782436Y-59830897D01*
X142925278Y-59718097D01*
X143065651Y-59603808D01*
X143157412Y-59526614D01*
X143274806Y-59425774D01*
X143359207Y-59352637D01*
X143415677Y-59302400D01*
X143449282Y-59270262D01*
X143465087Y-59251421D01*
X143468154Y-59241076D01*
X143464555Y-59235401D01*
X143434338Y-59236181D01*
X143377017Y-59257179D01*
X143307278Y-59291077D01*
X143239810Y-59330552D01*
X143189301Y-59368288D01*
X143180882Y-59376772D01*
X143136532Y-59419072D01*
X143064629Y-59479764D01*
X142973428Y-59552662D01*
X142871186Y-59631581D01*
X142766158Y-59710335D01*
X142666598Y-59782740D01*
X142580763Y-59842609D01*
X142516908Y-59883758D01*
X142483288Y-59900001D01*
X142482476Y-59900049D01*
X142458535Y-59912302D01*
X142402076Y-59945153D01*
X142323061Y-59992737D01*
X142277277Y-60020797D01*
X142185335Y-60075990D01*
X142077224Y-60138606D01*
X141961764Y-60203816D01*
X141847773Y-60266787D01*
X141744070Y-60322690D01*
X141659474Y-60366694D01*
X141602803Y-60393969D01*
X141584021Y-60400542D01*
X141575064Y-60378027D01*
X141569392Y-60320486D01*
X141568350Y-60275891D01*
X141568350Y-60151241D01*
X141814161Y-59994364D01*
X141995372Y-59878376D01*
X142137977Y-59786176D01*
X142245826Y-59715053D01*
X142322770Y-59662294D01*
X142372660Y-59625187D01*
X142399346Y-59601020D01*
X142406679Y-59587080D01*
X142400637Y-59581269D01*
X142336731Y-59582507D01*
X142246201Y-59616361D01*
X142136769Y-59679043D01*
X142016155Y-59766765D01*
X142006281Y-59774730D01*
X141907067Y-59853796D01*
X141803120Y-59934150D01*
X141714073Y-60000661D01*
X141699729Y-60011006D01*
X141568350Y-60104941D01*
X141568350Y-59929506D01*
X141573070Y-59817794D01*
X141587229Y-59755193D01*
X141599630Y-59741450D01*
X141618071Y-59730143D01*
X141599630Y-59726852D01*
X141573581Y-59704305D01*
X141568350Y-59678229D01*
X141579944Y-59646727D01*
X141622054Y-59626964D01*
X141682746Y-59615901D01*
X141793513Y-59596409D01*
X141936728Y-59565051D01*
X142097923Y-59525615D01*
X142262635Y-59481888D01*
X142416397Y-59437657D01*
X142544743Y-59396709D01*
X142606872Y-59373972D01*
X142949747Y-59227393D01*
X143251287Y-59075944D01*
X143520206Y-58914820D01*
X143765218Y-58739218D01*
X143781558Y-58726371D01*
X143909173Y-58621100D01*
X144020181Y-58518327D01*
X144122419Y-58408944D01*
X144223726Y-58283841D01*
X144331939Y-58133910D01*
X144454896Y-57950042D01*
X144471409Y-57924657D01*
X144671888Y-57616552D01*
X144848504Y-57347045D01*
X145003906Y-57112287D01*
X145140747Y-56908427D01*
X145261675Y-56731614D01*
X145369343Y-56577999D01*
X145466400Y-56443730D01*
X145555497Y-56324957D01*
X145639284Y-56217830D01*
X145686715Y-56159244D01*
X145842566Y-55970188D01*
X145975435Y-55811789D01*
X146093172Y-55675281D01*
X146203627Y-55551898D01*
X146314652Y-55432873D01*
X146434097Y-55309439D01*
X146569813Y-55172830D01*
X146572255Y-55170394D01*
X146699045Y-55045086D01*
X146826208Y-54921461D01*
X146945251Y-54807629D01*
X147047680Y-54711698D01*
X147125002Y-54641774D01*
X147135844Y-54632364D01*
X147219540Y-54560246D01*
X147293767Y-54495965D01*
X147346694Y-54449780D01*
X147359528Y-54438423D01*
X147412131Y-54401082D01*
X147443436Y-54399172D01*
X147449138Y-54416020D01*
G37*
G36*
X145817491Y-54480821D02*
G01*
X145788736Y-54515305D01*
X145725840Y-54574860D01*
X145626992Y-54661187D01*
X145490382Y-54775989D01*
X145472192Y-54791075D01*
X145347857Y-54895945D01*
X145225336Y-55002650D01*
X145110191Y-55105984D01*
X145007979Y-55200738D01*
X144924262Y-55281707D01*
X144864597Y-55343682D01*
X144834545Y-55381458D01*
X144832670Y-55390051D01*
X144858060Y-55383556D01*
X144920051Y-55357559D01*
X145010957Y-55315875D01*
X145123096Y-55262320D01*
X145248781Y-55200709D01*
X145380328Y-55134857D01*
X145510052Y-55068579D01*
X145630269Y-55005692D01*
X145733294Y-54950009D01*
X145811441Y-54905347D01*
X145822537Y-54898610D01*
X145912427Y-54848019D01*
X145977081Y-54821396D01*
X146008553Y-54821380D01*
X146023438Y-54846971D01*
X146021065Y-54851835D01*
X145875007Y-54947561D01*
X145694968Y-55055122D01*
X145493369Y-55167594D01*
X145282629Y-55278052D01*
X145075169Y-55379569D01*
X145071724Y-55381186D01*
X144761837Y-55527590D01*
X144492653Y-55657367D01*
X144258844Y-55773532D01*
X144055080Y-55879102D01*
X143876032Y-55977094D01*
X143716370Y-56070524D01*
X143570765Y-56162410D01*
X143433889Y-56255766D01*
X143300411Y-56353611D01*
X143165002Y-56458960D01*
X143158565Y-56464096D01*
X142952002Y-56638343D01*
X142743101Y-56831503D01*
X142542887Y-57032475D01*
X142362386Y-57230159D01*
X142212620Y-57413456D01*
X142203068Y-57426135D01*
X142081458Y-57589389D01*
X141988097Y-57716627D01*
X141920544Y-57811368D01*
X141876360Y-57877131D01*
X141853104Y-57917438D01*
X141848336Y-57935807D01*
X141849030Y-57936855D01*
X141868715Y-57923414D01*
X141914620Y-57878594D01*
X141980365Y-57808993D01*
X142059569Y-57721205D01*
X142079016Y-57699137D01*
X142187283Y-57580633D01*
X142319037Y-57444101D01*
X142465989Y-57297455D01*
X142619846Y-57148605D01*
X142772318Y-57005463D01*
X142915114Y-56875942D01*
X143039942Y-56767953D01*
X143132389Y-56693969D01*
X143241422Y-56614915D01*
X143367096Y-56528051D01*
X143495411Y-56442680D01*
X143612366Y-56368107D01*
X143703962Y-56313638D01*
X143707955Y-56311427D01*
X143781726Y-56269578D01*
X143862236Y-56222257D01*
X143870616Y-56217216D01*
X144091117Y-56092999D01*
X144342541Y-55966503D01*
X144606993Y-55846488D01*
X144746478Y-55788439D01*
X144900683Y-55725273D01*
X145069922Y-55654091D01*
X145233553Y-55583673D01*
X145369409Y-55523489D01*
X145478787Y-55475696D01*
X145571265Y-55438541D01*
X145637684Y-55415471D01*
X145668883Y-55409932D01*
X145669704Y-55410466D01*
X145659957Y-55433230D01*
X145619659Y-55477133D01*
X145560716Y-55529933D01*
X145466263Y-55614216D01*
X145349640Y-55726827D01*
X145220610Y-55857554D01*
X145088935Y-55996185D01*
X144964378Y-56132507D01*
X144856702Y-56256310D01*
X144800263Y-56325389D01*
X144744550Y-56399075D01*
X144672257Y-56499131D01*
X144587635Y-56619238D01*
X144494932Y-56753079D01*
X144398400Y-56894332D01*
X144302287Y-57036680D01*
X144210843Y-57173803D01*
X144128319Y-57299382D01*
X144058963Y-57407097D01*
X144007026Y-57490631D01*
X143976757Y-57543663D01*
X143970714Y-57558881D01*
X143987536Y-57556926D01*
X144033021Y-57526361D01*
X144099697Y-57473206D01*
X144180090Y-57403481D01*
X144266731Y-57323205D01*
X144284389Y-57306182D01*
X144387056Y-57200621D01*
X144511146Y-57063589D01*
X144648895Y-56904274D01*
X144792536Y-56731860D01*
X144934305Y-56555536D01*
X145066437Y-56384487D01*
X145089884Y-56353245D01*
X145336306Y-56031991D01*
X145563916Y-55753463D01*
X145772150Y-55518292D01*
X145960444Y-55327111D01*
X146128234Y-55180552D01*
X146153306Y-55161160D01*
X146223819Y-55112561D01*
X146260367Y-55098252D01*
X146263339Y-55116123D01*
X146233124Y-55164065D01*
X146170110Y-55239969D01*
X146130860Y-55283005D01*
X145955844Y-55479378D01*
X145768416Y-55707049D01*
X145565113Y-55970372D01*
X145342473Y-56273702D01*
X145335082Y-56283990D01*
X145194315Y-56477633D01*
X145072823Y-56638647D01*
X144962812Y-56776497D01*
X144856487Y-56900650D01*
X144746053Y-57020572D01*
X144633934Y-57135492D01*
X144289307Y-57447335D01*
X143909691Y-57728566D01*
X143502047Y-57975501D01*
X143073340Y-58184450D01*
X142630531Y-58351727D01*
X142180585Y-58473644D01*
X142061316Y-58497830D01*
X141937630Y-58519173D01*
X141819817Y-58536111D01*
X141723983Y-58546496D01*
X141679690Y-58548719D01*
X141568350Y-58548719D01*
X141568350Y-58419186D01*
X141620625Y-58419186D01*
X141642543Y-58445963D01*
X141662192Y-58448454D01*
X141703724Y-58444150D01*
X141782423Y-58432619D01*
X141886237Y-58415721D01*
X141981256Y-58399233D01*
X142214379Y-58354619D01*
X142402740Y-58311287D01*
X142551533Y-58267481D01*
X142665955Y-58221447D01*
X142751199Y-58171428D01*
X142809176Y-58119422D01*
X142820243Y-58105549D01*
X142933728Y-58105549D01*
X142941119Y-58120081D01*
X142986904Y-58110408D01*
X143073183Y-58076346D01*
X143126682Y-58052602D01*
X143199328Y-58016954D01*
X143259027Y-57978732D01*
X143312990Y-57930080D01*
X143368427Y-57863142D01*
X143432548Y-57770063D01*
X143512563Y-57642987D01*
X143532643Y-57610295D01*
X143586897Y-57524708D01*
X143658159Y-57416446D01*
X143739074Y-57296239D01*
X143822287Y-57174816D01*
X143900444Y-57062907D01*
X143966189Y-56971242D01*
X144012169Y-56910550D01*
X144012945Y-56909592D01*
X144037031Y-56878193D01*
X144081630Y-56818689D01*
X144137597Y-56743290D01*
X144144150Y-56734420D01*
X144285226Y-56553206D01*
X144450551Y-56357062D01*
X144625744Y-56162878D01*
X144676845Y-56108817D01*
X144748699Y-56029974D01*
X144785226Y-55979840D01*
X144789018Y-55954456D01*
X144780793Y-55950067D01*
X144730029Y-55957612D01*
X144713790Y-55968835D01*
X144669217Y-55993859D01*
X144653614Y-55996207D01*
X144606770Y-56007790D01*
X144520773Y-56041192D01*
X144400473Y-56094393D01*
X144272078Y-56155023D01*
X144229488Y-56179689D01*
X144185356Y-56215058D01*
X144136690Y-56265244D01*
X144080498Y-56334366D01*
X144013787Y-56426540D01*
X143933563Y-56545882D01*
X143836835Y-56696509D01*
X143720609Y-56882538D01*
X143596161Y-57084778D01*
X143436279Y-57344404D01*
X143297453Y-57566837D01*
X143180452Y-57750888D01*
X143086044Y-57895365D01*
X143014996Y-57999079D01*
X142968076Y-58060838D01*
X142962632Y-58066995D01*
X142933728Y-58105549D01*
X142820243Y-58105549D01*
X142854840Y-58062181D01*
X142920708Y-57971946D01*
X143000374Y-57858115D01*
X143087435Y-57730084D01*
X143175486Y-57597251D01*
X143258125Y-57469012D01*
X143318158Y-57372561D01*
X143390550Y-57254301D01*
X143475705Y-57116033D01*
X143559810Y-56980159D01*
X143595908Y-56922118D01*
X143712912Y-56733417D01*
X143807382Y-56579017D01*
X143878234Y-56460733D01*
X143924385Y-56380383D01*
X143944751Y-56339781D01*
X143945689Y-56335929D01*
X143933836Y-56322029D01*
X143895623Y-56329798D01*
X143827068Y-56360976D01*
X143724191Y-56417304D01*
X143620291Y-56478188D01*
X143478503Y-56563894D01*
X143356159Y-56641274D01*
X143246245Y-56715982D01*
X143141750Y-56793668D01*
X143035663Y-56879985D01*
X142920970Y-56980586D01*
X142790660Y-57101122D01*
X142637721Y-57247246D01*
X142497916Y-57382907D01*
X142322467Y-57555809D01*
X142178985Y-57701937D01*
X142061756Y-57827456D01*
X141965067Y-57938534D01*
X141883203Y-58041335D01*
X141863872Y-58067157D01*
X141798335Y-58154054D01*
X141733224Y-58237546D01*
X141688012Y-58293087D01*
X141636034Y-58366707D01*
X141620625Y-58419186D01*
X141568350Y-58419186D01*
X141568350Y-58391356D01*
X141570031Y-58319725D01*
X141578178Y-58261161D01*
X141597445Y-58203078D01*
X141632485Y-58132894D01*
X141687953Y-58038023D01*
X141716279Y-57991367D01*
X142023054Y-57531334D01*
X142358557Y-57111491D01*
X142724995Y-56729811D01*
X143124575Y-56384266D01*
X143559505Y-56072831D01*
X144031992Y-55793479D01*
X144210785Y-55700836D01*
X144354650Y-55628492D01*
X144463540Y-55571533D01*
X144547258Y-55522991D01*
X144615608Y-55475895D01*
X144678392Y-55423273D01*
X144745414Y-55358155D01*
X144826477Y-55273571D01*
X144856713Y-55241542D01*
X144941604Y-55149122D01*
X145009827Y-55070119D01*
X145055998Y-55011156D01*
X145074734Y-54978856D01*
X145073454Y-54974920D01*
X145028548Y-54977534D01*
X144942214Y-55001893D01*
X144813598Y-55048295D01*
X144641847Y-55117041D01*
X144507912Y-55173321D01*
X144376441Y-55229315D01*
X144244158Y-55285590D01*
X144127051Y-55335347D01*
X144045788Y-55369807D01*
X143840598Y-55462431D01*
X143624037Y-55570377D01*
X143406312Y-55687792D01*
X143197628Y-55808824D01*
X143008191Y-55927620D01*
X142848207Y-56038327D01*
X142760263Y-56106993D01*
X142492069Y-56340961D01*
X142237837Y-56581617D01*
X142007619Y-56819032D01*
X141811467Y-57043279D01*
X141808223Y-57047241D01*
X141739300Y-57129428D01*
X141675760Y-57201580D01*
X141629131Y-57250692D01*
X141621774Y-57257573D01*
X141583712Y-57289389D01*
X141570173Y-57287568D01*
X141568590Y-57257573D01*
X141586334Y-57206737D01*
X141635798Y-57127641D01*
X141711858Y-57025901D01*
X141809392Y-56907129D01*
X141923275Y-56776941D01*
X142048384Y-56640952D01*
X142179596Y-56504775D01*
X142311786Y-56374026D01*
X142439832Y-56254319D01*
X142558610Y-56151269D01*
X142629309Y-56095204D01*
X142818189Y-55954175D01*
X142978470Y-55838893D01*
X143119971Y-55743023D01*
X143252511Y-55660231D01*
X143385908Y-55584186D01*
X143529981Y-55508553D01*
X143570320Y-55488214D01*
X143681591Y-55432587D01*
X143774832Y-55386487D01*
X143857745Y-55346526D01*
X143938030Y-55309316D01*
X144023389Y-55271469D01*
X144121524Y-55229595D01*
X144240134Y-55180307D01*
X144386923Y-55120215D01*
X144569590Y-55045932D01*
X144646379Y-55014753D01*
X144819189Y-54942226D01*
X145008190Y-54858962D01*
X145195653Y-54773016D01*
X145363847Y-54692446D01*
X145441736Y-54653332D01*
X145563503Y-54591223D01*
X145669326Y-54538097D01*
X145751378Y-54497815D01*
X145801829Y-54474240D01*
X145813914Y-54469704D01*
X145817491Y-54480821D01*
G37*
G36*
X149031777Y-53502576D02*
G01*
X149187024Y-53512576D01*
X149222475Y-53516484D01*
X149369533Y-53538868D01*
X149543318Y-53571910D01*
X149730851Y-53612524D01*
X149919150Y-53657618D01*
X150095237Y-53704103D01*
X150246132Y-53748890D01*
X150346979Y-53784133D01*
X150733850Y-53960183D01*
X151087591Y-54172348D01*
X151390148Y-54404071D01*
X151721824Y-54715814D01*
X152009626Y-55046936D01*
X152257732Y-55402819D01*
X152470321Y-55788843D01*
X152478744Y-55806231D01*
X152657727Y-56216741D01*
X152798147Y-56628775D01*
X152903350Y-57054410D01*
X152976685Y-57505718D01*
X152995152Y-57669109D01*
X153011814Y-57842992D01*
X153022138Y-57981857D01*
X153026384Y-58100299D01*
X153024807Y-58212914D01*
X153017666Y-58334296D01*
X153008765Y-58440401D01*
X152971633Y-58722653D01*
X152909186Y-59037498D01*
X152823616Y-59375715D01*
X152717115Y-59728086D01*
X152667371Y-59876064D01*
X152581177Y-60132060D01*
X152496538Y-60396673D01*
X152415338Y-60663039D01*
X152339459Y-60924296D01*
X152270787Y-61173582D01*
X152211204Y-61404035D01*
X152162594Y-61608794D01*
X152126842Y-61780994D01*
X152105830Y-61913776D01*
X152104356Y-61927044D01*
X152084197Y-62193693D01*
X152083650Y-62417333D01*
X152102509Y-62597434D01*
X152140564Y-62733467D01*
X152197610Y-62824906D01*
X152273438Y-62871220D01*
X152367842Y-62871882D01*
X152461563Y-62836658D01*
X152505890Y-62805747D01*
X152577933Y-62746316D01*
X152669939Y-62665159D01*
X152774156Y-62569066D01*
X152854458Y-62492453D01*
X153020168Y-62337892D01*
X153161510Y-62220012D01*
X153284045Y-62135381D01*
X153393334Y-62080564D01*
X153494939Y-62052130D01*
X153577505Y-62046107D01*
X153677427Y-62060959D01*
X153763922Y-62106799D01*
X153847596Y-62190499D01*
X153892980Y-62250514D01*
X153924392Y-62297222D01*
X153945872Y-62339926D01*
X153959648Y-62389797D01*
X153967951Y-62458009D01*
X153973010Y-62555735D01*
X153976374Y-62668383D01*
X153968688Y-62991470D01*
X153930166Y-63310761D01*
X153863133Y-63608025D01*
X153851409Y-63647487D01*
X153817270Y-63747139D01*
X153790318Y-63799535D01*
X153770324Y-63804225D01*
X153757059Y-63760761D01*
X153750292Y-63668693D01*
X153749796Y-63527571D01*
X153751454Y-63451691D01*
X153753006Y-63232356D01*
X153743424Y-63052188D01*
X153721304Y-62901261D01*
X153685246Y-62769648D01*
X153639490Y-62659031D01*
X153580854Y-62562318D01*
X153518684Y-62513769D01*
X153448938Y-62511503D01*
X153386049Y-62541055D01*
X153344826Y-62573964D01*
X153276824Y-62635441D01*
X153189987Y-62718012D01*
X153092258Y-62814201D01*
X153042143Y-62864709D01*
X152896196Y-63007658D01*
X152772490Y-63115032D01*
X152663244Y-63191300D01*
X152560674Y-63240930D01*
X152456999Y-63268391D01*
X152344436Y-63278152D01*
X152321733Y-63278374D01*
X152224292Y-63274783D01*
X152155624Y-63260137D01*
X152094727Y-63228622D01*
X152063681Y-63206964D01*
X151978623Y-63139901D01*
X151914809Y-63074465D01*
X151857962Y-62993817D01*
X151805200Y-62902089D01*
X151761024Y-62830016D01*
X151730074Y-62801387D01*
X151711543Y-62817485D01*
X151704625Y-62879592D01*
X151708512Y-62988991D01*
X151713103Y-63048529D01*
X151729935Y-63176134D01*
X151760876Y-63287507D01*
X151813515Y-63408888D01*
X151822761Y-63427600D01*
X151874270Y-63521068D01*
X151927053Y-63601120D01*
X151971365Y-63653305D01*
X151979387Y-63659883D01*
X152015478Y-63682599D01*
X152051891Y-63692549D01*
X152102906Y-63690151D01*
X152182800Y-63675823D01*
X152225013Y-63667061D01*
X152347228Y-63648645D01*
X152500582Y-63636263D01*
X152670010Y-63630078D01*
X152840453Y-63630257D01*
X152996847Y-63636964D01*
X153124132Y-63650364D01*
X153159778Y-63656827D01*
X153258395Y-63683435D01*
X153354868Y-63718312D01*
X153389702Y-63734180D01*
X153487845Y-63798789D01*
X153593560Y-63891897D01*
X153691112Y-63997712D01*
X153764768Y-64100443D01*
X153777293Y-64123181D01*
X153824273Y-64233782D01*
X153867905Y-64368751D01*
X153903273Y-64509315D01*
X153925460Y-64636700D01*
X153930517Y-64708330D01*
X153918917Y-64862276D01*
X153886239Y-65045135D01*
X153835662Y-65242040D01*
X153779921Y-65412252D01*
X153732870Y-65528325D01*
X153674559Y-65652065D01*
X153610132Y-65774648D01*
X153544734Y-65887250D01*
X153483508Y-65981047D01*
X153431597Y-66047215D01*
X153394145Y-66076928D01*
X153392198Y-66077415D01*
X153360279Y-66073125D01*
X153362217Y-66052390D01*
X153378505Y-66015077D01*
X153409352Y-65944803D01*
X153449120Y-65854399D01*
X153465003Y-65818334D01*
X153555135Y-65572329D01*
X153609527Y-65319072D01*
X153631197Y-65043414D01*
X153631873Y-64980991D01*
X153623028Y-64769016D01*
X153594087Y-64596205D01*
X153541723Y-64454567D01*
X153462608Y-64336108D01*
X153353411Y-64232836D01*
X153305589Y-64197482D01*
X153240540Y-64159004D01*
X153207662Y-64158070D01*
X153206041Y-64195660D01*
X153234757Y-64272756D01*
X153234913Y-64273103D01*
X153265883Y-64358801D01*
X153281965Y-64452995D01*
X153286253Y-64574969D01*
X153286125Y-64592167D01*
X153282096Y-64699123D01*
X153269665Y-64787533D01*
X153244370Y-64877116D01*
X153201748Y-64987591D01*
X153190600Y-65014290D01*
X153106841Y-65189560D01*
X152999285Y-65378767D01*
X152876000Y-65570177D01*
X152745053Y-65752055D01*
X152614513Y-65912665D01*
X152492448Y-66040274D01*
X152473106Y-66057853D01*
X152372281Y-66147185D01*
X152400660Y-66310150D01*
X152420892Y-66439300D01*
X152428306Y-66526688D01*
X152422534Y-66579031D01*
X152403202Y-66603044D01*
X152384294Y-66606650D01*
X152364003Y-66599979D01*
X152347377Y-66574745D01*
X152332077Y-66523111D01*
X152315767Y-66437245D01*
X152296593Y-66312611D01*
X152274127Y-66172385D01*
X152250208Y-66063184D01*
X152219045Y-65966172D01*
X152174849Y-65862513D01*
X152129293Y-65768325D01*
X151986845Y-65527754D01*
X151799698Y-65285899D01*
X151572840Y-65047482D01*
X151502190Y-64985292D01*
X151703325Y-64985292D01*
X151719164Y-65014817D01*
X151760997Y-65069555D01*
X151820301Y-65138483D01*
X151830149Y-65149334D01*
X151967943Y-65314229D01*
X152091300Y-65488794D01*
X152188186Y-65655689D01*
X152204060Y-65688177D01*
X152240681Y-65754833D01*
X152274276Y-65797488D01*
X152289251Y-65805862D01*
X152323108Y-65789129D01*
X152374967Y-65746689D01*
X152402614Y-65719720D01*
X152473878Y-65613817D01*
X152510356Y-65477541D01*
X152512636Y-65308023D01*
X152503601Y-65226674D01*
X152468970Y-65083545D01*
X152409187Y-64982276D01*
X152320434Y-64919893D01*
X152198889Y-64893420D01*
X152078694Y-64895802D01*
X151954380Y-64910518D01*
X151845535Y-64929802D01*
X151761692Y-64951383D01*
X151712379Y-64972988D01*
X151703325Y-64985292D01*
X151502190Y-64985292D01*
X151311260Y-64817224D01*
X151019948Y-64599845D01*
X150725069Y-64413453D01*
X151535222Y-64413453D01*
X151567223Y-64449537D01*
X151648323Y-64476263D01*
X151778545Y-64493641D01*
X151957913Y-64501676D01*
X151983375Y-64502019D01*
X152088355Y-64501189D01*
X152173163Y-64496869D01*
X152226303Y-64489841D01*
X152238191Y-64484675D01*
X152221760Y-64471003D01*
X152167057Y-64453149D01*
X152085266Y-64434637D01*
X152070752Y-64431911D01*
X151967441Y-64410307D01*
X151871763Y-64385703D01*
X151806623Y-64364231D01*
X151702790Y-64334597D01*
X151615154Y-64334740D01*
X151555412Y-64364485D01*
X151552297Y-64368006D01*
X151535222Y-64413453D01*
X150725069Y-64413453D01*
X150703892Y-64400067D01*
X150652290Y-64370575D01*
X150538856Y-64310106D01*
X150400337Y-64241608D01*
X150246040Y-64169145D01*
X150085272Y-64096779D01*
X149927341Y-64028571D01*
X149781553Y-63968586D01*
X149657216Y-63920884D01*
X149563637Y-63889530D01*
X149531206Y-63881235D01*
X149308151Y-63853382D01*
X149099879Y-63867363D01*
X148892124Y-63924255D01*
X148874734Y-63930833D01*
X148784646Y-63966774D01*
X148715739Y-63996545D01*
X148678777Y-64015401D01*
X148675345Y-64018763D01*
X148698932Y-64022406D01*
X148763954Y-64025157D01*
X148861800Y-64026830D01*
X148983862Y-64027241D01*
X149054167Y-64026893D01*
X149432989Y-64023987D01*
X149360718Y-63964888D01*
X149319664Y-63924240D01*
X149321227Y-63906539D01*
X149362891Y-63913099D01*
X149418650Y-63934604D01*
X149538880Y-64005974D01*
X149652843Y-64105938D01*
X149739678Y-64216022D01*
X149743321Y-64222122D01*
X149783180Y-64284308D01*
X149812180Y-64309190D01*
X149841177Y-64304557D01*
X149850637Y-64299117D01*
X149909498Y-64288999D01*
X150001067Y-64306972D01*
X150118957Y-64349883D01*
X150256779Y-64414575D01*
X150408146Y-64497894D01*
X150566670Y-64596683D01*
X150725963Y-64707789D01*
X150814154Y-64775025D01*
X150951404Y-64890797D01*
X151106084Y-65033714D01*
X151266927Y-65192319D01*
X151422667Y-65355156D01*
X151562040Y-65510768D01*
X151673779Y-65647699D01*
X151678698Y-65654194D01*
X151777995Y-65794031D01*
X151866909Y-65934646D01*
X151940751Y-66067282D01*
X151994831Y-66183181D01*
X152024459Y-66273585D01*
X152028645Y-66307701D01*
X152032238Y-66359871D01*
X152040821Y-66381428D01*
X152063310Y-66364682D01*
X152107560Y-66321831D01*
X152140242Y-66287586D01*
X152195012Y-66233704D01*
X152221979Y-66217891D01*
X152221544Y-66236871D01*
X152194109Y-66287367D01*
X152140074Y-66366103D01*
X152128744Y-66381428D01*
X152077302Y-66456892D01*
X152041181Y-66522326D01*
X152028645Y-66561120D01*
X152009124Y-66599253D01*
X151975918Y-66606650D01*
X151938397Y-66597552D01*
X151941017Y-66563814D01*
X151941412Y-66562857D01*
X151955031Y-66512067D01*
X151968030Y-66435312D01*
X151972229Y-66400907D01*
X151963199Y-66277678D01*
X151913795Y-66130197D01*
X151825795Y-65961202D01*
X151700972Y-65773429D01*
X151541105Y-65569614D01*
X151347968Y-65352494D01*
X151180005Y-65180246D01*
X150991965Y-65003043D01*
X150803680Y-64842095D01*
X150619464Y-64699972D01*
X150443634Y-64579247D01*
X150280506Y-64482491D01*
X150134395Y-64412276D01*
X150009618Y-64371175D01*
X149910490Y-64361759D01*
X149844281Y-64384299D01*
X149813544Y-64429059D01*
X149783108Y-64511427D01*
X149763520Y-64589804D01*
X149727756Y-64727126D01*
X149684814Y-64822649D01*
X149630199Y-64884552D01*
X149587420Y-64910131D01*
X149542155Y-64936643D01*
X149526182Y-64955970D01*
X149544497Y-64977818D01*
X149594365Y-65024044D01*
X149668167Y-65087867D01*
X149758230Y-65162465D01*
X149939722Y-65319518D01*
X150133917Y-65504246D01*
X150326414Y-65702249D01*
X150502813Y-65899129D01*
X150544550Y-65948703D01*
X150602548Y-66021414D01*
X150672277Y-66113054D01*
X150747766Y-66215245D01*
X150823045Y-66319609D01*
X150892141Y-66417767D01*
X150949084Y-66501341D01*
X150987903Y-66561953D01*
X151002627Y-66591225D01*
X151002635Y-66591461D01*
X150982709Y-66605580D01*
X150971354Y-66606605D01*
X150941783Y-66586933D01*
X150898465Y-66536261D01*
X150865114Y-66487738D01*
X150725996Y-66286453D01*
X150553005Y-66067271D01*
X150354416Y-65839290D01*
X150138500Y-65611607D01*
X149913533Y-65393318D01*
X149688842Y-65194407D01*
X149498643Y-65039485D01*
X149334031Y-64917847D01*
X149186838Y-64825823D01*
X149048895Y-64759744D01*
X148912032Y-64715943D01*
X148768081Y-64690750D01*
X148608872Y-64680496D01*
X148542876Y-64679753D01*
X148358653Y-64674570D01*
X148205865Y-64656331D01*
X148066717Y-64621003D01*
X147923415Y-64564554D01*
X147823941Y-64516808D01*
X147699423Y-64458475D01*
X147609412Y-64428438D01*
X147547212Y-64426580D01*
X147506125Y-64452785D01*
X147479454Y-64506939D01*
X147478239Y-64510837D01*
X147425714Y-64740865D01*
X147395750Y-65008130D01*
X147388419Y-65305158D01*
X147403790Y-65624475D01*
X147441934Y-65958607D01*
X147463304Y-66093107D01*
X147493773Y-66247047D01*
X147527454Y-66360157D01*
X147569115Y-66441628D01*
X147623523Y-66500656D01*
X147695445Y-66546433D01*
X147699384Y-66548437D01*
X147811995Y-66605240D01*
X147724409Y-66605852D01*
X147643360Y-66592662D01*
X147560389Y-66559574D01*
X147550973Y-66554127D01*
X147472516Y-66519755D01*
X147375869Y-66494724D01*
X147338264Y-66489401D01*
X147137502Y-66457596D01*
X146908889Y-66400965D01*
X146665015Y-66324169D01*
X146418470Y-66231870D01*
X146181843Y-66128729D01*
X145967724Y-66019408D01*
X145811045Y-65923911D01*
X145675291Y-65820999D01*
X145526759Y-65689288D01*
X145375446Y-65539386D01*
X145231346Y-65381898D01*
X145104455Y-65227430D01*
X145004770Y-65086588D01*
X144974905Y-65036715D01*
X144955367Y-65014210D01*
X144926485Y-65019211D01*
X144876903Y-65051347D01*
X144744532Y-65130096D01*
X144594404Y-65195051D01*
X144449114Y-65236989D01*
X144403714Y-65244506D01*
X144297076Y-65246746D01*
X144194284Y-65223244D01*
X144088577Y-65170208D01*
X143973194Y-65083844D01*
X143841376Y-64960360D01*
X143774924Y-64891702D01*
X143643273Y-64759528D01*
X143535831Y-64667191D01*
X143449844Y-64612360D01*
X143438250Y-64607065D01*
X143194942Y-64477097D01*
X142967116Y-64305166D01*
X142762669Y-64098781D01*
X142589494Y-63865449D01*
X142506773Y-63721271D01*
X142445748Y-63607153D01*
X142382832Y-63496771D01*
X142327166Y-63405847D01*
X142300308Y-63366149D01*
X142218966Y-63253987D01*
X142087599Y-63338169D01*
X142003287Y-63393291D01*
X141897838Y-63463763D01*
X141791141Y-63536268D01*
X141768547Y-63551810D01*
X141580862Y-63681270D01*
X141577252Y-63255358D01*
X141693473Y-63255358D01*
X141710414Y-63306778D01*
X141751584Y-63363687D01*
X141755447Y-63367649D01*
X141817422Y-63429623D01*
X141979271Y-63322718D01*
X142060484Y-63267007D01*
X142104811Y-63229652D01*
X142118536Y-63203691D01*
X142107945Y-63182162D01*
X142107028Y-63181216D01*
X142056508Y-63158505D01*
X141969979Y-63149383D01*
X141945766Y-63149485D01*
X141866394Y-63146240D01*
X141823565Y-63133396D01*
X141818596Y-63124861D01*
X141842890Y-63109369D01*
X141915321Y-63105002D01*
X141981409Y-63107738D01*
X142073362Y-63116025D01*
X142135636Y-63132331D01*
X142188593Y-63165523D01*
X142252595Y-63224468D01*
X142255088Y-63226913D01*
X142317473Y-63299904D01*
X142392165Y-63405665D01*
X142470558Y-63531493D01*
X142517022Y-63613599D01*
X142650912Y-63841219D01*
X142785417Y-64028411D01*
X142928898Y-64184195D01*
X143089715Y-64317588D01*
X143276227Y-64437610D01*
X143286047Y-64443234D01*
X143374771Y-64492678D01*
X143447014Y-64530857D01*
X143491875Y-64552104D01*
X143500277Y-64554630D01*
X143506263Y-64534813D01*
X143494627Y-64490440D01*
X143474933Y-64397512D01*
X143471706Y-64279556D01*
X143478252Y-64222499D01*
X143538904Y-64222499D01*
X143545663Y-64290175D01*
X143557199Y-64348231D01*
X143595575Y-64495839D01*
X143645633Y-64615495D01*
X143716945Y-64724575D01*
X143819083Y-64840454D01*
X143840406Y-64862287D01*
X143985746Y-64998793D01*
X144115441Y-65098758D01*
X144226209Y-65159975D01*
X144313076Y-65180246D01*
X144398375Y-65168736D01*
X144504881Y-65138098D01*
X144619251Y-65094170D01*
X144728143Y-65042788D01*
X144818213Y-64989792D01*
X144876120Y-64941018D01*
X144883768Y-64930557D01*
X144882380Y-64888724D01*
X144849260Y-64822001D01*
X144790831Y-64737893D01*
X144713513Y-64643903D01*
X144623730Y-64547535D01*
X144527901Y-64456292D01*
X144432450Y-64377678D01*
X144378197Y-64339800D01*
X144188430Y-64228884D01*
X144005716Y-64142649D01*
X143901896Y-64104695D01*
X143837853Y-64080133D01*
X143799959Y-64057169D01*
X143795542Y-64049655D01*
X143815593Y-64036691D01*
X143870642Y-64046222D01*
X143953031Y-64074564D01*
X144055101Y-64118030D01*
X144169195Y-64172936D01*
X144287655Y-64235595D01*
X144402823Y-64302324D01*
X144507041Y-64369436D01*
X144592651Y-64433245D01*
X144592708Y-64433292D01*
X144667487Y-64500727D01*
X144741060Y-64580354D01*
X144820279Y-64680683D01*
X144911996Y-64810221D01*
X144988882Y-64925232D01*
X145191006Y-65212969D01*
X145393190Y-65457944D01*
X145603486Y-65666806D01*
X145829945Y-65846199D01*
X146080619Y-66002771D01*
X146363558Y-66143169D01*
X146567720Y-66228560D01*
X146724461Y-66288792D01*
X146848087Y-66332040D01*
X146951159Y-66361772D01*
X147046240Y-66381458D01*
X147145894Y-66394568D01*
X147181196Y-66397976D01*
X147263904Y-66406756D01*
X147324145Y-66415597D01*
X147346954Y-66421747D01*
X147383629Y-66432822D01*
X147426686Y-66424234D01*
X147449045Y-66401738D01*
X147449138Y-66400032D01*
X147442596Y-66356058D01*
X147426603Y-66290162D01*
X147424170Y-66281529D01*
X147390407Y-66132246D01*
X147362616Y-65947226D01*
X147341276Y-65737963D01*
X147326866Y-65515955D01*
X147319866Y-65292696D01*
X147320754Y-65079682D01*
X147330009Y-64888409D01*
X147348109Y-64730373D01*
X147357492Y-64681039D01*
X147378449Y-64578813D01*
X147382450Y-64514785D01*
X147363534Y-64478326D01*
X147315743Y-64458808D01*
X147233118Y-64445604D01*
X147224874Y-64444509D01*
X147125650Y-64418161D01*
X147008786Y-64366707D01*
X146945503Y-64331413D01*
X146819801Y-64266377D01*
X146701788Y-64224866D01*
X146659814Y-64216448D01*
X146549833Y-64190657D01*
X146457228Y-64142445D01*
X146371052Y-64063823D01*
X146280360Y-63946802D01*
X146270237Y-63932119D01*
X146182311Y-63819040D01*
X146088051Y-63734333D01*
X145976574Y-63671909D01*
X145836998Y-63625676D01*
X145658439Y-63589545D01*
X145657981Y-63589470D01*
X145370905Y-63561402D01*
X145060560Y-63565621D01*
X144741461Y-63601593D01*
X144596330Y-63628531D01*
X144305913Y-63697419D01*
X144064085Y-63772351D01*
X143869691Y-63853868D01*
X143721575Y-63942511D01*
X143618581Y-64038819D01*
X143575113Y-64106131D01*
X143548192Y-64168299D01*
X143538904Y-64222499D01*
X143478252Y-64222499D01*
X143485535Y-64159009D01*
X143485870Y-64157325D01*
X143522751Y-64070586D01*
X143594073Y-63976466D01*
X143688236Y-63887204D01*
X143793637Y-63815041D01*
X143826047Y-63798400D01*
X144054792Y-63706412D01*
X144315345Y-63627874D01*
X144593582Y-63565352D01*
X144875380Y-63521415D01*
X145146617Y-63498632D01*
X145393170Y-63499570D01*
X145447167Y-63503616D01*
X145544470Y-63511500D01*
X145620669Y-63515805D01*
X145663709Y-63515926D01*
X145668863Y-63514748D01*
X145662082Y-63490740D01*
X145632144Y-63442549D01*
X145588823Y-63383681D01*
X145541896Y-63327640D01*
X145510277Y-63295646D01*
X145376358Y-63208951D01*
X145205637Y-63155093D01*
X144999100Y-63134094D01*
X144757733Y-63145972D01*
X144482521Y-63190748D01*
X144175174Y-63268232D01*
X144036391Y-63306638D01*
X143934553Y-63330891D01*
X143871794Y-63340881D01*
X143850250Y-63336498D01*
X143872055Y-63317632D01*
X143939343Y-63284171D01*
X143948865Y-63279926D01*
X144104248Y-63221076D01*
X144292157Y-63165402D01*
X144495082Y-63117345D01*
X144695515Y-63081343D01*
X144771887Y-63071217D01*
X145034261Y-63040590D01*
X144981102Y-62998875D01*
X145071798Y-62998875D01*
X145094323Y-63027227D01*
X145153239Y-63057672D01*
X145235555Y-63084148D01*
X145271995Y-63092246D01*
X145353566Y-63114248D01*
X145425533Y-63142913D01*
X145485877Y-63186009D01*
X145557054Y-63254053D01*
X145626769Y-63333068D01*
X145682731Y-63409074D01*
X145712646Y-63468092D01*
X145713146Y-63469979D01*
X145739986Y-63514858D01*
X145800818Y-63545072D01*
X145831443Y-63553517D01*
X146011827Y-63617976D01*
X146158765Y-63716562D01*
X146258998Y-63825844D01*
X146343854Y-63937281D01*
X146408118Y-64015540D01*
X146460671Y-64067894D01*
X146510395Y-64101616D01*
X146566172Y-64123977D01*
X146636884Y-64142250D01*
X146648747Y-64144956D01*
X146763291Y-64180164D01*
X146884081Y-64231303D01*
X146951856Y-64267737D01*
X147043704Y-64315635D01*
X147148502Y-64357742D01*
X147254382Y-64390815D01*
X147349473Y-64411615D01*
X147421907Y-64416900D01*
X147457762Y-64405868D01*
X147511609Y-64383408D01*
X147594067Y-64384088D01*
X147690292Y-64406214D01*
X147774458Y-64442019D01*
X147854961Y-64483240D01*
X147900697Y-64499342D01*
X147919978Y-64490682D01*
X147921117Y-64457618D01*
X147919923Y-64448276D01*
X147890299Y-64396170D01*
X147852208Y-64379458D01*
X147793705Y-64351624D01*
X147764622Y-64321585D01*
X147752251Y-64282157D01*
X147810266Y-64282157D01*
X147810714Y-64315254D01*
X147845940Y-64337837D01*
X147900724Y-64341702D01*
X147915412Y-64338852D01*
X147961844Y-64339131D01*
X147989601Y-64358009D01*
X147985233Y-64383931D01*
X147976156Y-64391042D01*
X147962163Y-64423821D01*
X147965913Y-64442821D01*
X147996231Y-64471070D01*
X148043165Y-64479251D01*
X148084834Y-64467571D01*
X148099778Y-64441543D01*
X148103664Y-64421020D01*
X148122718Y-64413909D01*
X148168037Y-64420020D01*
X148249926Y-64438972D01*
X148268552Y-64422583D01*
X148274950Y-64383475D01*
X148254740Y-64359147D01*
X148206147Y-64330151D01*
X148206133Y-64330144D01*
X148166485Y-64304647D01*
X148166738Y-64287276D01*
X148168596Y-64286505D01*
X148194231Y-64255328D01*
X148199877Y-64224097D01*
X148192360Y-64189546D01*
X148160216Y-64182394D01*
X148125133Y-64187953D01*
X148055808Y-64188255D01*
X148001927Y-64150883D01*
X147952170Y-64116707D01*
X147916763Y-64125267D01*
X147906472Y-64171422D01*
X147910542Y-64194503D01*
X147913993Y-64239718D01*
X147886566Y-64254009D01*
X147876510Y-64254335D01*
X147827486Y-64267067D01*
X147810266Y-64282157D01*
X147752251Y-64282157D01*
X147752113Y-64281718D01*
X147776552Y-64244501D01*
X147793226Y-64229987D01*
X147835187Y-64185038D01*
X147846692Y-64134771D01*
X147829243Y-64063945D01*
X147813496Y-64024053D01*
X147809309Y-64016601D01*
X147849532Y-64016601D01*
X147863044Y-64049903D01*
X147874556Y-64054138D01*
X147896758Y-64033869D01*
X147899581Y-64016601D01*
X147890626Y-63994531D01*
X147952735Y-63994531D01*
X147957488Y-64033757D01*
X147993793Y-64085977D01*
X148008302Y-64100532D01*
X148063231Y-64136505D01*
X148106445Y-64140504D01*
X148169560Y-64139147D01*
X148222218Y-64175572D01*
X148249022Y-64237757D01*
X148249926Y-64252538D01*
X148262984Y-64312464D01*
X148289218Y-64339132D01*
X148318571Y-64374210D01*
X148320499Y-64410627D01*
X148302794Y-64452217D01*
X148256240Y-64466524D01*
X148237414Y-64467044D01*
X148175388Y-64476103D01*
X148137315Y-64496214D01*
X148092828Y-64525839D01*
X148062241Y-64536068D01*
X148034379Y-64545840D01*
X148046176Y-64560079D01*
X148087266Y-64579598D01*
X148151590Y-64595424D01*
X148260967Y-64607463D01*
X148410510Y-64615277D01*
X148512684Y-64617685D01*
X148686492Y-64622880D01*
X148824561Y-64635026D01*
X148941093Y-64657784D01*
X149050293Y-64694812D01*
X149166361Y-64749771D01*
X149288448Y-64817599D01*
X149370220Y-64861515D01*
X149439504Y-64892824D01*
X149480816Y-64904662D01*
X149524681Y-64888038D01*
X149580052Y-64846483D01*
X149592614Y-64834376D01*
X149633758Y-64781367D01*
X149665074Y-64710421D01*
X149691952Y-64607989D01*
X149701683Y-64560270D01*
X149720494Y-64457778D01*
X149728469Y-64389775D01*
X149725420Y-64341847D01*
X149711159Y-64299580D01*
X149697936Y-64272484D01*
X149671547Y-64223163D01*
X149644994Y-64185474D01*
X149611436Y-64157665D01*
X149564034Y-64137982D01*
X149495946Y-64124673D01*
X149400333Y-64115984D01*
X149270355Y-64110164D01*
X149099170Y-64105457D01*
X149040652Y-64104046D01*
X148863329Y-64099490D01*
X148728212Y-64094864D01*
X148627462Y-64089279D01*
X148553242Y-64081847D01*
X148497715Y-64071679D01*
X148453043Y-64057886D01*
X148411389Y-64039580D01*
X148393570Y-64030669D01*
X148317783Y-63987831D01*
X148256741Y-63945995D01*
X148236182Y-63927654D01*
X148208055Y-63902604D01*
X148177378Y-63900542D01*
X148126062Y-63922104D01*
X148106016Y-63932214D01*
X148040254Y-63961974D01*
X147990219Y-63978109D01*
X147981876Y-63979064D01*
X147952735Y-63994531D01*
X147890626Y-63994531D01*
X147886068Y-63983299D01*
X147874556Y-63979064D01*
X147852355Y-63999333D01*
X147849532Y-64016601D01*
X147809309Y-64016601D01*
X147784664Y-63972732D01*
X147739494Y-63930685D01*
X147665797Y-63888259D01*
X147607043Y-63860517D01*
X147530089Y-63828688D01*
X147448988Y-63802756D01*
X147353164Y-63780370D01*
X147232040Y-63759182D01*
X147075040Y-63736842D01*
X147014929Y-63728993D01*
X146867228Y-63708718D01*
X146729840Y-63687509D01*
X146613524Y-63667203D01*
X146529043Y-63649638D01*
X146495904Y-63640421D01*
X146339828Y-63569424D01*
X146195006Y-63474074D01*
X146073131Y-63363797D01*
X145985895Y-63248019D01*
X145969229Y-63215813D01*
X145947206Y-63175914D01*
X145918104Y-63151645D01*
X145868676Y-63137227D01*
X145785673Y-63126880D01*
X145759700Y-63124399D01*
X145650656Y-63108930D01*
X145518973Y-63082630D01*
X145389460Y-63050585D01*
X145363038Y-63043069D01*
X145237502Y-63007472D01*
X145152524Y-62986794D01*
X145101225Y-62979990D01*
X145076726Y-62986018D01*
X145071798Y-62998875D01*
X144981102Y-62998875D01*
X144827009Y-62877955D01*
X144663894Y-62751589D01*
X144530263Y-62653990D01*
X144417263Y-62581751D01*
X144316040Y-62531465D01*
X144217742Y-62499725D01*
X144113514Y-62483126D01*
X143994504Y-62478259D01*
X143851857Y-62481718D01*
X143802898Y-62483881D01*
X143596723Y-62501759D01*
X143364801Y-62535898D01*
X143117711Y-62583601D01*
X142866025Y-62642171D01*
X142620321Y-62708911D01*
X142391174Y-62781124D01*
X142189159Y-62856113D01*
X142024851Y-62931181D01*
X142003005Y-62942889D01*
X141890936Y-63014335D01*
X141796717Y-63093046D01*
X141728753Y-63170540D01*
X141695449Y-63238331D01*
X141693473Y-63255358D01*
X141577252Y-63255358D01*
X141573905Y-62860462D01*
X141572312Y-62625696D01*
X141572010Y-62436632D01*
X141573129Y-62288938D01*
X141575796Y-62178281D01*
X141580143Y-62100327D01*
X141586296Y-62050744D01*
X141594387Y-62025199D01*
X141598930Y-62020243D01*
X141631382Y-62001412D01*
X141698631Y-61962977D01*
X141791892Y-61909938D01*
X141902380Y-61847299D01*
X141943719Y-61823906D01*
X142114153Y-61725112D01*
X142275745Y-61626960D01*
X142418566Y-61535723D01*
X142532684Y-61457672D01*
X142581847Y-61420886D01*
X142611099Y-61398614D01*
X142671217Y-61353350D01*
X142752960Y-61292040D01*
X142832093Y-61232832D01*
X142923361Y-61164308D01*
X142999219Y-61106773D01*
X143051036Y-61066812D01*
X143069827Y-61051481D01*
X143093720Y-61031207D01*
X143147624Y-60987439D01*
X143222256Y-60927676D01*
X143270024Y-60889716D01*
X143352274Y-60824146D01*
X143419026Y-60770211D01*
X143460991Y-60735456D01*
X143470221Y-60727159D01*
X143493754Y-60705861D01*
X143546298Y-60660393D01*
X143618542Y-60598776D01*
X143657906Y-60565461D01*
X143855942Y-60389201D01*
X144064553Y-60187294D01*
X144275789Y-59968583D01*
X144481699Y-59741910D01*
X144674331Y-59516118D01*
X144845733Y-59300049D01*
X144987956Y-59102546D01*
X145027583Y-59042243D01*
X145104674Y-58927242D01*
X145195179Y-58800576D01*
X145280136Y-58688746D01*
X145283946Y-58683959D01*
X145345657Y-58604535D01*
X145393141Y-58539394D01*
X145419189Y-58498607D01*
X145422003Y-58491103D01*
X145436144Y-58464123D01*
X145474439Y-58406023D01*
X145530877Y-58325620D01*
X145592671Y-58240856D01*
X145701786Y-58093044D01*
X145801131Y-57957054D01*
X145894513Y-57827309D01*
X145985737Y-57698234D01*
X146078610Y-57564251D01*
X146176940Y-57419782D01*
X146284532Y-57259252D01*
X146405193Y-57077084D01*
X146542730Y-56867699D01*
X146700948Y-56625523D01*
X146820674Y-56441754D01*
X146969753Y-56213047D01*
X147094118Y-56023090D01*
X147196136Y-55868544D01*
X147278173Y-55746069D01*
X147342597Y-55652326D01*
X147391775Y-55583975D01*
X147428074Y-55537677D01*
X147453860Y-55510091D01*
X147471501Y-55497880D01*
X147483364Y-55497702D01*
X147487595Y-55500805D01*
X147492937Y-55511821D01*
X147489900Y-55531313D01*
X147475515Y-55564579D01*
X147446817Y-55616918D01*
X147400839Y-55693628D01*
X147334614Y-55800009D01*
X147245176Y-55941358D01*
X147209690Y-55997163D01*
X147137821Y-56114129D01*
X147060577Y-56246776D01*
X146980980Y-56389130D01*
X146902054Y-56535215D01*
X146826822Y-56679057D01*
X146758306Y-56814680D01*
X146699531Y-56936110D01*
X146653519Y-57037371D01*
X146623293Y-57112489D01*
X146611876Y-57155489D01*
X146620553Y-57161565D01*
X146644458Y-57137967D01*
X146692910Y-57084070D01*
X146758593Y-57008174D01*
X146825672Y-56928787D01*
X146965471Y-56764364D01*
X147131640Y-56573612D01*
X147315723Y-56366148D01*
X147494529Y-56167807D01*
X147551747Y-56099929D01*
X147621692Y-56010117D01*
X147688470Y-55918863D01*
X147747718Y-55839291D01*
X147783438Y-55800716D01*
X147796060Y-55800193D01*
X147786016Y-55834778D01*
X147753739Y-55901528D01*
X147699659Y-55997498D01*
X147669633Y-56047302D01*
X147422512Y-56421996D01*
X147141765Y-56794100D01*
X146823367Y-57168478D01*
X146463287Y-57549992D01*
X146251542Y-57759290D01*
X145976492Y-58030082D01*
X145738065Y-58275854D01*
X145532521Y-58501181D01*
X145356120Y-58710638D01*
X145205122Y-58908800D01*
X145075789Y-59100241D01*
X144964380Y-59289537D01*
X144900562Y-59412069D01*
X144816418Y-59601580D01*
X144741442Y-59807892D01*
X144682339Y-60010822D01*
X144648963Y-60169447D01*
X144639112Y-60257064D01*
X144632128Y-60371528D01*
X144628037Y-60501198D01*
X144626865Y-60634433D01*
X144628639Y-60759591D01*
X144633384Y-60865031D01*
X144641125Y-60939111D01*
X144647192Y-60963596D01*
X144659987Y-60982293D01*
X144667084Y-60958087D01*
X144669645Y-60899188D01*
X144679883Y-60761002D01*
X144704577Y-60594239D01*
X144740128Y-60417001D01*
X144782938Y-60247390D01*
X144825966Y-60112758D01*
X144881624Y-59987332D01*
X144961895Y-59987332D01*
X144963582Y-60007260D01*
X145018780Y-60082936D01*
X145071875Y-60133070D01*
X145115452Y-60153363D01*
X145142096Y-60139520D01*
X145146872Y-60113499D01*
X145157639Y-60069334D01*
X145187471Y-59988694D01*
X145232667Y-59879677D01*
X145289525Y-59750378D01*
X145354341Y-59608896D01*
X145423414Y-59463325D01*
X145493042Y-59321762D01*
X145559522Y-59192304D01*
X145613506Y-59093005D01*
X145616832Y-59086749D01*
X145722438Y-59086749D01*
X145734950Y-59099261D01*
X145747463Y-59086749D01*
X145734950Y-59074236D01*
X145722438Y-59086749D01*
X145616832Y-59086749D01*
X145651980Y-59020642D01*
X145674899Y-58969074D01*
X145677319Y-58949428D01*
X145677286Y-58949429D01*
X145649833Y-58968644D01*
X145599274Y-59020606D01*
X145531880Y-59097542D01*
X145453923Y-59191681D01*
X145371675Y-59295249D01*
X145291408Y-59400473D01*
X145219392Y-59499582D01*
X145161901Y-59584801D01*
X145152538Y-59599753D01*
X145078716Y-59725476D01*
X145020008Y-59836998D01*
X144979904Y-59926793D01*
X144961895Y-59987332D01*
X144881624Y-59987332D01*
X144969869Y-59788469D01*
X145163082Y-59463922D01*
X145404882Y-59140058D01*
X145694545Y-58817817D01*
X146031347Y-58498139D01*
X146143680Y-58401005D01*
X146352754Y-58224638D01*
X146524880Y-58080940D01*
X146660626Y-57969452D01*
X146760558Y-57889714D01*
X146825244Y-57841266D01*
X146855251Y-57823649D01*
X146856046Y-57823559D01*
X146866361Y-57829742D01*
X146857596Y-57851974D01*
X146826555Y-57894222D01*
X146770043Y-57960454D01*
X146684863Y-58054633D01*
X146570887Y-58177447D01*
X146388479Y-58374519D01*
X146234083Y-58545991D01*
X146099808Y-58701132D01*
X145977764Y-58849210D01*
X145860058Y-58999495D01*
X145775423Y-59111773D01*
X145696897Y-59217212D01*
X145626250Y-59311823D01*
X145570318Y-59386471D01*
X145535935Y-59432020D01*
X145532046Y-59437093D01*
X145489930Y-59503234D01*
X145435515Y-59605487D01*
X145373757Y-59732985D01*
X145309608Y-59874860D01*
X145248023Y-60020242D01*
X145193955Y-60158263D01*
X145161325Y-60250394D01*
X145064712Y-60597674D01*
X145012515Y-60927693D01*
X145004388Y-61245577D01*
X145039984Y-61556454D01*
X145065022Y-61674315D01*
X145109335Y-61859517D01*
X145109335Y-61411557D01*
X145109985Y-61243787D01*
X145112711Y-61114028D01*
X145118673Y-61010248D01*
X145129034Y-60920418D01*
X145144953Y-60832507D01*
X145167594Y-60734484D01*
X145179153Y-60688325D01*
X145239624Y-60485732D01*
X145289374Y-60349854D01*
X145385376Y-60349854D01*
X145386107Y-60352921D01*
X145414670Y-60367231D01*
X145479432Y-60387544D01*
X145567538Y-60409930D01*
X145586973Y-60414342D01*
X145724966Y-60436563D01*
X145865446Y-60444743D01*
X145992564Y-60438900D01*
X146090469Y-60419053D01*
X146104389Y-60413731D01*
X146138164Y-60410942D01*
X146163436Y-60443858D01*
X146176882Y-60479070D01*
X146202211Y-60540701D01*
X146246978Y-60636483D01*
X146306221Y-60756866D01*
X146374975Y-60892305D01*
X146448277Y-61033251D01*
X146521164Y-61170157D01*
X146588670Y-61293475D01*
X146645834Y-61393659D01*
X146686728Y-61459735D01*
X146736311Y-61539431D01*
X146757008Y-61586814D01*
X146748721Y-61599409D01*
X146711357Y-61574741D01*
X146690431Y-61555944D01*
X146646439Y-61518174D01*
X146619695Y-61501654D01*
X146619226Y-61501625D01*
X146612243Y-61524878D01*
X146603952Y-61587673D01*
X146595541Y-61679564D01*
X146590062Y-61758128D01*
X146577034Y-61903246D01*
X146556218Y-62064279D01*
X146531453Y-62212739D01*
X146523444Y-62252364D01*
X146469150Y-62480698D01*
X146412361Y-62664618D01*
X146350283Y-62809757D01*
X146280120Y-62921751D01*
X146199078Y-63006233D01*
X146123684Y-63058282D01*
X146063585Y-63099063D01*
X146027532Y-63135988D01*
X146022926Y-63148238D01*
X146044146Y-63223781D01*
X146102828Y-63310138D01*
X146190316Y-63398686D01*
X146297952Y-63480803D01*
X146417076Y-63547866D01*
X146430185Y-63553810D01*
X146500370Y-63576771D01*
X146612808Y-63603445D01*
X146759978Y-63632294D01*
X146934360Y-63661780D01*
X147028782Y-63676190D01*
X147203261Y-63702623D01*
X147337658Y-63725158D01*
X147441554Y-63746112D01*
X147524528Y-63767804D01*
X147596162Y-63792548D01*
X147666034Y-63822663D01*
X147698678Y-63838207D01*
X147802348Y-63887155D01*
X147875275Y-63915029D01*
X147931282Y-63923526D01*
X147984193Y-63914344D01*
X148047835Y-63889183D01*
X148062041Y-63882843D01*
X148161939Y-63837984D01*
X148154195Y-63664534D01*
X148152829Y-63561645D01*
X148162752Y-63486189D01*
X148188388Y-63416021D01*
X148213845Y-63365960D01*
X148263207Y-63273895D01*
X148312517Y-63181278D01*
X148332859Y-63142797D01*
X148384478Y-63044758D01*
X148260896Y-62932783D01*
X148183636Y-62865982D01*
X148083330Y-62783648D01*
X147977278Y-62699869D01*
X147937118Y-62669104D01*
X147787336Y-62554145D01*
X147664673Y-62457070D01*
X147570918Y-62379606D01*
X147507857Y-62323477D01*
X147477277Y-62290410D01*
X147480966Y-62282131D01*
X147520710Y-62300365D01*
X147598297Y-62346838D01*
X147613155Y-62356252D01*
X147814043Y-62480690D01*
X148017709Y-62600327D01*
X148215110Y-62710250D01*
X148397201Y-62805547D01*
X148554940Y-62881302D01*
X148662832Y-62926554D01*
X148834001Y-62968782D01*
X149039106Y-62980863D01*
X149272436Y-62963200D01*
X149528282Y-62916196D01*
X149776428Y-62848082D01*
X149892078Y-62806152D01*
X150031251Y-62747303D01*
X150182840Y-62677112D01*
X150335734Y-62601156D01*
X150478825Y-62525010D01*
X150601004Y-62454253D01*
X150691162Y-62394461D01*
X150710964Y-62378947D01*
X150812952Y-62286772D01*
X150904914Y-62186508D01*
X150989141Y-62073299D01*
X151067923Y-61942287D01*
X151143549Y-61788614D01*
X151218311Y-61607423D01*
X151294499Y-61393858D01*
X151374404Y-61143060D01*
X151460315Y-60850172D01*
X151502241Y-60700837D01*
X151538139Y-60578988D01*
X151574749Y-60467327D01*
X151607488Y-60379164D01*
X151629377Y-60331724D01*
X151658107Y-60274005D01*
X151654618Y-60253977D01*
X151618083Y-60271136D01*
X151578202Y-60300443D01*
X151521541Y-60336026D01*
X151475243Y-60350635D01*
X151453390Y-60340170D01*
X151453079Y-60336888D01*
X151468421Y-60311244D01*
X151506008Y-60266283D01*
X151512521Y-60259177D01*
X151609214Y-60127824D01*
X151667158Y-59979855D01*
X151690093Y-59804847D01*
X151690813Y-59762414D01*
X151678194Y-59612266D01*
X151928547Y-59612266D01*
X151941059Y-59624778D01*
X151953571Y-59612266D01*
X151941059Y-59599753D01*
X151928547Y-59612266D01*
X151678194Y-59612266D01*
X151671696Y-59534954D01*
X151657621Y-59487143D01*
X151828448Y-59487143D01*
X151840960Y-59499655D01*
X151853473Y-59487143D01*
X151840960Y-59474630D01*
X151828448Y-59487143D01*
X151657621Y-59487143D01*
X151637057Y-59417287D01*
X151813604Y-59417287D01*
X151817004Y-59426310D01*
X151841162Y-59448500D01*
X151852983Y-59423226D01*
X151853473Y-59410592D01*
X151841160Y-59384818D01*
X151828040Y-59387296D01*
X151813604Y-59417287D01*
X151637057Y-59417287D01*
X151613815Y-59338333D01*
X151516375Y-59170780D01*
X151378580Y-59030524D01*
X151352980Y-59010681D01*
X151291771Y-58971463D01*
X151254546Y-58960654D01*
X151610755Y-58960654D01*
X151621916Y-58985824D01*
X151656209Y-59039842D01*
X151708786Y-59118029D01*
X151759537Y-59180613D01*
X151806503Y-59218273D01*
X151840777Y-59225948D01*
X151853473Y-59200230D01*
X151836738Y-59164855D01*
X151794791Y-59110198D01*
X151740014Y-59050015D01*
X151684791Y-58998061D01*
X151646824Y-58970685D01*
X151619975Y-58957789D01*
X151610755Y-58960654D01*
X151254546Y-58960654D01*
X151232267Y-58954185D01*
X151151644Y-58953165D01*
X151127758Y-58954631D01*
X151032458Y-58967730D01*
X150944043Y-58990518D01*
X150909016Y-59004604D01*
X150850998Y-59026094D01*
X150815970Y-59024604D01*
X150813591Y-59021987D01*
X150817333Y-58987745D01*
X150844872Y-58936389D01*
X150883897Y-58885461D01*
X150922098Y-58852506D01*
X150935522Y-58848219D01*
X150941208Y-58835497D01*
X150915049Y-58809134D01*
X150880479Y-58778832D01*
X150885574Y-58757140D01*
X150913576Y-58734856D01*
X150964629Y-58706446D01*
X150994906Y-58698867D01*
X151004054Y-58694249D01*
X151254556Y-58694249D01*
X151278612Y-58698484D01*
X151322047Y-58712427D01*
X151383782Y-58746762D01*
X151403735Y-58760201D01*
X151467082Y-58803995D01*
X151494073Y-58817825D01*
X151488938Y-58801016D01*
X151455907Y-58752888D01*
X151455242Y-58751955D01*
X151390993Y-58686990D01*
X151324275Y-58663032D01*
X151274420Y-58676526D01*
X151254556Y-58694249D01*
X151004054Y-58694249D01*
X151025014Y-58683668D01*
X151027660Y-58673842D01*
X151010184Y-58659886D01*
X151504046Y-58659886D01*
X151507502Y-58686432D01*
X151537478Y-58735478D01*
X151569878Y-58780197D01*
X151618251Y-58843517D01*
X151653857Y-58886635D01*
X151667075Y-58899064D01*
X151665171Y-58878139D01*
X151649778Y-58825462D01*
X151640536Y-58798320D01*
X151606395Y-58708693D01*
X151579091Y-58659140D01*
X151552322Y-58641443D01*
X151523687Y-58645882D01*
X151504046Y-58659886D01*
X151010184Y-58659886D01*
X151005871Y-58656442D01*
X150953189Y-58648831D01*
X150950661Y-58648817D01*
X150867005Y-58626589D01*
X150865261Y-58625233D01*
X151658569Y-58625233D01*
X151658669Y-58670314D01*
X151683751Y-58747295D01*
X151708078Y-58806838D01*
X151756277Y-58913122D01*
X151798430Y-58991228D01*
X151830568Y-59034505D01*
X151846745Y-59039257D01*
X151850008Y-59010772D01*
X151848812Y-58944662D01*
X151843500Y-58853119D01*
X151840395Y-58813254D01*
X151822528Y-58598768D01*
X151737902Y-58598768D01*
X151684598Y-58604051D01*
X151658569Y-58625233D01*
X150865261Y-58625233D01*
X150797048Y-58572204D01*
X150792640Y-58566914D01*
X150860779Y-58566914D01*
X150892174Y-58582338D01*
X150953033Y-58593350D01*
X150968653Y-58594677D01*
X151025949Y-58596363D01*
X151052089Y-58592711D01*
X151051741Y-58590717D01*
X151019980Y-58577561D01*
X150966973Y-58566532D01*
X150910920Y-58559899D01*
X150870021Y-58559931D01*
X150860779Y-58566914D01*
X150792640Y-58566914D01*
X150747899Y-58513217D01*
X150742449Y-58478426D01*
X150780536Y-58467926D01*
X150861994Y-58481810D01*
X150923973Y-58499483D01*
X151012116Y-58522107D01*
X151106328Y-58538809D01*
X151194046Y-58548387D01*
X151262709Y-58549640D01*
X151299753Y-58541368D01*
X151302931Y-58535709D01*
X151290695Y-58508735D01*
X151259574Y-58454749D01*
X151238263Y-58420259D01*
X151131249Y-58220101D01*
X151035879Y-57979871D01*
X150955388Y-57708834D01*
X150898599Y-57447635D01*
X150871051Y-57253372D01*
X150853892Y-57038402D01*
X150846964Y-56814428D01*
X150850108Y-56593151D01*
X150863167Y-56386275D01*
X150885982Y-56205501D01*
X150917266Y-56066220D01*
X150904730Y-56069407D01*
X150862155Y-56103579D01*
X150794677Y-56164117D01*
X150707431Y-56246401D01*
X150605554Y-56345813D01*
X150597292Y-56354003D01*
X150475033Y-56472039D01*
X150347738Y-56589236D01*
X150226075Y-56696151D01*
X150120717Y-56783346D01*
X150060408Y-56828995D01*
X149864226Y-56955933D01*
X149638265Y-57082211D01*
X149400364Y-57198923D01*
X149168356Y-57297165D01*
X149012272Y-57352318D01*
X148906925Y-57386738D01*
X148822015Y-57416556D01*
X148767186Y-57438250D01*
X148751433Y-57447635D01*
X148771844Y-57468335D01*
X148826644Y-57510468D01*
X148907936Y-57568690D01*
X149007827Y-57637658D01*
X149118420Y-57712028D01*
X149231820Y-57786457D01*
X149340131Y-57855601D01*
X149435459Y-57914117D01*
X149474349Y-57936896D01*
X149587573Y-57998274D01*
X149705799Y-58056684D01*
X149808718Y-58102254D01*
X149837206Y-58113286D01*
X149918016Y-58143491D01*
X149957484Y-58162415D01*
X149961316Y-58175856D01*
X149935215Y-58189610D01*
X149918691Y-58196102D01*
X149822860Y-58219462D01*
X149730514Y-58219151D01*
X149660747Y-58195610D01*
X149653276Y-58189989D01*
X149607322Y-58157247D01*
X149539435Y-58115180D01*
X149513670Y-58100368D01*
X149413571Y-58044157D01*
X149511584Y-58133779D01*
X149571119Y-58195646D01*
X149590149Y-58233215D01*
X149569413Y-58243985D01*
X149509650Y-58225454D01*
X149487482Y-58215371D01*
X149428844Y-58188538D01*
X149392748Y-58174131D01*
X149389148Y-58173350D01*
X149394362Y-58192713D01*
X149418940Y-58242160D01*
X149439745Y-58279704D01*
X149476218Y-58354806D01*
X149498089Y-58421650D01*
X149500856Y-58443021D01*
X149495050Y-58459646D01*
X149474345Y-58454996D01*
X149434219Y-58425582D01*
X149370155Y-58367917D01*
X149277632Y-58278513D01*
X149241472Y-58242824D01*
X149124272Y-58129596D01*
X149031401Y-58047321D01*
X148954251Y-57989268D01*
X148947787Y-57985525D01*
X149451108Y-57985525D01*
X149470621Y-58006911D01*
X149519613Y-58043290D01*
X149583766Y-58085435D01*
X149648759Y-58124119D01*
X149700274Y-58150116D01*
X149713993Y-58154919D01*
X149786215Y-58169028D01*
X149820534Y-58163509D01*
X149826478Y-58148325D01*
X149806717Y-58125056D01*
X149795197Y-58123280D01*
X149757996Y-58113127D01*
X149690549Y-58086529D01*
X149607512Y-58049269D01*
X149530185Y-58014036D01*
X149474274Y-57991134D01*
X149451199Y-57985217D01*
X149451108Y-57985525D01*
X148947787Y-57985525D01*
X148884211Y-57948708D01*
X148840496Y-57929359D01*
X148663036Y-57883498D01*
X148467453Y-57875331D01*
X148265340Y-57902281D01*
X148068290Y-57961769D01*
X147887896Y-58051219D01*
X147735751Y-58168051D01*
X147726569Y-58177077D01*
X147664262Y-58248557D01*
X147632138Y-58315697D01*
X147629413Y-58390524D01*
X147655303Y-58485065D01*
X147699605Y-58590755D01*
X147734498Y-58673152D01*
X147756792Y-58736683D01*
X147762224Y-58768984D01*
X147761512Y-58770203D01*
X147737715Y-58761386D01*
X147689495Y-58722365D01*
X147624707Y-58661185D01*
X147551208Y-58585890D01*
X147476855Y-58504525D01*
X147409502Y-58425135D01*
X147357536Y-58356531D01*
X147268061Y-58226905D01*
X147318361Y-58156334D01*
X147369160Y-58092513D01*
X147418226Y-58040975D01*
X147449542Y-58000660D01*
X147459271Y-57945754D01*
X147455054Y-57883196D01*
X147442319Y-57770204D01*
X147543447Y-57822916D01*
X147644576Y-57875627D01*
X147783335Y-57805523D01*
X147867235Y-57757438D01*
X147906412Y-57719738D01*
X147909085Y-57697882D01*
X147894630Y-57646154D01*
X147881369Y-57587432D01*
X147866662Y-57514519D01*
X148001989Y-57590757D01*
X148064627Y-57624749D01*
X148116165Y-57646221D01*
X148170330Y-57657393D01*
X148240853Y-57660486D01*
X148341460Y-57657723D01*
X148400074Y-57655166D01*
X148618429Y-57654160D01*
X148799906Y-57673093D01*
X148838005Y-57680452D01*
X148924138Y-57698138D01*
X148987821Y-57710147D01*
X149016468Y-57714120D01*
X149016927Y-57713980D01*
X149000289Y-57698278D01*
X148952628Y-57659366D01*
X148882744Y-57604352D01*
X148848285Y-57577696D01*
X148675893Y-57444997D01*
X148533387Y-57471341D01*
X148421798Y-57486556D01*
X148301692Y-57495038D01*
X148251586Y-57495732D01*
X148112290Y-57493779D01*
X148307168Y-57401889D01*
X148502047Y-57310000D01*
X148432292Y-57237965D01*
X148362537Y-57165929D01*
X148460062Y-57230264D01*
X148557587Y-57294598D01*
X148672771Y-57236098D01*
X148776067Y-57180837D01*
X148895614Y-57112349D01*
X149024794Y-57034940D01*
X149156988Y-56952915D01*
X149285574Y-56870579D01*
X149403933Y-56792238D01*
X149505447Y-56722196D01*
X149583494Y-56664758D01*
X149631455Y-56624230D01*
X149642967Y-56605142D01*
X149614900Y-56606468D01*
X149584924Y-56620116D01*
X149496908Y-56661516D01*
X149368455Y-56709099D01*
X149208463Y-56760627D01*
X149025831Y-56813863D01*
X148829457Y-56866570D01*
X148628241Y-56916510D01*
X148431081Y-56961446D01*
X148246875Y-56999141D01*
X148084521Y-57027356D01*
X147952920Y-57043855D01*
X147886141Y-57047241D01*
X147847114Y-57051699D01*
X147809149Y-57069516D01*
X147764273Y-57107358D01*
X147704510Y-57171890D01*
X147626355Y-57264385D01*
X147276099Y-57672327D01*
X146945131Y-58034515D01*
X146832290Y-58156684D01*
X146715322Y-58287544D01*
X146599697Y-58420542D01*
X146490883Y-58549125D01*
X146394351Y-58666741D01*
X146315571Y-58766837D01*
X146260011Y-58842860D01*
X146233739Y-58886769D01*
X146213793Y-58943645D01*
X146186187Y-59034278D01*
X146155321Y-59143849D01*
X146137713Y-59210037D01*
X146109630Y-59314694D01*
X146085055Y-59400099D01*
X146067220Y-59455352D01*
X146060552Y-59470178D01*
X146044343Y-59457448D01*
X146018016Y-59410441D01*
X146003911Y-59379011D01*
X145974017Y-59316564D01*
X145949129Y-59279286D01*
X145941912Y-59274688D01*
X145919799Y-59294431D01*
X145885977Y-59344319D01*
X145872240Y-59368276D01*
X145831560Y-59439939D01*
X145777249Y-59532341D01*
X145729089Y-59612266D01*
X145681915Y-59694765D01*
X145627565Y-59798130D01*
X145570228Y-59913313D01*
X145514093Y-60031268D01*
X145463352Y-60142947D01*
X145422192Y-60239303D01*
X145394803Y-60311288D01*
X145385376Y-60349854D01*
X145289374Y-60349854D01*
X145322286Y-60259965D01*
X145419945Y-60028363D01*
X145525410Y-59808270D01*
X145604651Y-59662315D01*
X145765441Y-59396527D01*
X145938110Y-59136061D01*
X146127384Y-58874884D01*
X146337989Y-58606964D01*
X146574651Y-58326267D01*
X146842096Y-58026760D01*
X147116198Y-57732786D01*
X147169940Y-57673248D01*
X147246189Y-57584961D01*
X147336178Y-57478253D01*
X147431140Y-57363451D01*
X147466542Y-57320054D01*
X147561750Y-57203059D01*
X147655533Y-57088176D01*
X147738926Y-56986361D01*
X147802965Y-56908570D01*
X147819401Y-56888743D01*
X147911096Y-56774375D01*
X148001178Y-56652716D01*
X148095121Y-56515622D01*
X148198398Y-56354954D01*
X148316484Y-56162567D01*
X148389237Y-56041107D01*
X148468713Y-55908105D01*
X148542426Y-55785784D01*
X148605400Y-55682323D01*
X148652656Y-55605902D01*
X148678632Y-55565545D01*
X148710765Y-55514704D01*
X148725319Y-55483288D01*
X148725394Y-55482303D01*
X148738848Y-55455142D01*
X148775193Y-55396147D01*
X148828407Y-55314333D01*
X148892466Y-55218717D01*
X148961346Y-55118315D01*
X149029024Y-55022145D01*
X149076863Y-54956195D01*
X149146855Y-54868018D01*
X149226278Y-54778223D01*
X149306694Y-54695179D01*
X149379662Y-54627259D01*
X149436745Y-54582836D01*
X149466340Y-54569803D01*
X149493345Y-54574369D01*
X149494663Y-54592294D01*
X149466804Y-54629917D01*
X149406275Y-54693579D01*
X149388143Y-54711793D01*
X149285734Y-54828599D01*
X149169193Y-54986989D01*
X149041835Y-55181639D01*
X148906976Y-55407223D01*
X148767930Y-55658417D01*
X148628013Y-55929894D01*
X148620793Y-55944430D01*
X148546683Y-56095032D01*
X148481229Y-56230185D01*
X148427368Y-56343648D01*
X148388037Y-56429181D01*
X148366171Y-56480541D01*
X148362809Y-56492801D01*
X148389575Y-56491768D01*
X148454445Y-56481616D01*
X148546685Y-56464177D01*
X148621904Y-56448591D01*
X148724748Y-56425836D01*
X148822058Y-56402356D01*
X148923820Y-56375354D01*
X149040020Y-56342033D01*
X149180643Y-56299596D01*
X149355675Y-56245248D01*
X149419900Y-56225098D01*
X149496651Y-56203293D01*
X149548158Y-56193178D01*
X149563404Y-56196908D01*
X149563318Y-56197053D01*
X149520210Y-56234980D01*
X149434128Y-56283287D01*
X149310556Y-56339834D01*
X149154976Y-56402482D01*
X148972873Y-56469090D01*
X148769731Y-56537519D01*
X148551033Y-56605629D01*
X148412586Y-56646034D01*
X148311731Y-56676396D01*
X148246017Y-56703103D01*
X148201983Y-56734455D01*
X148166170Y-56778752D01*
X148145765Y-56810567D01*
X148110194Y-56874238D01*
X148092153Y-56919292D01*
X148092414Y-56931437D01*
X148124095Y-56933909D01*
X148195649Y-56924630D01*
X148298801Y-56905512D01*
X148425277Y-56878468D01*
X148566802Y-56845411D01*
X148715102Y-56808254D01*
X148861901Y-56768910D01*
X148998926Y-56729292D01*
X149088251Y-56701222D01*
X149429296Y-56571759D01*
X149750185Y-56415259D01*
X150044518Y-56235869D01*
X150305894Y-56037740D01*
X150527914Y-55825017D01*
X150634068Y-55699259D01*
X150686740Y-55636603D01*
X150727215Y-55598584D01*
X150747179Y-55592929D01*
X150747546Y-55593795D01*
X150739068Y-55637271D01*
X150698561Y-55708848D01*
X150630957Y-55802880D01*
X150541186Y-55913722D01*
X150434182Y-56035728D01*
X150314877Y-56163253D01*
X150188201Y-56290652D01*
X150059088Y-56412279D01*
X149946201Y-56511035D01*
X149665355Y-56730673D01*
X149383252Y-56917115D01*
X149119269Y-57063711D01*
X149013134Y-57118994D01*
X148915847Y-57171118D01*
X148841189Y-57212631D01*
X148812980Y-57229350D01*
X148767388Y-57259109D01*
X148762927Y-57267774D01*
X148797711Y-57259828D01*
X148800468Y-57259069D01*
X148887405Y-57231536D01*
X149006201Y-57189174D01*
X149142938Y-57137388D01*
X149283696Y-57081580D01*
X149414557Y-57027153D01*
X149521601Y-56979510D01*
X149526182Y-56977354D01*
X149785154Y-56842459D01*
X150037896Y-56687026D01*
X150274339Y-56518369D01*
X150484412Y-56343800D01*
X150658044Y-56170630D01*
X150693343Y-56129889D01*
X150820177Y-55963035D01*
X150948594Y-55766619D01*
X151069790Y-55556123D01*
X151174961Y-55347030D01*
X151255302Y-55154823D01*
X151267422Y-55120345D01*
X151293905Y-55047517D01*
X151310431Y-55018418D01*
X151320315Y-55028518D01*
X151323370Y-55043927D01*
X151322189Y-55100697D01*
X151309512Y-55184763D01*
X151293354Y-55256637D01*
X151248873Y-55449836D01*
X151205296Y-55680625D01*
X151164678Y-55936559D01*
X151129080Y-56205192D01*
X151113152Y-56346551D01*
X151088926Y-56679217D01*
X151085142Y-57013334D01*
X151100914Y-57340503D01*
X151135355Y-57652324D01*
X151187579Y-57940399D01*
X151256701Y-58196327D01*
X151327881Y-58381884D01*
X151368972Y-58468498D01*
X151400147Y-58518594D01*
X151430373Y-58542004D01*
X151468618Y-58548561D01*
X151480039Y-58548719D01*
X151532790Y-58542974D01*
X151546907Y-58520895D01*
X151543841Y-58504926D01*
X151498923Y-58320826D01*
X151483583Y-58235911D01*
X151591505Y-58235911D01*
X151595376Y-58377053D01*
X151610243Y-58473414D01*
X151638749Y-58529561D01*
X151683540Y-58550061D01*
X151747260Y-58539482D01*
X151763840Y-58533529D01*
X151794302Y-58499470D01*
X151803423Y-58456751D01*
X151799689Y-58399232D01*
X151789714Y-58310281D01*
X151775343Y-58202106D01*
X151758422Y-58086915D01*
X151740793Y-57976918D01*
X151724302Y-57884322D01*
X151710793Y-57821336D01*
X151704528Y-57802136D01*
X151687211Y-57798469D01*
X151666006Y-57834522D01*
X151643494Y-57900384D01*
X151622258Y-57986145D01*
X151604880Y-58081897D01*
X151593941Y-58177729D01*
X151591505Y-58235911D01*
X151483583Y-58235911D01*
X151459942Y-58105050D01*
X151429357Y-57875850D01*
X151409627Y-57651480D01*
X151403177Y-57461099D01*
X151413105Y-57254726D01*
X151441306Y-57016027D01*
X151485810Y-56758450D01*
X151544335Y-56496699D01*
X151576350Y-56379954D01*
X151612853Y-56264749D01*
X151650578Y-56159284D01*
X151686261Y-56071759D01*
X151716639Y-56010374D01*
X151738445Y-55983329D01*
X151746645Y-55988532D01*
X151743678Y-56020913D01*
X151729629Y-56091994D01*
X151706610Y-56192196D01*
X151676738Y-56311939D01*
X151667015Y-56349256D01*
X151596456Y-56641495D01*
X151547329Y-56905225D01*
X151517464Y-57156069D01*
X151504687Y-57409652D01*
X151503902Y-57522709D01*
X151505868Y-57634733D01*
X151510311Y-57745752D01*
X151516546Y-57848833D01*
X151523887Y-57937041D01*
X151531651Y-58003443D01*
X151539152Y-58041105D01*
X151545705Y-58043094D01*
X151550624Y-58002476D01*
X151550872Y-57998177D01*
X151555177Y-57963979D01*
X151566038Y-57907632D01*
X151584421Y-57825133D01*
X151611293Y-57712479D01*
X151647621Y-57565666D01*
X151694371Y-57380692D01*
X151752510Y-57153553D01*
X151789562Y-57009704D01*
X151849073Y-56769403D01*
X151893559Y-56565275D01*
X151924792Y-56386347D01*
X151944539Y-56221646D01*
X151954571Y-56060196D01*
X151956532Y-55974160D01*
X151959438Y-55855352D01*
X151964900Y-55747857D01*
X151972034Y-55666208D01*
X151977272Y-55633350D01*
X151987659Y-55597559D01*
X151996059Y-55597037D01*
X152005093Y-55636852D01*
X152015331Y-55706963D01*
X152025941Y-55855607D01*
X152023844Y-56038284D01*
X152010086Y-56240903D01*
X151985711Y-56449375D01*
X151951766Y-56649609D01*
X151941890Y-56696806D01*
X151915276Y-56821506D01*
X151898868Y-56913834D01*
X151891924Y-56990257D01*
X151893705Y-57067240D01*
X151903467Y-57161250D01*
X151916537Y-57259860D01*
X151934427Y-57421162D01*
X151950174Y-57620759D01*
X151963333Y-57846925D01*
X151973458Y-58087934D01*
X151980105Y-58332061D01*
X151982828Y-58567580D01*
X151981181Y-58782766D01*
X151978312Y-58886551D01*
X151974963Y-59015289D01*
X151974603Y-59126800D01*
X151977076Y-59211191D01*
X151982222Y-59258573D01*
X151984351Y-59264223D01*
X151992810Y-59298374D01*
X151988703Y-59306034D01*
X151969373Y-59346390D01*
X151954300Y-59411473D01*
X151947297Y-59477871D01*
X151952171Y-59522172D01*
X151953212Y-59524099D01*
X151969632Y-59522219D01*
X151991025Y-59476802D01*
X152016261Y-59393985D01*
X152044212Y-59279906D01*
X152073747Y-59140705D01*
X152103738Y-58982519D01*
X152133055Y-58811487D01*
X152160568Y-58633746D01*
X152185149Y-58455435D01*
X152205667Y-58282692D01*
X152220993Y-58121655D01*
X152227077Y-58035714D01*
X152237164Y-57827636D01*
X152241378Y-57627757D01*
X152239339Y-57426290D01*
X152230662Y-57213449D01*
X152214966Y-56979447D01*
X152191869Y-56714498D01*
X152164978Y-56446650D01*
X152159634Y-56369753D01*
X152163601Y-56338060D01*
X152175168Y-56347952D01*
X152192625Y-56395812D01*
X152214262Y-56478023D01*
X152238367Y-56590967D01*
X152241895Y-56609310D01*
X152256928Y-56716682D01*
X152270071Y-56865237D01*
X152281149Y-57046137D01*
X152289986Y-57250546D01*
X152296403Y-57469625D01*
X152300226Y-57694537D01*
X152301277Y-57916445D01*
X152299381Y-58126512D01*
X152294360Y-58315901D01*
X152286038Y-58475773D01*
X152280501Y-58542736D01*
X152247968Y-58828159D01*
X152205818Y-59105821D01*
X152152220Y-59382435D01*
X152085345Y-59664713D01*
X152003362Y-59959368D01*
X151904441Y-60273111D01*
X151786752Y-60612655D01*
X151648465Y-60984713D01*
X151535152Y-61276404D01*
X151404202Y-61624234D01*
X151300721Y-61935103D01*
X151223773Y-62213260D01*
X151172423Y-62462951D01*
X151145735Y-62688425D01*
X151142776Y-62893930D01*
X151152568Y-63014186D01*
X151171826Y-63143236D01*
X151197970Y-63278928D01*
X151225932Y-63395487D01*
X151231101Y-63413575D01*
X151308541Y-63588809D01*
X151428760Y-63742851D01*
X151588101Y-63873188D01*
X151782907Y-63977305D01*
X152009524Y-64052686D01*
X152216330Y-64091268D01*
X152426432Y-64139108D01*
X152622079Y-64223902D01*
X152794600Y-64340017D01*
X152935324Y-64481823D01*
X153021278Y-64614046D01*
X153058690Y-64699645D01*
X153075269Y-64780113D01*
X153076014Y-64881233D01*
X153075421Y-64893262D01*
X153073585Y-64972438D01*
X153076873Y-65025257D01*
X153083986Y-65040028D01*
X153099753Y-65012656D01*
X153125129Y-64950765D01*
X153154704Y-64867582D01*
X153155578Y-64864959D01*
X153198239Y-64680330D01*
X153200360Y-64509731D01*
X153162367Y-64359501D01*
X153116063Y-64275352D01*
X153022559Y-64170473D01*
X152903353Y-64089158D01*
X152752604Y-64028954D01*
X152564472Y-63987404D01*
X152378990Y-63965599D01*
X152101613Y-63929899D01*
X151868038Y-63872546D01*
X151676576Y-63792751D01*
X151603594Y-63742969D01*
X152443331Y-63742969D01*
X152479459Y-63751757D01*
X152544561Y-63753842D01*
X152784086Y-63775340D01*
X153026205Y-63836496D01*
X153258876Y-63932305D01*
X153470055Y-64057763D01*
X153647700Y-64207863D01*
X153654901Y-64215314D01*
X153713151Y-64269655D01*
X153743413Y-64283152D01*
X153744825Y-64257020D01*
X153716523Y-64192479D01*
X153696756Y-64156297D01*
X153582636Y-63995662D01*
X153444139Y-63867478D01*
X153290557Y-63780310D01*
X153287792Y-63779201D01*
X153213731Y-63753341D01*
X153135279Y-63735058D01*
X153040016Y-63722549D01*
X152915524Y-63714008D01*
X152808618Y-63709573D01*
X152647633Y-63706009D01*
X152534482Y-63708381D01*
X152467296Y-63716773D01*
X152447012Y-63725859D01*
X152443331Y-63742969D01*
X151603594Y-63742969D01*
X151525537Y-63689725D01*
X151413229Y-63562680D01*
X151374568Y-63496860D01*
X151323506Y-63360903D01*
X151287073Y-63188859D01*
X151266062Y-62992737D01*
X151261267Y-62784551D01*
X151273481Y-62576311D01*
X151301436Y-62390000D01*
X151346033Y-62179660D01*
X151392093Y-61978112D01*
X151437978Y-61791321D01*
X151482052Y-61625253D01*
X151522680Y-61485872D01*
X151558225Y-61379145D01*
X151587050Y-61311037D01*
X151603466Y-61288768D01*
X151630691Y-61286618D01*
X151638327Y-61326814D01*
X151626371Y-61410685D01*
X151603109Y-61508557D01*
X151540169Y-61798534D01*
X151500053Y-62094593D01*
X151482814Y-62387318D01*
X151488507Y-62667297D01*
X151517185Y-62925116D01*
X151568903Y-63151360D01*
X151593292Y-63223589D01*
X151622573Y-63294337D01*
X151639416Y-63318295D01*
X151643394Y-63297260D01*
X151634079Y-63233029D01*
X151613598Y-63138160D01*
X151595768Y-63046784D01*
X151585368Y-62948884D01*
X151581738Y-62831645D01*
X151584214Y-62682253D01*
X151586586Y-62615221D01*
X151595864Y-62448860D01*
X151611399Y-62281969D01*
X151634390Y-62108625D01*
X151666035Y-61922906D01*
X151707532Y-61718892D01*
X151760081Y-61490660D01*
X151824879Y-61232289D01*
X151903125Y-60937856D01*
X151989214Y-60625763D01*
X152083424Y-60283994D01*
X152163042Y-59984411D01*
X152229292Y-59721718D01*
X152283399Y-59490616D01*
X152326585Y-59285809D01*
X152360076Y-59101997D01*
X152385094Y-58933884D01*
X152391031Y-58886551D01*
X152409121Y-58735992D01*
X152427774Y-58581015D01*
X152444858Y-58439317D01*
X152458243Y-58328593D01*
X152458860Y-58323497D01*
X152469512Y-58188885D01*
X152474345Y-58017745D01*
X152473861Y-57819284D01*
X152468561Y-57602709D01*
X152458949Y-57377228D01*
X152445526Y-57152047D01*
X152428794Y-56936375D01*
X152409255Y-56739418D01*
X152387411Y-56570384D01*
X152363764Y-56438480D01*
X152353867Y-56398008D01*
X152340792Y-56334186D01*
X152342269Y-56302179D01*
X152355626Y-56308169D01*
X152374919Y-56349337D01*
X152395674Y-56419252D01*
X152421045Y-56526388D01*
X152448634Y-56658413D01*
X152476043Y-56802992D01*
X152500874Y-56947792D01*
X152520730Y-57080479D01*
X152527624Y-57134827D01*
X152544529Y-57340942D01*
X152552538Y-57584669D01*
X152552099Y-57854451D01*
X152543659Y-58138732D01*
X152527668Y-58425953D01*
X152504573Y-58704558D01*
X152474821Y-58962990D01*
X152450514Y-59124285D01*
X152426949Y-59252001D01*
X152394824Y-59405929D01*
X152353314Y-59589505D01*
X152301591Y-59806162D01*
X152238829Y-60059338D01*
X152164201Y-60352466D01*
X152076881Y-60688983D01*
X152040984Y-60825960D01*
X151954617Y-61196742D01*
X151895338Y-61546219D01*
X151863232Y-61870882D01*
X151858382Y-62167221D01*
X151880873Y-62431728D01*
X151930788Y-62660892D01*
X151993135Y-62821802D01*
X152067598Y-62934323D01*
X152167399Y-63011293D01*
X152301547Y-63059141D01*
X152335538Y-63066206D01*
X152426851Y-63066710D01*
X152527959Y-63033497D01*
X152643642Y-62964014D01*
X152778679Y-62855706D01*
X152848813Y-62791956D01*
X153013638Y-62644500D01*
X153153808Y-62535329D01*
X153273959Y-62462145D01*
X153378729Y-62422652D01*
X153472756Y-62414553D01*
X153560676Y-62435550D01*
X153564867Y-62437269D01*
X153632554Y-62480113D01*
X153687939Y-62550147D01*
X153733800Y-62653336D01*
X153772912Y-62795645D01*
X153802146Y-62947197D01*
X153847522Y-63215813D01*
X153867062Y-63020517D01*
X153881309Y-62775670D01*
X153871986Y-62567730D01*
X153839887Y-62398124D01*
X153785808Y-62268277D01*
X153710540Y-62179616D01*
X153614880Y-62133567D01*
X153499621Y-62131557D01*
X153390221Y-62164112D01*
X153341663Y-62186246D01*
X153294744Y-62213082D01*
X153243277Y-62249752D01*
X153181068Y-62301389D01*
X153101930Y-62373126D01*
X152999670Y-62470095D01*
X152870958Y-62594649D01*
X152727198Y-62730797D01*
X152609970Y-62832289D01*
X152513354Y-62902573D01*
X152431430Y-62945094D01*
X152358278Y-62963299D01*
X152287977Y-62960635D01*
X152254834Y-62953314D01*
X152156824Y-62909283D01*
X152081224Y-62833943D01*
X152026670Y-62723826D01*
X151991794Y-62575466D01*
X151975230Y-62385398D01*
X151973613Y-62239852D01*
X151977757Y-62105533D01*
X151987913Y-61971054D01*
X152005276Y-61831465D01*
X152031040Y-61681818D01*
X152066398Y-61517161D01*
X152112544Y-61332546D01*
X152170671Y-61123023D01*
X152241974Y-60883641D01*
X152327645Y-60609453D01*
X152428878Y-60295507D01*
X152480538Y-60137783D01*
X152541497Y-59950426D01*
X152599967Y-59767072D01*
X152653254Y-59596446D01*
X152698664Y-59447276D01*
X152733503Y-59328287D01*
X152754785Y-59249409D01*
X152781606Y-59140187D01*
X152806647Y-59038761D01*
X152825473Y-58963069D01*
X152828981Y-58949113D01*
X152851696Y-58830642D01*
X152870957Y-58675384D01*
X152885899Y-58496536D01*
X152895655Y-58307292D01*
X152899360Y-58120850D01*
X152896148Y-57950404D01*
X152895457Y-57935616D01*
X152856756Y-57476463D01*
X152785980Y-57044289D01*
X152680134Y-56625336D01*
X152536223Y-56205849D01*
X152497818Y-56108817D01*
X152432229Y-55958984D01*
X152352489Y-55795689D01*
X152264265Y-55628927D01*
X152173226Y-55468689D01*
X152085041Y-55324968D01*
X152005376Y-55207756D01*
X151942435Y-55129724D01*
X151915302Y-55098561D01*
X151865333Y-55039322D01*
X151801447Y-54962617D01*
X151772680Y-54927828D01*
X151692821Y-54837228D01*
X151592491Y-54732417D01*
X151482270Y-54623564D01*
X151372740Y-54520834D01*
X151274481Y-54434396D01*
X151198074Y-54374418D01*
X151193399Y-54371187D01*
X151148374Y-54338250D01*
X151127758Y-54320142D01*
X151084487Y-54283813D01*
X151006045Y-54231578D01*
X150902429Y-54169087D01*
X150783636Y-54101993D01*
X150659662Y-54035950D01*
X150540505Y-53976607D01*
X150439581Y-53931046D01*
X150135080Y-53819943D01*
X149799650Y-53726797D01*
X149450510Y-53655908D01*
X149195592Y-53620540D01*
X148730227Y-53594307D01*
X148256576Y-53616428D01*
X147777178Y-53686388D01*
X147294572Y-53803677D01*
X146811298Y-53967783D01*
X146329893Y-54178192D01*
X146260468Y-54212479D01*
X146023338Y-54326211D01*
X145758671Y-54443195D01*
X145459643Y-54566330D01*
X145119429Y-54698514D01*
X145090730Y-54709377D01*
X144529614Y-54934819D01*
X144008627Y-55171712D01*
X143529061Y-55419212D01*
X143092213Y-55676477D01*
X142699375Y-55942662D01*
X142351843Y-56216924D01*
X142050910Y-56498420D01*
X141797872Y-56786306D01*
X141698120Y-56920353D01*
X141636864Y-57005670D01*
X141598137Y-57053460D01*
X141577135Y-57068121D01*
X141569052Y-57054053D01*
X141568350Y-57039139D01*
X141588055Y-56959475D01*
X141644058Y-56855842D01*
X141731685Y-56733020D01*
X141846265Y-56595791D01*
X141983126Y-56448935D01*
X142137594Y-56297230D01*
X142304999Y-56145458D01*
X142480668Y-55998399D01*
X142659928Y-55860832D01*
X142838109Y-55737539D01*
X142844751Y-55733228D01*
X143163512Y-55531303D01*
X143457232Y-55355555D01*
X143738703Y-55199400D01*
X144020718Y-55056253D01*
X144316071Y-54919529D01*
X144637556Y-54782644D01*
X144884113Y-54683550D01*
X145166513Y-54570387D01*
X145440573Y-54456457D01*
X145722113Y-54335017D01*
X146026953Y-54199325D01*
X146135345Y-54150276D01*
X146417259Y-54024126D01*
X146663182Y-53918676D01*
X146881319Y-53831148D01*
X147079880Y-53758761D01*
X147267071Y-53698736D01*
X147451100Y-53648293D01*
X147640174Y-53604654D01*
X147842501Y-53565037D01*
X147887069Y-53557035D01*
X148036224Y-53536367D01*
X148219901Y-53519794D01*
X148424698Y-53507721D01*
X148637211Y-53500556D01*
X148844038Y-53498705D01*
X149031777Y-53502576D01*
G37*
D14*
%TO.C,R4*%
X107477064Y-82515000D02*
X107022936Y-82515000D01*
X107477064Y-83985000D02*
X107022936Y-83985000D01*
%TO.C,R5*%
X142868936Y-70430000D02*
X143323064Y-70430000D01*
X142868936Y-71900000D02*
X143323064Y-71900000D01*
%TO.C,R10*%
X167937936Y-59440000D02*
X168392064Y-59440000D01*
X167937936Y-60910000D02*
X168392064Y-60910000D01*
%TO.C,R6*%
X142993936Y-75395000D02*
X143448064Y-75395000D01*
X142993936Y-76865000D02*
X143448064Y-76865000D01*
%TO.C,U2*%
X96815000Y-78740000D02*
X96815000Y-99180000D01*
X96815000Y-99180000D02*
X98465000Y-99180000D01*
X100465000Y-99180000D02*
X102115000Y-99180000D01*
X102115000Y-78740000D02*
X96815000Y-78740000D01*
X102115000Y-99180000D02*
X102115000Y-78740000D01*
X98465000Y-99180000D02*
G75*
G02*
X100465000Y-99180000I1000000J0D01*
G01*
%TO.C,J5*%
X184897500Y-67230000D02*
X192737500Y-67230000D01*
X184897500Y-74470000D02*
X184897500Y-67230000D01*
X191117500Y-74470000D02*
X191117500Y-67230000D01*
X192217500Y-74470000D02*
X192217500Y-67230000D01*
X192737500Y-67230000D02*
X192737500Y-72300000D01*
X192737500Y-72900000D02*
X192737500Y-74470000D01*
X192737500Y-74470000D02*
X184897500Y-74470000D01*
X193347500Y-73040000D02*
X192737500Y-72600000D01*
X193347500Y-72160000D01*
X193347500Y-73040000D01*
G36*
X193347500Y-73040000D02*
G01*
X192737500Y-72600000D01*
X193347500Y-72160000D01*
X193347500Y-73040000D01*
G37*
%TO.C,D1*%
X65090000Y-50750000D02*
X73600000Y-50750000D01*
X65090000Y-57250000D02*
X65090000Y-50750000D01*
X65090000Y-57250000D02*
X73600000Y-57250000D01*
%TO.C,D4*%
X183135000Y-51000000D02*
X174625000Y-51000000D01*
X183135000Y-51000000D02*
X183135000Y-57500000D01*
X183135000Y-57500000D02*
X174625000Y-57500000D01*
D13*
%TO.C,Q4*%
X163346000Y-57650000D02*
X163346000Y-50850000D01*
X169566000Y-50850000D02*
X163346000Y-50850000D01*
X169566000Y-57650000D02*
X163346000Y-57650000D01*
D11*
X159229000Y-51964000D02*
G75*
G02*
X159029000Y-51964000I-100000J0D01*
G01*
X159029000Y-51964000D02*
G75*
G02*
X159229000Y-51964000I100000J0D01*
G01*
D14*
%TO.C,R11*%
X167662936Y-76290000D02*
X168117064Y-76290000D01*
X167662936Y-77760000D02*
X168117064Y-77760000D01*
%TO.C,J1*%
X55237500Y-50605000D02*
X63077500Y-50605000D01*
X55237500Y-52175000D02*
X55237500Y-50605000D01*
X55237500Y-57845000D02*
X55237500Y-52775000D01*
X55757500Y-50605000D02*
X55757500Y-57845000D01*
X56857500Y-50605000D02*
X56857500Y-57845000D01*
X63077500Y-50605000D02*
X63077500Y-57845000D01*
X63077500Y-57845000D02*
X55237500Y-57845000D01*
X55237500Y-52475000D02*
X54627500Y-52915000D01*
X54627500Y-52035000D01*
X55237500Y-52475000D01*
G36*
X55237500Y-52475000D02*
G01*
X54627500Y-52915000D01*
X54627500Y-52035000D01*
X55237500Y-52475000D01*
G37*
%TO.C,J8*%
X94080000Y-42837500D02*
X101400000Y-42837500D01*
X94080000Y-52077500D02*
X94080000Y-42837500D01*
X102000000Y-42837500D02*
X104320000Y-42837500D01*
X104320000Y-42837500D02*
X104320000Y-52077500D01*
X104320000Y-43357500D02*
X94080000Y-43357500D01*
X104320000Y-44457500D02*
X94080000Y-44457500D01*
X104320000Y-52077500D02*
X94080000Y-52077500D01*
X101700000Y-42837500D02*
X101260000Y-42227500D01*
X102140000Y-42227500D01*
X101700000Y-42837500D01*
G36*
X101700000Y-42837500D02*
G01*
X101260000Y-42227500D01*
X102140000Y-42227500D01*
X101700000Y-42837500D01*
G37*
D13*
%TO.C,U1*%
X110459000Y-47885000D02*
X121528000Y-47885000D01*
X110459000Y-47885000D02*
X138969000Y-47885000D01*
X110459000Y-98835000D02*
X110459000Y-47885000D01*
X110459000Y-98835000D02*
X110459000Y-47885000D01*
X110459000Y-98835000D02*
X115829000Y-98835000D01*
X115829000Y-98835000D02*
X133519000Y-98835000D01*
X121528000Y-47885000D02*
X128239000Y-47885000D01*
X128239000Y-47885000D02*
X138969000Y-47885000D01*
X133519000Y-98835000D02*
X138969000Y-98835000D01*
X138969000Y-47885000D02*
X138969000Y-98835000D01*
X138969000Y-47885000D02*
X138969000Y-98835000D01*
X138969000Y-98835000D02*
X110459000Y-98835000D01*
D11*
X109989000Y-57845000D02*
G75*
G02*
X109789000Y-57845000I-100000J0D01*
G01*
X109789000Y-57845000D02*
G75*
G02*
X109989000Y-57845000I100000J0D01*
G01*
D14*
%TO.C,D2*%
X65090000Y-67750000D02*
X73600000Y-67750000D01*
X65090000Y-74250000D02*
X65090000Y-67750000D01*
X65090000Y-74250000D02*
X73600000Y-74250000D01*
%TO.C,C2*%
X100265000Y-62665000D02*
X103215000Y-62665000D01*
X100265000Y-70120563D02*
X100265000Y-62665000D01*
X101329437Y-71185000D02*
X100265000Y-70120563D01*
X101329437Y-71185000D02*
X103215000Y-71185000D01*
X107720563Y-71185000D02*
X105835000Y-71185000D01*
X107720563Y-71185000D02*
X108785000Y-70120563D01*
X108785000Y-62665000D02*
X105835000Y-62665000D01*
X108785000Y-70120563D02*
X108785000Y-62665000D01*
%TO.C,R1*%
X107502064Y-96065000D02*
X107047936Y-96065000D01*
X107502064Y-97535000D02*
X107047936Y-97535000D01*
%TO.C,D6*%
X183135000Y-83975000D02*
X174625000Y-83975000D01*
X183135000Y-83975000D02*
X183135000Y-90475000D01*
X183135000Y-90475000D02*
X174625000Y-90475000D01*
%TO.C,R9*%
X82772936Y-59265000D02*
X83227064Y-59265000D01*
X82772936Y-60735000D02*
X83227064Y-60735000D01*
%TD*%
M02*
