%TF.GenerationSoftware,KiCad,Pcbnew,9.0.4*%
%TF.CreationDate,2026-07-15T12:47:48-05:00*%
%TF.ProjectId,esp32attachment,65737033-3261-4747-9461-63686d656e74,rev?*%
%TF.SameCoordinates,Original*%
%TF.FileFunction,Copper,L1,Top*%
%TF.FilePolarity,Positive*%
%FSLAX46Y46*%
G04 Gerber Fmt 4.6, Leading zero omitted, Abs format (unit mm)*
G04 Created by KiCad (PCBNEW 9.0.4) date 2026-07-15 12:47:48*
%MOMM*%
%LPD*%
G01*
G04 APERTURE LIST*
G04 Aperture macros list*
%AMRoundRect*
0 Rectangle with rounded corners*
0 $1 Rounding radius*
0 $2 $3 $4 $5 $6 $7 $8 $9 X,Y pos of 4 corners*
0 Add a 4 corners polygon primitive as box body*
4,1,4,$2,$3,$4,$5,$6,$7,$8,$9,$2,$3,0*
0 Add four circle primitives for the rounded corners*
1,1,$1+$1,$2,$3*
1,1,$1+$1,$4,$5*
1,1,$1+$1,$6,$7*
1,1,$1+$1,$8,$9*
0 Add four rect primitives between the rounded corners*
20,1,$1+$1,$2,$3,$4,$5,0*
20,1,$1+$1,$4,$5,$6,$7,0*
20,1,$1+$1,$6,$7,$8,$9,0*
20,1,$1+$1,$8,$9,$2,$3,0*%
G04 Aperture macros list end*
%TA.AperFunction,SMDPad,CuDef*%
%ADD10R,3.020000X0.970000*%
%TD*%
%TA.AperFunction,SMDPad,CuDef*%
%ADD11R,6.320000X5.670000*%
%TD*%
%TA.AperFunction,SMDPad,CuDef*%
%ADD12RoundRect,0.250000X-2.500000X0.250000X-2.500000X-0.250000X2.500000X-0.250000X2.500000X0.250000X0*%
%TD*%
%TA.AperFunction,SMDPad,CuDef*%
%ADD13RoundRect,0.250000X-1.250000X0.550000X-1.250000X-0.550000X1.250000X-0.550000X1.250000X0.550000X0*%
%TD*%
%TA.AperFunction,SMDPad,CuDef*%
%ADD14RoundRect,0.250000X2.500000X-0.250000X2.500000X0.250000X-2.500000X0.250000X-2.500000X-0.250000X0*%
%TD*%
%TA.AperFunction,SMDPad,CuDef*%
%ADD15RoundRect,0.250000X1.250000X-0.550000X1.250000X0.550000X-1.250000X0.550000X-1.250000X-0.550000X0*%
%TD*%
%TA.AperFunction,ComponentPad*%
%ADD16R,3.500000X3.500000*%
%TD*%
%TA.AperFunction,ComponentPad*%
%ADD17RoundRect,0.750000X-1.000000X0.750000X-1.000000X-0.750000X1.000000X-0.750000X1.000000X0.750000X0*%
%TD*%
%TA.AperFunction,ComponentPad*%
%ADD18RoundRect,0.875000X-0.875000X0.875000X-0.875000X-0.875000X0.875000X-0.875000X0.875000X0.875000X0*%
%TD*%
%TA.AperFunction,SMDPad,CuDef*%
%ADD19RoundRect,0.250000X1.000000X-1.400000X1.000000X1.400000X-1.000000X1.400000X-1.000000X-1.400000X0*%
%TD*%
%TA.AperFunction,SMDPad,CuDef*%
%ADD20RoundRect,0.250001X0.799999X-1.999999X0.799999X1.999999X-0.799999X1.999999X-0.799999X-1.999999X0*%
%TD*%
%TA.AperFunction,SMDPad,CuDef*%
%ADD21RoundRect,0.250000X0.350000X0.450000X-0.350000X0.450000X-0.350000X-0.450000X0.350000X-0.450000X0*%
%TD*%
%TA.AperFunction,SMDPad,CuDef*%
%ADD22RoundRect,0.250000X-0.350000X-0.450000X0.350000X-0.450000X0.350000X0.450000X-0.350000X0.450000X0*%
%TD*%
%TA.AperFunction,ComponentPad*%
%ADD23RoundRect,0.250000X-0.550000X-0.550000X0.550000X-0.550000X0.550000X0.550000X-0.550000X0.550000X0*%
%TD*%
%TA.AperFunction,ComponentPad*%
%ADD24C,1.600000*%
%TD*%
%TA.AperFunction,SMDPad,CuDef*%
%ADD25RoundRect,0.250000X-1.000000X1.400000X-1.000000X-1.400000X1.000000X-1.400000X1.000000X1.400000X0*%
%TD*%
%TA.AperFunction,ComponentPad*%
%ADD26RoundRect,0.250000X0.550000X0.550000X-0.550000X0.550000X-0.550000X-0.550000X0.550000X-0.550000X0*%
%TD*%
%TA.AperFunction,ComponentPad*%
%ADD27R,2.000000X2.000000*%
%TD*%
%TA.AperFunction,ComponentPad*%
%ADD28C,2.000000*%
%TD*%
%TA.AperFunction,ViaPad*%
%ADD29C,1.200000*%
%TD*%
%TA.AperFunction,Conductor*%
%ADD30C,1.000000*%
%TD*%
%TA.AperFunction,Conductor*%
%ADD31C,0.200000*%
%TD*%
G04 APERTURE END LIST*
D10*
%TO.P,Q6,1*%
%TO.N,/FET_GATE6*%
X161300000Y-85289000D03*
%TO.P,Q6,3*%
%TO.N,GNDPWR*%
X161300000Y-89861000D03*
D11*
%TO.P,Q6,4*%
%TO.N,/FET_DRAIN6*%
X167830000Y-87575000D03*
%TD*%
D12*
%TO.P,J2,1,1*%
%TO.N,+12V*%
X54925000Y-70025000D03*
%TO.P,J2,2,2*%
%TO.N,/FET_DRAIN2*%
X54925000Y-72025000D03*
D13*
%TO.P,J2,MP*%
%TO.N,N/C*%
X57175000Y-67625000D03*
X57175000Y-74425000D03*
%TD*%
D14*
%TO.P,J4,1,1*%
%TO.N,+12V*%
X193025000Y-53050000D03*
%TO.P,J4,2,2*%
%TO.N,/FET_DRAIN4*%
X193025000Y-51050000D03*
D15*
%TO.P,J4,MP*%
%TO.N,N/C*%
X190775000Y-55450000D03*
X190775000Y-48650000D03*
%TD*%
D16*
%TO.P,J7,1,1*%
%TO.N,+12V*%
X100525000Y-56625000D03*
D17*
%TO.P,J7,2,2*%
%TO.N,GNDPWR*%
X100525000Y-50625000D03*
D18*
%TO.P,J7,3*%
%TO.N,N/C*%
X95825000Y-53625000D03*
%TD*%
D19*
%TO.P,D3,1,K*%
%TO.N,+12V*%
X66542000Y-87575000D03*
%TO.P,D3,2,A*%
%TO.N,/FET_DRAIN3*%
X73342000Y-87575000D03*
%TD*%
D20*
%TO.P,C1,1*%
%TO.N,+12V*%
X94675000Y-70525000D03*
%TO.P,C1,2*%
%TO.N,GNDPWR*%
X94675000Y-63325000D03*
%TD*%
D21*
%TO.P,R3,1*%
%TO.N,/GPIO12*%
X108250000Y-88050000D03*
%TO.P,R3,2*%
%TO.N,Net-(R3-Pad2)*%
X106250000Y-88050000D03*
%TD*%
D10*
%TO.P,Q3,1*%
%TO.N,/FET_GATE3*%
X86747000Y-89861000D03*
%TO.P,Q3,3*%
%TO.N,GNDPWR*%
X86747000Y-85289000D03*
D11*
%TO.P,Q3,4*%
%TO.N,/FET_DRAIN3*%
X80217000Y-87575000D03*
%TD*%
D22*
%TO.P,R12,1*%
%TO.N,/FET_GATE6*%
X165000000Y-94875000D03*
%TO.P,R12,2*%
%TO.N,GNDPWR*%
X167000000Y-94875000D03*
%TD*%
D10*
%TO.P,Q1,1*%
%TO.N,/FET_GATE1*%
X86747000Y-54336000D03*
%TO.P,Q1,3*%
%TO.N,GNDPWR*%
X86747000Y-49764000D03*
D11*
%TO.P,Q1,4*%
%TO.N,/FET_DRAIN1*%
X80217000Y-52050000D03*
%TD*%
D21*
%TO.P,R2,1*%
%TO.N,/GPIO14*%
X108250000Y-92975000D03*
%TO.P,R2,2*%
%TO.N,Net-(R2-Pad2)*%
X106250000Y-92975000D03*
%TD*%
D22*
%TO.P,R7,1*%
%TO.N,/FET_GATE3*%
X81975000Y-94875000D03*
%TO.P,R7,2*%
%TO.N,GNDPWR*%
X83975000Y-94875000D03*
%TD*%
%TO.P,R8,1*%
%TO.N,/FET_GATE2*%
X81950000Y-77525000D03*
%TO.P,R8,2*%
%TO.N,GNDPWR*%
X83950000Y-77525000D03*
%TD*%
D23*
%TO.P,U3,1*%
%TO.N,Net-(R5-Pad2)*%
X147220000Y-71165000D03*
D24*
%TO.P,U3,2*%
%TO.N,GND*%
X147220000Y-73705000D03*
%TO.P,U3,3*%
%TO.N,Net-(R6-Pad2)*%
X147220000Y-76245000D03*
%TO.P,U3,4*%
%TO.N,GND*%
X147220000Y-78785000D03*
%TO.P,U3,5*%
%TO.N,/FET_GATE6*%
X154840000Y-78785000D03*
%TO.P,U3,6*%
%TO.N,+12V*%
X154840000Y-76245000D03*
%TO.P,U3,7*%
%TO.N,/FET_GATE5*%
X154840000Y-73705000D03*
%TO.P,U3,8*%
%TO.N,+12V*%
X154840000Y-71165000D03*
%TD*%
D10*
%TO.P,Q2,1*%
%TO.N,/FET_GATE2*%
X87040000Y-73311000D03*
%TO.P,Q2,3*%
%TO.N,GNDPWR*%
X87040000Y-68739000D03*
D11*
%TO.P,Q2,4*%
%TO.N,/FET_DRAIN2*%
X80510000Y-71025000D03*
%TD*%
D25*
%TO.P,D5,1,K*%
%TO.N,+12V*%
X181625000Y-71025000D03*
%TO.P,D5,2,A*%
%TO.N,/FET_DRAIN5*%
X174825000Y-71025000D03*
%TD*%
D10*
%TO.P,Q5,1*%
%TO.N,/FET_GATE5*%
X161300000Y-68739000D03*
%TO.P,Q5,3*%
%TO.N,GNDPWR*%
X161300000Y-73311000D03*
D11*
%TO.P,Q5,4*%
%TO.N,/FET_DRAIN5*%
X167830000Y-71025000D03*
%TD*%
D21*
%TO.P,R4,1*%
%TO.N,/GPIO13*%
X108250000Y-83250000D03*
%TO.P,R4,2*%
%TO.N,Net-(R4-Pad2)*%
X106250000Y-83250000D03*
%TD*%
D22*
%TO.P,R5,1*%
%TO.N,/GPIO27*%
X142096000Y-71165000D03*
%TO.P,R5,2*%
%TO.N,Net-(R5-Pad2)*%
X144096000Y-71165000D03*
%TD*%
%TO.P,R10,1*%
%TO.N,/FET_GATE4*%
X165390000Y-58600000D03*
%TO.P,R10,2*%
%TO.N,GNDPWR*%
X167390000Y-58600000D03*
%TD*%
%TO.P,R6,1*%
%TO.N,/GPIO26*%
X142221000Y-76130000D03*
%TO.P,R6,2*%
%TO.N,Net-(R6-Pad2)*%
X144221000Y-76130000D03*
%TD*%
D12*
%TO.P,J1,1,1*%
%TO.N,+12V*%
X54925000Y-51050000D03*
%TO.P,J1,2,2*%
%TO.N,/FET_DRAIN1*%
X54925000Y-53050000D03*
D13*
%TO.P,J1,MP*%
%TO.N,N/C*%
X57175000Y-48650000D03*
X57175000Y-55450000D03*
%TD*%
D26*
%TO.P,U2,1*%
%TO.N,Net-(R1-Pad2)*%
X103275000Y-97850000D03*
D24*
%TO.P,U2,2*%
%TO.N,GND*%
X103275000Y-95310000D03*
%TO.P,U2,3*%
%TO.N,Net-(R2-Pad2)*%
X103275000Y-92770000D03*
%TO.P,U2,4*%
%TO.N,GND*%
X103275000Y-90230000D03*
%TO.P,U2,5*%
%TO.N,Net-(R3-Pad2)*%
X103275000Y-87690000D03*
%TO.P,U2,6*%
%TO.N,GND*%
X103275000Y-85150000D03*
%TO.P,U2,7*%
%TO.N,Net-(R4-Pad2)*%
X103275000Y-82610000D03*
%TO.P,U2,8*%
%TO.N,GND*%
X103275000Y-80070000D03*
%TO.P,U2,9*%
%TO.N,/FET_GATE4*%
X95655000Y-80070000D03*
%TO.P,U2,10*%
%TO.N,+12V*%
X95655000Y-82610000D03*
%TO.P,U2,11*%
%TO.N,/FET_GATE1*%
X95655000Y-85150000D03*
%TO.P,U2,12*%
%TO.N,+12V*%
X95655000Y-87690000D03*
%TO.P,U2,13*%
%TO.N,/FET_GATE2*%
X95655000Y-90230000D03*
%TO.P,U2,14*%
%TO.N,+12V*%
X95655000Y-92770000D03*
%TO.P,U2,15*%
%TO.N,/FET_GATE3*%
X95655000Y-95310000D03*
%TO.P,U2,16*%
%TO.N,+12V*%
X95655000Y-97850000D03*
%TD*%
D14*
%TO.P,J6,1,1*%
%TO.N,+12V*%
X193025000Y-88575000D03*
%TO.P,J6,2,2*%
%TO.N,/FET_DRAIN6*%
X193025000Y-86575000D03*
D15*
%TO.P,J6,MP*%
%TO.N,N/C*%
X190775000Y-90975000D03*
X190775000Y-84175000D03*
%TD*%
D14*
%TO.P,J5,1,1*%
%TO.N,+12V*%
X193025000Y-72025000D03*
%TO.P,J5,2,2*%
%TO.N,/FET_DRAIN5*%
X193025000Y-70025000D03*
D15*
%TO.P,J5,MP*%
%TO.N,N/C*%
X190775000Y-74425000D03*
X190775000Y-67625000D03*
%TD*%
D19*
%TO.P,D1,1,K*%
%TO.N,+12V*%
X66542000Y-52050000D03*
%TO.P,D1,2,A*%
%TO.N,/FET_DRAIN1*%
X73342000Y-52050000D03*
%TD*%
D25*
%TO.P,D4,1,K*%
%TO.N,+12V*%
X181625000Y-52050000D03*
%TO.P,D4,2,A*%
%TO.N,/FET_DRAIN4*%
X174825000Y-52050000D03*
%TD*%
D10*
%TO.P,Q4,1*%
%TO.N,/FET_GATE4*%
X161300000Y-49764000D03*
%TO.P,Q4,3*%
%TO.N,GNDPWR*%
X161300000Y-54336000D03*
D11*
%TO.P,Q4,4*%
%TO.N,/FET_DRAIN4*%
X167830000Y-52050000D03*
%TD*%
D12*
%TO.P,J3,1,1*%
%TO.N,+12V*%
X54925000Y-86575000D03*
%TO.P,J3,2,2*%
%TO.N,/FET_DRAIN3*%
X54925000Y-88575000D03*
D13*
%TO.P,J3,MP*%
%TO.N,N/C*%
X57175000Y-84175000D03*
X57175000Y-90975000D03*
%TD*%
D22*
%TO.P,R11,1*%
%TO.N,/FET_GATE5*%
X165390000Y-77525000D03*
%TO.P,R11,2*%
%TO.N,GNDPWR*%
X167390000Y-77525000D03*
%TD*%
D27*
%TO.P,U1,1,3V3*%
%TO.N,+3V3*%
X112039000Y-57845000D03*
D28*
%TO.P,U1,2,GND*%
%TO.N,GND*%
X112039000Y-60385000D03*
%TO.P,U1,3,D15*%
%TO.N,unconnected-(U1-D15-Pad3)*%
X112039000Y-62925000D03*
%TO.P,U1,4,D2*%
%TO.N,unconnected-(U1-D2-Pad4)*%
X112039000Y-65465000D03*
%TO.P,U1,5,D4*%
%TO.N,unconnected-(U1-D4-Pad5)*%
X112039000Y-68005000D03*
%TO.P,U1,6,RX2*%
%TO.N,unconnected-(U1-RX2-Pad6)*%
X112039000Y-70545000D03*
%TO.P,U1,7,TX2*%
%TO.N,unconnected-(U1-TX2-Pad7)*%
X112039000Y-73085000D03*
%TO.P,U1,8,D5*%
%TO.N,unconnected-(U1-D5-Pad8)*%
X112039000Y-75625000D03*
%TO.P,U1,9,D18*%
%TO.N,unconnected-(U1-D18-Pad9)*%
X112039000Y-78165000D03*
%TO.P,U1,10,D19*%
%TO.N,unconnected-(U1-D19-Pad10)*%
X112039000Y-80705000D03*
%TO.P,U1,11,D21*%
%TO.N,unconnected-(U1-D21-Pad11)*%
X112039000Y-83245000D03*
%TO.P,U1,12,RX0*%
%TO.N,unconnected-(U1-RX0-Pad12)*%
X112039000Y-85785000D03*
%TO.P,U1,13,TX0*%
%TO.N,unconnected-(U1-TX0-Pad13)*%
X112039000Y-88325000D03*
%TO.P,U1,14,D22*%
%TO.N,unconnected-(U1-D22-Pad14)*%
X112039000Y-90865000D03*
%TO.P,U1,15,D23*%
%TO.N,unconnected-(U1-D23-Pad15)*%
X112039000Y-93405000D03*
%TO.P,U1,16,EN*%
%TO.N,unconnected-(U1-EN-Pad16)*%
X137439000Y-93405000D03*
%TO.P,U1,17,VP*%
%TO.N,unconnected-(U1-VP-Pad17)*%
X137439000Y-90865000D03*
%TO.P,U1,18,VN*%
%TO.N,unconnected-(U1-VN-Pad18)*%
X137439000Y-88325000D03*
%TO.P,U1,19,D34*%
%TO.N,unconnected-(U1-D34-Pad19)*%
X137439000Y-85785000D03*
%TO.P,U1,20,D35*%
%TO.N,unconnected-(U1-D35-Pad20)*%
X137439000Y-83245000D03*
%TO.P,U1,21,D32*%
%TO.N,unconnected-(U1-D32-Pad21)*%
X137439000Y-80705000D03*
%TO.P,U1,22,D33*%
%TO.N,unconnected-(U1-D33-Pad22)*%
X137439000Y-78165000D03*
%TO.P,U1,23,D25*%
%TO.N,/GPIO25*%
X137439000Y-75625000D03*
%TO.P,U1,24,D26*%
%TO.N,/GPIO26*%
X137439000Y-73085000D03*
%TO.P,U1,25,D27*%
%TO.N,/GPIO27*%
X137439000Y-70545000D03*
%TO.P,U1,26,D14*%
%TO.N,/GPIO14*%
X137439000Y-68005000D03*
%TO.P,U1,27,D12*%
%TO.N,/GPIO12*%
X137439000Y-65465000D03*
%TO.P,U1,28,D13*%
%TO.N,/GPIO13*%
X137439000Y-62925000D03*
%TO.P,U1,29,GND*%
%TO.N,GND*%
X137439000Y-60385000D03*
%TO.P,U1,30,VIN*%
%TO.N,unconnected-(U1-VIN-Pad30)*%
X137439000Y-57845000D03*
%TD*%
D19*
%TO.P,D2,1,K*%
%TO.N,+12V*%
X66542000Y-71025000D03*
%TO.P,D2,2,A*%
%TO.N,/FET_DRAIN2*%
X73342000Y-71025000D03*
%TD*%
D20*
%TO.P,C2,1*%
%TO.N,+12V*%
X104525000Y-70525000D03*
%TO.P,C2,2*%
%TO.N,GNDPWR*%
X104525000Y-63325000D03*
%TD*%
D21*
%TO.P,R1,1*%
%TO.N,/GPIO25*%
X108250000Y-98075000D03*
%TO.P,R1,2*%
%TO.N,Net-(R1-Pad2)*%
X106250000Y-98075000D03*
%TD*%
D25*
%TO.P,D6,1,K*%
%TO.N,+12V*%
X181625000Y-87575000D03*
%TO.P,D6,2,A*%
%TO.N,/FET_DRAIN6*%
X174825000Y-87575000D03*
%TD*%
D22*
%TO.P,R9,1*%
%TO.N,/FET_GATE1*%
X81950000Y-58600000D03*
%TO.P,R9,2*%
%TO.N,GNDPWR*%
X83950000Y-58600000D03*
%TD*%
D29*
%TO.N,GNDPWR*%
X85975000Y-57975000D03*
X102375000Y-45875000D03*
X98575000Y-44250000D03*
X100475000Y-45875000D03*
X98575000Y-47300000D03*
X102725000Y-61475000D03*
X102300000Y-44300000D03*
X90325000Y-50550000D03*
X162475000Y-75250000D03*
X162350000Y-91875000D03*
X100500000Y-47300000D03*
X96750000Y-61400000D03*
X98575000Y-45875000D03*
X86100000Y-76800000D03*
X162050000Y-56250000D03*
X169800000Y-57375000D03*
X100500000Y-44275000D03*
X169850000Y-93775000D03*
X169800000Y-76500000D03*
X86150000Y-93850000D03*
X87750000Y-66400000D03*
X102400000Y-47350000D03*
X87600000Y-83550000D03*
%TD*%
D30*
%TO.N,+12V*%
X196576000Y-46136108D02*
X196576000Y-51824000D01*
X54925000Y-51050000D02*
X52681734Y-51050000D01*
X100525000Y-56625000D02*
X102118266Y-56625000D01*
X194101000Y-63550000D02*
X162455000Y-63550000D01*
X193025000Y-72025000D02*
X196576000Y-75576000D01*
X102118266Y-56625000D02*
X106376000Y-60882734D01*
X93716000Y-58466000D02*
X92150000Y-56900000D01*
X182625000Y-53050000D02*
X193025000Y-53050000D01*
X196576000Y-88149000D02*
X196150000Y-88575000D01*
X182625000Y-72025000D02*
X193025000Y-72025000D01*
X92150000Y-56900000D02*
X92150000Y-45750000D01*
X54925000Y-86575000D02*
X65542000Y-86575000D01*
X52681734Y-70025000D02*
X51374000Y-71332734D01*
X95655000Y-87690000D02*
X97256000Y-89291000D01*
X65542000Y-86575000D02*
X66542000Y-87575000D01*
X97256000Y-89291000D02*
X97256000Y-91169000D01*
X181625000Y-71025000D02*
X182625000Y-72025000D01*
X196576000Y-70717266D02*
X195268266Y-72025000D01*
X194701000Y-80325000D02*
X158920000Y-80325000D01*
X196576000Y-56601000D02*
X196576000Y-61075000D01*
X51374000Y-83024000D02*
X54925000Y-86575000D01*
X100525000Y-56625000D02*
X100525000Y-56450000D01*
X97256000Y-96249000D02*
X95655000Y-97850000D01*
X52775000Y-48900000D02*
X54925000Y-51050000D01*
X54925000Y-70025000D02*
X65542000Y-70025000D01*
X54925000Y-70025000D02*
X52681734Y-70025000D01*
X195350000Y-53050000D02*
X193025000Y-53050000D01*
X97256000Y-86089000D02*
X95655000Y-87690000D01*
X196576000Y-51824000D02*
X195350000Y-53050000D01*
X90500000Y-70525000D02*
X94675000Y-70525000D01*
X95557000Y-56625000D02*
X93716000Y-58466000D01*
X97256000Y-91169000D02*
X95655000Y-92770000D01*
X90000000Y-62182000D02*
X90000000Y-70025000D01*
X196576000Y-78450000D02*
X196576000Y-88149000D01*
X182625000Y-88575000D02*
X193025000Y-88575000D01*
X162455000Y-63550000D02*
X154840000Y-71165000D01*
X94675000Y-70525000D02*
X94054000Y-71146000D01*
X100525000Y-56625000D02*
X95557000Y-56625000D01*
X52775000Y-45775000D02*
X52775000Y-48900000D01*
X97256000Y-94371000D02*
X97256000Y-96249000D01*
X94054000Y-81009000D02*
X95655000Y-82610000D01*
X195813000Y-79213000D02*
X194701000Y-80325000D01*
X97256000Y-84211000D02*
X97256000Y-86089000D01*
X195268266Y-72025000D02*
X193025000Y-72025000D01*
X95655000Y-92770000D02*
X97256000Y-94371000D01*
X52800000Y-45750000D02*
X52775000Y-45775000D01*
X106376000Y-68674000D02*
X104525000Y-70525000D01*
X181625000Y-52050000D02*
X182625000Y-53050000D01*
X194539892Y-44100000D02*
X196576000Y-46136108D01*
X51374000Y-71332734D02*
X51374000Y-83024000D01*
X196150000Y-88575000D02*
X193025000Y-88575000D01*
X196576000Y-61075000D02*
X194101000Y-63550000D01*
X196576000Y-61075000D02*
X196576000Y-70717266D01*
X158920000Y-80325000D02*
X154840000Y-76245000D01*
X90000000Y-70025000D02*
X90500000Y-70525000D01*
X195813000Y-79213000D02*
X196576000Y-78450000D01*
X100525000Y-56450000D02*
X112875000Y-44100000D01*
X196576000Y-75576000D02*
X196576000Y-78450000D01*
X94054000Y-71146000D02*
X94054000Y-81009000D01*
X93716000Y-58466000D02*
X90000000Y-62182000D01*
X181625000Y-87575000D02*
X182625000Y-88575000D01*
X195276000Y-79750000D02*
X195813000Y-79213000D01*
X65542000Y-51050000D02*
X66542000Y-52050000D01*
X51374000Y-66474000D02*
X54925000Y-70025000D01*
X95655000Y-82610000D02*
X97256000Y-84211000D01*
X112875000Y-44100000D02*
X194539892Y-44100000D01*
X92150000Y-45750000D02*
X52800000Y-45750000D01*
X193025000Y-53050000D02*
X196576000Y-56601000D01*
X52681734Y-51050000D02*
X51374000Y-52357734D01*
X106376000Y-60882734D02*
X106376000Y-68674000D01*
X51374000Y-52357734D02*
X51374000Y-66474000D01*
X54925000Y-51050000D02*
X65542000Y-51050000D01*
X65542000Y-70025000D02*
X66542000Y-71025000D01*
%TO.N,GNDPWR*%
X83950000Y-58600000D02*
X85350000Y-58600000D01*
X102775000Y-61525000D02*
X102725000Y-61475000D01*
X104525000Y-63325000D02*
X104525000Y-61675000D01*
X161300000Y-73311000D02*
X161300000Y-74075000D01*
X100525000Y-50625000D02*
X101275000Y-50625000D01*
X161300000Y-54336000D02*
X161300000Y-55500000D01*
X104375000Y-61525000D02*
X102775000Y-61525000D01*
X89539000Y-49764000D02*
X90325000Y-50550000D01*
X104525000Y-61675000D02*
X104375000Y-61525000D01*
X161300000Y-74075000D02*
X162475000Y-75250000D01*
X87040000Y-68739000D02*
X87040000Y-67110000D01*
X169800000Y-57375000D02*
X169800000Y-57500000D01*
X169850000Y-93775000D02*
X169850000Y-93825000D01*
X85350000Y-58600000D02*
X85975000Y-57975000D01*
X169850000Y-93825000D02*
X168750000Y-94925000D01*
X95100000Y-61400000D02*
X96750000Y-61400000D01*
X86747000Y-85289000D02*
X86747000Y-84403000D01*
X168700000Y-58600000D02*
X167390000Y-58600000D01*
X161300000Y-89861000D02*
X161300000Y-90825000D01*
X86747000Y-49764000D02*
X89539000Y-49764000D01*
X85375000Y-77525000D02*
X86100000Y-76800000D01*
X161300000Y-55500000D02*
X162050000Y-56250000D01*
X85125000Y-94875000D02*
X86150000Y-93850000D01*
X169800000Y-57500000D02*
X168700000Y-58600000D01*
X94675000Y-61825000D02*
X95100000Y-61400000D01*
X168750000Y-94925000D02*
X167050000Y-94925000D01*
X167050000Y-94925000D02*
X167000000Y-94875000D01*
X169750000Y-76500000D02*
X168725000Y-77525000D01*
X161300000Y-90825000D02*
X162350000Y-91875000D01*
X86747000Y-84403000D02*
X87600000Y-83550000D01*
X94675000Y-63325000D02*
X94675000Y-61825000D01*
X168725000Y-77525000D02*
X167390000Y-77525000D01*
X169800000Y-76500000D02*
X169750000Y-76500000D01*
X87040000Y-67110000D02*
X87750000Y-66400000D01*
X83975000Y-94875000D02*
X85125000Y-94875000D01*
X83950000Y-77525000D02*
X85375000Y-77525000D01*
%TO.N,/FET_DRAIN1*%
X54874000Y-56442266D02*
X55981734Y-57550000D01*
X79675000Y-57550000D02*
X79675000Y-57150000D01*
X73342000Y-52050000D02*
X80217000Y-52050000D01*
X54874000Y-53101000D02*
X54874000Y-56442266D01*
X54925000Y-53050000D02*
X54874000Y-53101000D01*
X55981734Y-57550000D02*
X79675000Y-57550000D01*
X79675000Y-57150000D02*
X80217000Y-56608000D01*
X80217000Y-56608000D02*
X80217000Y-52050000D01*
%TO.N,/FET_DRAIN2*%
X54925000Y-72025000D02*
X54874000Y-72076000D01*
X79975000Y-76375000D02*
X80510000Y-75840000D01*
X73342000Y-71025000D02*
X80510000Y-71025000D01*
X80510000Y-75840000D02*
X80510000Y-71025000D01*
X55831734Y-76375000D02*
X79975000Y-76375000D01*
X54874000Y-72076000D02*
X54874000Y-75417266D01*
X54874000Y-75417266D02*
X55831734Y-76375000D01*
%TO.N,/FET_DRAIN3*%
X73342000Y-87575000D02*
X80217000Y-87575000D01*
X80225000Y-93000000D02*
X80225000Y-92675000D01*
X80217000Y-92667000D02*
X80217000Y-87575000D01*
X80225000Y-92675000D02*
X80217000Y-92667000D01*
X54874000Y-88626000D02*
X54874000Y-91967266D01*
X55906734Y-93000000D02*
X80225000Y-93000000D01*
X54925000Y-88575000D02*
X54874000Y-88626000D01*
X54874000Y-91967266D02*
X55906734Y-93000000D01*
%TO.N,/FET_DRAIN4*%
X167830000Y-52050000D02*
X174825000Y-52050000D01*
X174800000Y-48250000D02*
X174825000Y-48275000D01*
X174825000Y-48275000D02*
X174825000Y-52050000D01*
X195075000Y-46475000D02*
X176575000Y-46475000D01*
X176575000Y-46475000D02*
X174800000Y-48250000D01*
D31*
X169480000Y-54336000D02*
X169480000Y-54510000D01*
D30*
X195075000Y-49000000D02*
X195075000Y-46475000D01*
X193025000Y-51050000D02*
X195075000Y-49000000D01*
%TO.N,/FET_DRAIN5*%
X193025000Y-70025000D02*
X194550000Y-68500000D01*
X174575000Y-66475000D02*
X174825000Y-66725000D01*
X194550000Y-65825000D02*
X175225000Y-65825000D01*
X194550000Y-68500000D02*
X194550000Y-65825000D01*
X167830000Y-71025000D02*
X174825000Y-71025000D01*
X174825000Y-66725000D02*
X174825000Y-71025000D01*
X175225000Y-65825000D02*
X174575000Y-66475000D01*
%TO.N,/FET_DRAIN6*%
X174825000Y-82725000D02*
X174825000Y-87575000D01*
X193875000Y-85725000D02*
X193875000Y-81800000D01*
X175750000Y-81800000D02*
X174825000Y-82725000D01*
X193875000Y-81800000D02*
X175750000Y-81800000D01*
X193025000Y-86575000D02*
X193875000Y-85725000D01*
X167830000Y-87575000D02*
X174825000Y-87575000D01*
D31*
%TO.N,/FET_GATE1*%
X95655000Y-85150000D02*
X89099000Y-78594000D01*
X86214000Y-54336000D02*
X81950000Y-58600000D01*
X89099000Y-78594000D02*
X89099000Y-65749000D01*
X89099000Y-65749000D02*
X81950000Y-58600000D01*
X86747000Y-54336000D02*
X86214000Y-54336000D01*
%TO.N,/FET_GATE2*%
X87040000Y-73311000D02*
X86015000Y-73311000D01*
X95655000Y-89704420D02*
X84576580Y-78626000D01*
X87040000Y-73311000D02*
X86164000Y-73311000D01*
X86164000Y-73311000D02*
X81950000Y-77525000D01*
X84576580Y-78626000D02*
X83051000Y-78626000D01*
X95655000Y-90230000D02*
X95655000Y-89704420D01*
X83051000Y-78626000D02*
X81950000Y-77525000D01*
%TO.N,/FET_GATE3*%
X83209999Y-96109999D02*
X81975000Y-94875000D01*
X95655000Y-95310000D02*
X94855001Y-96109999D01*
X86747000Y-89861000D02*
X86747000Y-90103000D01*
X94855001Y-96109999D02*
X83209999Y-96109999D01*
X86747000Y-90103000D02*
X81975000Y-94875000D01*
%TO.N,/FET_GATE4*%
X110675000Y-52775000D02*
X158289000Y-52775000D01*
X162100000Y-58625000D02*
X165365000Y-58625000D01*
X98707580Y-80070000D02*
X108025000Y-70752580D01*
X95655000Y-80070000D02*
X98707580Y-80070000D01*
X108025000Y-70752580D02*
X108025000Y-55425000D01*
X158289000Y-52775000D02*
X161300000Y-49764000D01*
X108025000Y-55425000D02*
X110675000Y-52775000D01*
X165365000Y-58625000D02*
X165390000Y-58600000D01*
X161300000Y-49764000D02*
X159350000Y-51714000D01*
X159350000Y-51714000D02*
X159350000Y-55875000D01*
X159350000Y-55875000D02*
X162100000Y-58625000D01*
%TO.N,/FET_GATE5*%
X165390000Y-77525000D02*
X158660000Y-77525000D01*
X159200000Y-75250000D02*
X161475000Y-77525000D01*
X158660000Y-77525000D02*
X154840000Y-73705000D01*
X161300000Y-68739000D02*
X159200000Y-70839000D01*
X161475000Y-77525000D02*
X165390000Y-77525000D01*
X165390000Y-77401000D02*
X165390000Y-77525000D01*
X159200000Y-70839000D02*
X159200000Y-75250000D01*
%TO.N,/FET_GATE6*%
X154939000Y-86361000D02*
X154840000Y-86262000D01*
X163453000Y-94875000D02*
X154939000Y-86361000D01*
X154939000Y-86361000D02*
X156011000Y-85289000D01*
X165000000Y-94341000D02*
X165000000Y-94875000D01*
X165000000Y-94875000D02*
X163453000Y-94875000D01*
X154840000Y-86262000D02*
X154840000Y-78785000D01*
X156011000Y-85289000D02*
X161300000Y-85289000D01*
%TO.N,Net-(R1-Pad2)*%
X103275000Y-97850000D02*
X106025000Y-97850000D01*
X106025000Y-97850000D02*
X106250000Y-98075000D01*
%TO.N,/GPIO12*%
X111066000Y-84534000D02*
X118370000Y-84534000D01*
X108250000Y-87350000D02*
X111066000Y-84534000D01*
X108250000Y-88050000D02*
X108250000Y-87350000D01*
X118370000Y-84534000D02*
X137439000Y-65465000D01*
%TO.N,Net-(R2-Pad2)*%
X106045000Y-92770000D02*
X106250000Y-92975000D01*
X103275000Y-92770000D02*
X106045000Y-92770000D01*
%TO.N,/GPIO13*%
X108250000Y-83250000D02*
X108250000Y-82550000D01*
X120910000Y-79454000D02*
X137439000Y-62925000D01*
X111346000Y-79454000D02*
X120910000Y-79454000D01*
X108250000Y-82550000D02*
X111346000Y-79454000D01*
%TO.N,/GPIO14*%
X108250000Y-92884818D02*
X111520818Y-89614000D01*
X111520818Y-89614000D02*
X115830000Y-89614000D01*
X108250000Y-92975000D02*
X108250000Y-92884818D01*
X115830000Y-89614000D02*
X137439000Y-68005000D01*
%TO.N,Net-(R3-Pad2)*%
X105890000Y-87690000D02*
X106250000Y-88050000D01*
X103275000Y-87690000D02*
X105890000Y-87690000D01*
%TO.N,Net-(R4-Pad2)*%
X105610000Y-82610000D02*
X106250000Y-83250000D01*
X103275000Y-82610000D02*
X105610000Y-82610000D01*
%TO.N,/GPIO25*%
X113375164Y-94656000D02*
X132406164Y-75625000D01*
X111669000Y-94656000D02*
X113375164Y-94656000D01*
X108250000Y-98075000D02*
X111669000Y-94656000D01*
X132406164Y-75625000D02*
X137439000Y-75625000D01*
%TO.N,/GPIO26*%
X137439000Y-73085000D02*
X140484000Y-76130000D01*
X140484000Y-76130000D02*
X142221000Y-76130000D01*
%TO.N,Net-(R5-Pad2)*%
X144096000Y-71165000D02*
X147220000Y-71165000D01*
%TO.N,/GPIO27*%
X141476000Y-70545000D02*
X142096000Y-71165000D01*
X137439000Y-70545000D02*
X141476000Y-70545000D01*
%TO.N,Net-(R6-Pad2)*%
X144221000Y-76130000D02*
X147105000Y-76130000D01*
X147105000Y-76130000D02*
X147220000Y-76245000D01*
%TO.N,GND*%
X147220000Y-73705000D02*
X147025000Y-73900000D01*
X147220000Y-78785000D02*
X147060000Y-78625000D01*
%TD*%
%TA.AperFunction,Conductor*%
%TO.N,GNDPWR*%
G36*
X103322349Y-43394772D02*
G01*
X103351295Y-43444408D01*
X103352593Y-43456689D01*
X103599107Y-51221900D01*
X103583797Y-51272975D01*
X102482685Y-52834415D01*
X102435507Y-52867215D01*
X102415188Y-52869997D01*
X98454156Y-52924258D01*
X98399897Y-52905347D01*
X98376974Y-52875977D01*
X98254206Y-52614600D01*
X97632789Y-51291584D01*
X97624825Y-51256675D01*
X97611055Y-49810805D01*
X98275000Y-49810805D01*
X98275000Y-50375000D01*
X99091988Y-50375000D01*
X99059075Y-50432007D01*
X99025000Y-50559174D01*
X99025000Y-50690826D01*
X99059075Y-50817993D01*
X99091988Y-50875000D01*
X98275001Y-50875000D01*
X98275001Y-51439195D01*
X98285399Y-51571327D01*
X98285399Y-51571331D01*
X98340376Y-51789515D01*
X98433430Y-51994379D01*
X98561564Y-52179330D01*
X98720669Y-52338435D01*
X98905620Y-52466569D01*
X99110484Y-52559623D01*
X99328669Y-52614600D01*
X99460813Y-52624999D01*
X100275000Y-52624999D01*
X100275000Y-51125000D01*
X100775000Y-51125000D01*
X100775000Y-52624999D01*
X101589177Y-52624999D01*
X101589195Y-52624998D01*
X101721327Y-52614600D01*
X101721331Y-52614600D01*
X101939515Y-52559623D01*
X102144379Y-52466569D01*
X102329330Y-52338435D01*
X102488435Y-52179330D01*
X102616569Y-51994379D01*
X102709623Y-51789515D01*
X102764600Y-51571331D01*
X102764600Y-51571328D01*
X102774999Y-51439194D01*
X102775000Y-51439178D01*
X102775000Y-50875000D01*
X101958012Y-50875000D01*
X101990925Y-50817993D01*
X102025000Y-50690826D01*
X102025000Y-50559174D01*
X101990925Y-50432007D01*
X101958012Y-50375000D01*
X102774999Y-50375000D01*
X102774999Y-49810822D01*
X102774998Y-49810804D01*
X102764600Y-49678672D01*
X102764600Y-49678668D01*
X102709623Y-49460484D01*
X102616569Y-49255620D01*
X102488435Y-49070669D01*
X102329330Y-48911564D01*
X102144379Y-48783430D01*
X101939515Y-48690376D01*
X101721330Y-48635399D01*
X101589194Y-48625000D01*
X100775000Y-48625000D01*
X100775000Y-50125000D01*
X100275000Y-50125000D01*
X100275000Y-48625000D01*
X99460822Y-48625000D01*
X99460804Y-48625001D01*
X99328672Y-48635399D01*
X99328668Y-48635399D01*
X99110484Y-48690376D01*
X98905620Y-48783430D01*
X98720669Y-48911564D01*
X98561564Y-49070669D01*
X98433430Y-49255620D01*
X98340376Y-49460484D01*
X98285399Y-49678668D01*
X98285399Y-49678671D01*
X98275000Y-49810805D01*
X97611055Y-49810805D01*
X97550806Y-43484648D01*
X97569943Y-43430470D01*
X97619428Y-43401268D01*
X97634433Y-43399850D01*
X103268270Y-43375355D01*
X103322349Y-43394772D01*
G37*
%TD.AperFunction*%
%TD*%
M02*
