M48
; DRILL file {KiCad 9.0.4} date 2026-07-23T14:42:58-0500
; FORMAT={-:-/ absolute / metric / decimal}
; #@! TF.CreationDate,2026-07-23T14:42:58-05:00
; #@! TF.GenerationSoftware,Kicad,Pcbnew,9.0.4
; #@! TF.FileFunction,Plated,1,2,PTH
FMAT,2
METRIC
; #@! TA.AperFunction,Plated,PTH,ViaDrill
T1C0.600
; #@! TA.AperFunction,Plated,PTH,ComponentDrill
T2C0.800
; #@! TA.AperFunction,Plated,PTH,ComponentDrill
T3C1.020
; #@! TA.AperFunction,Plated,PTH,ComponentDrill
T4C1.200
; #@! TA.AperFunction,Plated,PTH,ComponentDrill
T5C1.300
%
G90
G05
T1
X85.9Y-77.525
X85.943Y-59.6
X86.15Y-93.85
X87.6Y-83.55
X87.75Y-66.4
X90.293Y-52.175
X94.975Y-54.95
X95.0Y-53.25
X95.0Y-56.65
X96.325Y-54.95
X96.35Y-53.25
X96.35Y-56.65
X96.75Y-61.4
X97.675Y-53.225
X97.675Y-54.925
X97.675Y-56.625
X99.1Y-53.275
X99.1Y-54.975
X99.1Y-56.675
X102.725Y-61.475
X162.35Y-91.875
X162.475Y-75.25
X163.075Y-58.95
X170.675Y-92.325
X170.95Y-76.2
X171.575Y-58.95
T2
X95.655Y-80.07
X95.655Y-82.61
X95.655Y-85.15
X95.655Y-87.69
X95.655Y-90.23
X95.655Y-92.77
X95.655Y-95.31
X95.655Y-97.85
X103.275Y-80.07
X103.275Y-82.61
X103.275Y-85.15
X103.275Y-87.69
X103.275Y-90.23
X103.275Y-92.77
X103.275Y-95.31
X103.275Y-97.85
X147.22Y-71.165
X147.22Y-73.705
X147.22Y-76.245
X147.22Y-78.785
X154.84Y-71.165
X154.84Y-73.705
X154.84Y-76.245
X154.84Y-78.785
T3
X112.039Y-57.845
X112.039Y-60.385
X112.039Y-62.925
X112.039Y-65.465
X112.039Y-68.005
X112.039Y-70.545
X112.039Y-73.085
X112.039Y-75.625
X112.039Y-78.165
X112.039Y-80.705
X112.039Y-83.245
X112.039Y-85.785
X112.039Y-88.325
X112.039Y-90.865
X112.039Y-93.405
X137.439Y-57.845
X137.439Y-60.385
X137.439Y-62.925
X137.439Y-65.465
X137.439Y-68.005
X137.439Y-70.545
X137.439Y-73.085
X137.439Y-75.625
X137.439Y-78.165
X137.439Y-80.705
X137.439Y-83.245
X137.439Y-85.785
X137.439Y-88.325
X137.439Y-90.865
X137.439Y-93.405
T4
X59.857Y-52.475
X59.857Y-55.975
X59.857Y-69.1
X59.857Y-72.6
X59.857Y-86.3
X59.857Y-89.8
X188.117Y-52.475
X188.117Y-55.975
X188.117Y-69.1
X188.117Y-72.6
X188.117Y-85.5
X188.117Y-89.0
T5
X96.7Y-47.957
X101.7Y-47.957
M30
