%TF.GenerationSoftware,KiCad,Pcbnew,9.0.4*%
%TF.CreationDate,2026-07-23T14:42:52-05:00*%
%TF.ProjectId,esp32attachment,65737033-3261-4747-9461-63686d656e74,rev?*%
%TF.SameCoordinates,Original*%
%TF.FileFunction,Copper,L1,Top*%
%TF.FilePolarity,Positive*%
%FSLAX46Y46*%
G04 Gerber Fmt 4.6, Leading zero omitted, Abs format (unit mm)*
G04 Created by KiCad (PCBNEW 9.0.4) date 2026-07-23 14:42:52*
%MOMM*%
%LPD*%
G01*
G04 APERTURE LIST*
G04 Aperture macros list*
%AMRoundRect*
0 Rectangle with rounded corners*
0 $1 Rounding radius*
0 $2 $3 $4 $5 $6 $7 $8 $9 X,Y pos of 4 corners*
0 Add a 4 corners polygon primitive as box body*
4,1,4,$2,$3,$4,$5,$6,$7,$8,$9,$2,$3,0*
0 Add four circle primitives for the rounded corners*
1,1,$1+$1,$2,$3*
1,1,$1+$1,$4,$5*
1,1,$1+$1,$6,$7*
1,1,$1+$1,$8,$9*
0 Add four rect primitives between the rounded corners*
20,1,$1+$1,$2,$3,$4,$5,0*
20,1,$1+$1,$4,$5,$6,$7,0*
20,1,$1+$1,$6,$7,$8,$9,0*
20,1,$1+$1,$8,$9,$2,$3,0*%
G04 Aperture macros list end*
%TA.AperFunction,Conductor*%
%ADD10C,0.200000*%
%TD*%
%TA.AperFunction,SMDPad,CuDef*%
%ADD11R,3.020000X0.970000*%
%TD*%
%TA.AperFunction,SMDPad,CuDef*%
%ADD12R,6.320000X5.670000*%
%TD*%
%TA.AperFunction,ComponentPad*%
%ADD13RoundRect,0.250001X0.949999X-0.949999X0.949999X0.949999X-0.949999X0.949999X-0.949999X-0.949999X0*%
%TD*%
%TA.AperFunction,ComponentPad*%
%ADD14C,2.400000*%
%TD*%
%TA.AperFunction,SMDPad,CuDef*%
%ADD15RoundRect,0.250000X1.000000X-1.400000X1.000000X1.400000X-1.000000X1.400000X-1.000000X-1.400000X0*%
%TD*%
%TA.AperFunction,SMDPad,CuDef*%
%ADD16RoundRect,0.250001X0.799999X-1.999999X0.799999X1.999999X-0.799999X1.999999X-0.799999X-1.999999X0*%
%TD*%
%TA.AperFunction,SMDPad,CuDef*%
%ADD17RoundRect,0.250000X0.350000X0.450000X-0.350000X0.450000X-0.350000X-0.450000X0.350000X-0.450000X0*%
%TD*%
%TA.AperFunction,SMDPad,CuDef*%
%ADD18RoundRect,0.250000X-0.350000X-0.450000X0.350000X-0.450000X0.350000X0.450000X-0.350000X0.450000X0*%
%TD*%
%TA.AperFunction,ComponentPad*%
%ADD19RoundRect,0.250001X-0.949999X0.949999X-0.949999X-0.949999X0.949999X-0.949999X0.949999X0.949999X0*%
%TD*%
%TA.AperFunction,ComponentPad*%
%ADD20RoundRect,0.250000X-0.550000X-0.550000X0.550000X-0.550000X0.550000X0.550000X-0.550000X0.550000X0*%
%TD*%
%TA.AperFunction,ComponentPad*%
%ADD21C,1.600000*%
%TD*%
%TA.AperFunction,SMDPad,CuDef*%
%ADD22RoundRect,0.250000X-1.000000X1.400000X-1.000000X-1.400000X1.000000X-1.400000X1.000000X1.400000X0*%
%TD*%
%TA.AperFunction,ComponentPad*%
%ADD23RoundRect,0.250000X0.550000X0.550000X-0.550000X0.550000X-0.550000X-0.550000X0.550000X-0.550000X0*%
%TD*%
%TA.AperFunction,ComponentPad*%
%ADD24RoundRect,0.250000X1.050000X1.050000X-1.050000X1.050000X-1.050000X-1.050000X1.050000X-1.050000X0*%
%TD*%
%TA.AperFunction,ComponentPad*%
%ADD25C,2.600000*%
%TD*%
%TA.AperFunction,ComponentPad*%
%ADD26R,2.000000X2.000000*%
%TD*%
%TA.AperFunction,ComponentPad*%
%ADD27C,2.000000*%
%TD*%
%TA.AperFunction,ViaPad*%
%ADD28C,1.200000*%
%TD*%
%TA.AperFunction,Conductor*%
%ADD29C,1.000000*%
%TD*%
%TA.AperFunction,Conductor*%
%ADD30C,1.500000*%
%TD*%
G04 APERTURE END LIST*
D10*
%TO.N,GNDPWR*%
X161175000Y-73150000D02*
X161225000Y-73150000D01*
%TD*%
D11*
%TO.P,Q6,1*%
%TO.N,/FET_GATE6*%
X161300000Y-84939000D03*
%TO.P,Q6,3*%
%TO.N,GNDPWR*%
X161300000Y-89511000D03*
D12*
%TO.P,Q6,4*%
%TO.N,/FET_DRAIN6*%
X167830000Y-87225000D03*
%TD*%
D13*
%TO.P,J4,1,Pin_1*%
%TO.N,+12V*%
X188117500Y-55975000D03*
D14*
%TO.P,J4,2,Pin_2*%
%TO.N,/FET_DRAIN4*%
X188117500Y-52475000D03*
%TD*%
D15*
%TO.P,D3,1,K*%
%TO.N,+12V*%
X66600000Y-88000000D03*
%TO.P,D3,2,A*%
%TO.N,/FET_DRAIN3*%
X73400000Y-88000000D03*
%TD*%
D16*
%TO.P,C1,1*%
%TO.N,+12V*%
X94675000Y-70525000D03*
%TO.P,C1,2*%
%TO.N,GNDPWR*%
X94675000Y-63325000D03*
%TD*%
D17*
%TO.P,R3,1*%
%TO.N,/GPIO12*%
X108250000Y-88050000D03*
%TO.P,R3,2*%
%TO.N,Net-(R3-Pad2)*%
X106250000Y-88050000D03*
%TD*%
D11*
%TO.P,Q3,1*%
%TO.N,/FET_GATE3*%
X87090000Y-90286000D03*
%TO.P,Q3,3*%
%TO.N,GNDPWR*%
X87090000Y-85714000D03*
D12*
%TO.P,Q3,4*%
%TO.N,/FET_DRAIN3*%
X80560000Y-88000000D03*
%TD*%
D18*
%TO.P,R12,1*%
%TO.N,/FET_GATE6*%
X166575000Y-93375000D03*
%TO.P,R12,2*%
%TO.N,GNDPWR*%
X168575000Y-93375000D03*
%TD*%
D13*
%TO.P,J6,1,Pin_1*%
%TO.N,+12V*%
X188117500Y-89000000D03*
D14*
%TO.P,J6,2,Pin_2*%
%TO.N,/FET_DRAIN6*%
X188117500Y-85500000D03*
%TD*%
D11*
%TO.P,Q1,1*%
%TO.N,/FET_GATE1*%
X87090000Y-56286000D03*
%TO.P,Q1,3*%
%TO.N,GNDPWR*%
X87090000Y-51714000D03*
D12*
%TO.P,Q1,4*%
%TO.N,/FET_DRAIN1*%
X80560000Y-54000000D03*
%TD*%
D19*
%TO.P,J2,1,Pin_1*%
%TO.N,+12V*%
X59857500Y-69100000D03*
D14*
%TO.P,J2,2,Pin_2*%
%TO.N,/FET_DRAIN2*%
X59857500Y-72600000D03*
%TD*%
D17*
%TO.P,R2,1*%
%TO.N,/GPIO14*%
X108250000Y-92975000D03*
%TO.P,R2,2*%
%TO.N,Net-(R2-Pad2)*%
X106250000Y-92975000D03*
%TD*%
D19*
%TO.P,J3,1,Pin_1*%
%TO.N,+12V*%
X59857500Y-86300000D03*
D14*
%TO.P,J3,2,Pin_2*%
%TO.N,/FET_DRAIN3*%
X59857500Y-89800000D03*
%TD*%
D18*
%TO.P,R7,1*%
%TO.N,/FET_GATE3*%
X82000000Y-94000000D03*
%TO.P,R7,2*%
%TO.N,GNDPWR*%
X84000000Y-94000000D03*
%TD*%
%TO.P,R8,1*%
%TO.N,/FET_GATE2*%
X82000000Y-77000000D03*
%TO.P,R8,2*%
%TO.N,GNDPWR*%
X84000000Y-77000000D03*
%TD*%
D20*
%TO.P,U3,1*%
%TO.N,Net-(R5-Pad2)*%
X147220000Y-71165000D03*
D21*
%TO.P,U3,2*%
%TO.N,GND*%
X147220000Y-73705000D03*
%TO.P,U3,3*%
%TO.N,Net-(R6-Pad2)*%
X147220000Y-76245000D03*
%TO.P,U3,4*%
%TO.N,GND*%
X147220000Y-78785000D03*
%TO.P,U3,5*%
%TO.N,/FET_GATE6*%
X154840000Y-78785000D03*
%TO.P,U3,6*%
%TO.N,+12V*%
X154840000Y-76245000D03*
%TO.P,U3,7*%
%TO.N,/FET_GATE5*%
X154840000Y-73705000D03*
%TO.P,U3,8*%
%TO.N,+12V*%
X154840000Y-71165000D03*
%TD*%
D11*
%TO.P,Q2,1*%
%TO.N,/FET_GATE2*%
X87090000Y-73286000D03*
%TO.P,Q2,3*%
%TO.N,GNDPWR*%
X87090000Y-68714000D03*
D12*
%TO.P,Q2,4*%
%TO.N,/FET_DRAIN2*%
X80560000Y-71000000D03*
%TD*%
D22*
%TO.P,D5,1,K*%
%TO.N,+12V*%
X181625000Y-70950000D03*
%TO.P,D5,2,A*%
%TO.N,/FET_DRAIN5*%
X174825000Y-70950000D03*
%TD*%
D11*
%TO.P,Q5,1*%
%TO.N,/FET_GATE5*%
X161300000Y-68664000D03*
%TO.P,Q5,3*%
%TO.N,GNDPWR*%
X161300000Y-73236000D03*
D12*
%TO.P,Q5,4*%
%TO.N,/FET_DRAIN5*%
X167830000Y-70950000D03*
%TD*%
D17*
%TO.P,R4,1*%
%TO.N,/GPIO13*%
X108250000Y-83250000D03*
%TO.P,R4,2*%
%TO.N,Net-(R4-Pad2)*%
X106250000Y-83250000D03*
%TD*%
D18*
%TO.P,R5,1*%
%TO.N,/GPIO27*%
X142096000Y-71165000D03*
%TO.P,R5,2*%
%TO.N,Net-(R5-Pad2)*%
X144096000Y-71165000D03*
%TD*%
%TO.P,R10,1*%
%TO.N,/FET_GATE4*%
X167165000Y-60175000D03*
%TO.P,R10,2*%
%TO.N,GNDPWR*%
X169165000Y-60175000D03*
%TD*%
%TO.P,R6,1*%
%TO.N,/GPIO26*%
X142221000Y-76130000D03*
%TO.P,R6,2*%
%TO.N,Net-(R6-Pad2)*%
X144221000Y-76130000D03*
%TD*%
D23*
%TO.P,U2,1*%
%TO.N,Net-(R1-Pad2)*%
X103275000Y-97850000D03*
D21*
%TO.P,U2,2*%
%TO.N,GND*%
X103275000Y-95310000D03*
%TO.P,U2,3*%
%TO.N,Net-(R2-Pad2)*%
X103275000Y-92770000D03*
%TO.P,U2,4*%
%TO.N,GND*%
X103275000Y-90230000D03*
%TO.P,U2,5*%
%TO.N,Net-(R3-Pad2)*%
X103275000Y-87690000D03*
%TO.P,U2,6*%
%TO.N,GND*%
X103275000Y-85150000D03*
%TO.P,U2,7*%
%TO.N,Net-(R4-Pad2)*%
X103275000Y-82610000D03*
%TO.P,U2,8*%
%TO.N,GND*%
X103275000Y-80070000D03*
%TO.P,U2,9*%
%TO.N,/FET_GATE4*%
X95655000Y-80070000D03*
%TO.P,U2,10*%
%TO.N,+12V*%
X95655000Y-82610000D03*
%TO.P,U2,11*%
%TO.N,/FET_GATE1*%
X95655000Y-85150000D03*
%TO.P,U2,12*%
%TO.N,+12V*%
X95655000Y-87690000D03*
%TO.P,U2,13*%
%TO.N,/FET_GATE2*%
X95655000Y-90230000D03*
%TO.P,U2,14*%
%TO.N,+12V*%
X95655000Y-92770000D03*
%TO.P,U2,15*%
%TO.N,/FET_GATE3*%
X95655000Y-95310000D03*
%TO.P,U2,16*%
%TO.N,+12V*%
X95655000Y-97850000D03*
%TD*%
D13*
%TO.P,J5,1,Pin_1*%
%TO.N,+12V*%
X188117500Y-72600000D03*
D14*
%TO.P,J5,2,Pin_2*%
%TO.N,/FET_DRAIN5*%
X188117500Y-69100000D03*
%TD*%
D15*
%TO.P,D1,1,K*%
%TO.N,+12V*%
X66600000Y-54000000D03*
%TO.P,D1,2,A*%
%TO.N,/FET_DRAIN1*%
X73400000Y-54000000D03*
%TD*%
D22*
%TO.P,D4,1,K*%
%TO.N,+12V*%
X181625000Y-54250000D03*
%TO.P,D4,2,A*%
%TO.N,/FET_DRAIN4*%
X174825000Y-54250000D03*
%TD*%
D11*
%TO.P,Q4,1*%
%TO.N,/FET_GATE4*%
X161300000Y-51964000D03*
%TO.P,Q4,3*%
%TO.N,GNDPWR*%
X161300000Y-56536000D03*
D12*
%TO.P,Q4,4*%
%TO.N,/FET_DRAIN4*%
X167830000Y-54250000D03*
%TD*%
D18*
%TO.P,R11,1*%
%TO.N,/FET_GATE5*%
X166890000Y-77025000D03*
%TO.P,R11,2*%
%TO.N,GNDPWR*%
X168890000Y-77025000D03*
%TD*%
D19*
%TO.P,J1,1,Pin_1*%
%TO.N,+12V*%
X59857500Y-52475000D03*
D14*
%TO.P,J1,2,Pin_2*%
%TO.N,/FET_DRAIN1*%
X59857500Y-55975000D03*
%TD*%
D24*
%TO.P,J8,1,Pin_1*%
%TO.N,+12V*%
X101700000Y-47957500D03*
D25*
%TO.P,J8,2,Pin_2*%
%TO.N,GNDPWR*%
X96700000Y-47957500D03*
%TD*%
D26*
%TO.P,U1,1,3V3*%
%TO.N,+3V3*%
X112039000Y-57845000D03*
D27*
%TO.P,U1,2,GND*%
%TO.N,GND*%
X112039000Y-60385000D03*
%TO.P,U1,3,D15*%
%TO.N,unconnected-(U1-D15-Pad3)*%
X112039000Y-62925000D03*
%TO.P,U1,4,D2*%
%TO.N,unconnected-(U1-D2-Pad4)*%
X112039000Y-65465000D03*
%TO.P,U1,5,D4*%
%TO.N,unconnected-(U1-D4-Pad5)*%
X112039000Y-68005000D03*
%TO.P,U1,6,RX2*%
%TO.N,unconnected-(U1-RX2-Pad6)*%
X112039000Y-70545000D03*
%TO.P,U1,7,TX2*%
%TO.N,unconnected-(U1-TX2-Pad7)*%
X112039000Y-73085000D03*
%TO.P,U1,8,D5*%
%TO.N,unconnected-(U1-D5-Pad8)*%
X112039000Y-75625000D03*
%TO.P,U1,9,D18*%
%TO.N,unconnected-(U1-D18-Pad9)*%
X112039000Y-78165000D03*
%TO.P,U1,10,D19*%
%TO.N,unconnected-(U1-D19-Pad10)*%
X112039000Y-80705000D03*
%TO.P,U1,11,D21*%
%TO.N,unconnected-(U1-D21-Pad11)*%
X112039000Y-83245000D03*
%TO.P,U1,12,RX0*%
%TO.N,unconnected-(U1-RX0-Pad12)*%
X112039000Y-85785000D03*
%TO.P,U1,13,TX0*%
%TO.N,unconnected-(U1-TX0-Pad13)*%
X112039000Y-88325000D03*
%TO.P,U1,14,D22*%
%TO.N,unconnected-(U1-D22-Pad14)*%
X112039000Y-90865000D03*
%TO.P,U1,15,D23*%
%TO.N,unconnected-(U1-D23-Pad15)*%
X112039000Y-93405000D03*
%TO.P,U1,16,EN*%
%TO.N,unconnected-(U1-EN-Pad16)*%
X137439000Y-93405000D03*
%TO.P,U1,17,VP*%
%TO.N,unconnected-(U1-VP-Pad17)*%
X137439000Y-90865000D03*
%TO.P,U1,18,VN*%
%TO.N,unconnected-(U1-VN-Pad18)*%
X137439000Y-88325000D03*
%TO.P,U1,19,D34*%
%TO.N,unconnected-(U1-D34-Pad19)*%
X137439000Y-85785000D03*
%TO.P,U1,20,D35*%
%TO.N,unconnected-(U1-D35-Pad20)*%
X137439000Y-83245000D03*
%TO.P,U1,21,D32*%
%TO.N,unconnected-(U1-D32-Pad21)*%
X137439000Y-80705000D03*
%TO.P,U1,22,D33*%
%TO.N,unconnected-(U1-D33-Pad22)*%
X137439000Y-78165000D03*
%TO.P,U1,23,D25*%
%TO.N,/GPIO25*%
X137439000Y-75625000D03*
%TO.P,U1,24,D26*%
%TO.N,/GPIO26*%
X137439000Y-73085000D03*
%TO.P,U1,25,D27*%
%TO.N,/GPIO27*%
X137439000Y-70545000D03*
%TO.P,U1,26,D14*%
%TO.N,/GPIO14*%
X137439000Y-68005000D03*
%TO.P,U1,27,D12*%
%TO.N,/GPIO12*%
X137439000Y-65465000D03*
%TO.P,U1,28,D13*%
%TO.N,/GPIO13*%
X137439000Y-62925000D03*
%TO.P,U1,29,GND*%
%TO.N,GND*%
X137439000Y-60385000D03*
%TO.P,U1,30,VIN*%
%TO.N,unconnected-(U1-VIN-Pad30)*%
X137439000Y-57845000D03*
%TD*%
D15*
%TO.P,D2,1,K*%
%TO.N,+12V*%
X66600000Y-71000000D03*
%TO.P,D2,2,A*%
%TO.N,/FET_DRAIN2*%
X73400000Y-71000000D03*
%TD*%
D16*
%TO.P,C2,1*%
%TO.N,+12V*%
X104525000Y-70525000D03*
%TO.P,C2,2*%
%TO.N,GNDPWR*%
X104525000Y-63325000D03*
%TD*%
D17*
%TO.P,R1,1*%
%TO.N,/GPIO25*%
X108275000Y-96800000D03*
%TO.P,R1,2*%
%TO.N,Net-(R1-Pad2)*%
X106275000Y-96800000D03*
%TD*%
D22*
%TO.P,D6,1,K*%
%TO.N,+12V*%
X181625000Y-87225000D03*
%TO.P,D6,2,A*%
%TO.N,/FET_DRAIN6*%
X174825000Y-87225000D03*
%TD*%
D18*
%TO.P,R9,1*%
%TO.N,/FET_GATE1*%
X82000000Y-60000000D03*
%TO.P,R9,2*%
%TO.N,GNDPWR*%
X84000000Y-60000000D03*
%TD*%
D28*
%TO.N,GNDPWR*%
X99100000Y-56675000D03*
X85943000Y-59600000D03*
X94975000Y-54950000D03*
X102725000Y-61475000D03*
X99100000Y-53275000D03*
X90293000Y-52175000D03*
X85900000Y-77525000D03*
X162475000Y-75250000D03*
X96350000Y-53250000D03*
X170950000Y-76200000D03*
X162350000Y-91875000D03*
X96750000Y-61400000D03*
X96325000Y-54950000D03*
X97675000Y-54925000D03*
X95000000Y-56650000D03*
X163075000Y-58950000D03*
X171575000Y-58950000D03*
X99100000Y-54975000D03*
X97675000Y-56625000D03*
X170675000Y-92325000D03*
X95000000Y-53250000D03*
X86150000Y-93850000D03*
X87750000Y-66400000D03*
X97675000Y-53225000D03*
X96350000Y-56650000D03*
X87600000Y-83550000D03*
%TD*%
D29*
%TO.N,+12V*%
X94675000Y-70525000D02*
X94054000Y-71146000D01*
D30*
%TO.N,GNDPWR*%
X89507000Y-51389000D02*
X90293000Y-52175000D01*
X86715000Y-51389000D02*
X89507000Y-51389000D01*
D29*
X83918000Y-60225000D02*
X85318000Y-60225000D01*
X102775000Y-61525000D02*
X102725000Y-61475000D01*
X104525000Y-63325000D02*
X104525000Y-61675000D01*
X85375000Y-77000000D02*
X85900000Y-77525000D01*
X170125000Y-77025000D02*
X170950000Y-76200000D01*
X84000000Y-77000000D02*
X85375000Y-77000000D01*
X104375000Y-61525000D02*
X102775000Y-61525000D01*
X104525000Y-61675000D02*
X104375000Y-61525000D01*
D30*
X161300000Y-74075000D02*
X162475000Y-75250000D01*
X87040000Y-68739000D02*
X87040000Y-67110000D01*
D29*
X84000000Y-94000000D02*
X84250000Y-94000000D01*
X171575000Y-58950000D02*
X171575000Y-59075000D01*
X85318000Y-60225000D02*
X85943000Y-59600000D01*
X170675000Y-92325000D02*
X169260000Y-92325000D01*
X95100000Y-61400000D02*
X96750000Y-61400000D01*
X168575000Y-93375000D02*
X168575000Y-93010000D01*
D30*
X86747000Y-85289000D02*
X86747000Y-84403000D01*
D29*
X170475000Y-60175000D02*
X169165000Y-60175000D01*
D30*
X161300000Y-89861000D02*
X161300000Y-90825000D01*
X161300000Y-73236000D02*
X161300000Y-74075000D01*
D29*
X168890000Y-77025000D02*
X170125000Y-77025000D01*
X168575000Y-93010000D02*
X169260000Y-92325000D01*
X85125000Y-94875000D02*
X86150000Y-93850000D01*
X171575000Y-59075000D02*
X170475000Y-60175000D01*
X94675000Y-61825000D02*
X95100000Y-61400000D01*
D30*
X161300000Y-56536000D02*
X161300000Y-57175000D01*
X161300000Y-57175000D02*
X163075000Y-58950000D01*
D29*
X84250000Y-94000000D02*
X85125000Y-94875000D01*
D30*
X161300000Y-90825000D02*
X162350000Y-91875000D01*
X86747000Y-84403000D02*
X87600000Y-83550000D01*
D29*
X94675000Y-63325000D02*
X94675000Y-61825000D01*
D30*
X87040000Y-67110000D02*
X87750000Y-66400000D01*
%TO.N,/FET_DRAIN1*%
X70199000Y-57201000D02*
X61083500Y-57201000D01*
X61083500Y-57201000D02*
X59857500Y-55975000D01*
X73310000Y-53675000D02*
X80185000Y-53675000D01*
X73400000Y-54000000D02*
X70199000Y-57201000D01*
%TO.N,/FET_DRAIN2*%
X70199000Y-74201000D02*
X61458500Y-74201000D01*
X73342000Y-71025000D02*
X80510000Y-71025000D01*
X73400000Y-71000000D02*
X70199000Y-74201000D01*
X61458500Y-74201000D02*
X59857500Y-72600000D01*
%TO.N,/FET_DRAIN3*%
X70199000Y-91201000D02*
X61258500Y-91201000D01*
X73342000Y-87575000D02*
X80217000Y-87575000D01*
X73400000Y-88000000D02*
X70199000Y-91201000D01*
X61258500Y-91201000D02*
X59857500Y-89800000D01*
%TO.N,/FET_DRAIN4*%
X177800000Y-51275000D02*
X186917500Y-51275000D01*
X167830000Y-54250000D02*
X174825000Y-54250000D01*
X174825000Y-54250000D02*
X177800000Y-51275000D01*
X186917500Y-51275000D02*
X188117500Y-52475000D01*
%TO.N,/FET_DRAIN5*%
X174825000Y-70950000D02*
X178026000Y-67749000D01*
X186766500Y-67749000D02*
X188117500Y-69100000D01*
X167830000Y-71025000D02*
X174825000Y-71025000D01*
X178026000Y-67749000D02*
X186766500Y-67749000D01*
%TO.N,/FET_DRAIN6*%
X174825000Y-87225000D02*
X178026000Y-84024000D01*
X167830000Y-87575000D02*
X174825000Y-87575000D01*
X186641500Y-84024000D02*
X188117500Y-85500000D01*
X178026000Y-84024000D02*
X186641500Y-84024000D01*
D10*
%TO.N,/FET_GATE1*%
X95655000Y-85150000D02*
X89099000Y-78594000D01*
X86182000Y-55961000D02*
X81918000Y-60225000D01*
X89099000Y-78594000D02*
X89099000Y-65749000D01*
X84676000Y-61326000D02*
X89099000Y-65749000D01*
X83019000Y-61326000D02*
X84676000Y-61326000D01*
X81918000Y-60225000D02*
X83019000Y-61326000D01*
X86715000Y-55961000D02*
X86182000Y-55961000D01*
%TO.N,/FET_GATE2*%
X85614000Y-73311000D02*
X81675000Y-77250000D01*
X81675000Y-77250000D02*
X83051000Y-78626000D01*
X83051000Y-78626000D02*
X84576580Y-78626000D01*
X86015000Y-73311000D02*
X87040000Y-73311000D01*
X87040000Y-73311000D02*
X85614000Y-73311000D01*
X95655000Y-89704420D02*
X95655000Y-90230000D01*
X84576580Y-78626000D02*
X95655000Y-89704420D01*
%TO.N,/FET_GATE3*%
X85714000Y-90286000D02*
X82000000Y-94000000D01*
X82000000Y-94900000D02*
X83209999Y-96109999D01*
X82000000Y-94000000D02*
X82000000Y-94900000D01*
X95655000Y-95310000D02*
X94855001Y-96109999D01*
X87090000Y-90286000D02*
X85714000Y-90286000D01*
X86747000Y-89861000D02*
X86747000Y-90103000D01*
X94855001Y-96109999D02*
X83209999Y-96109999D01*
%TO.N,/FET_GATE4*%
X159389000Y-58014000D02*
X161550000Y-60175000D01*
X161550000Y-60175000D02*
X167165000Y-60175000D01*
X161300000Y-51964000D02*
X159100000Y-51964000D01*
X110675000Y-52775000D02*
X158289000Y-52775000D01*
X161300000Y-51964000D02*
X159389000Y-53875000D01*
X98707580Y-80070000D02*
X108025000Y-70752580D01*
X95655000Y-80070000D02*
X98707580Y-80070000D01*
X108025000Y-70752580D02*
X108025000Y-55425000D01*
X108025000Y-55425000D02*
X110675000Y-52775000D01*
X167140000Y-60200000D02*
X167165000Y-60175000D01*
X159100000Y-51964000D02*
X158289000Y-52775000D01*
X159389000Y-53875000D02*
X159389000Y-58014000D01*
%TO.N,/FET_GATE5*%
X165390000Y-77525000D02*
X158660000Y-77525000D01*
X159200000Y-75250000D02*
X161475000Y-77525000D01*
X158660000Y-77525000D02*
X154840000Y-73705000D01*
X166890000Y-77025000D02*
X165890000Y-77025000D01*
X161300000Y-68739000D02*
X159200000Y-70839000D01*
X161475000Y-77525000D02*
X165390000Y-77525000D01*
X165890000Y-77025000D02*
X165390000Y-77525000D01*
X159200000Y-70839000D02*
X159200000Y-75250000D01*
%TO.N,/FET_GATE6*%
X154840000Y-78785000D02*
X160994000Y-84939000D01*
X161325000Y-93375000D02*
X166575000Y-93375000D01*
X159389000Y-91439000D02*
X161325000Y-93375000D01*
X159389000Y-86850000D02*
X159389000Y-91439000D01*
X160994000Y-84939000D02*
X161300000Y-84939000D01*
X161300000Y-84939000D02*
X159389000Y-86850000D01*
%TO.N,Net-(R1-Pad2)*%
X104325000Y-96800000D02*
X103275000Y-97850000D01*
X106275000Y-96800000D02*
X104325000Y-96800000D01*
X106050000Y-96575000D02*
X106275000Y-96800000D01*
%TO.N,/GPIO12*%
X111066000Y-84534000D02*
X118370000Y-84534000D01*
X108250000Y-87350000D02*
X111066000Y-84534000D01*
X108250000Y-88050000D02*
X108250000Y-87350000D01*
X118370000Y-84534000D02*
X137439000Y-65465000D01*
%TO.N,Net-(R2-Pad2)*%
X106045000Y-92770000D02*
X106250000Y-92975000D01*
X103275000Y-92770000D02*
X106045000Y-92770000D01*
%TO.N,/GPIO13*%
X108250000Y-83250000D02*
X108250000Y-82550000D01*
X120910000Y-79454000D02*
X137439000Y-62925000D01*
X111346000Y-79454000D02*
X120910000Y-79454000D01*
X108250000Y-82550000D02*
X111346000Y-79454000D01*
%TO.N,/GPIO14*%
X108250000Y-92884818D02*
X111520818Y-89614000D01*
X111520818Y-89614000D02*
X115830000Y-89614000D01*
X108250000Y-92975000D02*
X108250000Y-92884818D01*
X115830000Y-89614000D02*
X137439000Y-68005000D01*
%TO.N,Net-(R3-Pad2)*%
X105890000Y-87690000D02*
X106250000Y-88050000D01*
X103275000Y-87690000D02*
X105890000Y-87690000D01*
%TO.N,Net-(R4-Pad2)*%
X105610000Y-82610000D02*
X106250000Y-83250000D01*
X103275000Y-82610000D02*
X105610000Y-82610000D01*
%TO.N,/GPIO25*%
X108275000Y-96800000D02*
X109525000Y-96800000D01*
X113206164Y-94825000D02*
X132406164Y-75625000D01*
X109525000Y-96800000D02*
X111500000Y-94825000D01*
X111500000Y-94825000D02*
X113206164Y-94825000D01*
X132406164Y-75625000D02*
X137439000Y-75625000D01*
%TO.N,/GPIO26*%
X137439000Y-73085000D02*
X140484000Y-76130000D01*
X140484000Y-76130000D02*
X142221000Y-76130000D01*
%TO.N,Net-(R5-Pad2)*%
X144096000Y-71165000D02*
X147220000Y-71165000D01*
%TO.N,/GPIO27*%
X141476000Y-70545000D02*
X142096000Y-71165000D01*
X137439000Y-70545000D02*
X141476000Y-70545000D01*
%TO.N,Net-(R6-Pad2)*%
X144221000Y-76130000D02*
X147105000Y-76130000D01*
X147105000Y-76130000D02*
X147220000Y-76245000D01*
%TO.N,GND*%
X147220000Y-73705000D02*
X147025000Y-73900000D01*
X147220000Y-78785000D02*
X147060000Y-78625000D01*
%TD*%
%TA.AperFunction,Conductor*%
%TO.N,GNDPWR*%
G36*
X97854640Y-45569613D02*
G01*
X97887962Y-45599913D01*
X99180065Y-47298790D01*
X99204304Y-47357645D01*
X99799189Y-51868850D01*
X99800193Y-51881204D01*
X99959579Y-57002838D01*
X99941989Y-57070457D01*
X99916850Y-57100400D01*
X99673854Y-57310997D01*
X99610302Y-57340028D01*
X99594389Y-57341280D01*
X94311465Y-57415688D01*
X94278210Y-57406430D01*
X94244926Y-57397425D01*
X94244451Y-57397031D01*
X94244155Y-57396949D01*
X94217764Y-57374888D01*
X94163543Y-57314953D01*
X94133166Y-57252033D01*
X94131515Y-57229728D01*
X94207804Y-52601587D01*
X94225000Y-51325000D01*
X94200020Y-48052647D01*
X94200092Y-48047368D01*
X94247460Y-46697386D01*
X94269482Y-46631082D01*
X94314300Y-46591658D01*
X96249085Y-45588437D01*
X96304190Y-45574536D01*
X97787297Y-45550995D01*
X97854640Y-45569613D01*
G37*
%TD.AperFunction*%
%TD*%
%TA.AperFunction,Conductor*%
%TO.N,+12V*%
G36*
X196106922Y-42276280D02*
G01*
X196197266Y-42286459D01*
X196224331Y-42292636D01*
X196303540Y-42320352D01*
X196328553Y-42332398D01*
X196399606Y-42377043D01*
X196421313Y-42394355D01*
X196480644Y-42453686D01*
X196497957Y-42475395D01*
X196542600Y-42546444D01*
X196554648Y-42571462D01*
X196582362Y-42650666D01*
X196588540Y-42677735D01*
X196598720Y-42768076D01*
X196599500Y-42781961D01*
X196599500Y-98343038D01*
X196598720Y-98356922D01*
X196598720Y-98356923D01*
X196588540Y-98447264D01*
X196582362Y-98474333D01*
X196554648Y-98553537D01*
X196542600Y-98578555D01*
X196497957Y-98649604D01*
X196480644Y-98671313D01*
X196421313Y-98730644D01*
X196399604Y-98747957D01*
X196328555Y-98792600D01*
X196303537Y-98804648D01*
X196224333Y-98832362D01*
X196197264Y-98838540D01*
X196117075Y-98847576D01*
X196106921Y-98848720D01*
X196093038Y-98849500D01*
X152405469Y-98849500D01*
X152338430Y-98829815D01*
X152292675Y-98777011D01*
X152281508Y-98722373D01*
X152330744Y-96770523D01*
X152345790Y-96174038D01*
X192399500Y-96174038D01*
X192399500Y-96425962D01*
X192424371Y-96582988D01*
X192438910Y-96674785D01*
X192516760Y-96914383D01*
X192574477Y-97027658D01*
X192623605Y-97124077D01*
X192631132Y-97138848D01*
X192779201Y-97342649D01*
X192779205Y-97342654D01*
X192957345Y-97520794D01*
X192957350Y-97520798D01*
X192991463Y-97545582D01*
X193161155Y-97668870D01*
X193304184Y-97741747D01*
X193385616Y-97783239D01*
X193385618Y-97783239D01*
X193385621Y-97783241D01*
X193625215Y-97861090D01*
X193874038Y-97900500D01*
X193874039Y-97900500D01*
X194125961Y-97900500D01*
X194125962Y-97900500D01*
X194374785Y-97861090D01*
X194614379Y-97783241D01*
X194838845Y-97668870D01*
X195042656Y-97520793D01*
X195220793Y-97342656D01*
X195368870Y-97138845D01*
X195483241Y-96914379D01*
X195561090Y-96674785D01*
X195600500Y-96425962D01*
X195600500Y-96174038D01*
X195561090Y-95925215D01*
X195483241Y-95685621D01*
X195483239Y-95685618D01*
X195483239Y-95685616D01*
X195390851Y-95504296D01*
X195368870Y-95461155D01*
X195321976Y-95396611D01*
X195220798Y-95257350D01*
X195220794Y-95257345D01*
X195042654Y-95079205D01*
X195042649Y-95079201D01*
X194838848Y-94931132D01*
X194838847Y-94931131D01*
X194838845Y-94931130D01*
X194753318Y-94887552D01*
X194614383Y-94816760D01*
X194374785Y-94738910D01*
X194125962Y-94699500D01*
X193874038Y-94699500D01*
X193786240Y-94713406D01*
X193625214Y-94738910D01*
X193385616Y-94816760D01*
X193161151Y-94931132D01*
X192957350Y-95079201D01*
X192957345Y-95079205D01*
X192779205Y-95257345D01*
X192779201Y-95257350D01*
X192631132Y-95461151D01*
X192516760Y-95685616D01*
X192438910Y-95925214D01*
X192438910Y-95925215D01*
X192399500Y-96174038D01*
X152345790Y-96174038D01*
X152420168Y-93225499D01*
X152786820Y-78690390D01*
X152851288Y-76134689D01*
X152914964Y-73610390D01*
X152979230Y-71062682D01*
X153540000Y-71062682D01*
X153540000Y-71267317D01*
X153572009Y-71469417D01*
X153635244Y-71664031D01*
X153728141Y-71846350D01*
X153728147Y-71846359D01*
X153760523Y-71890921D01*
X153760524Y-71890922D01*
X154440000Y-71211446D01*
X154440000Y-71217661D01*
X154467259Y-71319394D01*
X154519920Y-71410606D01*
X154594394Y-71485080D01*
X154685606Y-71537741D01*
X154787339Y-71565000D01*
X154793553Y-71565000D01*
X154114076Y-72244474D01*
X154158650Y-72276859D01*
X154340970Y-72369755D01*
X154501613Y-72421952D01*
X154559289Y-72461390D01*
X154586487Y-72525748D01*
X154574572Y-72594595D01*
X154527328Y-72646070D01*
X154501615Y-72657814D01*
X154417549Y-72685129D01*
X154263211Y-72763768D01*
X154223085Y-72792922D01*
X154123072Y-72865586D01*
X154123070Y-72865588D01*
X154123069Y-72865588D01*
X154000588Y-72988069D01*
X154000588Y-72988070D01*
X154000586Y-72988072D01*
X153991817Y-73000142D01*
X153898768Y-73128211D01*
X153820128Y-73282552D01*
X153766597Y-73447302D01*
X153739500Y-73618389D01*
X153739500Y-73791610D01*
X153766574Y-73962553D01*
X153766598Y-73962701D01*
X153820127Y-74127445D01*
X153898768Y-74281788D01*
X154000586Y-74421928D01*
X154123072Y-74544414D01*
X154263212Y-74646232D01*
X154417555Y-74724873D01*
X154501613Y-74752185D01*
X154559289Y-74791623D01*
X154586487Y-74855981D01*
X154574572Y-74924828D01*
X154527328Y-74976303D01*
X154501614Y-74988047D01*
X154340968Y-75040244D01*
X154158644Y-75133143D01*
X154114077Y-75165523D01*
X154114077Y-75165524D01*
X154793554Y-75845000D01*
X154787339Y-75845000D01*
X154685606Y-75872259D01*
X154594394Y-75924920D01*
X154519920Y-75999394D01*
X154467259Y-76090606D01*
X154440000Y-76192339D01*
X154440000Y-76198553D01*
X153760524Y-75519077D01*
X153760523Y-75519077D01*
X153728143Y-75563644D01*
X153635244Y-75745968D01*
X153572009Y-75940582D01*
X153540000Y-76142682D01*
X153540000Y-76347317D01*
X153572009Y-76549417D01*
X153635244Y-76744031D01*
X153728141Y-76926350D01*
X153728147Y-76926359D01*
X153760523Y-76970921D01*
X153760524Y-76970922D01*
X154440000Y-76291446D01*
X154440000Y-76297661D01*
X154467259Y-76399394D01*
X154519920Y-76490606D01*
X154594394Y-76565080D01*
X154685606Y-76617741D01*
X154787339Y-76645000D01*
X154793553Y-76645000D01*
X154114076Y-77324474D01*
X154158650Y-77356859D01*
X154340970Y-77449755D01*
X154501613Y-77501952D01*
X154559289Y-77541390D01*
X154586487Y-77605748D01*
X154574572Y-77674595D01*
X154527328Y-77726070D01*
X154501615Y-77737814D01*
X154417549Y-77765129D01*
X154263211Y-77843768D01*
X154191884Y-77895591D01*
X154123072Y-77945586D01*
X154123070Y-77945588D01*
X154123069Y-77945588D01*
X154000588Y-78068069D01*
X154000588Y-78068070D01*
X154000586Y-78068072D01*
X153978091Y-78099034D01*
X153898768Y-78208211D01*
X153820128Y-78362552D01*
X153766597Y-78527302D01*
X153739500Y-78698389D01*
X153739500Y-78871610D01*
X153766574Y-79042553D01*
X153766598Y-79042701D01*
X153820127Y-79207445D01*
X153898768Y-79361788D01*
X154000586Y-79501928D01*
X154123072Y-79624414D01*
X154263212Y-79726232D01*
X154417555Y-79804873D01*
X154582299Y-79858402D01*
X154753389Y-79885500D01*
X154753390Y-79885500D01*
X154926610Y-79885500D01*
X154926611Y-79885500D01*
X155097701Y-79858402D01*
X155213602Y-79820742D01*
X155283442Y-79818748D01*
X155339600Y-79850993D01*
X159566136Y-84077529D01*
X159599621Y-84138852D01*
X159594637Y-84208544D01*
X159566139Y-84252889D01*
X159537794Y-84281235D01*
X159492415Y-84384006D01*
X159492415Y-84384008D01*
X159489500Y-84409131D01*
X159489500Y-85468856D01*
X159489502Y-85468882D01*
X159492413Y-85493987D01*
X159492415Y-85493991D01*
X159537793Y-85596764D01*
X159617235Y-85676206D01*
X159714668Y-85719227D01*
X159768045Y-85764313D01*
X159788572Y-85831099D01*
X159769734Y-85898381D01*
X159752263Y-85920342D01*
X159068522Y-86604084D01*
X159068518Y-86604090D01*
X159015792Y-86695413D01*
X159015791Y-86695414D01*
X159001497Y-86748766D01*
X158988500Y-86797271D01*
X158988500Y-86797273D01*
X158988500Y-91386273D01*
X158988500Y-91491727D01*
X159002146Y-91542657D01*
X159015793Y-91593589D01*
X159042156Y-91639250D01*
X159068520Y-91684913D01*
X161004519Y-93620912D01*
X161004520Y-93620913D01*
X161079087Y-93695480D01*
X161170413Y-93748207D01*
X161272273Y-93775500D01*
X161377727Y-93775500D01*
X165553380Y-93775500D01*
X165620419Y-93795185D01*
X165666174Y-93847989D01*
X165676494Y-93884712D01*
X165677309Y-93891492D01*
X165685122Y-93956561D01*
X165685122Y-93956563D01*
X165685123Y-93956564D01*
X165702722Y-94001192D01*
X165740639Y-94097343D01*
X165832077Y-94217922D01*
X165952656Y-94309360D01*
X165952657Y-94309360D01*
X165952658Y-94309361D01*
X166093436Y-94364877D01*
X166181898Y-94375500D01*
X166181903Y-94375500D01*
X166968097Y-94375500D01*
X166968102Y-94375500D01*
X167056564Y-94364877D01*
X167197342Y-94309361D01*
X167317922Y-94217922D01*
X167409361Y-94097342D01*
X167459646Y-93969826D01*
X167502551Y-93914685D01*
X167568459Y-93891492D01*
X167636443Y-93907612D01*
X167684920Y-93957929D01*
X167690348Y-93969814D01*
X167725652Y-94059339D01*
X167740639Y-94097343D01*
X167832077Y-94217922D01*
X167952656Y-94309360D01*
X167952657Y-94309360D01*
X167952658Y-94309361D01*
X168093436Y-94364877D01*
X168181898Y-94375500D01*
X168181903Y-94375500D01*
X168968097Y-94375500D01*
X168968102Y-94375500D01*
X169056564Y-94364877D01*
X169197342Y-94309361D01*
X169317922Y-94217922D01*
X169409361Y-94097342D01*
X169464877Y-93956564D01*
X169475500Y-93868102D01*
X169475500Y-93292939D01*
X169484144Y-93263498D01*
X169490668Y-93233512D01*
X169494422Y-93228496D01*
X169495185Y-93225900D01*
X169511819Y-93205258D01*
X169555258Y-93161819D01*
X169616581Y-93128334D01*
X169642939Y-93125500D01*
X170229793Y-93125500D01*
X170277245Y-93134939D01*
X170412334Y-93190894D01*
X170412336Y-93190894D01*
X170412341Y-93190896D01*
X170586304Y-93225499D01*
X170586307Y-93225500D01*
X170586309Y-93225500D01*
X170763693Y-93225500D01*
X170763694Y-93225499D01*
X170821682Y-93213964D01*
X170937658Y-93190896D01*
X170937661Y-93190894D01*
X170937666Y-93190894D01*
X171095543Y-93125500D01*
X171101540Y-93123016D01*
X171101540Y-93123015D01*
X171101547Y-93123013D01*
X171249035Y-93024464D01*
X171374464Y-92899035D01*
X171473013Y-92751547D01*
X171540894Y-92587666D01*
X171549450Y-92544655D01*
X171565178Y-92465582D01*
X171575500Y-92413691D01*
X171575500Y-92236309D01*
X171575500Y-92236306D01*
X171575499Y-92236304D01*
X171540896Y-92062341D01*
X171540893Y-92062332D01*
X171537057Y-92053072D01*
X171506155Y-91978465D01*
X171473016Y-91898459D01*
X171473009Y-91898446D01*
X171374464Y-91750965D01*
X171374461Y-91750961D01*
X171249038Y-91625538D01*
X171249034Y-91625535D01*
X171101553Y-91526990D01*
X171101540Y-91526983D01*
X170937667Y-91459106D01*
X170937658Y-91459103D01*
X170763694Y-91424500D01*
X170763691Y-91424500D01*
X170586309Y-91424500D01*
X170586306Y-91424500D01*
X170412341Y-91459103D01*
X170412332Y-91459106D01*
X170277245Y-91515061D01*
X170229793Y-91524500D01*
X169181155Y-91524500D01*
X169026508Y-91555261D01*
X169026498Y-91555264D01*
X168880827Y-91615602D01*
X168880814Y-91615609D01*
X168749712Y-91703209D01*
X168710369Y-91742553D01*
X168638211Y-91814711D01*
X168638209Y-91814713D01*
X168069326Y-92383594D01*
X168027138Y-92411266D01*
X167952656Y-92440639D01*
X167832077Y-92532077D01*
X167740639Y-92652656D01*
X167734714Y-92667682D01*
X167690353Y-92780171D01*
X167647449Y-92835314D01*
X167581541Y-92858507D01*
X167513556Y-92842386D01*
X167465080Y-92792070D01*
X167459648Y-92780178D01*
X167409361Y-92652658D01*
X167409360Y-92652657D01*
X167409360Y-92652656D01*
X167317922Y-92532077D01*
X167197343Y-92440639D01*
X167098892Y-92401815D01*
X167056564Y-92385123D01*
X167056563Y-92385122D01*
X167056561Y-92385122D01*
X167010926Y-92379642D01*
X166968102Y-92374500D01*
X166181898Y-92374500D01*
X166142853Y-92379188D01*
X166093438Y-92385122D01*
X165952656Y-92440639D01*
X165832077Y-92532077D01*
X165740639Y-92652656D01*
X165685122Y-92793438D01*
X165680865Y-92828888D01*
X165676494Y-92865285D01*
X165648959Y-92929498D01*
X165591077Y-92968631D01*
X165553380Y-92974500D01*
X163004105Y-92974500D01*
X162937066Y-92954815D01*
X162891311Y-92902011D01*
X162881367Y-92832853D01*
X162910392Y-92769297D01*
X162935214Y-92747398D01*
X162980200Y-92717339D01*
X163019655Y-92690976D01*
X163165976Y-92544655D01*
X163280941Y-92372598D01*
X163360129Y-92181420D01*
X163378015Y-92091503D01*
X163400500Y-91978467D01*
X163400500Y-91771532D01*
X163360130Y-91568585D01*
X163360129Y-91568584D01*
X163360129Y-91568580D01*
X163332262Y-91501303D01*
X163280944Y-91377408D01*
X163280937Y-91377395D01*
X163165976Y-91205345D01*
X163165973Y-91205341D01*
X162468811Y-90508180D01*
X162435326Y-90446857D01*
X162440310Y-90377166D01*
X162482181Y-90321232D01*
X162547646Y-90296815D01*
X162556492Y-90296499D01*
X162854856Y-90296499D01*
X162854864Y-90296499D01*
X162854879Y-90296497D01*
X162854882Y-90296497D01*
X162879987Y-90293586D01*
X162879988Y-90293585D01*
X162879991Y-90293585D01*
X162982765Y-90248206D01*
X163062206Y-90168765D01*
X163107585Y-90065991D01*
X163110500Y-90040865D01*
X163110499Y-88981136D01*
X163110497Y-88981117D01*
X163107586Y-88956012D01*
X163107585Y-88956010D01*
X163107585Y-88956009D01*
X163062206Y-88853235D01*
X162982765Y-88773794D01*
X162970569Y-88768409D01*
X162879992Y-88728415D01*
X162854868Y-88725500D01*
X162854865Y-88725500D01*
X159913500Y-88725500D01*
X159846461Y-88705815D01*
X159800706Y-88653011D01*
X159789500Y-88601500D01*
X159789500Y-87067254D01*
X159809185Y-87000215D01*
X159825814Y-86979578D01*
X161044574Y-85760817D01*
X161105897Y-85727333D01*
X161132255Y-85724499D01*
X162854856Y-85724499D01*
X162854864Y-85724499D01*
X162854879Y-85724497D01*
X162854882Y-85724497D01*
X162879987Y-85721586D01*
X162879988Y-85721585D01*
X162879991Y-85721585D01*
X162982765Y-85676206D01*
X163062206Y-85596765D01*
X163107585Y-85493991D01*
X163110500Y-85468865D01*
X163110499Y-84409136D01*
X163108918Y-84395500D01*
X163107586Y-84384012D01*
X163107584Y-84384006D01*
X163090419Y-84345131D01*
X164369500Y-84345131D01*
X164369500Y-90104856D01*
X164369502Y-90104882D01*
X164372413Y-90129987D01*
X164372415Y-90129991D01*
X164417793Y-90232764D01*
X164417794Y-90232765D01*
X164497235Y-90312206D01*
X164600009Y-90357585D01*
X164625135Y-90360500D01*
X171034864Y-90360499D01*
X171034879Y-90360497D01*
X171034882Y-90360497D01*
X171059987Y-90357586D01*
X171059988Y-90357585D01*
X171059991Y-90357585D01*
X171162765Y-90312206D01*
X171242206Y-90232765D01*
X171287585Y-90129991D01*
X171290500Y-90104865D01*
X171290500Y-88749500D01*
X171310185Y-88682461D01*
X171362989Y-88636706D01*
X171414500Y-88625500D01*
X173159384Y-88625500D01*
X173226423Y-88645185D01*
X173272178Y-88697989D01*
X173282500Y-88734718D01*
X173285122Y-88756561D01*
X173340639Y-88897343D01*
X173432077Y-89017922D01*
X173552656Y-89109360D01*
X173552657Y-89109360D01*
X173552658Y-89109361D01*
X173693436Y-89164877D01*
X173781898Y-89175500D01*
X173781903Y-89175500D01*
X175868097Y-89175500D01*
X175868102Y-89175500D01*
X175956564Y-89164877D01*
X176097342Y-89109361D01*
X176217922Y-89017922D01*
X176309361Y-88897342D01*
X176364877Y-88756564D01*
X176374673Y-88674986D01*
X179875001Y-88674986D01*
X179885494Y-88777697D01*
X179940641Y-88944119D01*
X179940643Y-88944124D01*
X180032684Y-89093345D01*
X180156654Y-89217315D01*
X180305875Y-89309356D01*
X180305880Y-89309358D01*
X180472302Y-89364505D01*
X180472309Y-89364506D01*
X180575019Y-89374999D01*
X181374999Y-89374999D01*
X181875000Y-89374999D01*
X182674972Y-89374999D01*
X182674986Y-89374998D01*
X182777697Y-89364505D01*
X182944119Y-89309358D01*
X182944124Y-89309356D01*
X183093345Y-89217315D01*
X183199704Y-89110957D01*
X183217315Y-89093345D01*
X183309356Y-88944124D01*
X183309358Y-88944119D01*
X183364505Y-88777697D01*
X183364506Y-88777690D01*
X183374999Y-88674986D01*
X183375000Y-88674973D01*
X183375000Y-88000014D01*
X186417500Y-88000014D01*
X186417500Y-88750000D01*
X187569018Y-88750000D01*
X187558389Y-88768409D01*
X187517500Y-88921009D01*
X187517500Y-89078991D01*
X187558389Y-89231591D01*
X187569018Y-89250000D01*
X186417500Y-89250000D01*
X186417500Y-89999985D01*
X186427993Y-90102689D01*
X186427994Y-90102696D01*
X186483141Y-90269118D01*
X186483143Y-90269123D01*
X186575184Y-90418344D01*
X186699155Y-90542315D01*
X186848376Y-90634356D01*
X186848381Y-90634358D01*
X187014803Y-90689505D01*
X187014810Y-90689506D01*
X187117514Y-90699999D01*
X187117527Y-90700000D01*
X187867500Y-90700000D01*
X187867500Y-89548482D01*
X187885909Y-89559111D01*
X188038509Y-89600000D01*
X188196491Y-89600000D01*
X188349091Y-89559111D01*
X188367500Y-89548482D01*
X188367500Y-90700000D01*
X189117473Y-90700000D01*
X189117485Y-90699999D01*
X189220189Y-90689506D01*
X189220196Y-90689505D01*
X189386618Y-90634358D01*
X189386623Y-90634356D01*
X189535844Y-90542315D01*
X189659815Y-90418344D01*
X189751856Y-90269123D01*
X189751858Y-90269118D01*
X189807005Y-90102696D01*
X189807006Y-90102689D01*
X189817499Y-89999985D01*
X189817500Y-89999972D01*
X189817500Y-89250000D01*
X188665982Y-89250000D01*
X188676611Y-89231591D01*
X188717500Y-89078991D01*
X188717500Y-88921009D01*
X188676611Y-88768409D01*
X188665982Y-88750000D01*
X189817500Y-88750000D01*
X189817500Y-88000027D01*
X189817499Y-88000014D01*
X189807006Y-87897310D01*
X189807005Y-87897303D01*
X189751858Y-87730881D01*
X189751856Y-87730876D01*
X189659815Y-87581655D01*
X189535844Y-87457684D01*
X189386623Y-87365643D01*
X189386618Y-87365641D01*
X189220196Y-87310494D01*
X189220189Y-87310493D01*
X189117485Y-87300000D01*
X188367500Y-87300000D01*
X188367500Y-88451517D01*
X188349091Y-88440889D01*
X188196491Y-88400000D01*
X188038509Y-88400000D01*
X187885909Y-88440889D01*
X187867500Y-88451517D01*
X187867500Y-87300000D01*
X187117514Y-87300000D01*
X187014810Y-87310493D01*
X187014803Y-87310494D01*
X186848381Y-87365641D01*
X186848376Y-87365643D01*
X186699155Y-87457684D01*
X186575184Y-87581655D01*
X186483143Y-87730876D01*
X186483141Y-87730881D01*
X186427994Y-87897303D01*
X186427993Y-87897310D01*
X186417500Y-88000014D01*
X183375000Y-88000014D01*
X183375000Y-87475000D01*
X181875000Y-87475000D01*
X181875000Y-89374999D01*
X181374999Y-89374999D01*
X181375000Y-89374998D01*
X181375000Y-87475000D01*
X179875001Y-87475000D01*
X179875001Y-88674986D01*
X176374673Y-88674986D01*
X176375500Y-88668102D01*
X176375500Y-87211493D01*
X176395185Y-87144454D01*
X176411819Y-87123812D01*
X178424813Y-85110819D01*
X178486136Y-85077334D01*
X178512494Y-85074500D01*
X180015477Y-85074500D01*
X180082516Y-85094185D01*
X180128271Y-85146989D01*
X180138215Y-85216147D01*
X180109190Y-85279703D01*
X180103158Y-85286181D01*
X180032684Y-85356654D01*
X179940643Y-85505875D01*
X179940641Y-85505880D01*
X179885494Y-85672302D01*
X179885493Y-85672309D01*
X179875000Y-85775013D01*
X179875000Y-86975000D01*
X183374999Y-86975000D01*
X183374999Y-85775028D01*
X183374998Y-85775013D01*
X183364505Y-85672302D01*
X183309358Y-85505880D01*
X183309356Y-85505875D01*
X183217315Y-85356654D01*
X183146842Y-85286181D01*
X183113357Y-85224858D01*
X183118341Y-85155166D01*
X183160213Y-85099233D01*
X183225677Y-85074816D01*
X183234523Y-85074500D01*
X186155007Y-85074500D01*
X186222046Y-85094185D01*
X186242688Y-85110819D01*
X186580681Y-85448812D01*
X186614166Y-85510135D01*
X186617000Y-85536493D01*
X186617000Y-85618097D01*
X186653946Y-85851368D01*
X186726933Y-86075996D01*
X186825268Y-86268987D01*
X186834157Y-86286433D01*
X186972983Y-86477510D01*
X187139990Y-86644517D01*
X187331067Y-86783343D01*
X187430491Y-86834002D01*
X187541503Y-86890566D01*
X187541505Y-86890566D01*
X187541508Y-86890568D01*
X187570537Y-86900000D01*
X187766131Y-86963553D01*
X187999403Y-87000500D01*
X187999408Y-87000500D01*
X188235597Y-87000500D01*
X188468868Y-86963553D01*
X188693492Y-86890568D01*
X188903933Y-86783343D01*
X189095010Y-86644517D01*
X189262017Y-86477510D01*
X189400843Y-86286433D01*
X189508068Y-86075992D01*
X189581053Y-85851368D01*
X189593144Y-85775028D01*
X189618000Y-85618097D01*
X189618000Y-85381902D01*
X189581053Y-85148631D01*
X189511477Y-84934500D01*
X189508068Y-84924008D01*
X189508066Y-84924005D01*
X189508066Y-84924003D01*
X189432856Y-84776397D01*
X189400843Y-84713567D01*
X189262017Y-84522490D01*
X189095010Y-84355483D01*
X188903933Y-84216657D01*
X188830779Y-84179383D01*
X188693496Y-84109433D01*
X188468868Y-84036446D01*
X188235597Y-83999500D01*
X188235592Y-83999500D01*
X188153993Y-83999500D01*
X188086954Y-83979815D01*
X188066312Y-83963181D01*
X187461817Y-83358686D01*
X187461797Y-83358664D01*
X187311157Y-83208024D01*
X187163002Y-83109031D01*
X187139098Y-83093059D01*
X187125291Y-83087340D01*
X186947920Y-83013870D01*
X186947912Y-83013868D01*
X186744969Y-82973500D01*
X186744965Y-82973500D01*
X178135600Y-82973500D01*
X178135580Y-82973499D01*
X178129466Y-82973499D01*
X177922535Y-82973499D01*
X177922533Y-82973499D01*
X177719585Y-83013868D01*
X177719575Y-83013871D01*
X177528408Y-83093054D01*
X177528395Y-83093061D01*
X177356345Y-83208022D01*
X177356341Y-83208025D01*
X175326188Y-85238181D01*
X175264865Y-85271666D01*
X175238507Y-85274500D01*
X173781898Y-85274500D01*
X173742853Y-85279188D01*
X173693438Y-85285122D01*
X173552656Y-85340639D01*
X173432077Y-85432077D01*
X173340639Y-85552656D01*
X173285122Y-85693438D01*
X173281118Y-85726788D01*
X173274500Y-85781898D01*
X173274500Y-85781903D01*
X173274500Y-86400500D01*
X173254815Y-86467539D01*
X173202011Y-86513294D01*
X173150500Y-86524500D01*
X171414499Y-86524500D01*
X171347460Y-86504815D01*
X171301705Y-86452011D01*
X171290499Y-86400500D01*
X171290499Y-84345143D01*
X171290499Y-84345136D01*
X171290497Y-84345117D01*
X171287586Y-84320012D01*
X171287585Y-84320010D01*
X171287585Y-84320009D01*
X171242206Y-84217235D01*
X171162765Y-84137794D01*
X171145401Y-84130127D01*
X171059992Y-84092415D01*
X171034865Y-84089500D01*
X164625143Y-84089500D01*
X164625117Y-84089502D01*
X164600012Y-84092413D01*
X164600008Y-84092415D01*
X164497235Y-84137793D01*
X164417794Y-84217234D01*
X164372415Y-84320006D01*
X164372415Y-84320008D01*
X164369500Y-84345131D01*
X163090419Y-84345131D01*
X163079325Y-84320006D01*
X163062206Y-84281235D01*
X162982765Y-84201794D01*
X162932009Y-84179383D01*
X162879992Y-84156415D01*
X162854868Y-84153500D01*
X162854865Y-84153500D01*
X160826255Y-84153500D01*
X160759216Y-84133815D01*
X160738574Y-84117181D01*
X155905993Y-79284600D01*
X155872508Y-79223277D01*
X155875742Y-79158603D01*
X155913402Y-79042701D01*
X155940500Y-78871611D01*
X155940500Y-78698389D01*
X155913402Y-78527299D01*
X155859873Y-78362555D01*
X155781232Y-78208212D01*
X155679414Y-78068072D01*
X155556928Y-77945586D01*
X155416788Y-77843768D01*
X155395947Y-77833149D01*
X155262449Y-77765128D01*
X155178385Y-77737814D01*
X155120710Y-77698376D01*
X155093512Y-77634017D01*
X155105427Y-77565171D01*
X155152672Y-77513695D01*
X155178386Y-77501952D01*
X155339029Y-77449755D01*
X155521349Y-77356859D01*
X155565921Y-77324474D01*
X154886447Y-76645000D01*
X154892661Y-76645000D01*
X154994394Y-76617741D01*
X155085606Y-76565080D01*
X155160080Y-76490606D01*
X155212741Y-76399394D01*
X155240000Y-76297661D01*
X155240000Y-76291446D01*
X155919474Y-76970921D01*
X155951859Y-76926349D01*
X156044755Y-76744031D01*
X156107990Y-76549417D01*
X156140000Y-76347317D01*
X156140000Y-76142682D01*
X156107990Y-75940582D01*
X156074496Y-75837501D01*
X156072501Y-75767660D01*
X156108581Y-75707827D01*
X156171281Y-75676998D01*
X156240696Y-75684962D01*
X156280108Y-75711501D01*
X158414087Y-77845480D01*
X158505412Y-77898207D01*
X158607273Y-77925500D01*
X158607275Y-77925500D01*
X165442725Y-77925500D01*
X165442727Y-77925500D01*
X165544588Y-77898207D01*
X165635913Y-77845480D01*
X165831010Y-77650382D01*
X165892328Y-77616900D01*
X165962020Y-77621884D01*
X166017954Y-77663755D01*
X166034041Y-77692576D01*
X166055637Y-77747339D01*
X166055638Y-77747341D01*
X166147077Y-77867922D01*
X166267656Y-77959360D01*
X166267657Y-77959360D01*
X166267658Y-77959361D01*
X166408436Y-78014877D01*
X166496898Y-78025500D01*
X166496903Y-78025500D01*
X167283097Y-78025500D01*
X167283102Y-78025500D01*
X167371564Y-78014877D01*
X167512342Y-77959361D01*
X167632922Y-77867922D01*
X167724361Y-77747342D01*
X167774646Y-77619826D01*
X167817551Y-77564685D01*
X167883459Y-77541492D01*
X167951443Y-77557612D01*
X167999920Y-77607929D01*
X168005348Y-77619814D01*
X168026951Y-77674595D01*
X168055639Y-77747343D01*
X168147077Y-77867922D01*
X168267656Y-77959360D01*
X168267657Y-77959360D01*
X168267658Y-77959361D01*
X168408436Y-78014877D01*
X168496898Y-78025500D01*
X168496903Y-78025500D01*
X169283097Y-78025500D01*
X169283102Y-78025500D01*
X169371564Y-78014877D01*
X169512342Y-77959361D01*
X169632922Y-77867922D01*
X169632928Y-77867913D01*
X169638915Y-77861928D01*
X169641526Y-77864539D01*
X169683802Y-77833149D01*
X169726680Y-77825500D01*
X170203844Y-77825500D01*
X170203845Y-77825499D01*
X170358497Y-77794737D01*
X170475966Y-77746080D01*
X170504172Y-77734397D01*
X170504172Y-77734396D01*
X170504179Y-77734394D01*
X170635289Y-77646789D01*
X171201232Y-77080844D01*
X171241454Y-77053968D01*
X171376547Y-76998013D01*
X171524035Y-76899464D01*
X171649464Y-76774035D01*
X171748013Y-76626547D01*
X171815894Y-76462666D01*
X171832694Y-76378210D01*
X171850499Y-76288695D01*
X171850500Y-76288693D01*
X171850500Y-76111306D01*
X171850499Y-76111304D01*
X171815896Y-75937341D01*
X171815893Y-75937332D01*
X171748016Y-75773459D01*
X171748009Y-75773446D01*
X171649464Y-75625965D01*
X171649461Y-75625961D01*
X171524038Y-75500538D01*
X171524034Y-75500535D01*
X171376553Y-75401990D01*
X171376540Y-75401983D01*
X171212667Y-75334106D01*
X171212658Y-75334103D01*
X171038694Y-75299500D01*
X171038691Y-75299500D01*
X170861309Y-75299500D01*
X170861306Y-75299500D01*
X170687341Y-75334103D01*
X170687332Y-75334106D01*
X170523459Y-75401983D01*
X170523446Y-75401990D01*
X170375965Y-75500535D01*
X170375961Y-75500538D01*
X170250538Y-75625961D01*
X170250535Y-75625965D01*
X170151985Y-75773455D01*
X170096031Y-75908541D01*
X170069151Y-75948769D01*
X169829739Y-76188182D01*
X169802808Y-76202888D01*
X169776995Y-76219477D01*
X169770795Y-76220368D01*
X169768419Y-76221666D01*
X169742060Y-76224500D01*
X169726680Y-76224500D01*
X169659641Y-76204815D01*
X169640200Y-76186786D01*
X169638915Y-76188072D01*
X169632925Y-76182082D01*
X169632922Y-76182078D01*
X169607859Y-76163072D01*
X169512343Y-76090639D01*
X169371561Y-76035122D01*
X169325926Y-76029642D01*
X169283102Y-76024500D01*
X168496898Y-76024500D01*
X168457853Y-76029188D01*
X168408438Y-76035122D01*
X168267656Y-76090639D01*
X168147077Y-76182077D01*
X168055639Y-76302656D01*
X168027308Y-76374501D01*
X168005353Y-76430171D01*
X167962449Y-76485314D01*
X167896541Y-76508507D01*
X167828556Y-76492386D01*
X167780080Y-76442070D01*
X167774648Y-76430178D01*
X167724361Y-76302658D01*
X167724360Y-76302657D01*
X167724360Y-76302656D01*
X167632922Y-76182077D01*
X167512343Y-76090639D01*
X167371561Y-76035122D01*
X167325926Y-76029642D01*
X167283102Y-76024500D01*
X166496898Y-76024500D01*
X166457853Y-76029188D01*
X166408438Y-76035122D01*
X166267656Y-76090639D01*
X166147077Y-76182077D01*
X166055639Y-76302656D01*
X166000122Y-76443438D01*
X165995865Y-76478888D01*
X165991494Y-76515285D01*
X165963959Y-76579498D01*
X165906077Y-76618631D01*
X165868380Y-76624500D01*
X165837273Y-76624500D01*
X165735412Y-76651793D01*
X165735409Y-76651794D01*
X165689750Y-76678155D01*
X165689750Y-76678156D01*
X165644087Y-76704520D01*
X165644084Y-76704522D01*
X165260426Y-77088181D01*
X165199103Y-77121666D01*
X165172745Y-77124500D01*
X161692255Y-77124500D01*
X161625216Y-77104815D01*
X161604574Y-77088181D01*
X159636819Y-75120426D01*
X159603334Y-75059103D01*
X159600500Y-75032745D01*
X159600500Y-74143938D01*
X159620185Y-74076899D01*
X159672989Y-74031144D01*
X159738791Y-74020764D01*
X159745135Y-74021500D01*
X160125500Y-74021499D01*
X160192539Y-74041183D01*
X160238294Y-74093987D01*
X160249500Y-74145499D01*
X160249500Y-74178469D01*
X160289868Y-74381412D01*
X160289870Y-74381420D01*
X160340159Y-74502829D01*
X160369059Y-74572598D01*
X160484023Y-74744655D01*
X160630345Y-74890977D01*
X160630346Y-74890977D01*
X160637413Y-74898044D01*
X160637412Y-74898044D01*
X160637416Y-74898047D01*
X161805341Y-76065974D01*
X161805342Y-76065975D01*
X161805345Y-76065977D01*
X161977402Y-76180941D01*
X162168580Y-76260130D01*
X162168584Y-76260130D01*
X162168585Y-76260131D01*
X162371532Y-76300501D01*
X162371535Y-76300501D01*
X162578467Y-76300501D01*
X162715005Y-76273340D01*
X162781420Y-76260130D01*
X162972598Y-76180941D01*
X163144655Y-76065977D01*
X163290977Y-75919655D01*
X163405941Y-75747598D01*
X163485130Y-75556420D01*
X163514721Y-75407658D01*
X163525501Y-75353467D01*
X163525501Y-75146532D01*
X163485131Y-74943585D01*
X163485130Y-74943584D01*
X163485130Y-74943580D01*
X163405941Y-74752402D01*
X163290977Y-74580345D01*
X163290975Y-74580342D01*
X163290974Y-74580341D01*
X162903397Y-74192765D01*
X162869912Y-74131442D01*
X162874896Y-74061751D01*
X162916767Y-74005817D01*
X162940985Y-73991653D01*
X162982765Y-73973206D01*
X163062206Y-73893765D01*
X163107585Y-73790991D01*
X163110500Y-73765865D01*
X163110499Y-72706136D01*
X163108063Y-72685127D01*
X163107586Y-72681012D01*
X163107585Y-72681010D01*
X163107585Y-72681009D01*
X163062206Y-72578235D01*
X162982765Y-72498794D01*
X162879992Y-72453415D01*
X162854868Y-72450500D01*
X162854865Y-72450500D01*
X162051160Y-72450500D01*
X161984121Y-72430815D01*
X161972498Y-72422355D01*
X161969662Y-72420027D01*
X161832026Y-72328063D01*
X161797598Y-72305059D01*
X161606420Y-72225870D01*
X161606412Y-72225868D01*
X161403469Y-72185500D01*
X161403465Y-72185500D01*
X161196535Y-72185500D01*
X161196530Y-72185500D01*
X160993587Y-72225868D01*
X160993579Y-72225870D01*
X160802402Y-72305058D01*
X160630338Y-72420027D01*
X160627496Y-72422360D01*
X160625718Y-72423114D01*
X160625281Y-72423407D01*
X160625225Y-72423324D01*
X160563184Y-72449668D01*
X160548840Y-72450500D01*
X159745143Y-72450500D01*
X159745134Y-72450501D01*
X159742616Y-72450793D01*
X159738782Y-72451237D01*
X159669923Y-72439407D01*
X159618390Y-72392225D01*
X159600500Y-72328063D01*
X159600500Y-71056254D01*
X159620185Y-70989215D01*
X159636814Y-70968578D01*
X161119574Y-69485817D01*
X161180897Y-69452333D01*
X161207255Y-69449499D01*
X162854856Y-69449499D01*
X162854864Y-69449499D01*
X162854879Y-69449497D01*
X162854882Y-69449497D01*
X162879987Y-69446586D01*
X162879988Y-69446585D01*
X162879991Y-69446585D01*
X162982765Y-69401206D01*
X163062206Y-69321765D01*
X163107585Y-69218991D01*
X163110500Y-69193865D01*
X163110499Y-68134136D01*
X163110497Y-68134117D01*
X163107586Y-68109012D01*
X163107584Y-68109006D01*
X163090419Y-68070131D01*
X164369500Y-68070131D01*
X164369500Y-73829856D01*
X164369502Y-73829882D01*
X164372413Y-73854987D01*
X164372415Y-73854991D01*
X164417793Y-73957764D01*
X164417794Y-73957765D01*
X164497235Y-74037206D01*
X164600009Y-74082585D01*
X164625135Y-74085500D01*
X171034864Y-74085499D01*
X171034879Y-74085497D01*
X171034882Y-74085497D01*
X171059987Y-74082586D01*
X171059988Y-74082585D01*
X171059991Y-74082585D01*
X171162765Y-74037206D01*
X171242206Y-73957765D01*
X171287585Y-73854991D01*
X171290500Y-73829865D01*
X171290500Y-72199500D01*
X171310185Y-72132461D01*
X171362989Y-72086706D01*
X171414500Y-72075500D01*
X173150500Y-72075500D01*
X173217539Y-72095185D01*
X173263294Y-72147989D01*
X173274500Y-72199500D01*
X173274500Y-72393102D01*
X173278104Y-72423114D01*
X173285122Y-72481561D01*
X173285122Y-72481563D01*
X173285123Y-72481564D01*
X173292591Y-72500501D01*
X173340639Y-72622343D01*
X173432077Y-72742922D01*
X173552656Y-72834360D01*
X173552657Y-72834360D01*
X173552658Y-72834361D01*
X173693436Y-72889877D01*
X173781898Y-72900500D01*
X173781903Y-72900500D01*
X175868097Y-72900500D01*
X175868102Y-72900500D01*
X175956564Y-72889877D01*
X176097342Y-72834361D01*
X176217922Y-72742922D01*
X176309361Y-72622342D01*
X176364877Y-72481564D01*
X176374673Y-72399986D01*
X179875001Y-72399986D01*
X179885494Y-72502697D01*
X179940641Y-72669119D01*
X179940643Y-72669124D01*
X180032684Y-72818345D01*
X180156654Y-72942315D01*
X180305875Y-73034356D01*
X180305880Y-73034358D01*
X180472302Y-73089505D01*
X180472309Y-73089506D01*
X180575019Y-73099999D01*
X181374999Y-73099999D01*
X181875000Y-73099999D01*
X182674972Y-73099999D01*
X182674986Y-73099998D01*
X182777697Y-73089505D01*
X182944119Y-73034358D01*
X182944124Y-73034356D01*
X183093345Y-72942315D01*
X183217317Y-72818343D01*
X183269623Y-72733542D01*
X183269623Y-72733541D01*
X183309353Y-72669130D01*
X183309358Y-72669119D01*
X183364505Y-72502697D01*
X183364506Y-72502690D01*
X183374999Y-72399986D01*
X183375000Y-72399973D01*
X183375000Y-71600014D01*
X186417500Y-71600014D01*
X186417500Y-72350000D01*
X187569018Y-72350000D01*
X187558389Y-72368409D01*
X187517500Y-72521009D01*
X187517500Y-72678991D01*
X187558389Y-72831591D01*
X187569018Y-72850000D01*
X186417500Y-72850000D01*
X186417500Y-73599985D01*
X186427993Y-73702689D01*
X186427994Y-73702696D01*
X186483141Y-73869118D01*
X186483143Y-73869123D01*
X186575184Y-74018344D01*
X186699155Y-74142315D01*
X186848376Y-74234356D01*
X186848381Y-74234358D01*
X187014803Y-74289505D01*
X187014810Y-74289506D01*
X187117514Y-74299999D01*
X187117527Y-74300000D01*
X187867500Y-74300000D01*
X187867500Y-73148482D01*
X187885909Y-73159111D01*
X188038509Y-73200000D01*
X188196491Y-73200000D01*
X188349091Y-73159111D01*
X188367500Y-73148482D01*
X188367500Y-74300000D01*
X189117473Y-74300000D01*
X189117485Y-74299999D01*
X189220189Y-74289506D01*
X189220196Y-74289505D01*
X189386618Y-74234358D01*
X189386623Y-74234356D01*
X189535844Y-74142315D01*
X189659815Y-74018344D01*
X189751856Y-73869123D01*
X189751858Y-73869118D01*
X189807005Y-73702696D01*
X189807006Y-73702689D01*
X189817499Y-73599985D01*
X189817500Y-73599972D01*
X189817500Y-72850000D01*
X188665982Y-72850000D01*
X188676611Y-72831591D01*
X188717500Y-72678991D01*
X188717500Y-72521009D01*
X188676611Y-72368409D01*
X188665982Y-72350000D01*
X189817500Y-72350000D01*
X189817500Y-71600027D01*
X189817499Y-71600014D01*
X189807006Y-71497310D01*
X189807005Y-71497303D01*
X189751858Y-71330881D01*
X189751856Y-71330876D01*
X189659815Y-71181655D01*
X189535844Y-71057684D01*
X189386623Y-70965643D01*
X189386618Y-70965641D01*
X189220196Y-70910494D01*
X189220189Y-70910493D01*
X189117485Y-70900000D01*
X188367500Y-70900000D01*
X188367500Y-72051517D01*
X188349091Y-72040889D01*
X188196491Y-72000000D01*
X188038509Y-72000000D01*
X187885909Y-72040889D01*
X187867500Y-72051517D01*
X187867500Y-70900000D01*
X187117514Y-70900000D01*
X187014810Y-70910493D01*
X187014803Y-70910494D01*
X186848381Y-70965641D01*
X186848376Y-70965643D01*
X186699155Y-71057684D01*
X186575184Y-71181655D01*
X186483143Y-71330876D01*
X186483141Y-71330881D01*
X186427994Y-71497303D01*
X186427993Y-71497310D01*
X186417500Y-71600014D01*
X183375000Y-71600014D01*
X183375000Y-71200000D01*
X181875000Y-71200000D01*
X181875000Y-73099999D01*
X181374999Y-73099999D01*
X181375000Y-73099998D01*
X181375000Y-71200000D01*
X179875001Y-71200000D01*
X179875001Y-72399986D01*
X176374673Y-72399986D01*
X176375500Y-72393102D01*
X176375500Y-70936493D01*
X176395185Y-70869454D01*
X176411819Y-70848812D01*
X178424813Y-68835819D01*
X178486136Y-68802334D01*
X178512494Y-68799500D01*
X180015477Y-68799500D01*
X180082516Y-68819185D01*
X180128271Y-68871989D01*
X180138215Y-68941147D01*
X180109190Y-69004703D01*
X180103158Y-69011181D01*
X180032684Y-69081654D01*
X179940643Y-69230875D01*
X179940641Y-69230880D01*
X179885494Y-69397302D01*
X179885493Y-69397309D01*
X179875000Y-69500013D01*
X179875000Y-70700000D01*
X183374999Y-70700000D01*
X183374999Y-69500028D01*
X183374998Y-69500013D01*
X183364505Y-69397302D01*
X183309358Y-69230880D01*
X183309356Y-69230875D01*
X183217315Y-69081654D01*
X183146842Y-69011181D01*
X183113357Y-68949858D01*
X183118341Y-68880166D01*
X183160213Y-68824233D01*
X183225677Y-68799816D01*
X183234523Y-68799500D01*
X186280007Y-68799500D01*
X186347046Y-68819185D01*
X186367688Y-68835819D01*
X186580681Y-69048812D01*
X186614166Y-69110135D01*
X186617000Y-69136493D01*
X186617000Y-69218097D01*
X186653946Y-69451368D01*
X186726933Y-69675996D01*
X186815848Y-69850500D01*
X186834157Y-69886433D01*
X186972983Y-70077510D01*
X187139990Y-70244517D01*
X187331067Y-70383343D01*
X187430491Y-70434002D01*
X187541503Y-70490566D01*
X187541505Y-70490566D01*
X187541508Y-70490568D01*
X187661912Y-70529689D01*
X187766131Y-70563553D01*
X187999403Y-70600500D01*
X187999408Y-70600500D01*
X188235597Y-70600500D01*
X188468868Y-70563553D01*
X188693492Y-70490568D01*
X188903933Y-70383343D01*
X189095010Y-70244517D01*
X189262017Y-70077510D01*
X189400843Y-69886433D01*
X189508068Y-69675992D01*
X189581053Y-69451368D01*
X189601580Y-69321765D01*
X189618000Y-69218097D01*
X189618000Y-68981902D01*
X189581053Y-68748631D01*
X189508066Y-68524003D01*
X189400842Y-68313566D01*
X189262017Y-68122490D01*
X189095010Y-67955483D01*
X188903933Y-67816657D01*
X188880074Y-67804500D01*
X188693496Y-67709433D01*
X188468868Y-67636446D01*
X188235597Y-67599500D01*
X188235592Y-67599500D01*
X188153993Y-67599500D01*
X188086954Y-67579815D01*
X188066312Y-67563181D01*
X187589547Y-67086416D01*
X187589544Y-67086412D01*
X187589544Y-67086413D01*
X187582477Y-67079346D01*
X187582477Y-67079345D01*
X187436155Y-66933023D01*
X187264098Y-66818059D01*
X187229140Y-66803579D01*
X187072920Y-66738870D01*
X187072912Y-66738868D01*
X186869969Y-66698500D01*
X186869965Y-66698500D01*
X178135600Y-66698500D01*
X178135580Y-66698499D01*
X178129466Y-66698499D01*
X177922535Y-66698499D01*
X177922533Y-66698499D01*
X177719585Y-66738868D01*
X177719575Y-66738871D01*
X177528408Y-66818054D01*
X177528395Y-66818061D01*
X177356345Y-66933022D01*
X177356341Y-66933025D01*
X175326188Y-68963181D01*
X175264865Y-68996666D01*
X175238507Y-68999500D01*
X173781898Y-68999500D01*
X173742853Y-69004188D01*
X173693438Y-69010122D01*
X173552656Y-69065639D01*
X173432077Y-69157077D01*
X173340639Y-69277656D01*
X173285122Y-69418438D01*
X173281188Y-69451205D01*
X173274500Y-69506898D01*
X173274500Y-69506903D01*
X173274500Y-69850500D01*
X173254815Y-69917539D01*
X173202011Y-69963294D01*
X173150500Y-69974500D01*
X171414499Y-69974500D01*
X171347460Y-69954815D01*
X171301705Y-69902011D01*
X171290499Y-69850500D01*
X171290499Y-68070143D01*
X171290499Y-68070136D01*
X171288887Y-68056234D01*
X171287586Y-68045012D01*
X171287585Y-68045010D01*
X171287585Y-68045009D01*
X171242206Y-67942235D01*
X171162765Y-67862794D01*
X171112598Y-67840643D01*
X171059992Y-67817415D01*
X171034865Y-67814500D01*
X164625143Y-67814500D01*
X164625117Y-67814502D01*
X164600012Y-67817413D01*
X164600008Y-67817415D01*
X164497235Y-67862793D01*
X164417794Y-67942234D01*
X164372415Y-68045006D01*
X164372415Y-68045008D01*
X164369500Y-68070131D01*
X163090419Y-68070131D01*
X163088357Y-68065462D01*
X163062206Y-68006235D01*
X162982765Y-67926794D01*
X162982763Y-67926793D01*
X162879992Y-67881415D01*
X162854865Y-67878500D01*
X159745143Y-67878500D01*
X159745117Y-67878502D01*
X159720012Y-67881413D01*
X159720008Y-67881415D01*
X159617235Y-67926793D01*
X159537794Y-68006234D01*
X159492415Y-68109006D01*
X159492415Y-68109008D01*
X159489500Y-68134131D01*
X159489500Y-69193856D01*
X159489502Y-69193882D01*
X159492413Y-69218987D01*
X159492415Y-69218991D01*
X159537793Y-69321764D01*
X159537794Y-69321765D01*
X159617235Y-69401206D01*
X159720009Y-69446585D01*
X159739511Y-69448847D01*
X159803835Y-69476125D01*
X159843200Y-69533849D01*
X159845109Y-69603693D01*
X159812903Y-69659702D01*
X158879522Y-70593084D01*
X158879520Y-70593087D01*
X158826793Y-70684410D01*
X158826793Y-70684412D01*
X158822726Y-70699586D01*
X158822727Y-70699587D01*
X158799500Y-70786273D01*
X158799500Y-75197273D01*
X158799500Y-75302727D01*
X158807907Y-75334103D01*
X158826793Y-75404589D01*
X158827369Y-75405586D01*
X158879520Y-75495913D01*
X158879522Y-75495915D01*
X160296426Y-76912819D01*
X160329911Y-76974142D01*
X160324927Y-77043834D01*
X160283055Y-77099767D01*
X160217591Y-77124184D01*
X160208745Y-77124500D01*
X158877255Y-77124500D01*
X158810216Y-77104815D01*
X158789574Y-77088181D01*
X155905993Y-74204600D01*
X155872508Y-74143277D01*
X155875742Y-74078603D01*
X155913402Y-73962701D01*
X155940500Y-73791611D01*
X155940500Y-73618389D01*
X155913402Y-73447299D01*
X155859873Y-73282555D01*
X155781232Y-73128212D01*
X155679414Y-72988072D01*
X155556928Y-72865586D01*
X155416788Y-72763768D01*
X155401807Y-72756135D01*
X155262449Y-72685128D01*
X155178385Y-72657814D01*
X155120710Y-72618376D01*
X155093512Y-72554017D01*
X155105427Y-72485171D01*
X155152672Y-72433695D01*
X155178386Y-72421952D01*
X155339029Y-72369755D01*
X155521349Y-72276859D01*
X155565921Y-72244474D01*
X154886447Y-71565000D01*
X154892661Y-71565000D01*
X154994394Y-71537741D01*
X155085606Y-71485080D01*
X155160080Y-71410606D01*
X155212741Y-71319394D01*
X155240000Y-71217661D01*
X155240000Y-71211447D01*
X155919474Y-71890921D01*
X155951859Y-71846349D01*
X156044755Y-71664031D01*
X156107990Y-71469417D01*
X156140000Y-71267317D01*
X156140000Y-71062682D01*
X156107990Y-70860582D01*
X156044755Y-70665968D01*
X155951859Y-70483650D01*
X155919474Y-70439077D01*
X155919474Y-70439076D01*
X155240000Y-71118551D01*
X155240000Y-71112339D01*
X155212741Y-71010606D01*
X155160080Y-70919394D01*
X155085606Y-70844920D01*
X154994394Y-70792259D01*
X154892661Y-70765000D01*
X154886446Y-70765000D01*
X155565922Y-70085524D01*
X155565921Y-70085523D01*
X155521359Y-70053147D01*
X155521350Y-70053141D01*
X155339031Y-69960244D01*
X155144417Y-69897009D01*
X154942317Y-69865000D01*
X154737683Y-69865000D01*
X154535582Y-69897009D01*
X154340968Y-69960244D01*
X154158644Y-70053143D01*
X154114077Y-70085523D01*
X154114077Y-70085524D01*
X154793554Y-70765000D01*
X154787339Y-70765000D01*
X154685606Y-70792259D01*
X154594394Y-70844920D01*
X154519920Y-70919394D01*
X154467259Y-71010606D01*
X154440000Y-71112339D01*
X154440000Y-71118553D01*
X153760524Y-70439077D01*
X153760523Y-70439077D01*
X153728143Y-70483644D01*
X153635244Y-70665968D01*
X153572009Y-70860582D01*
X153540000Y-71062682D01*
X152979230Y-71062682D01*
X152979432Y-71054689D01*
X153002766Y-70129656D01*
X153427389Y-53296373D01*
X153448758Y-53229851D01*
X153502699Y-53185443D01*
X153551350Y-53175500D01*
X158341725Y-53175500D01*
X158341727Y-53175500D01*
X158443588Y-53148207D01*
X158534913Y-53095480D01*
X159229574Y-52400819D01*
X159256501Y-52386115D01*
X159282320Y-52369523D01*
X159288520Y-52368631D01*
X159290897Y-52367334D01*
X159317255Y-52364500D01*
X159365501Y-52364500D01*
X159432540Y-52384185D01*
X159478295Y-52436989D01*
X159489501Y-52488500D01*
X159489501Y-52493856D01*
X159489502Y-52493882D01*
X159492413Y-52518987D01*
X159492415Y-52518991D01*
X159537793Y-52621764D01*
X159617235Y-52701206D01*
X159714668Y-52744227D01*
X159768045Y-52789313D01*
X159788572Y-52856099D01*
X159769734Y-52923381D01*
X159752263Y-52945342D01*
X159068522Y-53629084D01*
X159068520Y-53629087D01*
X159015794Y-53720410D01*
X158991902Y-53809572D01*
X158991903Y-53809573D01*
X158988500Y-53822274D01*
X158988500Y-58066726D01*
X159015793Y-58168589D01*
X159040354Y-58211128D01*
X159068520Y-58259913D01*
X161229518Y-60420910D01*
X161229520Y-60420913D01*
X161304087Y-60495480D01*
X161390690Y-60545480D01*
X161395413Y-60548207D01*
X161497274Y-60575501D01*
X161497277Y-60575501D01*
X161610323Y-60575501D01*
X161610339Y-60575500D01*
X166143380Y-60575500D01*
X166210419Y-60595185D01*
X166256174Y-60647989D01*
X166266494Y-60684712D01*
X166268763Y-60703601D01*
X166275122Y-60756561D01*
X166275122Y-60756563D01*
X166275123Y-60756564D01*
X166286385Y-60785123D01*
X166330639Y-60897343D01*
X166422077Y-61017922D01*
X166542656Y-61109360D01*
X166542657Y-61109360D01*
X166542658Y-61109361D01*
X166683436Y-61164877D01*
X166771898Y-61175500D01*
X166771903Y-61175500D01*
X167558097Y-61175500D01*
X167558102Y-61175500D01*
X167646564Y-61164877D01*
X167787342Y-61109361D01*
X167907922Y-61017922D01*
X167999361Y-60897342D01*
X168049646Y-60769826D01*
X168092551Y-60714685D01*
X168158459Y-60691492D01*
X168226443Y-60707612D01*
X168274920Y-60757929D01*
X168280348Y-60769814D01*
X168310703Y-60846789D01*
X168330639Y-60897343D01*
X168422077Y-61017922D01*
X168542656Y-61109360D01*
X168542657Y-61109360D01*
X168542658Y-61109361D01*
X168683436Y-61164877D01*
X168771898Y-61175500D01*
X168771903Y-61175500D01*
X169558097Y-61175500D01*
X169558102Y-61175500D01*
X169646564Y-61164877D01*
X169787342Y-61109361D01*
X169907922Y-61017922D01*
X169907928Y-61017913D01*
X169913915Y-61011928D01*
X169916526Y-61014539D01*
X169958802Y-60983149D01*
X170001680Y-60975500D01*
X170553844Y-60975500D01*
X170553845Y-60975499D01*
X170708497Y-60944737D01*
X170854179Y-60884394D01*
X170985289Y-60796789D01*
X172090913Y-59691163D01*
X172109697Y-59675748D01*
X172149035Y-59649464D01*
X172274464Y-59524035D01*
X172373013Y-59376547D01*
X172375942Y-59369477D01*
X172386092Y-59344972D01*
X172440894Y-59212666D01*
X172448696Y-59173446D01*
X172475499Y-59038695D01*
X172475500Y-59038693D01*
X172475500Y-58861306D01*
X172475499Y-58861304D01*
X172440896Y-58687341D01*
X172440893Y-58687332D01*
X172373016Y-58523459D01*
X172373009Y-58523446D01*
X172274464Y-58375965D01*
X172274461Y-58375961D01*
X172149038Y-58250538D01*
X172149034Y-58250535D01*
X172001553Y-58151990D01*
X172001540Y-58151983D01*
X171837667Y-58084106D01*
X171837658Y-58084103D01*
X171663694Y-58049500D01*
X171663691Y-58049500D01*
X171486309Y-58049500D01*
X171486306Y-58049500D01*
X171312341Y-58084103D01*
X171312332Y-58084106D01*
X171148459Y-58151983D01*
X171148446Y-58151990D01*
X171000965Y-58250535D01*
X171000961Y-58250538D01*
X170875538Y-58375961D01*
X170875535Y-58375965D01*
X170776990Y-58523446D01*
X170776983Y-58523459D01*
X170709107Y-58687329D01*
X170709104Y-58687339D01*
X170686279Y-58802088D01*
X170653894Y-58863999D01*
X170652343Y-58865577D01*
X170179741Y-59338181D01*
X170152813Y-59352884D01*
X170126995Y-59369477D01*
X170120794Y-59370368D01*
X170118418Y-59371666D01*
X170092060Y-59374500D01*
X170001680Y-59374500D01*
X169934641Y-59354815D01*
X169915200Y-59336786D01*
X169913915Y-59338072D01*
X169907925Y-59332082D01*
X169907922Y-59332078D01*
X169836159Y-59277658D01*
X169787343Y-59240639D01*
X169646561Y-59185122D01*
X169600926Y-59179642D01*
X169558102Y-59174500D01*
X168771898Y-59174500D01*
X168732853Y-59179188D01*
X168683438Y-59185122D01*
X168542656Y-59240639D01*
X168422077Y-59332077D01*
X168330639Y-59452656D01*
X168309249Y-59506898D01*
X168280353Y-59580171D01*
X168237449Y-59635314D01*
X168171541Y-59658507D01*
X168103556Y-59642386D01*
X168055080Y-59592070D01*
X168049648Y-59580178D01*
X167999361Y-59452658D01*
X167999360Y-59452657D01*
X167999360Y-59452656D01*
X167907922Y-59332077D01*
X167787343Y-59240639D01*
X167646561Y-59185122D01*
X167600926Y-59179642D01*
X167558102Y-59174500D01*
X166771898Y-59174500D01*
X166732853Y-59179188D01*
X166683438Y-59185122D01*
X166542656Y-59240639D01*
X166422077Y-59332077D01*
X166330639Y-59452656D01*
X166275122Y-59593438D01*
X166271974Y-59619655D01*
X166266494Y-59665285D01*
X166238959Y-59729498D01*
X166181077Y-59768631D01*
X166143380Y-59774500D01*
X164019500Y-59774500D01*
X163952461Y-59754815D01*
X163906706Y-59702011D01*
X163896762Y-59632853D01*
X163916398Y-59581609D01*
X164005937Y-59447604D01*
X164005937Y-59447603D01*
X164005941Y-59447598D01*
X164085130Y-59256420D01*
X164125500Y-59053465D01*
X164125500Y-58846535D01*
X164085130Y-58643580D01*
X164005941Y-58452402D01*
X164005940Y-58452401D01*
X164005937Y-58452395D01*
X163890976Y-58280345D01*
X163890973Y-58280341D01*
X163020982Y-57410350D01*
X162987497Y-57349027D01*
X162992481Y-57279335D01*
X163020981Y-57234989D01*
X163062206Y-57193765D01*
X163107585Y-57090991D01*
X163110500Y-57065865D01*
X163110499Y-56006136D01*
X163109804Y-56000142D01*
X163107586Y-55981012D01*
X163107585Y-55981010D01*
X163107585Y-55981009D01*
X163062206Y-55878235D01*
X162982765Y-55798794D01*
X162943736Y-55781561D01*
X162879992Y-55753415D01*
X162854868Y-55750500D01*
X162854865Y-55750500D01*
X162051160Y-55750500D01*
X161984121Y-55730815D01*
X161972498Y-55722355D01*
X161969662Y-55720027D01*
X161854695Y-55643210D01*
X161797598Y-55605059D01*
X161763398Y-55590893D01*
X161606420Y-55525870D01*
X161606412Y-55525868D01*
X161403469Y-55485500D01*
X161403465Y-55485500D01*
X161196535Y-55485500D01*
X161196530Y-55485500D01*
X160993587Y-55525868D01*
X160993579Y-55525870D01*
X160802402Y-55605058D01*
X160630338Y-55720027D01*
X160627496Y-55722360D01*
X160625718Y-55723114D01*
X160625281Y-55723407D01*
X160625225Y-55723324D01*
X160563184Y-55749668D01*
X160548840Y-55750500D01*
X159913500Y-55750500D01*
X159846461Y-55730815D01*
X159800706Y-55678011D01*
X159789500Y-55626500D01*
X159789500Y-54092254D01*
X159809185Y-54025215D01*
X159825814Y-54004578D01*
X161044574Y-52785817D01*
X161105897Y-52752333D01*
X161132255Y-52749499D01*
X162854856Y-52749499D01*
X162854864Y-52749499D01*
X162854879Y-52749497D01*
X162854882Y-52749497D01*
X162879987Y-52746586D01*
X162879988Y-52746585D01*
X162879991Y-52746585D01*
X162982765Y-52701206D01*
X163062206Y-52621765D01*
X163107585Y-52518991D01*
X163110500Y-52493865D01*
X163110499Y-51434136D01*
X163110497Y-51434117D01*
X163107586Y-51409012D01*
X163107584Y-51409006D01*
X163090419Y-51370131D01*
X164369500Y-51370131D01*
X164369500Y-57129856D01*
X164369502Y-57129882D01*
X164372413Y-57154987D01*
X164372415Y-57154991D01*
X164417793Y-57257764D01*
X164417794Y-57257765D01*
X164497235Y-57337206D01*
X164600009Y-57382585D01*
X164625135Y-57385500D01*
X171034864Y-57385499D01*
X171034879Y-57385497D01*
X171034882Y-57385497D01*
X171059987Y-57382586D01*
X171059988Y-57382585D01*
X171059991Y-57382585D01*
X171162765Y-57337206D01*
X171242206Y-57257765D01*
X171287585Y-57154991D01*
X171290500Y-57129865D01*
X171290500Y-55424500D01*
X171310185Y-55357461D01*
X171362989Y-55311706D01*
X171414500Y-55300500D01*
X173150500Y-55300500D01*
X173217539Y-55320185D01*
X173263294Y-55372989D01*
X173274500Y-55424500D01*
X173274500Y-55693102D01*
X173280126Y-55739954D01*
X173285122Y-55781561D01*
X173340639Y-55922343D01*
X173432077Y-56042922D01*
X173552656Y-56134360D01*
X173552657Y-56134360D01*
X173552658Y-56134361D01*
X173693436Y-56189877D01*
X173781898Y-56200500D01*
X173781903Y-56200500D01*
X175868097Y-56200500D01*
X175868102Y-56200500D01*
X175956564Y-56189877D01*
X176097342Y-56134361D01*
X176217922Y-56042922D01*
X176309361Y-55922342D01*
X176364877Y-55781564D01*
X176374673Y-55699986D01*
X179875001Y-55699986D01*
X179885494Y-55802697D01*
X179940641Y-55969119D01*
X179940643Y-55969124D01*
X180032684Y-56118345D01*
X180156654Y-56242315D01*
X180305875Y-56334356D01*
X180305880Y-56334358D01*
X180472302Y-56389505D01*
X180472309Y-56389506D01*
X180575019Y-56399999D01*
X181374999Y-56399999D01*
X181875000Y-56399999D01*
X182674972Y-56399999D01*
X182674986Y-56399998D01*
X182777697Y-56389505D01*
X182944119Y-56334358D01*
X182944124Y-56334356D01*
X183093345Y-56242315D01*
X183217315Y-56118345D01*
X183223363Y-56108541D01*
X183309356Y-55969124D01*
X183309358Y-55969119D01*
X183364505Y-55802697D01*
X183364506Y-55802690D01*
X183374999Y-55699986D01*
X183375000Y-55699973D01*
X183375000Y-54975014D01*
X186417500Y-54975014D01*
X186417500Y-55725000D01*
X187569018Y-55725000D01*
X187558389Y-55743409D01*
X187517500Y-55896009D01*
X187517500Y-56053991D01*
X187558389Y-56206591D01*
X187569018Y-56225000D01*
X186417500Y-56225000D01*
X186417500Y-56974985D01*
X186427993Y-57077689D01*
X186427994Y-57077696D01*
X186483141Y-57244118D01*
X186483143Y-57244123D01*
X186575184Y-57393344D01*
X186699155Y-57517315D01*
X186848376Y-57609356D01*
X186848381Y-57609358D01*
X187014803Y-57664505D01*
X187014810Y-57664506D01*
X187117514Y-57674999D01*
X187117527Y-57675000D01*
X187867500Y-57675000D01*
X187867500Y-56523482D01*
X187885909Y-56534111D01*
X188038509Y-56575000D01*
X188196491Y-56575000D01*
X188349091Y-56534111D01*
X188367500Y-56523482D01*
X188367500Y-57675000D01*
X189117473Y-57675000D01*
X189117485Y-57674999D01*
X189220189Y-57664506D01*
X189220196Y-57664505D01*
X189386618Y-57609358D01*
X189386623Y-57609356D01*
X189535844Y-57517315D01*
X189659815Y-57393344D01*
X189751856Y-57244123D01*
X189751858Y-57244118D01*
X189807005Y-57077696D01*
X189807006Y-57077689D01*
X189817499Y-56974985D01*
X189817500Y-56974972D01*
X189817500Y-56225000D01*
X188665982Y-56225000D01*
X188676611Y-56206591D01*
X188717500Y-56053991D01*
X188717500Y-55896009D01*
X188676611Y-55743409D01*
X188665982Y-55725000D01*
X189817500Y-55725000D01*
X189817500Y-54975027D01*
X189817499Y-54975014D01*
X189807006Y-54872310D01*
X189807005Y-54872303D01*
X189751858Y-54705881D01*
X189751856Y-54705876D01*
X189659815Y-54556655D01*
X189535844Y-54432684D01*
X189386623Y-54340643D01*
X189386618Y-54340641D01*
X189220196Y-54285494D01*
X189220189Y-54285493D01*
X189117485Y-54275000D01*
X188367500Y-54275000D01*
X188367500Y-55426517D01*
X188349091Y-55415889D01*
X188196491Y-55375000D01*
X188038509Y-55375000D01*
X187885909Y-55415889D01*
X187867500Y-55426517D01*
X187867500Y-54275000D01*
X187117514Y-54275000D01*
X187014810Y-54285493D01*
X187014803Y-54285494D01*
X186848381Y-54340641D01*
X186848376Y-54340643D01*
X186699155Y-54432684D01*
X186575184Y-54556655D01*
X186483143Y-54705876D01*
X186483141Y-54705881D01*
X186427994Y-54872303D01*
X186427993Y-54872310D01*
X186417500Y-54975014D01*
X183375000Y-54975014D01*
X183375000Y-54500000D01*
X181875000Y-54500000D01*
X181875000Y-56399999D01*
X181374999Y-56399999D01*
X181375000Y-56399998D01*
X181375000Y-54500000D01*
X179875001Y-54500000D01*
X179875001Y-55699986D01*
X176374673Y-55699986D01*
X176375500Y-55693102D01*
X176375500Y-54236493D01*
X176395185Y-54169454D01*
X176411819Y-54148812D01*
X178198812Y-52361819D01*
X178260135Y-52328334D01*
X178286493Y-52325500D01*
X179845146Y-52325500D01*
X179912185Y-52345185D01*
X179957940Y-52397989D01*
X179967884Y-52467147D01*
X179950684Y-52514598D01*
X179940644Y-52530873D01*
X179940641Y-52530880D01*
X179885494Y-52697302D01*
X179885493Y-52697309D01*
X179875000Y-52800013D01*
X179875000Y-54000000D01*
X183374999Y-54000000D01*
X183374999Y-52800028D01*
X183374998Y-52800013D01*
X183364505Y-52697302D01*
X183309358Y-52530880D01*
X183309355Y-52530873D01*
X183299316Y-52514598D01*
X183280875Y-52447206D01*
X183301797Y-52380542D01*
X183355438Y-52335772D01*
X183404854Y-52325500D01*
X186431007Y-52325500D01*
X186460447Y-52334144D01*
X186490434Y-52340668D01*
X186495449Y-52344422D01*
X186498046Y-52345185D01*
X186518688Y-52361819D01*
X186580681Y-52423812D01*
X186614166Y-52485135D01*
X186617000Y-52511493D01*
X186617000Y-52593097D01*
X186653946Y-52826368D01*
X186726933Y-53050996D01*
X186815849Y-53225501D01*
X186834157Y-53261433D01*
X186972983Y-53452510D01*
X187139990Y-53619517D01*
X187331067Y-53758343D01*
X187430491Y-53809002D01*
X187541503Y-53865566D01*
X187541505Y-53865566D01*
X187541508Y-53865568D01*
X187661912Y-53904689D01*
X187766131Y-53938553D01*
X187999403Y-53975500D01*
X187999408Y-53975500D01*
X188235597Y-53975500D01*
X188468868Y-53938553D01*
X188693492Y-53865568D01*
X188903933Y-53758343D01*
X189095010Y-53619517D01*
X189262017Y-53452510D01*
X189400843Y-53261433D01*
X189508068Y-53050992D01*
X189581053Y-52826368D01*
X189586922Y-52789313D01*
X189618000Y-52593097D01*
X189618000Y-52356902D01*
X189581053Y-52123631D01*
X189508066Y-51899003D01*
X189400842Y-51688566D01*
X189392726Y-51677395D01*
X189262017Y-51497490D01*
X189095010Y-51330483D01*
X188903933Y-51191657D01*
X188889170Y-51184135D01*
X188693496Y-51084433D01*
X188468868Y-51011446D01*
X188235597Y-50974500D01*
X188235592Y-50974500D01*
X188153993Y-50974500D01*
X188086954Y-50954815D01*
X188066312Y-50938181D01*
X187737817Y-50609686D01*
X187737797Y-50609664D01*
X187587157Y-50459024D01*
X187467194Y-50378868D01*
X187415098Y-50344059D01*
X187401677Y-50338500D01*
X187223920Y-50264870D01*
X187223912Y-50264868D01*
X187020969Y-50224500D01*
X187020965Y-50224500D01*
X177903465Y-50224500D01*
X177696534Y-50224500D01*
X177696529Y-50224500D01*
X177662862Y-50231195D01*
X177662863Y-50231196D01*
X177493585Y-50264868D01*
X177493579Y-50264870D01*
X177302403Y-50344058D01*
X177130344Y-50459023D01*
X177057184Y-50532184D01*
X176984023Y-50605345D01*
X176984020Y-50605348D01*
X176149869Y-51439500D01*
X175326188Y-52263181D01*
X175264865Y-52296666D01*
X175238507Y-52299500D01*
X173781898Y-52299500D01*
X173742853Y-52304188D01*
X173693438Y-52310122D01*
X173552656Y-52365639D01*
X173432077Y-52457077D01*
X173340639Y-52577656D01*
X173285122Y-52718438D01*
X173281052Y-52752333D01*
X173274500Y-52806898D01*
X173274500Y-52806903D01*
X173274500Y-53075500D01*
X173254815Y-53142539D01*
X173202011Y-53188294D01*
X173150500Y-53199500D01*
X171414499Y-53199500D01*
X171347460Y-53179815D01*
X171301705Y-53127011D01*
X171290499Y-53075500D01*
X171290499Y-51370143D01*
X171290499Y-51370136D01*
X171290497Y-51370117D01*
X171287586Y-51345012D01*
X171287585Y-51345010D01*
X171287585Y-51345009D01*
X171242206Y-51242235D01*
X171162765Y-51162794D01*
X171154193Y-51159009D01*
X171059992Y-51117415D01*
X171034865Y-51114500D01*
X164625143Y-51114500D01*
X164625117Y-51114502D01*
X164600012Y-51117413D01*
X164600008Y-51117415D01*
X164497235Y-51162793D01*
X164417794Y-51242234D01*
X164372415Y-51345006D01*
X164372415Y-51345008D01*
X164369500Y-51370131D01*
X163090419Y-51370131D01*
X163072913Y-51330485D01*
X163062206Y-51306235D01*
X162982765Y-51226794D01*
X162982763Y-51226793D01*
X162879992Y-51181415D01*
X162854865Y-51178500D01*
X159745143Y-51178500D01*
X159745117Y-51178502D01*
X159720012Y-51181413D01*
X159720008Y-51181415D01*
X159617235Y-51226793D01*
X159537794Y-51306234D01*
X159492415Y-51409006D01*
X159492415Y-51409008D01*
X159489500Y-51434131D01*
X159489500Y-51439500D01*
X159469815Y-51506539D01*
X159417011Y-51552294D01*
X159365500Y-51563500D01*
X159047273Y-51563500D01*
X158945410Y-51590793D01*
X158854087Y-51643520D01*
X158854084Y-51643522D01*
X158159426Y-52338181D01*
X158098103Y-52371666D01*
X158071745Y-52374500D01*
X110622273Y-52374500D01*
X110520410Y-52401793D01*
X110429087Y-52454520D01*
X110429084Y-52454522D01*
X107704522Y-55179084D01*
X107704518Y-55179090D01*
X107651792Y-55270412D01*
X107651793Y-55270413D01*
X107624500Y-55372273D01*
X107624500Y-70535325D01*
X107604815Y-70602364D01*
X107588181Y-70623006D01*
X106286681Y-71924506D01*
X106225358Y-71957991D01*
X106155666Y-71953007D01*
X106099733Y-71911135D01*
X106075316Y-71845671D01*
X106075000Y-71836825D01*
X106075000Y-70775000D01*
X104775000Y-70775000D01*
X104775000Y-73280892D01*
X104801397Y-73329235D01*
X104796413Y-73398927D01*
X104767912Y-73443274D01*
X98578006Y-79633181D01*
X98516683Y-79666666D01*
X98490325Y-79669500D01*
X96762042Y-79669500D01*
X96695003Y-79649815D01*
X96651557Y-79601794D01*
X96596233Y-79493213D01*
X96580937Y-79472160D01*
X96494414Y-79353072D01*
X96371928Y-79230586D01*
X96231788Y-79128768D01*
X96077445Y-79050127D01*
X95912701Y-78996598D01*
X95912699Y-78996597D01*
X95912698Y-78996597D01*
X95781271Y-78975781D01*
X95741611Y-78969500D01*
X95568389Y-78969500D01*
X95528728Y-78975781D01*
X95397302Y-78996597D01*
X95232552Y-79050128D01*
X95078211Y-79128768D01*
X94998256Y-79186859D01*
X94938072Y-79230586D01*
X94938070Y-79230588D01*
X94938069Y-79230588D01*
X94815588Y-79353069D01*
X94815588Y-79353070D01*
X94815586Y-79353072D01*
X94771859Y-79413256D01*
X94713768Y-79493211D01*
X94635128Y-79647552D01*
X94581597Y-79812302D01*
X94554500Y-79983389D01*
X94554500Y-80156610D01*
X94571407Y-80263361D01*
X94581598Y-80327701D01*
X94635127Y-80492445D01*
X94713768Y-80646788D01*
X94815586Y-80786928D01*
X94938072Y-80909414D01*
X95078212Y-81011232D01*
X95232555Y-81089873D01*
X95316613Y-81117185D01*
X95374289Y-81156623D01*
X95401487Y-81220981D01*
X95389572Y-81289828D01*
X95342328Y-81341303D01*
X95316614Y-81353047D01*
X95155968Y-81405244D01*
X94973644Y-81498143D01*
X94929077Y-81530523D01*
X94929077Y-81530524D01*
X95608554Y-82210000D01*
X95602339Y-82210000D01*
X95500606Y-82237259D01*
X95409394Y-82289920D01*
X95334920Y-82364394D01*
X95282259Y-82455606D01*
X95255000Y-82557339D01*
X95255000Y-82563553D01*
X94575524Y-81884077D01*
X94575523Y-81884077D01*
X94543143Y-81928644D01*
X94450244Y-82110968D01*
X94387009Y-82305582D01*
X94355000Y-82507682D01*
X94355000Y-82712317D01*
X94387010Y-82914418D01*
X94387010Y-82914421D01*
X94420503Y-83017499D01*
X94422498Y-83087340D01*
X94386418Y-83147173D01*
X94323717Y-83178001D01*
X94254303Y-83170036D01*
X94214891Y-83143498D01*
X89535819Y-78464426D01*
X89502334Y-78403103D01*
X89499500Y-78376745D01*
X89499500Y-72574985D01*
X93125000Y-72574985D01*
X93135493Y-72677689D01*
X93135494Y-72677696D01*
X93190641Y-72844118D01*
X93190643Y-72844123D01*
X93282684Y-72993344D01*
X93406655Y-73117315D01*
X93555876Y-73209356D01*
X93555881Y-73209358D01*
X93722303Y-73264505D01*
X93722310Y-73264506D01*
X93825014Y-73274999D01*
X93825027Y-73275000D01*
X94425000Y-73275000D01*
X94925000Y-73275000D01*
X95524973Y-73275000D01*
X95524985Y-73274999D01*
X95627689Y-73264506D01*
X95627696Y-73264505D01*
X95794118Y-73209358D01*
X95794123Y-73209356D01*
X95943344Y-73117315D01*
X96067315Y-72993344D01*
X96159356Y-72844123D01*
X96159358Y-72844118D01*
X96214505Y-72677696D01*
X96214506Y-72677689D01*
X96224999Y-72574985D01*
X102975000Y-72574985D01*
X102985493Y-72677689D01*
X102985494Y-72677696D01*
X103040641Y-72844118D01*
X103040643Y-72844123D01*
X103132684Y-72993344D01*
X103256655Y-73117315D01*
X103405876Y-73209356D01*
X103405881Y-73209358D01*
X103572303Y-73264505D01*
X103572310Y-73264506D01*
X103675014Y-73274999D01*
X103675027Y-73275000D01*
X104275000Y-73275000D01*
X104275000Y-70775000D01*
X102975000Y-70775000D01*
X102975000Y-72574985D01*
X96224999Y-72574985D01*
X96225000Y-72574972D01*
X96225000Y-70775000D01*
X94925000Y-70775000D01*
X94925000Y-73275000D01*
X94425000Y-73275000D01*
X94425000Y-70775000D01*
X93125000Y-70775000D01*
X93125000Y-72574985D01*
X89499500Y-72574985D01*
X89499500Y-68475014D01*
X93125000Y-68475014D01*
X93125000Y-70275000D01*
X94425000Y-70275000D01*
X94925000Y-70275000D01*
X96225000Y-70275000D01*
X96225000Y-68475027D01*
X96224999Y-68475014D01*
X102975000Y-68475014D01*
X102975000Y-70275000D01*
X104275000Y-70275000D01*
X104775000Y-70275000D01*
X106075000Y-70275000D01*
X106075000Y-68475027D01*
X106074999Y-68475014D01*
X106064506Y-68372310D01*
X106064505Y-68372303D01*
X106009358Y-68205881D01*
X106009356Y-68205876D01*
X105917315Y-68056655D01*
X105793344Y-67932684D01*
X105644123Y-67840643D01*
X105644118Y-67840641D01*
X105477696Y-67785494D01*
X105477689Y-67785493D01*
X105374985Y-67775000D01*
X104775000Y-67775000D01*
X104775000Y-70275000D01*
X104275000Y-70275000D01*
X104275000Y-67775000D01*
X103675014Y-67775000D01*
X103572310Y-67785493D01*
X103572303Y-67785494D01*
X103405881Y-67840641D01*
X103405876Y-67840643D01*
X103256655Y-67932684D01*
X103132684Y-68056655D01*
X103040643Y-68205876D01*
X103040641Y-68205881D01*
X102985494Y-68372303D01*
X102985493Y-68372310D01*
X102975000Y-68475014D01*
X96224999Y-68475014D01*
X96214506Y-68372310D01*
X96214505Y-68372303D01*
X96159358Y-68205881D01*
X96159356Y-68205876D01*
X96067315Y-68056655D01*
X95943344Y-67932684D01*
X95794123Y-67840643D01*
X95794118Y-67840641D01*
X95627696Y-67785494D01*
X95627689Y-67785493D01*
X95524985Y-67775000D01*
X94925000Y-67775000D01*
X94925000Y-70275000D01*
X94425000Y-70275000D01*
X94425000Y-67775000D01*
X93825014Y-67775000D01*
X93722310Y-67785493D01*
X93722303Y-67785494D01*
X93555881Y-67840641D01*
X93555876Y-67840643D01*
X93406655Y-67932684D01*
X93282684Y-68056655D01*
X93190643Y-68205876D01*
X93190641Y-68205881D01*
X93135494Y-68372303D01*
X93135493Y-68372310D01*
X93125000Y-68475014D01*
X89499500Y-68475014D01*
X89499500Y-65811729D01*
X89499501Y-65811716D01*
X89499501Y-65696274D01*
X89472206Y-65594410D01*
X89472204Y-65594407D01*
X89454854Y-65564356D01*
X89454852Y-65564353D01*
X89449767Y-65555546D01*
X89419480Y-65503087D01*
X89344913Y-65428520D01*
X89344910Y-65428518D01*
X87321572Y-63405180D01*
X85282269Y-61365876D01*
X85198293Y-61281900D01*
X93324500Y-61281900D01*
X93324500Y-65368091D01*
X93335123Y-65456562D01*
X93390639Y-65597342D01*
X93390640Y-65597344D01*
X93482077Y-65717922D01*
X93592591Y-65801727D01*
X93602658Y-65809361D01*
X93743436Y-65864876D01*
X93831901Y-65875500D01*
X95518098Y-65875499D01*
X95606564Y-65864876D01*
X95747342Y-65809361D01*
X95867922Y-65717922D01*
X95959361Y-65597342D01*
X96014876Y-65456564D01*
X96025500Y-65368099D01*
X96025499Y-62324499D01*
X96028049Y-62315814D01*
X96026761Y-62306853D01*
X96037739Y-62282812D01*
X96045184Y-62257461D01*
X96052024Y-62251533D01*
X96055786Y-62243297D01*
X96078020Y-62229007D01*
X96097988Y-62211706D01*
X96108502Y-62209418D01*
X96114564Y-62205523D01*
X96149499Y-62200500D01*
X96304793Y-62200500D01*
X96352245Y-62209939D01*
X96487334Y-62265894D01*
X96487336Y-62265894D01*
X96487341Y-62265896D01*
X96661304Y-62300499D01*
X96661307Y-62300500D01*
X96661309Y-62300500D01*
X96838693Y-62300500D01*
X96838694Y-62300499D01*
X96896682Y-62288964D01*
X97012658Y-62265896D01*
X97012661Y-62265894D01*
X97012666Y-62265894D01*
X97176547Y-62198013D01*
X97324035Y-62099464D01*
X97449464Y-61974035D01*
X97548013Y-61826547D01*
X97615894Y-61662666D01*
X97619115Y-61646477D01*
X97650499Y-61488695D01*
X97650500Y-61488693D01*
X97650500Y-61386304D01*
X101824500Y-61386304D01*
X101824500Y-61563695D01*
X101859103Y-61737658D01*
X101859106Y-61737667D01*
X101926983Y-61901540D01*
X101926990Y-61901553D01*
X102025535Y-62049034D01*
X102025538Y-62049038D01*
X102150961Y-62174461D01*
X102150965Y-62174464D01*
X102298446Y-62273009D01*
X102298459Y-62273016D01*
X102401785Y-62315814D01*
X102462334Y-62340894D01*
X102462336Y-62340894D01*
X102462341Y-62340896D01*
X102636304Y-62375499D01*
X102636307Y-62375500D01*
X102636309Y-62375500D01*
X102813693Y-62375500D01*
X102813694Y-62375499D01*
X102871682Y-62363964D01*
X102987658Y-62340896D01*
X102987659Y-62340895D01*
X102987666Y-62340894D01*
X103002046Y-62334937D01*
X103010220Y-62333311D01*
X103014560Y-62330523D01*
X103049495Y-62325500D01*
X103050500Y-62325500D01*
X103117539Y-62345185D01*
X103163294Y-62397989D01*
X103174500Y-62449500D01*
X103174500Y-65368091D01*
X103185123Y-65456562D01*
X103240639Y-65597342D01*
X103240640Y-65597344D01*
X103332077Y-65717922D01*
X103442591Y-65801727D01*
X103452658Y-65809361D01*
X103593436Y-65864876D01*
X103681901Y-65875500D01*
X105368098Y-65875499D01*
X105456564Y-65864876D01*
X105597342Y-65809361D01*
X105717922Y-65717922D01*
X105809361Y-65597342D01*
X105864876Y-65456564D01*
X105875500Y-65368099D01*
X105875499Y-61281902D01*
X105864876Y-61193436D01*
X105809361Y-61052658D01*
X105806177Y-61048459D01*
X105717922Y-60932077D01*
X105597344Y-60840640D01*
X105597342Y-60840639D01*
X105456564Y-60785124D01*
X105456561Y-60785123D01*
X105368099Y-60774500D01*
X104679604Y-60774500D01*
X104632155Y-60765062D01*
X104608497Y-60755263D01*
X104608493Y-60755262D01*
X104608488Y-60755260D01*
X104453845Y-60724500D01*
X104453842Y-60724500D01*
X103260270Y-60724500D01*
X103193231Y-60704815D01*
X103191378Y-60703601D01*
X103151552Y-60676989D01*
X103151547Y-60676987D01*
X102987667Y-60609106D01*
X102987658Y-60609103D01*
X102813694Y-60574500D01*
X102813691Y-60574500D01*
X102636309Y-60574500D01*
X102636306Y-60574500D01*
X102462341Y-60609103D01*
X102462332Y-60609106D01*
X102298459Y-60676983D01*
X102298446Y-60676990D01*
X102150965Y-60775535D01*
X102150961Y-60775538D01*
X102025538Y-60900961D01*
X102025535Y-60900965D01*
X101926990Y-61048446D01*
X101926983Y-61048459D01*
X101859106Y-61212332D01*
X101859103Y-61212341D01*
X101824500Y-61386304D01*
X97650500Y-61386304D01*
X97650500Y-61311306D01*
X97650499Y-61311304D01*
X97615896Y-61137341D01*
X97615893Y-61137332D01*
X97614720Y-61134501D01*
X97598923Y-61096363D01*
X97548016Y-60973459D01*
X97548009Y-60973446D01*
X97449464Y-60825965D01*
X97449461Y-60825961D01*
X97324038Y-60700538D01*
X97324034Y-60700535D01*
X97176553Y-60601990D01*
X97176540Y-60601983D01*
X97012667Y-60534106D01*
X97012658Y-60534103D01*
X96838694Y-60499500D01*
X96838691Y-60499500D01*
X96661309Y-60499500D01*
X96661306Y-60499500D01*
X96487341Y-60534103D01*
X96487332Y-60534106D01*
X96352245Y-60590061D01*
X96304793Y-60599500D01*
X95021153Y-60599500D01*
X94866510Y-60630260D01*
X94866502Y-60630262D01*
X94720819Y-60690606D01*
X94720818Y-60690606D01*
X94626539Y-60753602D01*
X94559862Y-60774480D01*
X94557649Y-60774500D01*
X93831908Y-60774500D01*
X93743437Y-60785123D01*
X93602657Y-60840639D01*
X93602655Y-60840640D01*
X93482077Y-60932077D01*
X93390640Y-61052655D01*
X93390639Y-61052658D01*
X93368279Y-61109361D01*
X93335124Y-61193437D01*
X93335123Y-61193438D01*
X93324500Y-61281900D01*
X85198293Y-61281900D01*
X85153574Y-61237181D01*
X85120089Y-61175858D01*
X85125073Y-61106166D01*
X85166945Y-61050233D01*
X85232409Y-61025816D01*
X85241255Y-61025500D01*
X85396844Y-61025500D01*
X85396845Y-61025499D01*
X85551497Y-60994737D01*
X85697179Y-60934394D01*
X85828289Y-60846789D01*
X86194234Y-60480842D01*
X86234454Y-60453968D01*
X86369547Y-60398013D01*
X86517035Y-60299464D01*
X86642464Y-60174035D01*
X86741013Y-60026547D01*
X86808894Y-59862666D01*
X86819591Y-59808892D01*
X86843499Y-59688695D01*
X86843500Y-59688693D01*
X86843500Y-59511306D01*
X86843499Y-59511304D01*
X86808896Y-59337341D01*
X86808893Y-59337332D01*
X86806716Y-59332077D01*
X86775379Y-59256420D01*
X86741016Y-59173459D01*
X86741009Y-59173446D01*
X86642464Y-59025965D01*
X86642461Y-59025961D01*
X86517038Y-58900538D01*
X86517034Y-58900535D01*
X86369553Y-58801990D01*
X86369540Y-58801983D01*
X86205667Y-58734106D01*
X86205658Y-58734103D01*
X86031694Y-58699500D01*
X86031691Y-58699500D01*
X85854309Y-58699500D01*
X85854306Y-58699500D01*
X85680341Y-58734103D01*
X85680332Y-58734106D01*
X85516459Y-58801983D01*
X85516446Y-58801990D01*
X85368965Y-58900535D01*
X85368961Y-58900538D01*
X85243538Y-59025961D01*
X85243535Y-59025965D01*
X85144985Y-59173455D01*
X85089031Y-59308540D01*
X85084398Y-59315472D01*
X85083302Y-59320514D01*
X85062151Y-59348768D01*
X85052576Y-59358343D01*
X84991253Y-59391828D01*
X84921561Y-59386844D01*
X84865628Y-59344972D01*
X84849540Y-59316150D01*
X84834361Y-59277658D01*
X84742922Y-59157077D01*
X84622343Y-59065639D01*
X84481561Y-59010122D01*
X84435926Y-59004642D01*
X84393102Y-58999500D01*
X84393097Y-58999500D01*
X84009255Y-58999500D01*
X83942216Y-58979815D01*
X83896461Y-58927011D01*
X83886517Y-58857853D01*
X83915542Y-58794297D01*
X83921574Y-58787819D01*
X85484715Y-57224676D01*
X93826056Y-57224676D01*
X93826056Y-57224707D01*
X93826847Y-57252263D01*
X93828498Y-57274574D01*
X93828648Y-57276504D01*
X93858049Y-57384851D01*
X93858050Y-57384855D01*
X93888427Y-57447774D01*
X93936992Y-57519904D01*
X93936994Y-57519906D01*
X93991213Y-57579839D01*
X94021819Y-57609271D01*
X94021823Y-57609275D01*
X94021829Y-57609280D01*
X94048220Y-57631341D01*
X94061749Y-57642017D01*
X94062394Y-57642332D01*
X94064000Y-57643587D01*
X94126993Y-57673941D01*
X94162595Y-57691361D01*
X94162598Y-57691361D01*
X94162713Y-57691418D01*
X94164214Y-57691978D01*
X94164215Y-57691978D01*
X94165134Y-57692319D01*
X94165141Y-57692323D01*
X94197070Y-57700960D01*
X94197704Y-57701135D01*
X94229531Y-57709996D01*
X94229533Y-57709996D01*
X94229536Y-57709997D01*
X94297628Y-57718810D01*
X94315767Y-57721158D01*
X99598691Y-57646750D01*
X99609007Y-57646271D01*
X99618339Y-57645840D01*
X99618987Y-57645788D01*
X99634264Y-57644587D01*
X99737239Y-57617908D01*
X99800791Y-57588877D01*
X99821460Y-57575591D01*
X99873931Y-57541864D01*
X99873933Y-57541862D01*
X99873933Y-57541861D01*
X99873936Y-57541860D01*
X100116932Y-57331263D01*
X100150823Y-57296835D01*
X100175962Y-57266892D01*
X100189900Y-57248979D01*
X100237649Y-57147368D01*
X100255239Y-57079749D01*
X100264931Y-56993335D01*
X100105545Y-51871701D01*
X100104689Y-51856458D01*
X100103685Y-51844104D01*
X100102067Y-51828910D01*
X99830596Y-49770258D01*
X110708500Y-49770258D01*
X110708500Y-49999741D01*
X110733446Y-50189215D01*
X110738452Y-50227238D01*
X110769754Y-50344059D01*
X110797842Y-50448887D01*
X110885650Y-50660876D01*
X110885657Y-50660890D01*
X111000392Y-50859617D01*
X111140081Y-51041661D01*
X111140089Y-51041670D01*
X111302330Y-51203911D01*
X111302338Y-51203918D01*
X111302339Y-51203919D01*
X111304896Y-51205881D01*
X111484382Y-51343607D01*
X111484385Y-51343608D01*
X111484388Y-51343611D01*
X111683112Y-51458344D01*
X111683117Y-51458346D01*
X111683123Y-51458349D01*
X111723388Y-51475027D01*
X111895113Y-51546158D01*
X112116762Y-51605548D01*
X112344266Y-51635500D01*
X112344273Y-51635500D01*
X112573727Y-51635500D01*
X112573734Y-51635500D01*
X112801238Y-51605548D01*
X113022887Y-51546158D01*
X113234888Y-51458344D01*
X113433612Y-51343611D01*
X113615661Y-51203919D01*
X113615665Y-51203914D01*
X113615670Y-51203911D01*
X113777911Y-51041670D01*
X113777914Y-51041665D01*
X113777919Y-51041661D01*
X113917611Y-50859612D01*
X114032344Y-50660888D01*
X114120158Y-50448887D01*
X114179548Y-50227238D01*
X114209500Y-49999734D01*
X114209500Y-49770266D01*
X114209499Y-49770258D01*
X135218500Y-49770258D01*
X135218500Y-49999741D01*
X135243446Y-50189215D01*
X135248452Y-50227238D01*
X135279754Y-50344059D01*
X135307842Y-50448887D01*
X135395650Y-50660876D01*
X135395657Y-50660890D01*
X135510392Y-50859617D01*
X135650081Y-51041661D01*
X135650089Y-51041670D01*
X135812330Y-51203911D01*
X135812338Y-51203918D01*
X135812339Y-51203919D01*
X135814896Y-51205881D01*
X135994382Y-51343607D01*
X135994385Y-51343608D01*
X135994388Y-51343611D01*
X136193112Y-51458344D01*
X136193117Y-51458346D01*
X136193123Y-51458349D01*
X136233388Y-51475027D01*
X136405113Y-51546158D01*
X136626762Y-51605548D01*
X136854266Y-51635500D01*
X136854273Y-51635500D01*
X137083727Y-51635500D01*
X137083734Y-51635500D01*
X137311238Y-51605548D01*
X137532887Y-51546158D01*
X137744888Y-51458344D01*
X137943612Y-51343611D01*
X138125661Y-51203919D01*
X138125665Y-51203914D01*
X138125670Y-51203911D01*
X138287911Y-51041670D01*
X138287914Y-51041665D01*
X138287919Y-51041661D01*
X138427611Y-50859612D01*
X138542344Y-50660888D01*
X138630158Y-50448887D01*
X138689548Y-50227238D01*
X138719500Y-49999734D01*
X138719500Y-49770266D01*
X138689548Y-49542762D01*
X138630158Y-49321113D01*
X138542344Y-49109112D01*
X138427611Y-48910388D01*
X138427608Y-48910385D01*
X138427607Y-48910382D01*
X138287918Y-48728338D01*
X138287911Y-48728330D01*
X138125670Y-48566089D01*
X138125661Y-48566081D01*
X137943617Y-48426392D01*
X137744890Y-48311657D01*
X137744876Y-48311650D01*
X137532887Y-48223842D01*
X137471897Y-48207500D01*
X137311238Y-48164452D01*
X137273215Y-48159446D01*
X137083741Y-48134500D01*
X137083734Y-48134500D01*
X136854266Y-48134500D01*
X136854258Y-48134500D01*
X136637715Y-48163009D01*
X136626762Y-48164452D01*
X136533076Y-48189554D01*
X136405112Y-48223842D01*
X136193123Y-48311650D01*
X136193109Y-48311657D01*
X135994382Y-48426392D01*
X135812338Y-48566081D01*
X135650081Y-48728338D01*
X135510392Y-48910382D01*
X135395657Y-49109109D01*
X135395650Y-49109123D01*
X135307842Y-49321112D01*
X135248453Y-49542759D01*
X135248451Y-49542770D01*
X135218500Y-49770258D01*
X114209499Y-49770258D01*
X114179548Y-49542762D01*
X114120158Y-49321113D01*
X114032344Y-49109112D01*
X113917611Y-48910388D01*
X113917608Y-48910385D01*
X113917607Y-48910382D01*
X113777918Y-48728338D01*
X113777911Y-48728330D01*
X113615670Y-48566089D01*
X113615661Y-48566081D01*
X113433617Y-48426392D01*
X113234890Y-48311657D01*
X113234876Y-48311650D01*
X113022887Y-48223842D01*
X112961897Y-48207500D01*
X112801238Y-48164452D01*
X112763215Y-48159446D01*
X112573741Y-48134500D01*
X112573734Y-48134500D01*
X112344266Y-48134500D01*
X112344258Y-48134500D01*
X112127715Y-48163009D01*
X112116762Y-48164452D01*
X112023076Y-48189554D01*
X111895112Y-48223842D01*
X111683123Y-48311650D01*
X111683109Y-48311657D01*
X111484382Y-48426392D01*
X111302338Y-48566081D01*
X111140081Y-48728338D01*
X111000392Y-48910382D01*
X110885657Y-49109109D01*
X110885650Y-49109123D01*
X110797842Y-49321112D01*
X110738453Y-49542759D01*
X110738451Y-49542770D01*
X110708500Y-49770258D01*
X99830596Y-49770258D01*
X99795229Y-49502061D01*
X99805980Y-49433027D01*
X99852349Y-49380761D01*
X99919614Y-49361861D01*
X99986419Y-49382328D01*
X100023703Y-49420755D01*
X100057682Y-49475843D01*
X100181654Y-49599815D01*
X100330875Y-49691856D01*
X100330880Y-49691858D01*
X100497302Y-49747005D01*
X100497309Y-49747006D01*
X100600019Y-49757499D01*
X101449999Y-49757499D01*
X101450000Y-49757498D01*
X101450000Y-48557501D01*
X101510402Y-48582521D01*
X101635981Y-48607500D01*
X101764019Y-48607500D01*
X101889598Y-48582521D01*
X101950000Y-48557501D01*
X101950000Y-49757499D01*
X102799972Y-49757499D01*
X102799986Y-49757498D01*
X102902697Y-49747005D01*
X103069119Y-49691858D01*
X103069124Y-49691856D01*
X103119688Y-49660668D01*
X103218345Y-49599815D01*
X103342315Y-49475845D01*
X103434356Y-49326624D01*
X103434358Y-49326619D01*
X103489505Y-49160197D01*
X103489506Y-49160190D01*
X103499999Y-49057486D01*
X103500000Y-49057473D01*
X103500000Y-48207500D01*
X102300001Y-48207500D01*
X102325021Y-48147098D01*
X102350000Y-48021519D01*
X102350000Y-47893481D01*
X102325021Y-47767902D01*
X102300001Y-47707500D01*
X103499999Y-47707500D01*
X103499999Y-46857528D01*
X103499998Y-46857513D01*
X103489505Y-46754802D01*
X103434358Y-46588380D01*
X103434356Y-46588375D01*
X103342315Y-46439154D01*
X103218345Y-46315184D01*
X103069124Y-46223143D01*
X103069119Y-46223141D01*
X102902697Y-46167994D01*
X102902690Y-46167993D01*
X102799986Y-46157500D01*
X101950000Y-46157500D01*
X101950000Y-47357498D01*
X101889598Y-47332479D01*
X101764019Y-47307500D01*
X101635981Y-47307500D01*
X101510402Y-47332479D01*
X101450000Y-47357498D01*
X101450000Y-46157500D01*
X100600028Y-46157500D01*
X100600012Y-46157501D01*
X100497302Y-46167994D01*
X100330880Y-46223141D01*
X100330875Y-46223143D01*
X100181654Y-46315184D01*
X100057684Y-46439154D01*
X99965643Y-46588375D01*
X99965641Y-46588380D01*
X99910494Y-46754802D01*
X99910493Y-46754809D01*
X99900000Y-46857513D01*
X99900000Y-47707500D01*
X101099999Y-47707500D01*
X101074979Y-47767902D01*
X101050000Y-47893481D01*
X101050000Y-48021519D01*
X101074979Y-48147098D01*
X101099999Y-48207500D01*
X99900001Y-48207500D01*
X99900001Y-48407769D01*
X99880316Y-48474808D01*
X99827512Y-48520563D01*
X99758354Y-48530507D01*
X99694798Y-48501482D01*
X99657024Y-48442704D01*
X99653065Y-48423980D01*
X99524972Y-47452612D01*
X99507182Y-47317705D01*
X99486785Y-47241307D01*
X99462546Y-47182452D01*
X99423227Y-47113850D01*
X98131124Y-45414973D01*
X98093491Y-45373886D01*
X98060169Y-45343586D01*
X98036918Y-45324450D01*
X98036917Y-45324449D01*
X98036914Y-45324447D01*
X97936045Y-45275158D01*
X97868702Y-45256540D01*
X97868703Y-45256540D01*
X97782457Y-45245533D01*
X97782433Y-45245532D01*
X96388687Y-45267655D01*
X96299341Y-45269074D01*
X96299338Y-45269074D01*
X96299322Y-45269075D01*
X96229475Y-45278314D01*
X96229465Y-45278315D01*
X96229464Y-45278316D01*
X96229462Y-45278316D01*
X96229449Y-45278319D01*
X96174355Y-45292217D01*
X96174353Y-45292218D01*
X96108459Y-45317227D01*
X94173675Y-46320448D01*
X94173664Y-46320455D01*
X94112525Y-46362273D01*
X94067704Y-46401700D01*
X94067701Y-46401703D01*
X94033918Y-46436556D01*
X93979553Y-46534791D01*
X93957533Y-46601089D01*
X93942148Y-46686671D01*
X93894778Y-48036690D01*
X93894619Y-48043215D01*
X93894548Y-48048412D01*
X93894529Y-48055056D01*
X93919473Y-51322779D01*
X93919466Y-51325395D01*
X93902341Y-52596698D01*
X93902335Y-52597072D01*
X93826056Y-57224676D01*
X85484715Y-57224676D01*
X85573022Y-57136369D01*
X85601573Y-57107818D01*
X85662896Y-57074333D01*
X85689254Y-57071499D01*
X88644856Y-57071499D01*
X88644864Y-57071499D01*
X88644879Y-57071497D01*
X88644882Y-57071497D01*
X88669987Y-57068586D01*
X88669988Y-57068585D01*
X88669991Y-57068585D01*
X88772765Y-57023206D01*
X88852206Y-56943765D01*
X88897585Y-56840991D01*
X88900500Y-56815865D01*
X88900499Y-55756136D01*
X88900497Y-55756117D01*
X88897586Y-55731012D01*
X88897585Y-55731010D01*
X88897585Y-55731009D01*
X88852206Y-55628235D01*
X88772765Y-55548794D01*
X88720847Y-55525870D01*
X88669992Y-55503415D01*
X88644865Y-55500500D01*
X85535143Y-55500500D01*
X85535117Y-55500502D01*
X85510012Y-55503413D01*
X85510008Y-55503415D01*
X85407235Y-55548793D01*
X85327794Y-55628234D01*
X85282415Y-55731006D01*
X85282415Y-55731008D01*
X85279500Y-55756131D01*
X85279500Y-56245745D01*
X85259815Y-56312784D01*
X85243181Y-56333426D01*
X82599145Y-58977461D01*
X82537822Y-59010946D01*
X82489570Y-59010142D01*
X82489459Y-59011071D01*
X82478795Y-59009790D01*
X82393102Y-58999500D01*
X81606898Y-58999500D01*
X81567853Y-59004188D01*
X81518438Y-59010122D01*
X81377656Y-59065639D01*
X81257077Y-59157077D01*
X81165639Y-59277656D01*
X81110122Y-59418438D01*
X81106013Y-59452658D01*
X81099500Y-59506898D01*
X81099500Y-60493102D01*
X81104424Y-60534103D01*
X81110122Y-60581561D01*
X81110122Y-60581563D01*
X81110123Y-60581564D01*
X81117196Y-60599500D01*
X81165639Y-60722343D01*
X81257077Y-60842922D01*
X81377656Y-60934360D01*
X81377657Y-60934360D01*
X81377658Y-60934361D01*
X81518436Y-60989877D01*
X81606898Y-61000500D01*
X82075745Y-61000500D01*
X82142784Y-61020185D01*
X82163426Y-61036819D01*
X82773087Y-61646480D01*
X82864412Y-61699207D01*
X82966273Y-61726500D01*
X83071727Y-61726500D01*
X84458745Y-61726500D01*
X84525784Y-61746185D01*
X84546426Y-61762819D01*
X87921425Y-65137818D01*
X87954910Y-65199141D01*
X87949926Y-65268833D01*
X87908054Y-65324766D01*
X87842590Y-65349183D01*
X87833744Y-65349499D01*
X87646533Y-65349499D01*
X87443585Y-65389868D01*
X87443575Y-65389871D01*
X87252408Y-65469054D01*
X87252395Y-65469061D01*
X87080345Y-65584022D01*
X87080341Y-65584025D01*
X86449867Y-66214501D01*
X86370347Y-66294021D01*
X86370345Y-66294023D01*
X86321815Y-66342553D01*
X86224023Y-66440344D01*
X86109058Y-66612403D01*
X86029870Y-66803579D01*
X86029868Y-66803587D01*
X85989500Y-67006530D01*
X85989500Y-67804500D01*
X85969815Y-67871539D01*
X85917011Y-67917294D01*
X85865500Y-67928500D01*
X85535143Y-67928500D01*
X85535117Y-67928502D01*
X85510012Y-67931413D01*
X85510008Y-67931415D01*
X85407235Y-67976793D01*
X85327794Y-68056234D01*
X85282415Y-68159006D01*
X85282415Y-68159008D01*
X85279500Y-68184131D01*
X85279500Y-69243856D01*
X85279502Y-69243882D01*
X85282413Y-69268987D01*
X85282415Y-69268991D01*
X85327793Y-69371764D01*
X85327794Y-69371765D01*
X85407235Y-69451206D01*
X85510009Y-69496585D01*
X85535135Y-69499500D01*
X86263504Y-69499499D01*
X86330543Y-69519183D01*
X86351185Y-69535818D01*
X86370342Y-69554975D01*
X86370345Y-69554977D01*
X86542402Y-69669941D01*
X86733580Y-69749130D01*
X86936530Y-69789499D01*
X86936534Y-69789500D01*
X86936535Y-69789500D01*
X87143466Y-69789500D01*
X87143467Y-69789499D01*
X87346420Y-69749130D01*
X87537598Y-69669941D01*
X87709655Y-69554977D01*
X87728814Y-69535818D01*
X87790137Y-69502333D01*
X87816495Y-69499499D01*
X88574500Y-69499499D01*
X88641539Y-69519184D01*
X88687294Y-69571988D01*
X88698500Y-69623499D01*
X88698500Y-72376500D01*
X88678815Y-72443539D01*
X88626011Y-72489294D01*
X88574500Y-72500500D01*
X85535143Y-72500500D01*
X85535117Y-72500502D01*
X85510012Y-72503413D01*
X85510008Y-72503415D01*
X85407235Y-72548793D01*
X85327794Y-72628234D01*
X85282415Y-72731006D01*
X85282415Y-72731008D01*
X85279500Y-72756131D01*
X85279500Y-73027744D01*
X85259815Y-73094783D01*
X85243181Y-73115425D01*
X82395426Y-75963181D01*
X82334103Y-75996666D01*
X82307745Y-75999500D01*
X81606898Y-75999500D01*
X81567853Y-76004188D01*
X81518438Y-76010122D01*
X81377656Y-76065639D01*
X81257077Y-76157077D01*
X81165639Y-76277656D01*
X81110122Y-76418438D01*
X81104188Y-76467853D01*
X81099500Y-76506898D01*
X81099500Y-77493102D01*
X81100563Y-77501952D01*
X81110122Y-77581561D01*
X81110122Y-77581563D01*
X81110123Y-77581564D01*
X81115354Y-77594829D01*
X81165639Y-77722343D01*
X81257077Y-77842922D01*
X81377656Y-77934360D01*
X81377657Y-77934360D01*
X81377658Y-77934361D01*
X81518436Y-77989877D01*
X81606898Y-78000500D01*
X81807745Y-78000500D01*
X81874784Y-78020185D01*
X81895426Y-78036819D01*
X82805087Y-78946480D01*
X82896412Y-78999207D01*
X82998273Y-79026500D01*
X84359325Y-79026500D01*
X84426364Y-79046185D01*
X84447006Y-79062819D01*
X87672006Y-82287819D01*
X87705491Y-82349142D01*
X87700507Y-82418834D01*
X87658635Y-82474767D01*
X87593171Y-82499184D01*
X87584325Y-82499500D01*
X87496533Y-82499500D01*
X87293585Y-82539869D01*
X87293575Y-82539872D01*
X87102408Y-82619055D01*
X87102395Y-82619062D01*
X86930345Y-82734023D01*
X86930341Y-82734026D01*
X86494332Y-83170036D01*
X86077348Y-83587020D01*
X86077345Y-83587023D01*
X86034495Y-83629873D01*
X85931023Y-83733344D01*
X85816058Y-83905403D01*
X85736870Y-84096579D01*
X85736868Y-84096587D01*
X85696500Y-84299530D01*
X85696500Y-84804500D01*
X85676815Y-84871539D01*
X85624011Y-84917294D01*
X85572503Y-84928500D01*
X85535144Y-84928500D01*
X85535118Y-84928502D01*
X85510011Y-84931414D01*
X85510008Y-84931415D01*
X85407235Y-84976793D01*
X85327794Y-85056234D01*
X85282415Y-85159006D01*
X85282415Y-85159008D01*
X85279500Y-85184131D01*
X85279500Y-86243856D01*
X85279502Y-86243882D01*
X85282413Y-86268987D01*
X85282415Y-86268991D01*
X85327793Y-86371764D01*
X85327794Y-86371765D01*
X85407235Y-86451206D01*
X85510009Y-86496585D01*
X85535135Y-86499500D01*
X88644864Y-86499499D01*
X88644879Y-86499497D01*
X88644882Y-86499497D01*
X88669987Y-86496586D01*
X88669988Y-86496585D01*
X88669991Y-86496585D01*
X88772765Y-86451206D01*
X88852206Y-86371765D01*
X88897585Y-86268991D01*
X88900500Y-86243865D01*
X88900499Y-85184136D01*
X88900252Y-85182006D01*
X88897586Y-85159012D01*
X88897585Y-85159010D01*
X88897585Y-85159009D01*
X88852206Y-85056235D01*
X88772765Y-84976794D01*
X88772763Y-84976793D01*
X88669992Y-84931415D01*
X88644868Y-84928500D01*
X88644865Y-84928500D01*
X88006493Y-84928500D01*
X87939454Y-84908815D01*
X87893699Y-84856011D01*
X87883755Y-84786853D01*
X87912780Y-84723297D01*
X87918812Y-84716819D01*
X88415973Y-84219658D01*
X88415976Y-84219655D01*
X88530941Y-84047598D01*
X88610129Y-83856420D01*
X88634611Y-83733344D01*
X88650500Y-83653467D01*
X88650500Y-83565675D01*
X88670185Y-83498636D01*
X88722989Y-83452881D01*
X88792147Y-83442937D01*
X88855703Y-83471962D01*
X88862181Y-83477994D01*
X94775067Y-89390880D01*
X94808552Y-89452203D01*
X94803568Y-89521895D01*
X94787704Y-89551446D01*
X94713770Y-89653207D01*
X94635128Y-89807552D01*
X94581597Y-89972302D01*
X94554500Y-90143389D01*
X94554500Y-90316611D01*
X94560990Y-90357585D01*
X94571407Y-90423361D01*
X94581598Y-90487701D01*
X94635127Y-90652445D01*
X94713768Y-90806788D01*
X94815586Y-90946928D01*
X94938072Y-91069414D01*
X95078212Y-91171232D01*
X95232555Y-91249873D01*
X95316613Y-91277185D01*
X95374289Y-91316623D01*
X95401487Y-91380981D01*
X95389572Y-91449828D01*
X95342328Y-91501303D01*
X95316614Y-91513047D01*
X95155968Y-91565244D01*
X94973644Y-91658143D01*
X94929077Y-91690523D01*
X94929077Y-91690524D01*
X95608554Y-92370000D01*
X95602339Y-92370000D01*
X95500606Y-92397259D01*
X95409394Y-92449920D01*
X95334920Y-92524394D01*
X95282259Y-92615606D01*
X95255000Y-92717339D01*
X95255000Y-92723553D01*
X94575524Y-92044077D01*
X94575523Y-92044077D01*
X94543143Y-92088644D01*
X94450244Y-92270968D01*
X94387009Y-92465582D01*
X94355000Y-92667682D01*
X94355000Y-92872317D01*
X94387009Y-93074417D01*
X94450244Y-93269031D01*
X94543141Y-93451350D01*
X94543147Y-93451359D01*
X94575523Y-93495921D01*
X94575524Y-93495922D01*
X95255000Y-92816446D01*
X95255000Y-92822661D01*
X95282259Y-92924394D01*
X95334920Y-93015606D01*
X95409394Y-93090080D01*
X95500606Y-93142741D01*
X95602339Y-93170000D01*
X95608553Y-93170000D01*
X94929076Y-93849474D01*
X94973650Y-93881859D01*
X95155970Y-93974755D01*
X95316613Y-94026952D01*
X95374289Y-94066390D01*
X95401487Y-94130748D01*
X95389572Y-94199595D01*
X95342328Y-94251070D01*
X95316615Y-94262814D01*
X95232549Y-94290129D01*
X95078211Y-94368768D01*
X95002145Y-94424034D01*
X94938072Y-94470586D01*
X94938070Y-94470588D01*
X94938069Y-94470588D01*
X94815588Y-94593069D01*
X94815588Y-94593070D01*
X94815586Y-94593072D01*
X94775671Y-94648010D01*
X94713768Y-94733211D01*
X94635128Y-94887552D01*
X94581597Y-95052302D01*
X94554500Y-95223389D01*
X94554500Y-95396611D01*
X94554499Y-95396611D01*
X94581344Y-95566102D01*
X94572389Y-95635395D01*
X94527393Y-95688847D01*
X94460641Y-95709486D01*
X94458871Y-95709499D01*
X85721942Y-95709499D01*
X85700696Y-95703260D01*
X85678609Y-95701681D01*
X85667825Y-95693608D01*
X85654903Y-95689814D01*
X85640404Y-95673082D01*
X85622675Y-95659810D01*
X85617967Y-95647187D01*
X85609148Y-95637010D01*
X85605996Y-95615094D01*
X85598258Y-95594346D01*
X85601121Y-95581184D01*
X85599204Y-95567852D01*
X85608403Y-95547707D01*
X85613110Y-95526073D01*
X85626379Y-95508345D01*
X85628229Y-95504296D01*
X85634260Y-95497818D01*
X85670927Y-95461151D01*
X85746789Y-95385289D01*
X86401232Y-94730844D01*
X86441454Y-94703968D01*
X86576547Y-94648013D01*
X86724035Y-94549464D01*
X86849464Y-94424035D01*
X86948013Y-94276547D01*
X87015894Y-94112666D01*
X87018943Y-94097342D01*
X87050499Y-93938695D01*
X87050500Y-93938693D01*
X87050500Y-93761306D01*
X87050499Y-93761304D01*
X87015896Y-93587341D01*
X87015893Y-93587332D01*
X87006838Y-93565472D01*
X86982577Y-93506898D01*
X86948016Y-93423459D01*
X86948009Y-93423446D01*
X86849464Y-93275965D01*
X86849461Y-93275961D01*
X86724038Y-93150538D01*
X86724034Y-93150535D01*
X86576553Y-93051990D01*
X86576540Y-93051983D01*
X86412667Y-92984106D01*
X86412658Y-92984103D01*
X86238694Y-92949500D01*
X86238691Y-92949500D01*
X86061309Y-92949500D01*
X86061306Y-92949500D01*
X85887341Y-92984103D01*
X85887332Y-92984106D01*
X85723459Y-93051983D01*
X85723446Y-93051990D01*
X85575965Y-93150535D01*
X85575961Y-93150538D01*
X85450538Y-93275961D01*
X85450535Y-93275965D01*
X85351985Y-93423455D01*
X85296032Y-93558540D01*
X85291399Y-93565472D01*
X85290303Y-93570514D01*
X85269152Y-93598768D01*
X85212680Y-93655240D01*
X85151357Y-93688725D01*
X85081665Y-93683741D01*
X85037318Y-93655240D01*
X84932394Y-93550316D01*
X84898909Y-93488993D01*
X84896962Y-93477436D01*
X84889877Y-93418436D01*
X84834361Y-93277658D01*
X84834360Y-93277657D01*
X84834360Y-93277656D01*
X84742922Y-93157077D01*
X84622343Y-93065639D01*
X84481561Y-93010122D01*
X84429709Y-93003896D01*
X84393102Y-92999500D01*
X83866254Y-92999500D01*
X83799215Y-92979815D01*
X83753460Y-92927011D01*
X83743516Y-92857853D01*
X83772541Y-92794297D01*
X83778573Y-92787819D01*
X83991257Y-92575135D01*
X84717396Y-91848996D01*
X85458575Y-91107816D01*
X85519896Y-91074333D01*
X85546244Y-91071499D01*
X88644864Y-91071499D01*
X88644879Y-91071497D01*
X88644882Y-91071497D01*
X88669987Y-91068586D01*
X88669988Y-91068585D01*
X88669991Y-91068585D01*
X88772765Y-91023206D01*
X88852206Y-90943765D01*
X88897585Y-90840991D01*
X88900500Y-90815865D01*
X88900499Y-89756136D01*
X88898956Y-89742829D01*
X88897586Y-89731012D01*
X88897585Y-89731010D01*
X88897585Y-89731009D01*
X88852206Y-89628235D01*
X88772765Y-89548794D01*
X88733736Y-89531561D01*
X88669992Y-89503415D01*
X88644868Y-89500500D01*
X88644865Y-89500500D01*
X86956822Y-89500500D01*
X86910297Y-89488017D01*
X86909102Y-89490905D01*
X86901592Y-89487795D01*
X86901589Y-89487794D01*
X86901587Y-89487793D01*
X86799727Y-89460500D01*
X86694273Y-89460500D01*
X86592413Y-89487792D01*
X86584912Y-89490900D01*
X86583731Y-89488050D01*
X86537179Y-89500500D01*
X85535143Y-89500500D01*
X85535117Y-89500502D01*
X85510012Y-89503413D01*
X85510008Y-89503415D01*
X85407235Y-89548793D01*
X85327794Y-89628234D01*
X85282415Y-89731006D01*
X85282415Y-89731008D01*
X85279500Y-89756131D01*
X85279500Y-90102744D01*
X85259815Y-90169783D01*
X85243181Y-90190425D01*
X82470425Y-92963181D01*
X82409102Y-92996666D01*
X82382744Y-92999500D01*
X81606898Y-92999500D01*
X81570291Y-93003896D01*
X81518438Y-93010122D01*
X81377656Y-93065639D01*
X81257077Y-93157077D01*
X81165639Y-93277656D01*
X81110122Y-93418438D01*
X81106169Y-93451359D01*
X81099500Y-93506898D01*
X81099500Y-94493102D01*
X81102309Y-94516492D01*
X81110122Y-94581561D01*
X81110122Y-94581563D01*
X81110123Y-94581564D01*
X81114661Y-94593072D01*
X81165639Y-94722343D01*
X81257077Y-94842922D01*
X81377656Y-94934360D01*
X81377657Y-94934360D01*
X81377658Y-94934361D01*
X81518436Y-94989877D01*
X81533128Y-94991641D01*
X81597344Y-95019176D01*
X81625735Y-95052756D01*
X81626793Y-95054588D01*
X81679520Y-95145913D01*
X82964086Y-96430479D01*
X83055411Y-96483206D01*
X83157272Y-96510499D01*
X83157274Y-96510499D01*
X94905456Y-96510499D01*
X94972495Y-96530184D01*
X95018250Y-96582988D01*
X95028194Y-96652146D01*
X94999169Y-96715702D01*
X94977014Y-96734480D01*
X94977592Y-96735276D01*
X94929077Y-96770523D01*
X94929077Y-96770524D01*
X95608554Y-97450000D01*
X95602339Y-97450000D01*
X95500606Y-97477259D01*
X95409394Y-97529920D01*
X95334920Y-97604394D01*
X95282259Y-97695606D01*
X95255000Y-97797339D01*
X95255000Y-97803553D01*
X94575524Y-97124077D01*
X94575523Y-97124077D01*
X94543143Y-97168644D01*
X94450244Y-97350968D01*
X94387009Y-97545582D01*
X94355000Y-97747682D01*
X94355000Y-97952317D01*
X94387009Y-98154417D01*
X94450244Y-98349031D01*
X94543140Y-98531349D01*
X94631245Y-98652614D01*
X94654725Y-98718420D01*
X94638900Y-98786474D01*
X94588794Y-98835169D01*
X94530927Y-98849500D01*
X52956962Y-98849500D01*
X52943078Y-98848720D01*
X52930553Y-98847308D01*
X52852735Y-98838540D01*
X52825666Y-98832362D01*
X52746462Y-98804648D01*
X52721444Y-98792600D01*
X52650395Y-98747957D01*
X52628686Y-98730644D01*
X52569355Y-98671313D01*
X52552042Y-98649604D01*
X52507399Y-98578555D01*
X52495351Y-98553537D01*
X52487587Y-98531349D01*
X52467636Y-98474331D01*
X52461459Y-98447263D01*
X52460990Y-98443102D01*
X52451280Y-98356922D01*
X52450500Y-98343038D01*
X52450500Y-96174038D01*
X53399500Y-96174038D01*
X53399500Y-96425962D01*
X53424371Y-96582988D01*
X53438910Y-96674785D01*
X53516760Y-96914383D01*
X53574477Y-97027658D01*
X53623605Y-97124077D01*
X53631132Y-97138848D01*
X53779201Y-97342649D01*
X53779205Y-97342654D01*
X53957345Y-97520794D01*
X53957350Y-97520798D01*
X53991463Y-97545582D01*
X54161155Y-97668870D01*
X54304184Y-97741747D01*
X54385616Y-97783239D01*
X54385618Y-97783239D01*
X54385621Y-97783241D01*
X54625215Y-97861090D01*
X54874038Y-97900500D01*
X54874039Y-97900500D01*
X55125961Y-97900500D01*
X55125962Y-97900500D01*
X55374785Y-97861090D01*
X55614379Y-97783241D01*
X55838845Y-97668870D01*
X56042656Y-97520793D01*
X56220793Y-97342656D01*
X56368870Y-97138845D01*
X56483241Y-96914379D01*
X56561090Y-96674785D01*
X56600500Y-96425962D01*
X56600500Y-96174038D01*
X56561090Y-95925215D01*
X56483241Y-95685621D01*
X56483239Y-95685618D01*
X56483239Y-95685616D01*
X56390851Y-95504296D01*
X56368870Y-95461155D01*
X56321976Y-95396611D01*
X56220798Y-95257350D01*
X56220794Y-95257345D01*
X56042654Y-95079205D01*
X56042649Y-95079201D01*
X55838848Y-94931132D01*
X55838847Y-94931131D01*
X55838845Y-94931130D01*
X55753318Y-94887552D01*
X55614383Y-94816760D01*
X55374785Y-94738910D01*
X55125962Y-94699500D01*
X54874038Y-94699500D01*
X54786240Y-94713406D01*
X54625214Y-94738910D01*
X54385616Y-94816760D01*
X54161151Y-94931132D01*
X53957350Y-95079201D01*
X53957345Y-95079205D01*
X53779205Y-95257345D01*
X53779201Y-95257350D01*
X53631132Y-95461151D01*
X53516760Y-95685616D01*
X53438910Y-95925214D01*
X53438910Y-95925215D01*
X53399500Y-96174038D01*
X52450500Y-96174038D01*
X52450500Y-89681902D01*
X58357000Y-89681902D01*
X58357000Y-89918097D01*
X58393946Y-90151368D01*
X58466933Y-90375996D01*
X58534285Y-90508180D01*
X58574157Y-90586433D01*
X58712983Y-90777510D01*
X58879990Y-90944517D01*
X59071067Y-91083343D01*
X59167708Y-91132584D01*
X59281503Y-91190566D01*
X59281505Y-91190566D01*
X59281508Y-91190568D01*
X59377461Y-91221745D01*
X59506131Y-91263553D01*
X59739403Y-91300500D01*
X59739408Y-91300500D01*
X59821007Y-91300500D01*
X59888046Y-91320185D01*
X59908688Y-91336819D01*
X60439397Y-91867528D01*
X60439426Y-91867559D01*
X60588842Y-92016975D01*
X60588845Y-92016977D01*
X60760902Y-92131941D01*
X60952080Y-92211130D01*
X61155030Y-92251499D01*
X61155034Y-92251500D01*
X61155035Y-92251500D01*
X70302466Y-92251500D01*
X70302467Y-92251499D01*
X70505420Y-92211130D01*
X70696598Y-92131941D01*
X70757117Y-92091504D01*
X70757118Y-92091504D01*
X70840297Y-92035924D01*
X70868655Y-92016977D01*
X71014977Y-91870655D01*
X71014977Y-91870653D01*
X71025185Y-91860446D01*
X71025186Y-91860443D01*
X72898813Y-89986819D01*
X72960136Y-89953334D01*
X72986494Y-89950500D01*
X74443097Y-89950500D01*
X74443102Y-89950500D01*
X74531564Y-89939877D01*
X74672342Y-89884361D01*
X74792922Y-89792922D01*
X74884361Y-89672342D01*
X74939877Y-89531564D01*
X74950500Y-89443102D01*
X74950500Y-88749500D01*
X74970185Y-88682461D01*
X75022989Y-88636706D01*
X75074500Y-88625500D01*
X76975501Y-88625500D01*
X77042540Y-88645185D01*
X77088295Y-88697989D01*
X77099501Y-88749500D01*
X77099501Y-90879856D01*
X77099502Y-90879882D01*
X77102413Y-90904987D01*
X77102415Y-90904991D01*
X77147793Y-91007764D01*
X77147794Y-91007765D01*
X77227235Y-91087206D01*
X77330009Y-91132585D01*
X77355135Y-91135500D01*
X83764864Y-91135499D01*
X83764879Y-91135497D01*
X83764882Y-91135497D01*
X83789987Y-91132586D01*
X83789988Y-91132585D01*
X83789991Y-91132585D01*
X83892765Y-91087206D01*
X83972206Y-91007765D01*
X84017585Y-90904991D01*
X84020500Y-90879865D01*
X84020499Y-85120136D01*
X84020497Y-85120117D01*
X84017586Y-85095012D01*
X84017585Y-85095010D01*
X84017585Y-85095009D01*
X83972206Y-84992235D01*
X83892765Y-84912794D01*
X83846353Y-84892301D01*
X83789992Y-84867415D01*
X83764865Y-84864500D01*
X77355143Y-84864500D01*
X77355117Y-84864502D01*
X77330012Y-84867413D01*
X77330008Y-84867415D01*
X77227235Y-84912793D01*
X77147794Y-84992234D01*
X77102415Y-85095006D01*
X77102415Y-85095008D01*
X77099500Y-85120131D01*
X77099500Y-86400500D01*
X77079815Y-86467539D01*
X77027011Y-86513294D01*
X76975500Y-86524500D01*
X75046380Y-86524500D01*
X74979341Y-86504815D01*
X74933586Y-86452011D01*
X74931026Y-86445990D01*
X74884362Y-86327660D01*
X74884361Y-86327658D01*
X74792922Y-86207077D01*
X74672343Y-86115639D01*
X74571805Y-86075992D01*
X74531564Y-86060123D01*
X74531563Y-86060122D01*
X74531561Y-86060122D01*
X74483981Y-86054409D01*
X74443102Y-86049500D01*
X72356898Y-86049500D01*
X72317853Y-86054188D01*
X72268438Y-86060122D01*
X72127656Y-86115639D01*
X72007077Y-86207077D01*
X71915639Y-86327656D01*
X71860122Y-86468438D01*
X71855754Y-86504815D01*
X71849500Y-86556898D01*
X71849500Y-86556903D01*
X71849500Y-88013506D01*
X71829815Y-88080545D01*
X71813181Y-88101187D01*
X69800188Y-90114181D01*
X69738865Y-90147666D01*
X69712507Y-90150500D01*
X68209523Y-90150500D01*
X68142484Y-90130815D01*
X68096729Y-90078011D01*
X68086785Y-90008853D01*
X68115810Y-89945297D01*
X68121842Y-89938819D01*
X68192315Y-89868345D01*
X68284356Y-89719124D01*
X68284358Y-89719119D01*
X68339505Y-89552697D01*
X68339506Y-89552690D01*
X68349999Y-89449986D01*
X68350000Y-89449973D01*
X68350000Y-88250000D01*
X64850001Y-88250000D01*
X64850001Y-89449986D01*
X64860494Y-89552697D01*
X64915641Y-89719119D01*
X64915643Y-89719124D01*
X65007684Y-89868345D01*
X65078158Y-89938819D01*
X65111643Y-90000142D01*
X65106659Y-90069834D01*
X65064787Y-90125767D01*
X64999323Y-90150184D01*
X64990477Y-90150500D01*
X61744993Y-90150500D01*
X61677954Y-90130815D01*
X61657312Y-90114181D01*
X61394319Y-89851188D01*
X61360834Y-89789865D01*
X61358000Y-89763507D01*
X61358000Y-89681902D01*
X61321053Y-89448631D01*
X61256513Y-89250000D01*
X61248068Y-89224008D01*
X61248066Y-89224005D01*
X61248066Y-89224003D01*
X61159661Y-89050500D01*
X61140843Y-89013567D01*
X61002017Y-88822490D01*
X60835010Y-88655483D01*
X60643933Y-88516657D01*
X60433496Y-88409433D01*
X60208868Y-88336446D01*
X59975597Y-88299500D01*
X59975592Y-88299500D01*
X59739408Y-88299500D01*
X59739403Y-88299500D01*
X59506131Y-88336446D01*
X59281503Y-88409433D01*
X59071066Y-88516657D01*
X58964051Y-88594409D01*
X58879990Y-88655483D01*
X58879988Y-88655485D01*
X58879987Y-88655485D01*
X58712985Y-88822487D01*
X58712985Y-88822488D01*
X58712983Y-88822490D01*
X58661811Y-88892922D01*
X58574157Y-89013566D01*
X58466933Y-89224003D01*
X58393946Y-89448631D01*
X58357000Y-89681902D01*
X52450500Y-89681902D01*
X52450500Y-85300014D01*
X58157500Y-85300014D01*
X58157500Y-86050000D01*
X59309018Y-86050000D01*
X59298389Y-86068409D01*
X59257500Y-86221009D01*
X59257500Y-86378991D01*
X59298389Y-86531591D01*
X59309018Y-86550000D01*
X58157500Y-86550000D01*
X58157500Y-87299985D01*
X58167993Y-87402689D01*
X58167994Y-87402696D01*
X58223141Y-87569118D01*
X58223143Y-87569123D01*
X58315184Y-87718344D01*
X58439155Y-87842315D01*
X58588376Y-87934356D01*
X58588381Y-87934358D01*
X58754803Y-87989505D01*
X58754810Y-87989506D01*
X58857514Y-87999999D01*
X58857527Y-88000000D01*
X59607500Y-88000000D01*
X59607500Y-86848482D01*
X59625909Y-86859111D01*
X59778509Y-86900000D01*
X59936491Y-86900000D01*
X60089091Y-86859111D01*
X60107500Y-86848482D01*
X60107500Y-88000000D01*
X60857473Y-88000000D01*
X60857485Y-87999999D01*
X60960189Y-87989506D01*
X60960196Y-87989505D01*
X61126618Y-87934358D01*
X61126623Y-87934356D01*
X61275844Y-87842315D01*
X61399815Y-87718344D01*
X61491856Y-87569123D01*
X61491858Y-87569118D01*
X61547005Y-87402696D01*
X61547006Y-87402689D01*
X61557499Y-87299985D01*
X61557500Y-87299972D01*
X61557500Y-86550013D01*
X64850000Y-86550013D01*
X64850000Y-87750000D01*
X66350000Y-87750000D01*
X66850000Y-87750000D01*
X68349999Y-87750000D01*
X68349999Y-86550028D01*
X68349998Y-86550013D01*
X68339505Y-86447302D01*
X68284358Y-86280880D01*
X68284356Y-86280875D01*
X68192315Y-86131654D01*
X68068345Y-86007684D01*
X67919124Y-85915643D01*
X67919119Y-85915641D01*
X67752697Y-85860494D01*
X67752690Y-85860493D01*
X67649986Y-85850000D01*
X66850000Y-85850000D01*
X66850000Y-87750000D01*
X66350000Y-87750000D01*
X66350000Y-85850000D01*
X65550028Y-85850000D01*
X65550012Y-85850001D01*
X65447302Y-85860494D01*
X65280880Y-85915641D01*
X65280875Y-85915643D01*
X65131654Y-86007684D01*
X65007684Y-86131654D01*
X64915643Y-86280875D01*
X64915641Y-86280880D01*
X64860494Y-86447302D01*
X64860493Y-86447309D01*
X64850000Y-86550013D01*
X61557500Y-86550013D01*
X61557500Y-86550000D01*
X60405982Y-86550000D01*
X60416611Y-86531591D01*
X60457500Y-86378991D01*
X60457500Y-86221009D01*
X60416611Y-86068409D01*
X60405982Y-86050000D01*
X61557500Y-86050000D01*
X61557500Y-85300027D01*
X61557499Y-85300014D01*
X61547006Y-85197310D01*
X61547005Y-85197303D01*
X61491858Y-85030881D01*
X61491856Y-85030876D01*
X61399815Y-84881655D01*
X61275844Y-84757684D01*
X61126623Y-84665643D01*
X61126618Y-84665641D01*
X60960196Y-84610494D01*
X60960189Y-84610493D01*
X60857485Y-84600000D01*
X60107500Y-84600000D01*
X60107500Y-85751517D01*
X60089091Y-85740889D01*
X59936491Y-85700000D01*
X59778509Y-85700000D01*
X59625909Y-85740889D01*
X59607500Y-85751517D01*
X59607500Y-84600000D01*
X58857514Y-84600000D01*
X58754810Y-84610493D01*
X58754803Y-84610494D01*
X58588381Y-84665641D01*
X58588376Y-84665643D01*
X58439155Y-84757684D01*
X58315184Y-84881655D01*
X58223143Y-85030876D01*
X58223141Y-85030881D01*
X58167994Y-85197303D01*
X58167993Y-85197310D01*
X58157500Y-85300014D01*
X52450500Y-85300014D01*
X52450500Y-72481902D01*
X58357000Y-72481902D01*
X58357000Y-72718097D01*
X58393946Y-72951368D01*
X58466933Y-73175996D01*
X58545013Y-73329235D01*
X58574157Y-73386433D01*
X58712983Y-73577510D01*
X58879990Y-73744517D01*
X59071067Y-73883343D01*
X59113546Y-73904987D01*
X59281503Y-73990566D01*
X59281505Y-73990566D01*
X59281508Y-73990568D01*
X59376704Y-74021499D01*
X59506131Y-74063553D01*
X59739403Y-74100500D01*
X59739408Y-74100500D01*
X59821007Y-74100500D01*
X59888046Y-74120185D01*
X59908688Y-74136819D01*
X60788841Y-75016974D01*
X60788842Y-75016975D01*
X60788845Y-75016977D01*
X60960902Y-75131941D01*
X61152080Y-75211130D01*
X61152084Y-75211130D01*
X61152085Y-75211131D01*
X61355032Y-75251501D01*
X61355035Y-75251501D01*
X61568079Y-75251501D01*
X61568099Y-75251500D01*
X70302466Y-75251500D01*
X70302467Y-75251499D01*
X70505420Y-75211130D01*
X70696598Y-75131941D01*
X70704606Y-75126589D01*
X70706243Y-75125497D01*
X70845056Y-75032745D01*
X70868655Y-75016977D01*
X71014977Y-74870655D01*
X71014977Y-74870653D01*
X71025185Y-74860446D01*
X71025186Y-74860443D01*
X72898813Y-72986819D01*
X72960136Y-72953334D01*
X72986494Y-72950500D01*
X74443097Y-72950500D01*
X74443102Y-72950500D01*
X74531564Y-72939877D01*
X74672342Y-72884361D01*
X74792922Y-72792922D01*
X74884361Y-72672342D01*
X74939877Y-72531564D01*
X74950500Y-72443102D01*
X74950500Y-72199500D01*
X74970185Y-72132461D01*
X75022989Y-72086706D01*
X75074500Y-72075500D01*
X76975501Y-72075500D01*
X77042540Y-72095185D01*
X77088295Y-72147989D01*
X77099501Y-72199500D01*
X77099501Y-73879856D01*
X77099502Y-73879882D01*
X77102413Y-73904987D01*
X77102415Y-73904991D01*
X77147793Y-74007764D01*
X77147794Y-74007765D01*
X77227235Y-74087206D01*
X77330009Y-74132585D01*
X77355135Y-74135500D01*
X83764864Y-74135499D01*
X83764879Y-74135497D01*
X83764882Y-74135497D01*
X83789987Y-74132586D01*
X83789988Y-74132585D01*
X83789991Y-74132585D01*
X83892765Y-74087206D01*
X83972206Y-74007765D01*
X84017585Y-73904991D01*
X84020500Y-73879865D01*
X84020499Y-68120136D01*
X84019209Y-68109009D01*
X84017586Y-68095012D01*
X84017585Y-68095010D01*
X84017585Y-68095009D01*
X83972206Y-67992235D01*
X83892765Y-67912794D01*
X83883753Y-67908815D01*
X83789992Y-67867415D01*
X83764865Y-67864500D01*
X77355143Y-67864500D01*
X77355117Y-67864502D01*
X77330012Y-67867413D01*
X77330008Y-67867415D01*
X77227235Y-67912793D01*
X77147794Y-67992234D01*
X77102415Y-68095006D01*
X77102415Y-68095008D01*
X77099500Y-68120131D01*
X77099500Y-69850500D01*
X77079815Y-69917539D01*
X77027011Y-69963294D01*
X76975500Y-69974500D01*
X75074500Y-69974500D01*
X75007461Y-69954815D01*
X74961706Y-69902011D01*
X74950500Y-69850500D01*
X74950500Y-69556903D01*
X74950500Y-69556898D01*
X74939877Y-69468436D01*
X74884361Y-69327658D01*
X74884360Y-69327657D01*
X74884360Y-69327656D01*
X74792922Y-69207077D01*
X74672343Y-69115639D01*
X74559681Y-69071211D01*
X74531564Y-69060123D01*
X74531563Y-69060122D01*
X74531561Y-69060122D01*
X74485926Y-69054642D01*
X74443102Y-69049500D01*
X72356898Y-69049500D01*
X72317853Y-69054188D01*
X72268438Y-69060122D01*
X72127656Y-69115639D01*
X72007077Y-69207077D01*
X71915639Y-69327656D01*
X71860122Y-69468438D01*
X71856331Y-69500013D01*
X71849500Y-69556898D01*
X71849500Y-69556903D01*
X71849500Y-71013506D01*
X71829815Y-71080545D01*
X71813181Y-71101187D01*
X69800188Y-73114181D01*
X69738865Y-73147666D01*
X69712507Y-73150500D01*
X68209523Y-73150500D01*
X68142484Y-73130815D01*
X68096729Y-73078011D01*
X68086785Y-73008853D01*
X68115810Y-72945297D01*
X68121842Y-72938819D01*
X68192315Y-72868345D01*
X68284356Y-72719124D01*
X68284358Y-72719119D01*
X68339505Y-72552697D01*
X68339506Y-72552690D01*
X68349999Y-72449986D01*
X68350000Y-72449973D01*
X68350000Y-71250000D01*
X64850001Y-71250000D01*
X64850001Y-72449986D01*
X64860494Y-72552697D01*
X64915641Y-72719119D01*
X64915643Y-72719124D01*
X65007684Y-72868345D01*
X65078158Y-72938819D01*
X65111643Y-73000142D01*
X65106659Y-73069834D01*
X65064787Y-73125767D01*
X64999323Y-73150184D01*
X64990477Y-73150500D01*
X61944994Y-73150500D01*
X61877955Y-73130815D01*
X61857313Y-73114181D01*
X61394319Y-72651187D01*
X61360834Y-72589864D01*
X61358000Y-72563506D01*
X61358000Y-72481902D01*
X61321053Y-72248631D01*
X61275333Y-72107922D01*
X61248068Y-72024008D01*
X61248066Y-72024005D01*
X61248066Y-72024003D01*
X61178433Y-71887342D01*
X61140843Y-71813567D01*
X61002017Y-71622490D01*
X60835010Y-71455483D01*
X60643933Y-71316657D01*
X60433496Y-71209433D01*
X60208868Y-71136446D01*
X59975597Y-71099500D01*
X59975592Y-71099500D01*
X59739408Y-71099500D01*
X59739403Y-71099500D01*
X59506131Y-71136446D01*
X59281503Y-71209433D01*
X59071066Y-71316657D01*
X59051489Y-71330881D01*
X58879990Y-71455483D01*
X58879988Y-71455485D01*
X58879987Y-71455485D01*
X58712985Y-71622487D01*
X58712985Y-71622488D01*
X58712983Y-71622490D01*
X58659938Y-71695500D01*
X58574157Y-71813566D01*
X58466933Y-72024003D01*
X58393946Y-72248631D01*
X58357000Y-72481902D01*
X52450500Y-72481902D01*
X52450500Y-68100027D01*
X58157500Y-68100027D01*
X58157500Y-68850000D01*
X59309018Y-68850000D01*
X59298389Y-68868409D01*
X59257500Y-69021009D01*
X59257500Y-69178991D01*
X59298389Y-69331591D01*
X59309018Y-69350000D01*
X58157500Y-69350000D01*
X58157500Y-70099985D01*
X58167993Y-70202689D01*
X58167994Y-70202696D01*
X58223141Y-70369118D01*
X58223143Y-70369123D01*
X58315184Y-70518344D01*
X58439155Y-70642315D01*
X58588376Y-70734356D01*
X58588381Y-70734358D01*
X58754803Y-70789505D01*
X58754810Y-70789506D01*
X58857514Y-70799999D01*
X58857527Y-70800000D01*
X59607500Y-70800000D01*
X59607500Y-69648482D01*
X59625909Y-69659111D01*
X59778509Y-69700000D01*
X59936491Y-69700000D01*
X60089091Y-69659111D01*
X60107500Y-69648482D01*
X60107500Y-70800000D01*
X60857473Y-70800000D01*
X60857485Y-70799999D01*
X60960189Y-70789506D01*
X60960196Y-70789505D01*
X61126618Y-70734358D01*
X61126623Y-70734356D01*
X61275844Y-70642315D01*
X61399815Y-70518344D01*
X61491856Y-70369123D01*
X61491858Y-70369118D01*
X61547005Y-70202696D01*
X61547006Y-70202689D01*
X61557499Y-70099985D01*
X61557500Y-70099972D01*
X61557500Y-69550013D01*
X64850000Y-69550013D01*
X64850000Y-70750000D01*
X66350000Y-70750000D01*
X66850000Y-70750000D01*
X68349999Y-70750000D01*
X68349999Y-69550028D01*
X68349998Y-69550013D01*
X68339505Y-69447302D01*
X68284358Y-69280880D01*
X68284356Y-69280875D01*
X68192315Y-69131654D01*
X68068345Y-69007684D01*
X67919124Y-68915643D01*
X67919119Y-68915641D01*
X67752697Y-68860494D01*
X67752690Y-68860493D01*
X67649986Y-68850000D01*
X66850000Y-68850000D01*
X66850000Y-70750000D01*
X66350000Y-70750000D01*
X66350000Y-68850000D01*
X65550028Y-68850000D01*
X65550012Y-68850001D01*
X65447302Y-68860494D01*
X65280880Y-68915641D01*
X65280875Y-68915643D01*
X65131654Y-69007684D01*
X65007684Y-69131654D01*
X64915643Y-69280875D01*
X64915641Y-69280880D01*
X64860494Y-69447302D01*
X64860493Y-69447309D01*
X64850000Y-69550013D01*
X61557500Y-69550013D01*
X61557500Y-69350000D01*
X60405982Y-69350000D01*
X60416611Y-69331591D01*
X60457500Y-69178991D01*
X60457500Y-69021009D01*
X60416611Y-68868409D01*
X60405982Y-68850000D01*
X61557500Y-68850000D01*
X61557500Y-68100027D01*
X61557499Y-68100008D01*
X61547006Y-67997310D01*
X61547005Y-67997303D01*
X61491858Y-67830881D01*
X61491856Y-67830876D01*
X61399815Y-67681655D01*
X61275844Y-67557684D01*
X61126623Y-67465643D01*
X61126618Y-67465641D01*
X60960196Y-67410494D01*
X60960189Y-67410493D01*
X60857485Y-67400000D01*
X60107500Y-67400000D01*
X60107500Y-68551517D01*
X60089091Y-68540889D01*
X59936491Y-68500000D01*
X59778509Y-68500000D01*
X59625909Y-68540889D01*
X59607500Y-68551517D01*
X59607500Y-67400000D01*
X58857514Y-67400000D01*
X58754810Y-67410493D01*
X58754803Y-67410494D01*
X58588381Y-67465641D01*
X58588376Y-67465643D01*
X58439155Y-67557684D01*
X58315184Y-67681655D01*
X58223143Y-67830876D01*
X58223141Y-67830881D01*
X58167994Y-67997303D01*
X58167993Y-67997310D01*
X58157501Y-68100008D01*
X58157500Y-68100027D01*
X52450500Y-68100027D01*
X52450500Y-55856902D01*
X58357000Y-55856902D01*
X58357000Y-56093097D01*
X58393946Y-56326368D01*
X58466933Y-56550996D01*
X58554487Y-56722829D01*
X58574157Y-56761433D01*
X58712983Y-56952510D01*
X58879990Y-57119517D01*
X59071067Y-57258343D01*
X59146612Y-57296835D01*
X59281503Y-57365566D01*
X59281505Y-57365566D01*
X59281508Y-57365568D01*
X59397823Y-57403361D01*
X59506131Y-57438553D01*
X59739403Y-57475500D01*
X59739408Y-57475500D01*
X59821006Y-57475500D01*
X59888045Y-57495185D01*
X59908687Y-57511819D01*
X60413841Y-58016974D01*
X60413845Y-58016977D01*
X60585895Y-58131938D01*
X60585908Y-58131945D01*
X60674376Y-58168589D01*
X60777080Y-58211130D01*
X60777084Y-58211130D01*
X60777085Y-58211131D01*
X60980032Y-58251501D01*
X60980035Y-58251501D01*
X61193079Y-58251501D01*
X61193099Y-58251500D01*
X70302466Y-58251500D01*
X70302467Y-58251499D01*
X70505420Y-58211130D01*
X70696598Y-58131941D01*
X70868655Y-58016977D01*
X71014977Y-57870655D01*
X71014977Y-57870653D01*
X71025185Y-57860446D01*
X71025186Y-57860443D01*
X72898813Y-55986819D01*
X72960136Y-55953334D01*
X72986494Y-55950500D01*
X74443097Y-55950500D01*
X74443102Y-55950500D01*
X74531564Y-55939877D01*
X74672342Y-55884361D01*
X74792922Y-55792922D01*
X74884361Y-55672342D01*
X74939877Y-55531564D01*
X74950500Y-55443102D01*
X74950500Y-54849500D01*
X74970185Y-54782461D01*
X75022989Y-54736706D01*
X75074500Y-54725500D01*
X76975501Y-54725500D01*
X77042540Y-54745185D01*
X77088295Y-54797989D01*
X77099501Y-54849500D01*
X77099501Y-56879856D01*
X77099502Y-56879882D01*
X77102413Y-56904987D01*
X77102415Y-56904991D01*
X77147793Y-57007764D01*
X77147794Y-57007765D01*
X77227235Y-57087206D01*
X77330009Y-57132585D01*
X77355135Y-57135500D01*
X83764864Y-57135499D01*
X83764879Y-57135497D01*
X83764882Y-57135497D01*
X83789987Y-57132586D01*
X83789988Y-57132585D01*
X83789991Y-57132585D01*
X83892765Y-57087206D01*
X83972206Y-57007765D01*
X84017585Y-56904991D01*
X84020500Y-56879865D01*
X84020499Y-51184131D01*
X85279500Y-51184131D01*
X85279500Y-52243856D01*
X85279502Y-52243882D01*
X85282413Y-52268987D01*
X85282415Y-52268991D01*
X85327793Y-52371764D01*
X85327794Y-52371765D01*
X85407235Y-52451206D01*
X85510009Y-52496585D01*
X85535135Y-52499500D01*
X88644864Y-52499499D01*
X88644879Y-52499497D01*
X88644882Y-52499497D01*
X88669987Y-52496586D01*
X88669988Y-52496585D01*
X88669991Y-52496585D01*
X88772765Y-52451206D01*
X88772764Y-52451206D01*
X88775347Y-52450066D01*
X88785061Y-52448016D01*
X88790498Y-52444523D01*
X88825433Y-52439500D01*
X89020507Y-52439500D01*
X89087546Y-52459185D01*
X89108188Y-52475819D01*
X89623341Y-52990974D01*
X89623345Y-52990977D01*
X89795395Y-53105938D01*
X89795408Y-53105945D01*
X89963331Y-53175500D01*
X89986580Y-53185130D01*
X89986584Y-53185130D01*
X89986585Y-53185131D01*
X90189532Y-53225501D01*
X90189535Y-53225501D01*
X90396467Y-53225501D01*
X90533005Y-53198340D01*
X90599420Y-53185130D01*
X90790598Y-53105942D01*
X90962655Y-52990977D01*
X91108977Y-52844655D01*
X91223942Y-52672598D01*
X91303130Y-52481420D01*
X91326921Y-52361819D01*
X91343501Y-52278467D01*
X91343501Y-52071532D01*
X91303131Y-51868585D01*
X91303130Y-51868584D01*
X91303130Y-51868580D01*
X91228567Y-51688567D01*
X91223945Y-51677408D01*
X91223938Y-51677395D01*
X91108977Y-51505345D01*
X91108974Y-51505341D01*
X90330047Y-50726416D01*
X90330044Y-50726412D01*
X90330044Y-50726413D01*
X90322977Y-50719346D01*
X90322977Y-50719345D01*
X90176655Y-50573023D01*
X90004598Y-50458059D01*
X89813420Y-50378870D01*
X89813412Y-50378868D01*
X89610469Y-50338500D01*
X89610465Y-50338500D01*
X86611535Y-50338500D01*
X86611530Y-50338500D01*
X86408587Y-50378868D01*
X86408579Y-50378870D01*
X86217403Y-50458058D01*
X86045342Y-50573024D01*
X85899025Y-50719341D01*
X85899022Y-50719345D01*
X85796092Y-50873391D01*
X85742480Y-50918196D01*
X85692991Y-50928500D01*
X85535143Y-50928500D01*
X85535118Y-50928502D01*
X85510011Y-50931414D01*
X85510008Y-50931415D01*
X85407235Y-50976793D01*
X85327794Y-51056234D01*
X85282415Y-51159006D01*
X85282415Y-51159008D01*
X85279500Y-51184131D01*
X84020499Y-51184131D01*
X84020499Y-51120136D01*
X84020497Y-51120117D01*
X84017586Y-51095012D01*
X84017585Y-51095010D01*
X84017585Y-51095009D01*
X83972206Y-50992235D01*
X83892765Y-50912794D01*
X83844317Y-50891402D01*
X83789992Y-50867415D01*
X83764865Y-50864500D01*
X77355143Y-50864500D01*
X77355117Y-50864502D01*
X77330012Y-50867413D01*
X77330008Y-50867415D01*
X77227235Y-50912793D01*
X77147794Y-50992234D01*
X77102415Y-51095006D01*
X77102415Y-51095008D01*
X77099500Y-51120131D01*
X77099500Y-52500500D01*
X77079815Y-52567539D01*
X77027011Y-52613294D01*
X76975500Y-52624500D01*
X75068618Y-52624500D01*
X75001579Y-52604815D01*
X74955824Y-52552011D01*
X74945503Y-52515286D01*
X74939877Y-52468436D01*
X74884361Y-52327658D01*
X74884360Y-52327657D01*
X74884360Y-52327656D01*
X74792922Y-52207077D01*
X74672343Y-52115639D01*
X74576192Y-52077722D01*
X74531564Y-52060123D01*
X74531563Y-52060122D01*
X74531561Y-52060122D01*
X74485926Y-52054642D01*
X74443102Y-52049500D01*
X72356898Y-52049500D01*
X72317853Y-52054188D01*
X72268438Y-52060122D01*
X72127656Y-52115639D01*
X72007077Y-52207077D01*
X71915639Y-52327656D01*
X71860122Y-52468438D01*
X71854952Y-52511493D01*
X71849500Y-52556898D01*
X71849500Y-52556903D01*
X71849500Y-54013506D01*
X71829815Y-54080545D01*
X71813181Y-54101187D01*
X69800188Y-56114181D01*
X69738865Y-56147666D01*
X69712507Y-56150500D01*
X68209523Y-56150500D01*
X68142484Y-56130815D01*
X68096729Y-56078011D01*
X68086785Y-56008853D01*
X68115810Y-55945297D01*
X68121842Y-55938819D01*
X68192315Y-55868345D01*
X68284356Y-55719124D01*
X68284358Y-55719119D01*
X68339505Y-55552697D01*
X68339506Y-55552690D01*
X68349999Y-55449986D01*
X68350000Y-55449973D01*
X68350000Y-54250000D01*
X64850001Y-54250000D01*
X64850001Y-55449986D01*
X64860494Y-55552697D01*
X64915641Y-55719119D01*
X64915643Y-55719124D01*
X65007684Y-55868345D01*
X65078158Y-55938819D01*
X65111643Y-56000142D01*
X65106659Y-56069834D01*
X65064787Y-56125767D01*
X64999323Y-56150184D01*
X64990477Y-56150500D01*
X61569994Y-56150500D01*
X61540553Y-56141855D01*
X61510567Y-56135332D01*
X61505551Y-56131577D01*
X61502955Y-56130815D01*
X61482313Y-56114181D01*
X61394319Y-56026187D01*
X61360834Y-55964864D01*
X61358000Y-55938506D01*
X61358000Y-55856902D01*
X61321053Y-55623631D01*
X61281991Y-55503413D01*
X61248068Y-55399008D01*
X61248066Y-55399005D01*
X61248066Y-55399003D01*
X61140842Y-55188566D01*
X61002017Y-54997490D01*
X60835010Y-54830483D01*
X60643933Y-54691657D01*
X60433496Y-54584433D01*
X60208868Y-54511446D01*
X59975597Y-54474500D01*
X59975592Y-54474500D01*
X59739408Y-54474500D01*
X59739403Y-54474500D01*
X59506131Y-54511446D01*
X59281503Y-54584433D01*
X59071066Y-54691657D01*
X58997392Y-54745185D01*
X58879990Y-54830483D01*
X58879988Y-54830485D01*
X58879987Y-54830485D01*
X58712985Y-54997487D01*
X58712985Y-54997488D01*
X58712983Y-54997490D01*
X58653362Y-55079550D01*
X58574157Y-55188566D01*
X58466933Y-55399003D01*
X58393946Y-55623631D01*
X58357000Y-55856902D01*
X52450500Y-55856902D01*
X52450500Y-51475014D01*
X58157500Y-51475014D01*
X58157500Y-52225000D01*
X59309018Y-52225000D01*
X59298389Y-52243409D01*
X59257500Y-52396009D01*
X59257500Y-52553991D01*
X59298389Y-52706591D01*
X59309018Y-52725000D01*
X58157500Y-52725000D01*
X58157500Y-53474985D01*
X58167993Y-53577689D01*
X58167994Y-53577696D01*
X58223141Y-53744118D01*
X58223143Y-53744123D01*
X58315184Y-53893344D01*
X58439155Y-54017315D01*
X58588376Y-54109356D01*
X58588381Y-54109358D01*
X58754803Y-54164505D01*
X58754810Y-54164506D01*
X58857514Y-54174999D01*
X58857527Y-54175000D01*
X59607500Y-54175000D01*
X59607500Y-53023482D01*
X59625909Y-53034111D01*
X59778509Y-53075000D01*
X59936491Y-53075000D01*
X60089091Y-53034111D01*
X60107500Y-53023482D01*
X60107500Y-54175000D01*
X60857473Y-54175000D01*
X60857485Y-54174999D01*
X60960189Y-54164506D01*
X60960196Y-54164505D01*
X61126618Y-54109358D01*
X61126623Y-54109356D01*
X61275844Y-54017315D01*
X61399815Y-53893344D01*
X61491856Y-53744123D01*
X61491858Y-53744118D01*
X61547005Y-53577696D01*
X61547006Y-53577689D01*
X61557499Y-53474985D01*
X61557500Y-53474972D01*
X61557500Y-52725000D01*
X60405982Y-52725000D01*
X60416611Y-52706591D01*
X60457500Y-52553991D01*
X60457500Y-52550013D01*
X64850000Y-52550013D01*
X64850000Y-53750000D01*
X66350000Y-53750000D01*
X66850000Y-53750000D01*
X68349999Y-53750000D01*
X68349999Y-52550028D01*
X68349998Y-52550013D01*
X68339505Y-52447302D01*
X68284358Y-52280880D01*
X68284356Y-52280875D01*
X68192315Y-52131654D01*
X68068345Y-52007684D01*
X67919124Y-51915643D01*
X67919119Y-51915641D01*
X67752697Y-51860494D01*
X67752690Y-51860493D01*
X67649986Y-51850000D01*
X66850000Y-51850000D01*
X66850000Y-53750000D01*
X66350000Y-53750000D01*
X66350000Y-51850000D01*
X65550028Y-51850000D01*
X65550012Y-51850001D01*
X65447302Y-51860494D01*
X65280880Y-51915641D01*
X65280875Y-51915643D01*
X65131654Y-52007684D01*
X65007684Y-52131654D01*
X64915643Y-52280875D01*
X64915641Y-52280880D01*
X64860494Y-52447302D01*
X64860493Y-52447309D01*
X64850000Y-52550013D01*
X60457500Y-52550013D01*
X60457500Y-52396009D01*
X60416611Y-52243409D01*
X60405982Y-52225000D01*
X61557500Y-52225000D01*
X61557500Y-51475027D01*
X61557499Y-51475014D01*
X61547006Y-51372310D01*
X61547005Y-51372303D01*
X61491858Y-51205881D01*
X61491856Y-51205876D01*
X61399815Y-51056655D01*
X61275844Y-50932684D01*
X61126623Y-50840643D01*
X61126618Y-50840641D01*
X60960196Y-50785494D01*
X60960189Y-50785493D01*
X60857485Y-50775000D01*
X60107500Y-50775000D01*
X60107500Y-51926517D01*
X60089091Y-51915889D01*
X59936491Y-51875000D01*
X59778509Y-51875000D01*
X59625909Y-51915889D01*
X59607500Y-51926517D01*
X59607500Y-50775000D01*
X58857514Y-50775000D01*
X58754810Y-50785493D01*
X58754803Y-50785494D01*
X58588381Y-50840641D01*
X58588376Y-50840643D01*
X58439155Y-50932684D01*
X58315184Y-51056655D01*
X58223143Y-51205876D01*
X58223141Y-51205881D01*
X58167994Y-51372303D01*
X58167993Y-51372310D01*
X58157500Y-51475014D01*
X52450500Y-51475014D01*
X52450500Y-44874038D01*
X53399500Y-44874038D01*
X53399500Y-45125961D01*
X53438910Y-45374785D01*
X53516760Y-45614383D01*
X53631132Y-45838848D01*
X53779201Y-46042649D01*
X53779205Y-46042654D01*
X53957345Y-46220794D01*
X53957350Y-46220798D01*
X54094509Y-46320449D01*
X54161155Y-46368870D01*
X54299095Y-46439154D01*
X54385616Y-46483239D01*
X54385618Y-46483239D01*
X54385621Y-46483241D01*
X54625215Y-46561090D01*
X54874038Y-46600500D01*
X54874039Y-46600500D01*
X55125961Y-46600500D01*
X55125962Y-46600500D01*
X55374785Y-46561090D01*
X55614379Y-46483241D01*
X55838845Y-46368870D01*
X56042656Y-46220793D01*
X56220793Y-46042656D01*
X56368870Y-45838845D01*
X56483241Y-45614379D01*
X56561090Y-45374785D01*
X56600500Y-45125962D01*
X56600500Y-44874038D01*
X192399500Y-44874038D01*
X192399500Y-45125961D01*
X192438910Y-45374785D01*
X192516760Y-45614383D01*
X192631132Y-45838848D01*
X192779201Y-46042649D01*
X192779205Y-46042654D01*
X192957345Y-46220794D01*
X192957350Y-46220798D01*
X193094509Y-46320449D01*
X193161155Y-46368870D01*
X193299095Y-46439154D01*
X193385616Y-46483239D01*
X193385618Y-46483239D01*
X193385621Y-46483241D01*
X193625215Y-46561090D01*
X193874038Y-46600500D01*
X193874039Y-46600500D01*
X194125961Y-46600500D01*
X194125962Y-46600500D01*
X194374785Y-46561090D01*
X194614379Y-46483241D01*
X194838845Y-46368870D01*
X195042656Y-46220793D01*
X195220793Y-46042656D01*
X195368870Y-45838845D01*
X195483241Y-45614379D01*
X195561090Y-45374785D01*
X195600500Y-45125962D01*
X195600500Y-44874038D01*
X195561090Y-44625215D01*
X195483241Y-44385621D01*
X195483239Y-44385618D01*
X195483239Y-44385616D01*
X195441747Y-44304184D01*
X195368870Y-44161155D01*
X195349952Y-44135117D01*
X195220798Y-43957350D01*
X195220794Y-43957345D01*
X195042654Y-43779205D01*
X195042649Y-43779201D01*
X194838848Y-43631132D01*
X194838847Y-43631131D01*
X194838845Y-43631130D01*
X194768747Y-43595413D01*
X194614383Y-43516760D01*
X194374785Y-43438910D01*
X194125962Y-43399500D01*
X193874038Y-43399500D01*
X193749626Y-43419205D01*
X193625214Y-43438910D01*
X193385616Y-43516760D01*
X193161151Y-43631132D01*
X192957350Y-43779201D01*
X192957345Y-43779205D01*
X192779205Y-43957345D01*
X192779201Y-43957350D01*
X192631132Y-44161151D01*
X192516760Y-44385616D01*
X192438910Y-44625214D01*
X192399500Y-44874038D01*
X56600500Y-44874038D01*
X56561090Y-44625215D01*
X56483241Y-44385621D01*
X56483239Y-44385618D01*
X56483239Y-44385616D01*
X56441747Y-44304184D01*
X56368870Y-44161155D01*
X56349952Y-44135117D01*
X56220798Y-43957350D01*
X56220794Y-43957345D01*
X56042654Y-43779205D01*
X56042649Y-43779201D01*
X55838848Y-43631132D01*
X55838847Y-43631131D01*
X55838845Y-43631130D01*
X55768747Y-43595413D01*
X55614383Y-43516760D01*
X55374785Y-43438910D01*
X55125962Y-43399500D01*
X54874038Y-43399500D01*
X54749626Y-43419205D01*
X54625214Y-43438910D01*
X54385616Y-43516760D01*
X54161151Y-43631132D01*
X53957350Y-43779201D01*
X53957345Y-43779205D01*
X53779205Y-43957345D01*
X53779201Y-43957350D01*
X53631132Y-44161151D01*
X53516760Y-44385616D01*
X53438910Y-44625214D01*
X53399500Y-44874038D01*
X52450500Y-44874038D01*
X52450500Y-42781961D01*
X52451280Y-42768077D01*
X52451280Y-42768076D01*
X52461460Y-42677729D01*
X52467635Y-42650670D01*
X52495353Y-42571456D01*
X52507396Y-42546450D01*
X52552046Y-42475389D01*
X52569351Y-42453690D01*
X52628690Y-42394351D01*
X52650389Y-42377046D01*
X52721450Y-42332396D01*
X52746456Y-42320353D01*
X52825670Y-42292635D01*
X52852733Y-42286459D01*
X52915419Y-42279396D01*
X52943079Y-42276280D01*
X52956962Y-42275500D01*
X53015892Y-42275500D01*
X196034108Y-42275500D01*
X196093038Y-42275500D01*
X196106922Y-42276280D01*
G37*
%TD.AperFunction*%
%TA.AperFunction,Conductor*%
G36*
X99714672Y-79731813D02*
G01*
X99770606Y-79773684D01*
X99795023Y-79839149D01*
X99795338Y-79848488D01*
X99720354Y-98725993D01*
X99700403Y-98792953D01*
X99647418Y-98838498D01*
X99596355Y-98849500D01*
X96779073Y-98849500D01*
X96712034Y-98829815D01*
X96666279Y-98777011D01*
X96656335Y-98707853D01*
X96678755Y-98652614D01*
X96766859Y-98531349D01*
X96859755Y-98349031D01*
X96922990Y-98154417D01*
X96955000Y-97952317D01*
X96955000Y-97747682D01*
X96922990Y-97545582D01*
X96859755Y-97350968D01*
X96766859Y-97168650D01*
X96734474Y-97124077D01*
X96734474Y-97124076D01*
X96055000Y-97803551D01*
X96055000Y-97797339D01*
X96027741Y-97695606D01*
X95975080Y-97604394D01*
X95900606Y-97529920D01*
X95809394Y-97477259D01*
X95707661Y-97450000D01*
X95701446Y-97450000D01*
X96380922Y-96770524D01*
X96380921Y-96770523D01*
X96336359Y-96738147D01*
X96336350Y-96738141D01*
X96154031Y-96645244D01*
X95993385Y-96593047D01*
X95935710Y-96553609D01*
X95908512Y-96489250D01*
X95920427Y-96420404D01*
X95967671Y-96368928D01*
X95993381Y-96357187D01*
X96077445Y-96329873D01*
X96231788Y-96251232D01*
X96371928Y-96149414D01*
X96494414Y-96026928D01*
X96596232Y-95886788D01*
X96674873Y-95732445D01*
X96728402Y-95567701D01*
X96755500Y-95396611D01*
X96755500Y-95223389D01*
X96728402Y-95052299D01*
X96674873Y-94887555D01*
X96596232Y-94733212D01*
X96494414Y-94593072D01*
X96371928Y-94470586D01*
X96231788Y-94368768D01*
X96077449Y-94290128D01*
X95993385Y-94262814D01*
X95935710Y-94223376D01*
X95908512Y-94159017D01*
X95920427Y-94090171D01*
X95967672Y-94038695D01*
X95993386Y-94026952D01*
X96154029Y-93974755D01*
X96336349Y-93881859D01*
X96380921Y-93849474D01*
X95701447Y-93170000D01*
X95707661Y-93170000D01*
X95809394Y-93142741D01*
X95900606Y-93090080D01*
X95975080Y-93015606D01*
X96027741Y-92924394D01*
X96055000Y-92822661D01*
X96055000Y-92816447D01*
X96734474Y-93495921D01*
X96766859Y-93451349D01*
X96859755Y-93269031D01*
X96922990Y-93074417D01*
X96955000Y-92872317D01*
X96955000Y-92667682D01*
X96922990Y-92465582D01*
X96859755Y-92270968D01*
X96766859Y-92088650D01*
X96734474Y-92044077D01*
X96734474Y-92044076D01*
X96055000Y-92723551D01*
X96055000Y-92717339D01*
X96027741Y-92615606D01*
X95975080Y-92524394D01*
X95900606Y-92449920D01*
X95809394Y-92397259D01*
X95707661Y-92370000D01*
X95701446Y-92370000D01*
X96380922Y-91690524D01*
X96380921Y-91690523D01*
X96336359Y-91658147D01*
X96336350Y-91658141D01*
X96154031Y-91565244D01*
X95993385Y-91513047D01*
X95935710Y-91473609D01*
X95908512Y-91409250D01*
X95920427Y-91340404D01*
X95967671Y-91288928D01*
X95993381Y-91277187D01*
X96077445Y-91249873D01*
X96231788Y-91171232D01*
X96371928Y-91069414D01*
X96494414Y-90946928D01*
X96596232Y-90806788D01*
X96674873Y-90652445D01*
X96728402Y-90487701D01*
X96755500Y-90316611D01*
X96755500Y-90143389D01*
X96728402Y-89972299D01*
X96674873Y-89807555D01*
X96596232Y-89653212D01*
X96494414Y-89513072D01*
X96371928Y-89390586D01*
X96231788Y-89288768D01*
X96077449Y-89210128D01*
X95993385Y-89182814D01*
X95935710Y-89143376D01*
X95908512Y-89079017D01*
X95920427Y-89010171D01*
X95967672Y-88958695D01*
X95993386Y-88946952D01*
X96154029Y-88894755D01*
X96336349Y-88801859D01*
X96380921Y-88769474D01*
X95701446Y-88090000D01*
X95707661Y-88090000D01*
X95809394Y-88062741D01*
X95900606Y-88010080D01*
X95975080Y-87935606D01*
X96027741Y-87844394D01*
X96055000Y-87742661D01*
X96055000Y-87736447D01*
X96734474Y-88415921D01*
X96766859Y-88371349D01*
X96859755Y-88189031D01*
X96922990Y-87994417D01*
X96955000Y-87792317D01*
X96955000Y-87587682D01*
X96922990Y-87385582D01*
X96859755Y-87190968D01*
X96766859Y-87008650D01*
X96734474Y-86964077D01*
X96734474Y-86964076D01*
X96055000Y-87643551D01*
X96055000Y-87637339D01*
X96027741Y-87535606D01*
X95975080Y-87444394D01*
X95900606Y-87369920D01*
X95809394Y-87317259D01*
X95707661Y-87290000D01*
X95701446Y-87290000D01*
X96380922Y-86610524D01*
X96380921Y-86610523D01*
X96336359Y-86578147D01*
X96336350Y-86578141D01*
X96154031Y-86485244D01*
X95993385Y-86433047D01*
X95935710Y-86393609D01*
X95908512Y-86329250D01*
X95920427Y-86260404D01*
X95967671Y-86208928D01*
X95993381Y-86197187D01*
X96077445Y-86169873D01*
X96231788Y-86091232D01*
X96371928Y-85989414D01*
X96494414Y-85866928D01*
X96596232Y-85726788D01*
X96674873Y-85572445D01*
X96728402Y-85407701D01*
X96755500Y-85236611D01*
X96755500Y-85063389D01*
X96728402Y-84892299D01*
X96674873Y-84727555D01*
X96596232Y-84573212D01*
X96494414Y-84433072D01*
X96371928Y-84310586D01*
X96231788Y-84208768D01*
X96218101Y-84201794D01*
X96077449Y-84130128D01*
X95993385Y-84102814D01*
X95935710Y-84063376D01*
X95908512Y-83999017D01*
X95920427Y-83930171D01*
X95967672Y-83878695D01*
X95993386Y-83866952D01*
X96154029Y-83814755D01*
X96336349Y-83721859D01*
X96380921Y-83689474D01*
X95701446Y-83010000D01*
X95707661Y-83010000D01*
X95809394Y-82982741D01*
X95900606Y-82930080D01*
X95975080Y-82855606D01*
X96027741Y-82764394D01*
X96055000Y-82662661D01*
X96055000Y-82656447D01*
X96734474Y-83335921D01*
X96766859Y-83291349D01*
X96859755Y-83109031D01*
X96922990Y-82914417D01*
X96955000Y-82712317D01*
X96955000Y-82507682D01*
X96922990Y-82305582D01*
X96859755Y-82110968D01*
X96766859Y-81928650D01*
X96734474Y-81884077D01*
X96734474Y-81884076D01*
X96055000Y-82563551D01*
X96055000Y-82557339D01*
X96027741Y-82455606D01*
X95975080Y-82364394D01*
X95900606Y-82289920D01*
X95809394Y-82237259D01*
X95707661Y-82210000D01*
X95701446Y-82210000D01*
X96380922Y-81530524D01*
X96380921Y-81530523D01*
X96336359Y-81498147D01*
X96336350Y-81498141D01*
X96154031Y-81405244D01*
X95993385Y-81353047D01*
X95935710Y-81313609D01*
X95908512Y-81249250D01*
X95920427Y-81180404D01*
X95967671Y-81128928D01*
X95993381Y-81117187D01*
X96077445Y-81089873D01*
X96231788Y-81011232D01*
X96371928Y-80909414D01*
X96494414Y-80786928D01*
X96596232Y-80646788D01*
X96651557Y-80538206D01*
X96699531Y-80487409D01*
X96762042Y-80470500D01*
X98760305Y-80470500D01*
X98760307Y-80470500D01*
X98862168Y-80443207D01*
X98953493Y-80390480D01*
X99583659Y-79760312D01*
X99644981Y-79726829D01*
X99714672Y-79731813D01*
G37*
%TD.AperFunction*%
%TA.AperFunction,Conductor*%
G36*
X85500624Y-74068549D02*
G01*
X85500745Y-74067510D01*
X85510007Y-74068584D01*
X85510009Y-74068585D01*
X85535135Y-74071500D01*
X88574500Y-74071499D01*
X88641539Y-74091184D01*
X88687294Y-74143988D01*
X88698500Y-74195499D01*
X88698500Y-78646726D01*
X88725793Y-78748589D01*
X88736997Y-78767994D01*
X88778520Y-78839913D01*
X88778522Y-78839915D01*
X94589006Y-84650399D01*
X94622491Y-84711722D01*
X94619256Y-84776397D01*
X94581598Y-84892297D01*
X94581597Y-84892301D01*
X94554500Y-85063389D01*
X94554500Y-85236610D01*
X94571407Y-85343361D01*
X94581598Y-85407701D01*
X94635127Y-85572445D01*
X94713768Y-85726788D01*
X94815586Y-85866928D01*
X94938072Y-85989414D01*
X95078212Y-86091232D01*
X95232555Y-86169873D01*
X95316613Y-86197185D01*
X95374289Y-86236623D01*
X95401487Y-86300981D01*
X95389572Y-86369828D01*
X95342328Y-86421303D01*
X95316614Y-86433047D01*
X95155968Y-86485244D01*
X94973644Y-86578143D01*
X94929077Y-86610523D01*
X94929077Y-86610524D01*
X95608554Y-87290000D01*
X95602339Y-87290000D01*
X95500606Y-87317259D01*
X95409394Y-87369920D01*
X95334920Y-87444394D01*
X95282259Y-87535606D01*
X95255000Y-87637339D01*
X95255000Y-87643553D01*
X94575524Y-86964077D01*
X94575523Y-86964077D01*
X94543143Y-87008644D01*
X94450244Y-87190968D01*
X94387009Y-87385582D01*
X94358841Y-87563431D01*
X94328912Y-87626566D01*
X94269600Y-87663497D01*
X94199737Y-87662499D01*
X94148687Y-87631714D01*
X84822495Y-78305522D01*
X84822493Y-78305520D01*
X84776830Y-78279156D01*
X84731169Y-78252793D01*
X84680237Y-78239146D01*
X84629307Y-78225500D01*
X84629306Y-78225500D01*
X84536516Y-78225500D01*
X84469477Y-78205815D01*
X84423722Y-78153011D01*
X84413778Y-78083853D01*
X84442803Y-78020297D01*
X84491023Y-77986146D01*
X84622342Y-77934361D01*
X84742922Y-77842922D01*
X84742928Y-77842913D01*
X84748915Y-77836928D01*
X84750465Y-77838478D01*
X84768981Y-77826578D01*
X84793802Y-77808149D01*
X84799140Y-77807196D01*
X84801745Y-77805523D01*
X84836680Y-77800500D01*
X84956568Y-77800500D01*
X85023607Y-77820185D01*
X85069362Y-77872989D01*
X85071115Y-77877014D01*
X85078810Y-77895591D01*
X85101986Y-77951546D01*
X85101990Y-77951553D01*
X85200535Y-78099034D01*
X85200538Y-78099038D01*
X85325961Y-78224461D01*
X85325965Y-78224464D01*
X85473446Y-78323009D01*
X85473459Y-78323016D01*
X85568917Y-78362555D01*
X85637334Y-78390894D01*
X85637336Y-78390894D01*
X85637341Y-78390896D01*
X85811304Y-78425499D01*
X85811307Y-78425500D01*
X85811309Y-78425500D01*
X85988693Y-78425500D01*
X85988694Y-78425499D01*
X86046682Y-78413964D01*
X86162658Y-78390896D01*
X86162661Y-78390894D01*
X86162666Y-78390894D01*
X86326547Y-78323013D01*
X86474035Y-78224464D01*
X86599464Y-78099035D01*
X86698013Y-77951547D01*
X86765894Y-77787666D01*
X86770031Y-77766871D01*
X86799279Y-77619829D01*
X86800500Y-77613691D01*
X86800500Y-77436309D01*
X86800500Y-77436306D01*
X86800499Y-77436304D01*
X86765896Y-77262341D01*
X86765893Y-77262332D01*
X86698016Y-77098459D01*
X86698009Y-77098446D01*
X86599464Y-76950965D01*
X86599461Y-76950961D01*
X86474038Y-76825538D01*
X86474034Y-76825535D01*
X86326553Y-76726990D01*
X86326544Y-76726985D01*
X86191457Y-76671031D01*
X86151229Y-76644151D01*
X85885292Y-76378213D01*
X85885288Y-76378210D01*
X85754185Y-76290609D01*
X85754172Y-76290602D01*
X85608501Y-76230264D01*
X85608489Y-76230261D01*
X85453845Y-76199500D01*
X85453842Y-76199500D01*
X84836680Y-76199500D01*
X84769641Y-76179815D01*
X84750200Y-76161786D01*
X84748915Y-76163072D01*
X84742925Y-76157082D01*
X84742922Y-76157078D01*
X84682563Y-76111306D01*
X84622343Y-76065639D01*
X84481561Y-76010122D01*
X84435926Y-76004642D01*
X84393102Y-75999500D01*
X83791254Y-75999500D01*
X83724215Y-75979815D01*
X83678460Y-75927011D01*
X83668516Y-75857853D01*
X83697541Y-75794297D01*
X83703573Y-75787819D01*
X84515089Y-74976303D01*
X85390611Y-74100780D01*
X85451932Y-74067297D01*
X85500624Y-74068549D01*
G37*
%TD.AperFunction*%
%TD*%
M02*
