%TF.GenerationSoftware,KiCad,Pcbnew,9.0.4*%
%TF.CreationDate,2026-07-23T14:42:53-05:00*%
%TF.ProjectId,esp32attachment,65737033-3261-4747-9461-63686d656e74,rev?*%
%TF.SameCoordinates,Original*%
%TF.FileFunction,Soldermask,Bot*%
%TF.FilePolarity,Negative*%
%FSLAX46Y46*%
G04 Gerber Fmt 4.6, Leading zero omitted, Abs format (unit mm)*
G04 Created by KiCad (PCBNEW 9.0.4) date 2026-07-23 14:42:53*
%MOMM*%
%LPD*%
G01*
G04 APERTURE LIST*
G04 Aperture macros list*
%AMRoundRect*
0 Rectangle with rounded corners*
0 $1 Rounding radius*
0 $2 $3 $4 $5 $6 $7 $8 $9 X,Y pos of 4 corners*
0 Add a 4 corners polygon primitive as box body*
4,1,4,$2,$3,$4,$5,$6,$7,$8,$9,$2,$3,0*
0 Add four circle primitives for the rounded corners*
1,1,$1+$1,$2,$3*
1,1,$1+$1,$4,$5*
1,1,$1+$1,$6,$7*
1,1,$1+$1,$8,$9*
0 Add four rect primitives between the rounded corners*
20,1,$1+$1,$2,$3,$4,$5,0*
20,1,$1+$1,$4,$5,$6,$7,0*
20,1,$1+$1,$6,$7,$8,$9,0*
20,1,$1+$1,$8,$9,$2,$3,0*%
G04 Aperture macros list end*
%ADD10RoundRect,0.250001X0.949999X-0.949999X0.949999X0.949999X-0.949999X0.949999X-0.949999X-0.949999X0*%
%ADD11C,2.400000*%
%ADD12C,2.700000*%
%ADD13RoundRect,0.250001X-0.949999X0.949999X-0.949999X-0.949999X0.949999X-0.949999X0.949999X0.949999X0*%
%ADD14RoundRect,0.250000X-0.550000X-0.550000X0.550000X-0.550000X0.550000X0.550000X-0.550000X0.550000X0*%
%ADD15C,1.600000*%
%ADD16RoundRect,0.250000X0.550000X0.550000X-0.550000X0.550000X-0.550000X-0.550000X0.550000X-0.550000X0*%
%ADD17RoundRect,0.250000X1.050000X1.050000X-1.050000X1.050000X-1.050000X-1.050000X1.050000X-1.050000X0*%
%ADD18C,2.600000*%
%ADD19C,3.000000*%
%ADD20RoundRect,0.102000X-1.000000X-1.000000X1.000000X-1.000000X1.000000X1.000000X-1.000000X1.000000X0*%
%ADD21C,2.204000*%
G04 APERTURE END LIST*
D10*
%TO.C,J4*%
X188117500Y-55975000D03*
D11*
X188117500Y-52475000D03*
%TD*%
D12*
%TO.C,REF\u002A\u002A*%
X194000000Y-45000000D03*
%TD*%
D10*
%TO.C,J6*%
X188117500Y-89000000D03*
D11*
X188117500Y-85500000D03*
%TD*%
D13*
%TO.C,J2*%
X59857500Y-69100000D03*
D11*
X59857500Y-72600000D03*
%TD*%
D12*
%TO.C,REF\u002A\u002A*%
X55000000Y-96300000D03*
%TD*%
D13*
%TO.C,J3*%
X59857500Y-86300000D03*
D11*
X59857500Y-89800000D03*
%TD*%
D14*
%TO.C,U3*%
X147220000Y-71165000D03*
D15*
X147220000Y-73705000D03*
X147220000Y-76245000D03*
X147220000Y-78785000D03*
X154840000Y-78785000D03*
X154840000Y-76245000D03*
X154840000Y-73705000D03*
X154840000Y-71165000D03*
%TD*%
D12*
%TO.C,REF\u002A\u002A*%
X194000000Y-96300000D03*
%TD*%
D16*
%TO.C,U2*%
X103275000Y-97850000D03*
D15*
X103275000Y-95310000D03*
X103275000Y-92770000D03*
X103275000Y-90230000D03*
X103275000Y-87690000D03*
X103275000Y-85150000D03*
X103275000Y-82610000D03*
X103275000Y-80070000D03*
X95655000Y-80070000D03*
X95655000Y-82610000D03*
X95655000Y-85150000D03*
X95655000Y-87690000D03*
X95655000Y-90230000D03*
X95655000Y-92770000D03*
X95655000Y-95310000D03*
X95655000Y-97850000D03*
%TD*%
D10*
%TO.C,J5*%
X188117500Y-72600000D03*
D11*
X188117500Y-69100000D03*
%TD*%
D13*
%TO.C,J1*%
X59857500Y-52475000D03*
D11*
X59857500Y-55975000D03*
%TD*%
D12*
%TO.C,REF\u002A\u002A*%
X55000000Y-45000000D03*
%TD*%
D17*
%TO.C,J8*%
X101700000Y-47957500D03*
D18*
X96700000Y-47957500D03*
%TD*%
D19*
%TO.C,U1*%
X112459000Y-49885000D03*
X112459000Y-96835000D03*
X136969000Y-49885000D03*
X136969000Y-96835000D03*
D20*
X112039000Y-57845000D03*
D21*
X112039000Y-60385000D03*
X112039000Y-62925000D03*
X112039000Y-65465000D03*
X112039000Y-68005000D03*
X112039000Y-70545000D03*
X112039000Y-73085000D03*
X112039000Y-75625000D03*
X112039000Y-78165000D03*
X112039000Y-80705000D03*
X112039000Y-83245000D03*
X112039000Y-85785000D03*
X112039000Y-88325000D03*
X112039000Y-90865000D03*
X112039000Y-93405000D03*
X137439000Y-93405000D03*
X137439000Y-90865000D03*
X137439000Y-88325000D03*
X137439000Y-85785000D03*
X137439000Y-83245000D03*
X137439000Y-80705000D03*
X137439000Y-78165000D03*
X137439000Y-75625000D03*
X137439000Y-73085000D03*
X137439000Y-70545000D03*
X137439000Y-68005000D03*
X137439000Y-65465000D03*
X137439000Y-62925000D03*
X137439000Y-60385000D03*
X137439000Y-57845000D03*
%TD*%
M02*
