%TF.GenerationSoftware,KiCad,Pcbnew,9.0.4*%
%TF.CreationDate,2026-07-15T12:47:50-05:00*%
%TF.ProjectId,esp32attachment,65737033-3261-4747-9461-63686d656e74,rev?*%
%TF.SameCoordinates,Original*%
%TF.FileFunction,Soldermask,Top*%
%TF.FilePolarity,Negative*%
%FSLAX46Y46*%
G04 Gerber Fmt 4.6, Leading zero omitted, Abs format (unit mm)*
G04 Created by KiCad (PCBNEW 9.0.4) date 2026-07-15 12:47:50*
%MOMM*%
%LPD*%
G01*
G04 APERTURE LIST*
G04 Aperture macros list*
%AMRoundRect*
0 Rectangle with rounded corners*
0 $1 Rounding radius*
0 $2 $3 $4 $5 $6 $7 $8 $9 X,Y pos of 4 corners*
0 Add a 4 corners polygon primitive as box body*
4,1,4,$2,$3,$4,$5,$6,$7,$8,$9,$2,$3,0*
0 Add four circle primitives for the rounded corners*
1,1,$1+$1,$2,$3*
1,1,$1+$1,$4,$5*
1,1,$1+$1,$6,$7*
1,1,$1+$1,$8,$9*
0 Add four rect primitives between the rounded corners*
20,1,$1+$1,$2,$3,$4,$5,0*
20,1,$1+$1,$4,$5,$6,$7,0*
20,1,$1+$1,$6,$7,$8,$9,0*
20,1,$1+$1,$8,$9,$2,$3,0*%
G04 Aperture macros list end*
%ADD10RoundRect,0.102000X-1.510000X0.485000X-1.510000X-0.485000X1.510000X-0.485000X1.510000X0.485000X0*%
%ADD11RoundRect,0.102000X-3.160000X2.835000X-3.160000X-2.835000X3.160000X-2.835000X3.160000X2.835000X0*%
%ADD12RoundRect,0.250000X-2.500000X0.250000X-2.500000X-0.250000X2.500000X-0.250000X2.500000X0.250000X0*%
%ADD13RoundRect,0.250000X-1.250000X0.550000X-1.250000X-0.550000X1.250000X-0.550000X1.250000X0.550000X0*%
%ADD14RoundRect,0.250000X2.500000X-0.250000X2.500000X0.250000X-2.500000X0.250000X-2.500000X-0.250000X0*%
%ADD15RoundRect,0.250000X1.250000X-0.550000X1.250000X0.550000X-1.250000X0.550000X-1.250000X-0.550000X0*%
%ADD16R,3.500000X3.500000*%
%ADD17RoundRect,0.750000X-1.000000X0.750000X-1.000000X-0.750000X1.000000X-0.750000X1.000000X0.750000X0*%
%ADD18RoundRect,0.875000X-0.875000X0.875000X-0.875000X-0.875000X0.875000X-0.875000X0.875000X0.875000X0*%
%ADD19RoundRect,0.250000X1.000000X-1.400000X1.000000X1.400000X-1.000000X1.400000X-1.000000X-1.400000X0*%
%ADD20RoundRect,0.250001X0.799999X-1.999999X0.799999X1.999999X-0.799999X1.999999X-0.799999X-1.999999X0*%
%ADD21RoundRect,0.250000X0.350000X0.450000X-0.350000X0.450000X-0.350000X-0.450000X0.350000X-0.450000X0*%
%ADD22RoundRect,0.102000X1.510000X-0.485000X1.510000X0.485000X-1.510000X0.485000X-1.510000X-0.485000X0*%
%ADD23RoundRect,0.102000X3.160000X-2.835000X3.160000X2.835000X-3.160000X2.835000X-3.160000X-2.835000X0*%
%ADD24C,2.700000*%
%ADD25RoundRect,0.250000X-0.350000X-0.450000X0.350000X-0.450000X0.350000X0.450000X-0.350000X0.450000X0*%
%ADD26RoundRect,0.250000X-0.550000X-0.550000X0.550000X-0.550000X0.550000X0.550000X-0.550000X0.550000X0*%
%ADD27C,1.600000*%
%ADD28RoundRect,0.250000X-1.000000X1.400000X-1.000000X-1.400000X1.000000X-1.400000X1.000000X1.400000X0*%
%ADD29RoundRect,0.250000X0.550000X0.550000X-0.550000X0.550000X-0.550000X-0.550000X0.550000X-0.550000X0*%
%ADD30C,3.000000*%
%ADD31RoundRect,0.102000X-1.000000X-1.000000X1.000000X-1.000000X1.000000X1.000000X-1.000000X1.000000X0*%
%ADD32C,2.204000*%
G04 APERTURE END LIST*
D10*
%TO.C,Q6*%
X161300000Y-85289000D03*
X161300000Y-89861000D03*
D11*
X167830000Y-87575000D03*
%TD*%
D12*
%TO.C,J2*%
X54925000Y-70025000D03*
X54925000Y-72025000D03*
D13*
X57175000Y-67625000D03*
X57175000Y-74425000D03*
%TD*%
D14*
%TO.C,J4*%
X193025000Y-53050000D03*
X193025000Y-51050000D03*
D15*
X190775000Y-55450000D03*
X190775000Y-48650000D03*
%TD*%
D16*
%TO.C,J7*%
X100525000Y-56625000D03*
D17*
X100525000Y-50625000D03*
D18*
X95825000Y-53625000D03*
%TD*%
D19*
%TO.C,D3*%
X66542000Y-87575000D03*
X73342000Y-87575000D03*
%TD*%
D20*
%TO.C,C1*%
X94675000Y-70525000D03*
X94675000Y-63325000D03*
%TD*%
D21*
%TO.C,R3*%
X108250000Y-88050000D03*
X106250000Y-88050000D03*
%TD*%
D22*
%TO.C,Q3*%
X86747000Y-89861000D03*
X86747000Y-85289000D03*
D23*
X80217000Y-87575000D03*
%TD*%
D24*
%TO.C,REF\u002A\u002A*%
X200000000Y-45000000D03*
%TD*%
D25*
%TO.C,R12*%
X165000000Y-94875000D03*
X167000000Y-94875000D03*
%TD*%
D22*
%TO.C,Q1*%
X86747000Y-54336000D03*
X86747000Y-49764000D03*
D23*
X80217000Y-52050000D03*
%TD*%
D21*
%TO.C,R2*%
X108250000Y-92975000D03*
X106250000Y-92975000D03*
%TD*%
D24*
%TO.C,REF\u002A\u002A*%
X49000000Y-96300000D03*
%TD*%
D25*
%TO.C,R7*%
X81975000Y-94875000D03*
X83975000Y-94875000D03*
%TD*%
%TO.C,R8*%
X81950000Y-77525000D03*
X83950000Y-77525000D03*
%TD*%
D26*
%TO.C,U3*%
X147220000Y-71165000D03*
D27*
X147220000Y-73705000D03*
X147220000Y-76245000D03*
X147220000Y-78785000D03*
X154840000Y-78785000D03*
X154840000Y-76245000D03*
X154840000Y-73705000D03*
X154840000Y-71165000D03*
%TD*%
D22*
%TO.C,Q2*%
X87040000Y-73311000D03*
X87040000Y-68739000D03*
D23*
X80510000Y-71025000D03*
%TD*%
D28*
%TO.C,D5*%
X181625000Y-71025000D03*
X174825000Y-71025000D03*
%TD*%
D24*
%TO.C,REF\u002A\u002A*%
X200000000Y-96300000D03*
%TD*%
D10*
%TO.C,Q5*%
X161300000Y-68739000D03*
X161300000Y-73311000D03*
D11*
X167830000Y-71025000D03*
%TD*%
D21*
%TO.C,R4*%
X108250000Y-83250000D03*
X106250000Y-83250000D03*
%TD*%
D25*
%TO.C,R5*%
X142096000Y-71165000D03*
X144096000Y-71165000D03*
%TD*%
%TO.C,R10*%
X165390000Y-58600000D03*
X167390000Y-58600000D03*
%TD*%
%TO.C,R6*%
X142221000Y-76130000D03*
X144221000Y-76130000D03*
%TD*%
D12*
%TO.C,J1*%
X54925000Y-51050000D03*
X54925000Y-53050000D03*
D13*
X57175000Y-48650000D03*
X57175000Y-55450000D03*
%TD*%
D29*
%TO.C,U2*%
X103275000Y-97850000D03*
D27*
X103275000Y-95310000D03*
X103275000Y-92770000D03*
X103275000Y-90230000D03*
X103275000Y-87690000D03*
X103275000Y-85150000D03*
X103275000Y-82610000D03*
X103275000Y-80070000D03*
X95655000Y-80070000D03*
X95655000Y-82610000D03*
X95655000Y-85150000D03*
X95655000Y-87690000D03*
X95655000Y-90230000D03*
X95655000Y-92770000D03*
X95655000Y-95310000D03*
X95655000Y-97850000D03*
%TD*%
D14*
%TO.C,J6*%
X193025000Y-88575000D03*
X193025000Y-86575000D03*
D15*
X190775000Y-90975000D03*
X190775000Y-84175000D03*
%TD*%
D14*
%TO.C,J5*%
X193025000Y-72025000D03*
X193025000Y-70025000D03*
D15*
X190775000Y-74425000D03*
X190775000Y-67625000D03*
%TD*%
D19*
%TO.C,D1*%
X66542000Y-52050000D03*
X73342000Y-52050000D03*
%TD*%
D28*
%TO.C,D4*%
X181625000Y-52050000D03*
X174825000Y-52050000D03*
%TD*%
D10*
%TO.C,Q4*%
X161300000Y-49764000D03*
X161300000Y-54336000D03*
D11*
X167830000Y-52050000D03*
%TD*%
D12*
%TO.C,J3*%
X54925000Y-86575000D03*
X54925000Y-88575000D03*
D13*
X57175000Y-84175000D03*
X57175000Y-90975000D03*
%TD*%
D25*
%TO.C,R11*%
X165390000Y-77525000D03*
X167390000Y-77525000D03*
%TD*%
D24*
%TO.C,REF\u002A\u002A*%
X49000000Y-45000000D03*
%TD*%
D30*
%TO.C,U1*%
X112459000Y-49885000D03*
X112459000Y-96835000D03*
X136969000Y-49885000D03*
X136969000Y-96835000D03*
D31*
X112039000Y-57845000D03*
D32*
X112039000Y-60385000D03*
X112039000Y-62925000D03*
X112039000Y-65465000D03*
X112039000Y-68005000D03*
X112039000Y-70545000D03*
X112039000Y-73085000D03*
X112039000Y-75625000D03*
X112039000Y-78165000D03*
X112039000Y-80705000D03*
X112039000Y-83245000D03*
X112039000Y-85785000D03*
X112039000Y-88325000D03*
X112039000Y-90865000D03*
X112039000Y-93405000D03*
X137439000Y-93405000D03*
X137439000Y-90865000D03*
X137439000Y-88325000D03*
X137439000Y-85785000D03*
X137439000Y-83245000D03*
X137439000Y-80705000D03*
X137439000Y-78165000D03*
X137439000Y-75625000D03*
X137439000Y-73085000D03*
X137439000Y-70545000D03*
X137439000Y-68005000D03*
X137439000Y-65465000D03*
X137439000Y-62925000D03*
X137439000Y-60385000D03*
X137439000Y-57845000D03*
%TD*%
D19*
%TO.C,D2*%
X66542000Y-71025000D03*
X73342000Y-71025000D03*
%TD*%
D20*
%TO.C,C2*%
X104525000Y-70525000D03*
X104525000Y-63325000D03*
%TD*%
D21*
%TO.C,R1*%
X108250000Y-98075000D03*
X106250000Y-98075000D03*
%TD*%
D28*
%TO.C,D6*%
X181625000Y-87575000D03*
X174825000Y-87575000D03*
%TD*%
D25*
%TO.C,R9*%
X81950000Y-58600000D03*
X83950000Y-58600000D03*
%TD*%
M02*
