%TF.GenerationSoftware,KiCad,Pcbnew,9.0.4*%
%TF.CreationDate,2026-07-15T12:47:48-05:00*%
%TF.ProjectId,esp32attachment,65737033-3261-4747-9461-63686d656e74,rev?*%
%TF.SameCoordinates,Original*%
%TF.FileFunction,Paste,Top*%
%TF.FilePolarity,Positive*%
%FSLAX46Y46*%
G04 Gerber Fmt 4.6, Leading zero omitted, Abs format (unit mm)*
G04 Created by KiCad (PCBNEW 9.0.4) date 2026-07-15 12:47:48*
%MOMM*%
%LPD*%
G01*
G04 APERTURE LIST*
G04 Aperture macros list*
%AMRoundRect*
0 Rectangle with rounded corners*
0 $1 Rounding radius*
0 $2 $3 $4 $5 $6 $7 $8 $9 X,Y pos of 4 corners*
0 Add a 4 corners polygon primitive as box body*
4,1,4,$2,$3,$4,$5,$6,$7,$8,$9,$2,$3,0*
0 Add four circle primitives for the rounded corners*
1,1,$1+$1,$2,$3*
1,1,$1+$1,$4,$5*
1,1,$1+$1,$6,$7*
1,1,$1+$1,$8,$9*
0 Add four rect primitives between the rounded corners*
20,1,$1+$1,$2,$3,$4,$5,0*
20,1,$1+$1,$4,$5,$6,$7,0*
20,1,$1+$1,$6,$7,$8,$9,0*
20,1,$1+$1,$8,$9,$2,$3,0*%
G04 Aperture macros list end*
%ADD10C,0.010000*%
%ADD11R,3.020000X0.970000*%
%ADD12RoundRect,0.250000X-2.500000X0.250000X-2.500000X-0.250000X2.500000X-0.250000X2.500000X0.250000X0*%
%ADD13RoundRect,0.250000X-1.250000X0.550000X-1.250000X-0.550000X1.250000X-0.550000X1.250000X0.550000X0*%
%ADD14RoundRect,0.250000X2.500000X-0.250000X2.500000X0.250000X-2.500000X0.250000X-2.500000X-0.250000X0*%
%ADD15RoundRect,0.250000X1.250000X-0.550000X1.250000X0.550000X-1.250000X0.550000X-1.250000X-0.550000X0*%
%ADD16RoundRect,0.250000X1.000000X-1.400000X1.000000X1.400000X-1.000000X1.400000X-1.000000X-1.400000X0*%
%ADD17RoundRect,0.250001X0.799999X-1.999999X0.799999X1.999999X-0.799999X1.999999X-0.799999X-1.999999X0*%
%ADD18RoundRect,0.250000X0.350000X0.450000X-0.350000X0.450000X-0.350000X-0.450000X0.350000X-0.450000X0*%
%ADD19RoundRect,0.250000X-0.350000X-0.450000X0.350000X-0.450000X0.350000X0.450000X-0.350000X0.450000X0*%
%ADD20RoundRect,0.250000X-1.000000X1.400000X-1.000000X-1.400000X1.000000X-1.400000X1.000000X1.400000X0*%
G04 APERTURE END LIST*
D10*
%TO.C,Q6*%
X166400000Y-87025000D02*
X165040000Y-87025000D01*
X165040000Y-85305000D01*
X166400000Y-85305000D01*
X166400000Y-87025000D01*
G36*
X166400000Y-87025000D02*
G01*
X165040000Y-87025000D01*
X165040000Y-85305000D01*
X166400000Y-85305000D01*
X166400000Y-87025000D01*
G37*
X166400000Y-89845000D02*
X165040000Y-89845000D01*
X165040000Y-88125000D01*
X166400000Y-88125000D01*
X166400000Y-89845000D01*
G36*
X166400000Y-89845000D02*
G01*
X165040000Y-89845000D01*
X165040000Y-88125000D01*
X166400000Y-88125000D01*
X166400000Y-89845000D01*
G37*
X168510000Y-87025000D02*
X167150000Y-87025000D01*
X167150000Y-85305000D01*
X168510000Y-85305000D01*
X168510000Y-87025000D01*
G36*
X168510000Y-87025000D02*
G01*
X167150000Y-87025000D01*
X167150000Y-85305000D01*
X168510000Y-85305000D01*
X168510000Y-87025000D01*
G37*
X168510000Y-89845000D02*
X167150000Y-89845000D01*
X167150000Y-88125000D01*
X168510000Y-88125000D01*
X168510000Y-89845000D01*
G36*
X168510000Y-89845000D02*
G01*
X167150000Y-89845000D01*
X167150000Y-88125000D01*
X168510000Y-88125000D01*
X168510000Y-89845000D01*
G37*
X170620000Y-87025000D02*
X169260000Y-87025000D01*
X169260000Y-85305000D01*
X170620000Y-85305000D01*
X170620000Y-87025000D01*
G36*
X170620000Y-87025000D02*
G01*
X169260000Y-87025000D01*
X169260000Y-85305000D01*
X170620000Y-85305000D01*
X170620000Y-87025000D01*
G37*
X170620000Y-89845000D02*
X169260000Y-89845000D01*
X169260000Y-88125000D01*
X170620000Y-88125000D01*
X170620000Y-89845000D01*
G36*
X170620000Y-89845000D02*
G01*
X169260000Y-89845000D01*
X169260000Y-88125000D01*
X170620000Y-88125000D01*
X170620000Y-89845000D01*
G37*
%TO.C,Q3*%
X78787000Y-87025000D02*
X77427000Y-87025000D01*
X77427000Y-85305000D01*
X78787000Y-85305000D01*
X78787000Y-87025000D01*
G36*
X78787000Y-87025000D02*
G01*
X77427000Y-87025000D01*
X77427000Y-85305000D01*
X78787000Y-85305000D01*
X78787000Y-87025000D01*
G37*
X78787000Y-89845000D02*
X77427000Y-89845000D01*
X77427000Y-88125000D01*
X78787000Y-88125000D01*
X78787000Y-89845000D01*
G36*
X78787000Y-89845000D02*
G01*
X77427000Y-89845000D01*
X77427000Y-88125000D01*
X78787000Y-88125000D01*
X78787000Y-89845000D01*
G37*
X80897000Y-87025000D02*
X79537000Y-87025000D01*
X79537000Y-85305000D01*
X80897000Y-85305000D01*
X80897000Y-87025000D01*
G36*
X80897000Y-87025000D02*
G01*
X79537000Y-87025000D01*
X79537000Y-85305000D01*
X80897000Y-85305000D01*
X80897000Y-87025000D01*
G37*
X80897000Y-89845000D02*
X79537000Y-89845000D01*
X79537000Y-88125000D01*
X80897000Y-88125000D01*
X80897000Y-89845000D01*
G36*
X80897000Y-89845000D02*
G01*
X79537000Y-89845000D01*
X79537000Y-88125000D01*
X80897000Y-88125000D01*
X80897000Y-89845000D01*
G37*
X83007000Y-87025000D02*
X81647000Y-87025000D01*
X81647000Y-85305000D01*
X83007000Y-85305000D01*
X83007000Y-87025000D01*
G36*
X83007000Y-87025000D02*
G01*
X81647000Y-87025000D01*
X81647000Y-85305000D01*
X83007000Y-85305000D01*
X83007000Y-87025000D01*
G37*
X83007000Y-89845000D02*
X81647000Y-89845000D01*
X81647000Y-88125000D01*
X83007000Y-88125000D01*
X83007000Y-89845000D01*
G36*
X83007000Y-89845000D02*
G01*
X81647000Y-89845000D01*
X81647000Y-88125000D01*
X83007000Y-88125000D01*
X83007000Y-89845000D01*
G37*
%TO.C,Q1*%
X78787000Y-51500000D02*
X77427000Y-51500000D01*
X77427000Y-49780000D01*
X78787000Y-49780000D01*
X78787000Y-51500000D01*
G36*
X78787000Y-51500000D02*
G01*
X77427000Y-51500000D01*
X77427000Y-49780000D01*
X78787000Y-49780000D01*
X78787000Y-51500000D01*
G37*
X78787000Y-54320000D02*
X77427000Y-54320000D01*
X77427000Y-52600000D01*
X78787000Y-52600000D01*
X78787000Y-54320000D01*
G36*
X78787000Y-54320000D02*
G01*
X77427000Y-54320000D01*
X77427000Y-52600000D01*
X78787000Y-52600000D01*
X78787000Y-54320000D01*
G37*
X80897000Y-51500000D02*
X79537000Y-51500000D01*
X79537000Y-49780000D01*
X80897000Y-49780000D01*
X80897000Y-51500000D01*
G36*
X80897000Y-51500000D02*
G01*
X79537000Y-51500000D01*
X79537000Y-49780000D01*
X80897000Y-49780000D01*
X80897000Y-51500000D01*
G37*
X80897000Y-54320000D02*
X79537000Y-54320000D01*
X79537000Y-52600000D01*
X80897000Y-52600000D01*
X80897000Y-54320000D01*
G36*
X80897000Y-54320000D02*
G01*
X79537000Y-54320000D01*
X79537000Y-52600000D01*
X80897000Y-52600000D01*
X80897000Y-54320000D01*
G37*
X83007000Y-51500000D02*
X81647000Y-51500000D01*
X81647000Y-49780000D01*
X83007000Y-49780000D01*
X83007000Y-51500000D01*
G36*
X83007000Y-51500000D02*
G01*
X81647000Y-51500000D01*
X81647000Y-49780000D01*
X83007000Y-49780000D01*
X83007000Y-51500000D01*
G37*
X83007000Y-54320000D02*
X81647000Y-54320000D01*
X81647000Y-52600000D01*
X83007000Y-52600000D01*
X83007000Y-54320000D01*
G36*
X83007000Y-54320000D02*
G01*
X81647000Y-54320000D01*
X81647000Y-52600000D01*
X83007000Y-52600000D01*
X83007000Y-54320000D01*
G37*
%TO.C,Q2*%
X79080000Y-70475000D02*
X77720000Y-70475000D01*
X77720000Y-68755000D01*
X79080000Y-68755000D01*
X79080000Y-70475000D01*
G36*
X79080000Y-70475000D02*
G01*
X77720000Y-70475000D01*
X77720000Y-68755000D01*
X79080000Y-68755000D01*
X79080000Y-70475000D01*
G37*
X79080000Y-73295000D02*
X77720000Y-73295000D01*
X77720000Y-71575000D01*
X79080000Y-71575000D01*
X79080000Y-73295000D01*
G36*
X79080000Y-73295000D02*
G01*
X77720000Y-73295000D01*
X77720000Y-71575000D01*
X79080000Y-71575000D01*
X79080000Y-73295000D01*
G37*
X81190000Y-70475000D02*
X79830000Y-70475000D01*
X79830000Y-68755000D01*
X81190000Y-68755000D01*
X81190000Y-70475000D01*
G36*
X81190000Y-70475000D02*
G01*
X79830000Y-70475000D01*
X79830000Y-68755000D01*
X81190000Y-68755000D01*
X81190000Y-70475000D01*
G37*
X81190000Y-73295000D02*
X79830000Y-73295000D01*
X79830000Y-71575000D01*
X81190000Y-71575000D01*
X81190000Y-73295000D01*
G36*
X81190000Y-73295000D02*
G01*
X79830000Y-73295000D01*
X79830000Y-71575000D01*
X81190000Y-71575000D01*
X81190000Y-73295000D01*
G37*
X83300000Y-70475000D02*
X81940000Y-70475000D01*
X81940000Y-68755000D01*
X83300000Y-68755000D01*
X83300000Y-70475000D01*
G36*
X83300000Y-70475000D02*
G01*
X81940000Y-70475000D01*
X81940000Y-68755000D01*
X83300000Y-68755000D01*
X83300000Y-70475000D01*
G37*
X83300000Y-73295000D02*
X81940000Y-73295000D01*
X81940000Y-71575000D01*
X83300000Y-71575000D01*
X83300000Y-73295000D01*
G36*
X83300000Y-73295000D02*
G01*
X81940000Y-73295000D01*
X81940000Y-71575000D01*
X83300000Y-71575000D01*
X83300000Y-73295000D01*
G37*
%TO.C,Q5*%
X166400000Y-70475000D02*
X165040000Y-70475000D01*
X165040000Y-68755000D01*
X166400000Y-68755000D01*
X166400000Y-70475000D01*
G36*
X166400000Y-70475000D02*
G01*
X165040000Y-70475000D01*
X165040000Y-68755000D01*
X166400000Y-68755000D01*
X166400000Y-70475000D01*
G37*
X166400000Y-73295000D02*
X165040000Y-73295000D01*
X165040000Y-71575000D01*
X166400000Y-71575000D01*
X166400000Y-73295000D01*
G36*
X166400000Y-73295000D02*
G01*
X165040000Y-73295000D01*
X165040000Y-71575000D01*
X166400000Y-71575000D01*
X166400000Y-73295000D01*
G37*
X168510000Y-70475000D02*
X167150000Y-70475000D01*
X167150000Y-68755000D01*
X168510000Y-68755000D01*
X168510000Y-70475000D01*
G36*
X168510000Y-70475000D02*
G01*
X167150000Y-70475000D01*
X167150000Y-68755000D01*
X168510000Y-68755000D01*
X168510000Y-70475000D01*
G37*
X168510000Y-73295000D02*
X167150000Y-73295000D01*
X167150000Y-71575000D01*
X168510000Y-71575000D01*
X168510000Y-73295000D01*
G36*
X168510000Y-73295000D02*
G01*
X167150000Y-73295000D01*
X167150000Y-71575000D01*
X168510000Y-71575000D01*
X168510000Y-73295000D01*
G37*
X170620000Y-70475000D02*
X169260000Y-70475000D01*
X169260000Y-68755000D01*
X170620000Y-68755000D01*
X170620000Y-70475000D01*
G36*
X170620000Y-70475000D02*
G01*
X169260000Y-70475000D01*
X169260000Y-68755000D01*
X170620000Y-68755000D01*
X170620000Y-70475000D01*
G37*
X170620000Y-73295000D02*
X169260000Y-73295000D01*
X169260000Y-71575000D01*
X170620000Y-71575000D01*
X170620000Y-73295000D01*
G36*
X170620000Y-73295000D02*
G01*
X169260000Y-73295000D01*
X169260000Y-71575000D01*
X170620000Y-71575000D01*
X170620000Y-73295000D01*
G37*
%TO.C,Q4*%
X166400000Y-51500000D02*
X165040000Y-51500000D01*
X165040000Y-49780000D01*
X166400000Y-49780000D01*
X166400000Y-51500000D01*
G36*
X166400000Y-51500000D02*
G01*
X165040000Y-51500000D01*
X165040000Y-49780000D01*
X166400000Y-49780000D01*
X166400000Y-51500000D01*
G37*
X166400000Y-54320000D02*
X165040000Y-54320000D01*
X165040000Y-52600000D01*
X166400000Y-52600000D01*
X166400000Y-54320000D01*
G36*
X166400000Y-54320000D02*
G01*
X165040000Y-54320000D01*
X165040000Y-52600000D01*
X166400000Y-52600000D01*
X166400000Y-54320000D01*
G37*
X168510000Y-51500000D02*
X167150000Y-51500000D01*
X167150000Y-49780000D01*
X168510000Y-49780000D01*
X168510000Y-51500000D01*
G36*
X168510000Y-51500000D02*
G01*
X167150000Y-51500000D01*
X167150000Y-49780000D01*
X168510000Y-49780000D01*
X168510000Y-51500000D01*
G37*
X168510000Y-54320000D02*
X167150000Y-54320000D01*
X167150000Y-52600000D01*
X168510000Y-52600000D01*
X168510000Y-54320000D01*
G36*
X168510000Y-54320000D02*
G01*
X167150000Y-54320000D01*
X167150000Y-52600000D01*
X168510000Y-52600000D01*
X168510000Y-54320000D01*
G37*
X170620000Y-51500000D02*
X169260000Y-51500000D01*
X169260000Y-49780000D01*
X170620000Y-49780000D01*
X170620000Y-51500000D01*
G36*
X170620000Y-51500000D02*
G01*
X169260000Y-51500000D01*
X169260000Y-49780000D01*
X170620000Y-49780000D01*
X170620000Y-51500000D01*
G37*
X170620000Y-54320000D02*
X169260000Y-54320000D01*
X169260000Y-52600000D01*
X170620000Y-52600000D01*
X170620000Y-54320000D01*
G36*
X170620000Y-54320000D02*
G01*
X169260000Y-54320000D01*
X169260000Y-52600000D01*
X170620000Y-52600000D01*
X170620000Y-54320000D01*
G37*
%TD*%
D11*
%TO.C,Q6*%
X161300000Y-85289000D03*
X161300000Y-89861000D03*
%TD*%
D12*
%TO.C,J2*%
X54925000Y-70025000D03*
X54925000Y-72025000D03*
D13*
X57175000Y-67625000D03*
X57175000Y-74425000D03*
%TD*%
D14*
%TO.C,J4*%
X193025000Y-53050000D03*
X193025000Y-51050000D03*
D15*
X190775000Y-55450000D03*
X190775000Y-48650000D03*
%TD*%
D16*
%TO.C,D3*%
X66542000Y-87575000D03*
X73342000Y-87575000D03*
%TD*%
D17*
%TO.C,C1*%
X94675000Y-70525000D03*
X94675000Y-63325000D03*
%TD*%
D18*
%TO.C,R3*%
X108250000Y-88050000D03*
X106250000Y-88050000D03*
%TD*%
D11*
%TO.C,Q3*%
X86747000Y-89861000D03*
X86747000Y-85289000D03*
%TD*%
D19*
%TO.C,R12*%
X165000000Y-94875000D03*
X167000000Y-94875000D03*
%TD*%
D11*
%TO.C,Q1*%
X86747000Y-54336000D03*
X86747000Y-49764000D03*
%TD*%
D18*
%TO.C,R2*%
X108250000Y-92975000D03*
X106250000Y-92975000D03*
%TD*%
D19*
%TO.C,R7*%
X81975000Y-94875000D03*
X83975000Y-94875000D03*
%TD*%
%TO.C,R8*%
X81950000Y-77525000D03*
X83950000Y-77525000D03*
%TD*%
D11*
%TO.C,Q2*%
X87040000Y-73311000D03*
X87040000Y-68739000D03*
%TD*%
D20*
%TO.C,D5*%
X181625000Y-71025000D03*
X174825000Y-71025000D03*
%TD*%
D11*
%TO.C,Q5*%
X161300000Y-68739000D03*
X161300000Y-73311000D03*
%TD*%
D18*
%TO.C,R4*%
X108250000Y-83250000D03*
X106250000Y-83250000D03*
%TD*%
D19*
%TO.C,R5*%
X142096000Y-71165000D03*
X144096000Y-71165000D03*
%TD*%
%TO.C,R10*%
X165390000Y-58600000D03*
X167390000Y-58600000D03*
%TD*%
%TO.C,R6*%
X142221000Y-76130000D03*
X144221000Y-76130000D03*
%TD*%
D12*
%TO.C,J1*%
X54925000Y-51050000D03*
X54925000Y-53050000D03*
D13*
X57175000Y-48650000D03*
X57175000Y-55450000D03*
%TD*%
D14*
%TO.C,J6*%
X193025000Y-88575000D03*
X193025000Y-86575000D03*
D15*
X190775000Y-90975000D03*
X190775000Y-84175000D03*
%TD*%
D14*
%TO.C,J5*%
X193025000Y-72025000D03*
X193025000Y-70025000D03*
D15*
X190775000Y-74425000D03*
X190775000Y-67625000D03*
%TD*%
D16*
%TO.C,D1*%
X66542000Y-52050000D03*
X73342000Y-52050000D03*
%TD*%
D20*
%TO.C,D4*%
X181625000Y-52050000D03*
X174825000Y-52050000D03*
%TD*%
D11*
%TO.C,Q4*%
X161300000Y-49764000D03*
X161300000Y-54336000D03*
%TD*%
D12*
%TO.C,J3*%
X54925000Y-86575000D03*
X54925000Y-88575000D03*
D13*
X57175000Y-84175000D03*
X57175000Y-90975000D03*
%TD*%
D19*
%TO.C,R11*%
X165390000Y-77525000D03*
X167390000Y-77525000D03*
%TD*%
D16*
%TO.C,D2*%
X66542000Y-71025000D03*
X73342000Y-71025000D03*
%TD*%
D17*
%TO.C,C2*%
X104525000Y-70525000D03*
X104525000Y-63325000D03*
%TD*%
D18*
%TO.C,R1*%
X108250000Y-98075000D03*
X106250000Y-98075000D03*
%TD*%
D20*
%TO.C,D6*%
X181625000Y-87575000D03*
X174825000Y-87575000D03*
%TD*%
D19*
%TO.C,R9*%
X81950000Y-58600000D03*
X83950000Y-58600000D03*
%TD*%
M02*
