%TF.GenerationSoftware,KiCad,Pcbnew,9.0.4*%
%TF.CreationDate,2026-07-15T12:47:48-05:00*%
%TF.ProjectId,esp32attachment,65737033-3261-4747-9461-63686d656e74,rev?*%
%TF.SameCoordinates,Original*%
%TF.FileFunction,Copper,L2,Bot*%
%TF.FilePolarity,Positive*%
%FSLAX46Y46*%
G04 Gerber Fmt 4.6, Leading zero omitted, Abs format (unit mm)*
G04 Created by KiCad (PCBNEW 9.0.4) date 2026-07-15 12:47:48*
%MOMM*%
%LPD*%
G01*
G04 APERTURE LIST*
G04 Aperture macros list*
%AMRoundRect*
0 Rectangle with rounded corners*
0 $1 Rounding radius*
0 $2 $3 $4 $5 $6 $7 $8 $9 X,Y pos of 4 corners*
0 Add a 4 corners polygon primitive as box body*
4,1,4,$2,$3,$4,$5,$6,$7,$8,$9,$2,$3,0*
0 Add four circle primitives for the rounded corners*
1,1,$1+$1,$2,$3*
1,1,$1+$1,$4,$5*
1,1,$1+$1,$6,$7*
1,1,$1+$1,$8,$9*
0 Add four rect primitives between the rounded corners*
20,1,$1+$1,$2,$3,$4,$5,0*
20,1,$1+$1,$4,$5,$6,$7,0*
20,1,$1+$1,$6,$7,$8,$9,0*
20,1,$1+$1,$8,$9,$2,$3,0*%
G04 Aperture macros list end*
%TA.AperFunction,ComponentPad*%
%ADD10R,3.500000X3.500000*%
%TD*%
%TA.AperFunction,ComponentPad*%
%ADD11RoundRect,0.750000X-1.000000X0.750000X-1.000000X-0.750000X1.000000X-0.750000X1.000000X0.750000X0*%
%TD*%
%TA.AperFunction,ComponentPad*%
%ADD12RoundRect,0.875000X-0.875000X0.875000X-0.875000X-0.875000X0.875000X-0.875000X0.875000X0.875000X0*%
%TD*%
%TA.AperFunction,ComponentPad*%
%ADD13RoundRect,0.250000X-0.550000X-0.550000X0.550000X-0.550000X0.550000X0.550000X-0.550000X0.550000X0*%
%TD*%
%TA.AperFunction,ComponentPad*%
%ADD14C,1.600000*%
%TD*%
%TA.AperFunction,ComponentPad*%
%ADD15RoundRect,0.250000X0.550000X0.550000X-0.550000X0.550000X-0.550000X-0.550000X0.550000X-0.550000X0*%
%TD*%
%TA.AperFunction,ComponentPad*%
%ADD16R,2.000000X2.000000*%
%TD*%
%TA.AperFunction,ComponentPad*%
%ADD17C,2.000000*%
%TD*%
%TA.AperFunction,ViaPad*%
%ADD18C,1.200000*%
%TD*%
G04 APERTURE END LIST*
D10*
%TO.P,J7,1,1*%
%TO.N,+12V*%
X100525000Y-56625000D03*
D11*
%TO.P,J7,2,2*%
%TO.N,GNDPWR*%
X100525000Y-50625000D03*
D12*
%TO.P,J7,3*%
%TO.N,N/C*%
X95825000Y-53625000D03*
%TD*%
D13*
%TO.P,U3,1*%
%TO.N,Net-(R5-Pad2)*%
X147220000Y-71165000D03*
D14*
%TO.P,U3,2*%
%TO.N,GND*%
X147220000Y-73705000D03*
%TO.P,U3,3*%
%TO.N,Net-(R6-Pad2)*%
X147220000Y-76245000D03*
%TO.P,U3,4*%
%TO.N,GND*%
X147220000Y-78785000D03*
%TO.P,U3,5*%
%TO.N,/FET_GATE6*%
X154840000Y-78785000D03*
%TO.P,U3,6*%
%TO.N,+12V*%
X154840000Y-76245000D03*
%TO.P,U3,7*%
%TO.N,/FET_GATE5*%
X154840000Y-73705000D03*
%TO.P,U3,8*%
%TO.N,+12V*%
X154840000Y-71165000D03*
%TD*%
D15*
%TO.P,U2,1*%
%TO.N,Net-(R1-Pad2)*%
X103275000Y-97850000D03*
D14*
%TO.P,U2,2*%
%TO.N,GND*%
X103275000Y-95310000D03*
%TO.P,U2,3*%
%TO.N,Net-(R2-Pad2)*%
X103275000Y-92770000D03*
%TO.P,U2,4*%
%TO.N,GND*%
X103275000Y-90230000D03*
%TO.P,U2,5*%
%TO.N,Net-(R3-Pad2)*%
X103275000Y-87690000D03*
%TO.P,U2,6*%
%TO.N,GND*%
X103275000Y-85150000D03*
%TO.P,U2,7*%
%TO.N,Net-(R4-Pad2)*%
X103275000Y-82610000D03*
%TO.P,U2,8*%
%TO.N,GND*%
X103275000Y-80070000D03*
%TO.P,U2,9*%
%TO.N,/FET_GATE4*%
X95655000Y-80070000D03*
%TO.P,U2,10*%
%TO.N,+12V*%
X95655000Y-82610000D03*
%TO.P,U2,11*%
%TO.N,/FET_GATE1*%
X95655000Y-85150000D03*
%TO.P,U2,12*%
%TO.N,+12V*%
X95655000Y-87690000D03*
%TO.P,U2,13*%
%TO.N,/FET_GATE2*%
X95655000Y-90230000D03*
%TO.P,U2,14*%
%TO.N,+12V*%
X95655000Y-92770000D03*
%TO.P,U2,15*%
%TO.N,/FET_GATE3*%
X95655000Y-95310000D03*
%TO.P,U2,16*%
%TO.N,+12V*%
X95655000Y-97850000D03*
%TD*%
D16*
%TO.P,U1,1,3V3*%
%TO.N,+3V3*%
X112039000Y-57845000D03*
D17*
%TO.P,U1,2,GND*%
%TO.N,GND*%
X112039000Y-60385000D03*
%TO.P,U1,3,D15*%
%TO.N,unconnected-(U1-D15-Pad3)*%
X112039000Y-62925000D03*
%TO.P,U1,4,D2*%
%TO.N,unconnected-(U1-D2-Pad4)*%
X112039000Y-65465000D03*
%TO.P,U1,5,D4*%
%TO.N,unconnected-(U1-D4-Pad5)*%
X112039000Y-68005000D03*
%TO.P,U1,6,RX2*%
%TO.N,unconnected-(U1-RX2-Pad6)*%
X112039000Y-70545000D03*
%TO.P,U1,7,TX2*%
%TO.N,unconnected-(U1-TX2-Pad7)*%
X112039000Y-73085000D03*
%TO.P,U1,8,D5*%
%TO.N,unconnected-(U1-D5-Pad8)*%
X112039000Y-75625000D03*
%TO.P,U1,9,D18*%
%TO.N,unconnected-(U1-D18-Pad9)*%
X112039000Y-78165000D03*
%TO.P,U1,10,D19*%
%TO.N,unconnected-(U1-D19-Pad10)*%
X112039000Y-80705000D03*
%TO.P,U1,11,D21*%
%TO.N,unconnected-(U1-D21-Pad11)*%
X112039000Y-83245000D03*
%TO.P,U1,12,RX0*%
%TO.N,unconnected-(U1-RX0-Pad12)*%
X112039000Y-85785000D03*
%TO.P,U1,13,TX0*%
%TO.N,unconnected-(U1-TX0-Pad13)*%
X112039000Y-88325000D03*
%TO.P,U1,14,D22*%
%TO.N,unconnected-(U1-D22-Pad14)*%
X112039000Y-90865000D03*
%TO.P,U1,15,D23*%
%TO.N,unconnected-(U1-D23-Pad15)*%
X112039000Y-93405000D03*
%TO.P,U1,16,EN*%
%TO.N,unconnected-(U1-EN-Pad16)*%
X137439000Y-93405000D03*
%TO.P,U1,17,VP*%
%TO.N,unconnected-(U1-VP-Pad17)*%
X137439000Y-90865000D03*
%TO.P,U1,18,VN*%
%TO.N,unconnected-(U1-VN-Pad18)*%
X137439000Y-88325000D03*
%TO.P,U1,19,D34*%
%TO.N,unconnected-(U1-D34-Pad19)*%
X137439000Y-85785000D03*
%TO.P,U1,20,D35*%
%TO.N,unconnected-(U1-D35-Pad20)*%
X137439000Y-83245000D03*
%TO.P,U1,21,D32*%
%TO.N,unconnected-(U1-D32-Pad21)*%
X137439000Y-80705000D03*
%TO.P,U1,22,D33*%
%TO.N,unconnected-(U1-D33-Pad22)*%
X137439000Y-78165000D03*
%TO.P,U1,23,D25*%
%TO.N,/GPIO25*%
X137439000Y-75625000D03*
%TO.P,U1,24,D26*%
%TO.N,/GPIO26*%
X137439000Y-73085000D03*
%TO.P,U1,25,D27*%
%TO.N,/GPIO27*%
X137439000Y-70545000D03*
%TO.P,U1,26,D14*%
%TO.N,/GPIO14*%
X137439000Y-68005000D03*
%TO.P,U1,27,D12*%
%TO.N,/GPIO12*%
X137439000Y-65465000D03*
%TO.P,U1,28,D13*%
%TO.N,/GPIO13*%
X137439000Y-62925000D03*
%TO.P,U1,29,GND*%
%TO.N,GND*%
X137439000Y-60385000D03*
%TO.P,U1,30,VIN*%
%TO.N,unconnected-(U1-VIN-Pad30)*%
X137439000Y-57845000D03*
%TD*%
D18*
%TO.N,GNDPWR*%
X85975000Y-57975000D03*
X102375000Y-45875000D03*
X98575000Y-44250000D03*
X100475000Y-45875000D03*
X98575000Y-47300000D03*
X102725000Y-61475000D03*
X102300000Y-44300000D03*
X90325000Y-50550000D03*
X162475000Y-75250000D03*
X162350000Y-91875000D03*
X100500000Y-47300000D03*
X96750000Y-61400000D03*
X98575000Y-45875000D03*
X86100000Y-76800000D03*
X162050000Y-56250000D03*
X169800000Y-57375000D03*
X100500000Y-44275000D03*
X169850000Y-93775000D03*
X169800000Y-76500000D03*
X86150000Y-93850000D03*
X87750000Y-66400000D03*
X102400000Y-47350000D03*
X87600000Y-83550000D03*
%TD*%
%TA.AperFunction,Conductor*%
%TO.N,GND*%
G36*
X151943199Y-46117436D02*
G01*
X151979579Y-46166632D01*
X151984673Y-46199543D01*
X151626981Y-69394500D01*
X151601086Y-71073678D01*
X151600643Y-71102432D01*
X151561473Y-73642432D01*
X151522303Y-76182432D01*
X151483576Y-78693678D01*
X151483133Y-78722432D01*
X151238695Y-94573245D01*
X151214081Y-96169328D01*
X151213638Y-96198081D01*
X151213638Y-96198083D01*
X151174763Y-98718866D01*
X151174764Y-98718889D01*
X151176889Y-98741054D01*
X151163621Y-98800783D01*
X151117778Y-98841306D01*
X151078341Y-98849500D01*
X133618000Y-98849500D01*
X133559809Y-98830593D01*
X133523845Y-98781093D01*
X133519000Y-98750500D01*
X133519000Y-96720265D01*
X135218500Y-96720265D01*
X135218500Y-96949734D01*
X135248452Y-97177238D01*
X135307841Y-97398885D01*
X135395653Y-97610883D01*
X135395656Y-97610888D01*
X135510389Y-97809612D01*
X135650081Y-97991661D01*
X135812339Y-98153919D01*
X135994388Y-98293611D01*
X136193112Y-98408344D01*
X136193113Y-98408344D01*
X136193116Y-98408346D01*
X136289167Y-98448131D01*
X136405113Y-98496158D01*
X136626762Y-98555548D01*
X136854266Y-98585500D01*
X136854267Y-98585500D01*
X137083733Y-98585500D01*
X137083734Y-98585500D01*
X137311238Y-98555548D01*
X137532887Y-98496158D01*
X137744888Y-98408344D01*
X137943612Y-98293611D01*
X138125661Y-98153919D01*
X138287919Y-97991661D01*
X138427611Y-97809612D01*
X138542344Y-97610888D01*
X138630158Y-97398887D01*
X138689548Y-97177238D01*
X138719500Y-96949734D01*
X138719500Y-96720266D01*
X138689548Y-96492762D01*
X138630158Y-96271113D01*
X138582131Y-96155167D01*
X138542346Y-96059116D01*
X138506340Y-95996752D01*
X138427611Y-95860388D01*
X138287919Y-95678339D01*
X138125661Y-95516081D01*
X137943612Y-95376389D01*
X137943613Y-95376389D01*
X137943611Y-95376388D01*
X137744883Y-95261653D01*
X137532885Y-95173841D01*
X137311238Y-95114452D01*
X137083734Y-95084500D01*
X136854266Y-95084500D01*
X136854265Y-95084500D01*
X136626761Y-95114452D01*
X136405114Y-95173841D01*
X136193116Y-95261653D01*
X135994388Y-95376388D01*
X135812342Y-95516078D01*
X135650078Y-95678342D01*
X135510388Y-95860388D01*
X135395653Y-96059116D01*
X135307841Y-96271114D01*
X135248452Y-96492761D01*
X135218500Y-96720265D01*
X133519000Y-96720265D01*
X133519000Y-93314450D01*
X136288500Y-93314450D01*
X136288500Y-93495549D01*
X136316828Y-93674406D01*
X136316829Y-93674409D01*
X136372789Y-93846639D01*
X136455004Y-94007994D01*
X136561447Y-94154501D01*
X136689499Y-94282553D01*
X136836006Y-94388996D01*
X136997361Y-94471211D01*
X137169591Y-94527171D01*
X137241136Y-94538502D01*
X137348451Y-94555500D01*
X137348454Y-94555500D01*
X137529549Y-94555500D01*
X137618977Y-94541335D01*
X137708409Y-94527171D01*
X137880639Y-94471211D01*
X138041994Y-94388996D01*
X138188501Y-94282553D01*
X138316553Y-94154501D01*
X138422996Y-94007994D01*
X138505211Y-93846639D01*
X138561171Y-93674409D01*
X138589500Y-93495546D01*
X138589500Y-93314454D01*
X138589500Y-93314450D01*
X138561171Y-93135593D01*
X138561171Y-93135591D01*
X138505211Y-92963361D01*
X138422996Y-92802006D01*
X138316553Y-92655499D01*
X138188501Y-92527447D01*
X138041994Y-92421004D01*
X138041993Y-92421003D01*
X138041991Y-92421002D01*
X137880637Y-92338788D01*
X137708406Y-92282828D01*
X137529549Y-92254500D01*
X137529546Y-92254500D01*
X137348454Y-92254500D01*
X137348451Y-92254500D01*
X137169593Y-92282828D01*
X136997362Y-92338788D01*
X136836008Y-92421002D01*
X136762752Y-92474225D01*
X136689499Y-92527447D01*
X136561447Y-92655499D01*
X136544498Y-92678828D01*
X136455002Y-92802008D01*
X136372788Y-92963362D01*
X136316828Y-93135593D01*
X136288500Y-93314450D01*
X133519000Y-93314450D01*
X133519000Y-92345001D01*
X133519000Y-92345000D01*
X115829000Y-92345000D01*
X115829000Y-92345001D01*
X115829000Y-98750500D01*
X115810093Y-98808691D01*
X115760593Y-98844655D01*
X115730000Y-98849500D01*
X104374338Y-98849500D01*
X104316147Y-98830593D01*
X104280183Y-98781093D01*
X104280183Y-98719907D01*
X104295454Y-98690681D01*
X104298937Y-98686088D01*
X104309361Y-98672342D01*
X104364877Y-98531564D01*
X104375500Y-98443102D01*
X104375500Y-97256898D01*
X104364877Y-97168436D01*
X104309361Y-97027658D01*
X104217922Y-96907078D01*
X104210615Y-96901537D01*
X104097344Y-96815640D01*
X104097342Y-96815639D01*
X104034526Y-96790867D01*
X103956565Y-96760123D01*
X103868106Y-96749500D01*
X103868102Y-96749500D01*
X102681898Y-96749500D01*
X102681893Y-96749500D01*
X102593434Y-96760123D01*
X102452660Y-96815637D01*
X102452656Y-96815640D01*
X102332081Y-96907075D01*
X102332075Y-96907081D01*
X102240640Y-97027656D01*
X102240637Y-97027660D01*
X102185123Y-97168434D01*
X102174500Y-97256893D01*
X102174500Y-98443106D01*
X102185123Y-98531565D01*
X102240637Y-98672339D01*
X102240640Y-98672343D01*
X102254546Y-98690681D01*
X102274641Y-98748472D01*
X102256930Y-98807038D01*
X102208177Y-98844008D01*
X102175662Y-98849500D01*
X99874193Y-98849500D01*
X99816002Y-98830593D01*
X99780038Y-98781093D01*
X99776299Y-98735744D01*
X99777403Y-98728413D01*
X99777404Y-98728409D01*
X99791006Y-96720265D01*
X110708500Y-96720265D01*
X110708500Y-96949734D01*
X110738452Y-97177238D01*
X110797841Y-97398885D01*
X110885653Y-97610883D01*
X110885656Y-97610888D01*
X111000389Y-97809612D01*
X111140081Y-97991661D01*
X111302339Y-98153919D01*
X111484388Y-98293611D01*
X111683112Y-98408344D01*
X111683113Y-98408344D01*
X111683116Y-98408346D01*
X111779167Y-98448131D01*
X111895113Y-98496158D01*
X112116762Y-98555548D01*
X112344266Y-98585500D01*
X112344267Y-98585500D01*
X112573733Y-98585500D01*
X112573734Y-98585500D01*
X112801238Y-98555548D01*
X113022887Y-98496158D01*
X113234888Y-98408344D01*
X113433612Y-98293611D01*
X113615661Y-98153919D01*
X113777919Y-97991661D01*
X113917611Y-97809612D01*
X114032344Y-97610888D01*
X114120158Y-97398887D01*
X114179548Y-97177238D01*
X114209500Y-96949734D01*
X114209500Y-96720266D01*
X114179548Y-96492762D01*
X114120158Y-96271113D01*
X114072131Y-96155167D01*
X114032346Y-96059116D01*
X113996340Y-95996752D01*
X113917611Y-95860388D01*
X113777919Y-95678339D01*
X113615661Y-95516081D01*
X113433612Y-95376389D01*
X113433613Y-95376389D01*
X113433611Y-95376388D01*
X113234883Y-95261653D01*
X113022885Y-95173841D01*
X112801238Y-95114452D01*
X112573734Y-95084500D01*
X112344266Y-95084500D01*
X112344265Y-95084500D01*
X112116761Y-95114452D01*
X111895114Y-95173841D01*
X111683116Y-95261653D01*
X111484388Y-95376388D01*
X111302342Y-95516078D01*
X111140078Y-95678342D01*
X111000388Y-95860388D01*
X110885653Y-96059116D01*
X110797841Y-96271114D01*
X110738452Y-96492761D01*
X110708500Y-96720265D01*
X99791006Y-96720265D01*
X99801144Y-95223424D01*
X102175000Y-95223424D01*
X102175000Y-95396575D01*
X102202084Y-95567579D01*
X102255588Y-95732248D01*
X102334195Y-95886524D01*
X102334197Y-95886528D01*
X102398219Y-95974646D01*
X102904532Y-95468332D01*
X102954920Y-95555606D01*
X103029394Y-95630080D01*
X103116665Y-95680465D01*
X102610352Y-96186778D01*
X102698477Y-96250805D01*
X102852751Y-96329411D01*
X103017420Y-96382915D01*
X103188425Y-96410000D01*
X103361575Y-96410000D01*
X103532579Y-96382915D01*
X103697248Y-96329411D01*
X103851524Y-96250804D01*
X103851530Y-96250800D01*
X103939646Y-96186779D01*
X103939646Y-96186778D01*
X103433333Y-95680466D01*
X103520606Y-95630080D01*
X103595080Y-95555606D01*
X103645466Y-95468333D01*
X104151778Y-95974646D01*
X104151779Y-95974646D01*
X104215800Y-95886530D01*
X104215804Y-95886524D01*
X104294411Y-95732248D01*
X104347915Y-95567579D01*
X104375000Y-95396575D01*
X104375000Y-95223424D01*
X104347915Y-95052420D01*
X104294411Y-94887751D01*
X104215805Y-94733477D01*
X104151778Y-94645352D01*
X103645465Y-95151665D01*
X103595080Y-95064394D01*
X103520606Y-94989920D01*
X103433332Y-94939532D01*
X103939646Y-94433219D01*
X103851528Y-94369197D01*
X103851524Y-94369195D01*
X103697248Y-94290588D01*
X103532579Y-94237084D01*
X103361575Y-94210000D01*
X103188425Y-94210000D01*
X103017420Y-94237084D01*
X102852751Y-94290588D01*
X102698476Y-94369195D01*
X102610352Y-94433219D01*
X103116666Y-94939533D01*
X103029394Y-94989920D01*
X102954920Y-95064394D01*
X102904533Y-95151666D01*
X102398219Y-94645352D01*
X102334195Y-94733476D01*
X102255588Y-94887751D01*
X102202084Y-95052420D01*
X102175000Y-95223424D01*
X99801144Y-95223424D01*
X99805548Y-94573246D01*
X99806246Y-94470280D01*
X99818349Y-92683385D01*
X102174500Y-92683385D01*
X102174500Y-92856614D01*
X102201597Y-93027702D01*
X102201598Y-93027706D01*
X102255123Y-93192438D01*
X102255125Y-93192441D01*
X102333765Y-93346784D01*
X102333768Y-93346788D01*
X102435586Y-93486928D01*
X102558072Y-93609414D01*
X102698212Y-93711232D01*
X102852555Y-93789873D01*
X102852557Y-93789873D01*
X102852558Y-93789874D01*
X102852561Y-93789876D01*
X103017293Y-93843401D01*
X103017297Y-93843402D01*
X103188386Y-93870500D01*
X103188389Y-93870500D01*
X103361614Y-93870500D01*
X103532702Y-93843402D01*
X103532706Y-93843401D01*
X103697438Y-93789876D01*
X103697440Y-93789874D01*
X103697445Y-93789873D01*
X103851788Y-93711232D01*
X103991928Y-93609414D01*
X104114414Y-93486928D01*
X104216232Y-93346788D01*
X104232709Y-93314450D01*
X110888500Y-93314450D01*
X110888500Y-93495549D01*
X110916828Y-93674406D01*
X110916829Y-93674409D01*
X110972789Y-93846639D01*
X111055004Y-94007994D01*
X111161447Y-94154501D01*
X111289499Y-94282553D01*
X111436006Y-94388996D01*
X111597361Y-94471211D01*
X111769591Y-94527171D01*
X111841136Y-94538502D01*
X111948451Y-94555500D01*
X111948454Y-94555500D01*
X112129549Y-94555500D01*
X112218977Y-94541335D01*
X112308409Y-94527171D01*
X112480639Y-94471211D01*
X112641994Y-94388996D01*
X112788501Y-94282553D01*
X112916553Y-94154501D01*
X113022996Y-94007994D01*
X113105211Y-93846639D01*
X113161171Y-93674409D01*
X113189500Y-93495546D01*
X113189500Y-93314454D01*
X113189500Y-93314450D01*
X113161171Y-93135593D01*
X113161171Y-93135591D01*
X113105211Y-92963361D01*
X113022996Y-92802006D01*
X112916553Y-92655499D01*
X112788501Y-92527447D01*
X112641994Y-92421004D01*
X112641993Y-92421003D01*
X112641991Y-92421002D01*
X112480637Y-92338788D01*
X112308406Y-92282828D01*
X112129549Y-92254500D01*
X112129546Y-92254500D01*
X111948454Y-92254500D01*
X111948451Y-92254500D01*
X111769593Y-92282828D01*
X111597362Y-92338788D01*
X111436008Y-92421002D01*
X111362752Y-92474225D01*
X111289499Y-92527447D01*
X111161447Y-92655499D01*
X111144498Y-92678828D01*
X111055002Y-92802008D01*
X110972788Y-92963362D01*
X110916828Y-93135593D01*
X110888500Y-93314450D01*
X104232709Y-93314450D01*
X104294873Y-93192445D01*
X104294874Y-93192440D01*
X104294876Y-93192438D01*
X104348401Y-93027706D01*
X104348402Y-93027702D01*
X104375500Y-92856614D01*
X104375500Y-92683385D01*
X104348402Y-92512297D01*
X104348401Y-92512293D01*
X104294876Y-92347561D01*
X104294874Y-92347558D01*
X104294873Y-92347557D01*
X104294873Y-92347555D01*
X104216232Y-92193212D01*
X104114414Y-92053072D01*
X103991928Y-91930586D01*
X103851788Y-91828768D01*
X103851787Y-91828767D01*
X103851785Y-91828766D01*
X103697441Y-91750125D01*
X103697438Y-91750123D01*
X103532706Y-91696598D01*
X103532702Y-91696597D01*
X103361614Y-91669500D01*
X103361611Y-91669500D01*
X103188389Y-91669500D01*
X103188386Y-91669500D01*
X103017297Y-91696597D01*
X103017293Y-91696598D01*
X102852561Y-91750123D01*
X102852558Y-91750125D01*
X102698214Y-91828766D01*
X102558073Y-91930585D01*
X102435585Y-92053073D01*
X102333766Y-92193214D01*
X102255125Y-92347558D01*
X102255123Y-92347561D01*
X102201598Y-92512293D01*
X102201597Y-92512297D01*
X102174500Y-92683385D01*
X99818349Y-92683385D01*
X99818380Y-92678828D01*
X99825033Y-91696597D01*
X99835553Y-90143424D01*
X102175000Y-90143424D01*
X102175000Y-90316575D01*
X102202084Y-90487579D01*
X102255588Y-90652248D01*
X102334195Y-90806524D01*
X102334197Y-90806528D01*
X102398219Y-90894646D01*
X102904532Y-90388332D01*
X102954920Y-90475606D01*
X103029394Y-90550080D01*
X103116665Y-90600465D01*
X102610352Y-91106778D01*
X102698477Y-91170805D01*
X102852751Y-91249411D01*
X103017420Y-91302915D01*
X103188425Y-91330000D01*
X103361575Y-91330000D01*
X103532579Y-91302915D01*
X103697248Y-91249411D01*
X103851524Y-91170804D01*
X103851530Y-91170800D01*
X103939646Y-91106779D01*
X103939646Y-91106778D01*
X103433333Y-90600466D01*
X103520606Y-90550080D01*
X103595080Y-90475606D01*
X103645466Y-90388333D01*
X104151778Y-90894646D01*
X104151779Y-90894646D01*
X104215800Y-90806530D01*
X104215807Y-90806519D01*
X104232147Y-90774450D01*
X110888500Y-90774450D01*
X110888500Y-90955549D01*
X110916828Y-91134406D01*
X110928654Y-91170805D01*
X110972789Y-91306639D01*
X111055004Y-91467994D01*
X111161447Y-91614501D01*
X111289499Y-91742553D01*
X111436006Y-91848996D01*
X111597361Y-91931211D01*
X111769591Y-91987171D01*
X111841136Y-91998502D01*
X111948451Y-92015500D01*
X111948454Y-92015500D01*
X112129549Y-92015500D01*
X112218977Y-92001335D01*
X112308409Y-91987171D01*
X112480639Y-91931211D01*
X112641994Y-91848996D01*
X112788501Y-91742553D01*
X112916553Y-91614501D01*
X113022996Y-91467994D01*
X113105211Y-91306639D01*
X113161171Y-91134409D01*
X113189500Y-90955546D01*
X113189500Y-90774454D01*
X113189500Y-90774450D01*
X136288500Y-90774450D01*
X136288500Y-90955549D01*
X136316828Y-91134406D01*
X136328654Y-91170805D01*
X136372789Y-91306639D01*
X136455004Y-91467994D01*
X136561447Y-91614501D01*
X136689499Y-91742553D01*
X136836006Y-91848996D01*
X136997361Y-91931211D01*
X137169591Y-91987171D01*
X137241136Y-91998502D01*
X137348451Y-92015500D01*
X137348454Y-92015500D01*
X137529549Y-92015500D01*
X137618977Y-92001335D01*
X137708409Y-91987171D01*
X137880639Y-91931211D01*
X138041994Y-91848996D01*
X138188501Y-91742553D01*
X138316553Y-91614501D01*
X138422996Y-91467994D01*
X138505211Y-91306639D01*
X138561171Y-91134409D01*
X138589500Y-90955546D01*
X138589500Y-90774454D01*
X138589500Y-90774450D01*
X138561171Y-90595593D01*
X138561171Y-90595591D01*
X138505211Y-90423361D01*
X138422996Y-90262006D01*
X138316553Y-90115499D01*
X138188501Y-89987447D01*
X138041994Y-89881004D01*
X138041993Y-89881003D01*
X138041991Y-89881002D01*
X137880637Y-89798788D01*
X137708406Y-89742828D01*
X137529549Y-89714500D01*
X137529546Y-89714500D01*
X137348454Y-89714500D01*
X137348451Y-89714500D01*
X137169593Y-89742828D01*
X136997362Y-89798788D01*
X136836008Y-89881002D01*
X136762752Y-89934225D01*
X136689499Y-89987447D01*
X136561447Y-90115499D01*
X136523716Y-90167432D01*
X136455002Y-90262008D01*
X136372788Y-90423362D01*
X136316828Y-90595593D01*
X136288500Y-90774450D01*
X113189500Y-90774450D01*
X113161171Y-90595593D01*
X113161171Y-90595591D01*
X113105211Y-90423361D01*
X113022996Y-90262006D01*
X112916553Y-90115499D01*
X112788501Y-89987447D01*
X112641994Y-89881004D01*
X112641993Y-89881003D01*
X112641991Y-89881002D01*
X112480637Y-89798788D01*
X112308406Y-89742828D01*
X112129549Y-89714500D01*
X112129546Y-89714500D01*
X111948454Y-89714500D01*
X111948451Y-89714500D01*
X111769593Y-89742828D01*
X111597362Y-89798788D01*
X111436008Y-89881002D01*
X111362752Y-89934225D01*
X111289499Y-89987447D01*
X111161447Y-90115499D01*
X111123716Y-90167432D01*
X111055002Y-90262008D01*
X110972788Y-90423362D01*
X110916828Y-90595593D01*
X110888500Y-90774450D01*
X104232147Y-90774450D01*
X104257027Y-90725620D01*
X104257027Y-90725619D01*
X104294411Y-90652248D01*
X104347915Y-90487579D01*
X104375000Y-90316575D01*
X104375000Y-90143424D01*
X104347915Y-89972420D01*
X104294411Y-89807751D01*
X104215805Y-89653477D01*
X104151778Y-89565352D01*
X103645465Y-90071665D01*
X103595080Y-89984394D01*
X103520606Y-89909920D01*
X103433332Y-89859532D01*
X103939646Y-89353219D01*
X103851528Y-89289197D01*
X103851524Y-89289195D01*
X103697248Y-89210588D01*
X103532579Y-89157084D01*
X103361575Y-89130000D01*
X103188425Y-89130000D01*
X103017420Y-89157084D01*
X102852751Y-89210588D01*
X102698476Y-89289195D01*
X102610352Y-89353219D01*
X103116666Y-89859533D01*
X103029394Y-89909920D01*
X102954920Y-89984394D01*
X102904533Y-90071666D01*
X102398219Y-89565352D01*
X102334195Y-89653476D01*
X102255588Y-89807751D01*
X102202084Y-89972420D01*
X102175000Y-90143424D01*
X99835553Y-90143424D01*
X99852758Y-87603385D01*
X102174500Y-87603385D01*
X102174500Y-87776614D01*
X102201597Y-87947702D01*
X102201598Y-87947706D01*
X102255123Y-88112438D01*
X102255125Y-88112441D01*
X102333765Y-88266784D01*
X102333768Y-88266788D01*
X102435586Y-88406928D01*
X102558072Y-88529414D01*
X102698212Y-88631232D01*
X102852555Y-88709873D01*
X102852557Y-88709873D01*
X102852558Y-88709874D01*
X102852561Y-88709876D01*
X103017293Y-88763401D01*
X103017297Y-88763402D01*
X103188386Y-88790500D01*
X103188389Y-88790500D01*
X103361614Y-88790500D01*
X103532702Y-88763402D01*
X103532706Y-88763401D01*
X103697438Y-88709876D01*
X103697440Y-88709874D01*
X103697445Y-88709873D01*
X103851788Y-88631232D01*
X103991928Y-88529414D01*
X104114414Y-88406928D01*
X104216232Y-88266788D01*
X104232709Y-88234450D01*
X110888500Y-88234450D01*
X110888500Y-88415549D01*
X110916828Y-88594406D01*
X110916829Y-88594409D01*
X110972789Y-88766639D01*
X111055004Y-88927994D01*
X111161447Y-89074501D01*
X111289499Y-89202553D01*
X111436006Y-89308996D01*
X111597361Y-89391211D01*
X111769591Y-89447171D01*
X111841136Y-89458502D01*
X111948451Y-89475500D01*
X111948454Y-89475500D01*
X112129549Y-89475500D01*
X112218977Y-89461335D01*
X112308409Y-89447171D01*
X112480639Y-89391211D01*
X112641994Y-89308996D01*
X112788501Y-89202553D01*
X112916553Y-89074501D01*
X113022996Y-88927994D01*
X113105211Y-88766639D01*
X113161171Y-88594409D01*
X113189500Y-88415546D01*
X113189500Y-88234454D01*
X113189500Y-88234450D01*
X136288500Y-88234450D01*
X136288500Y-88415549D01*
X136316828Y-88594406D01*
X136316829Y-88594409D01*
X136372789Y-88766639D01*
X136455004Y-88927994D01*
X136561447Y-89074501D01*
X136689499Y-89202553D01*
X136836006Y-89308996D01*
X136997361Y-89391211D01*
X137169591Y-89447171D01*
X137241136Y-89458502D01*
X137348451Y-89475500D01*
X137348454Y-89475500D01*
X137529549Y-89475500D01*
X137618977Y-89461335D01*
X137708409Y-89447171D01*
X137880639Y-89391211D01*
X138041994Y-89308996D01*
X138188501Y-89202553D01*
X138316553Y-89074501D01*
X138422996Y-88927994D01*
X138505211Y-88766639D01*
X138561171Y-88594409D01*
X138589500Y-88415546D01*
X138589500Y-88234454D01*
X138589500Y-88234450D01*
X138561171Y-88055593D01*
X138561171Y-88055591D01*
X138505211Y-87883361D01*
X138422996Y-87722006D01*
X138316553Y-87575499D01*
X138188501Y-87447447D01*
X138041994Y-87341004D01*
X138041993Y-87341003D01*
X138041991Y-87341002D01*
X137880637Y-87258788D01*
X137708406Y-87202828D01*
X137529549Y-87174500D01*
X137529546Y-87174500D01*
X137348454Y-87174500D01*
X137348451Y-87174500D01*
X137169593Y-87202828D01*
X136997362Y-87258788D01*
X136836008Y-87341002D01*
X136762752Y-87394225D01*
X136689499Y-87447447D01*
X136561447Y-87575499D01*
X136544498Y-87598828D01*
X136455002Y-87722008D01*
X136372788Y-87883362D01*
X136316828Y-88055593D01*
X136288500Y-88234450D01*
X113189500Y-88234450D01*
X113161171Y-88055593D01*
X113161171Y-88055591D01*
X113105211Y-87883361D01*
X113022996Y-87722006D01*
X112916553Y-87575499D01*
X112788501Y-87447447D01*
X112641994Y-87341004D01*
X112641993Y-87341003D01*
X112641991Y-87341002D01*
X112480637Y-87258788D01*
X112308406Y-87202828D01*
X112129549Y-87174500D01*
X112129546Y-87174500D01*
X111948454Y-87174500D01*
X111948451Y-87174500D01*
X111769593Y-87202828D01*
X111597362Y-87258788D01*
X111436008Y-87341002D01*
X111362752Y-87394225D01*
X111289499Y-87447447D01*
X111161447Y-87575499D01*
X111144498Y-87598828D01*
X111055002Y-87722008D01*
X110972788Y-87883362D01*
X110916828Y-88055593D01*
X110888500Y-88234450D01*
X104232709Y-88234450D01*
X104294873Y-88112445D01*
X104294874Y-88112440D01*
X104294876Y-88112438D01*
X104348401Y-87947706D01*
X104348402Y-87947702D01*
X104375500Y-87776614D01*
X104375500Y-87603385D01*
X104348402Y-87432297D01*
X104348401Y-87432293D01*
X104294876Y-87267561D01*
X104294874Y-87267558D01*
X104294873Y-87267557D01*
X104294873Y-87267555D01*
X104216232Y-87113212D01*
X104114414Y-86973072D01*
X103991928Y-86850586D01*
X103851788Y-86748768D01*
X103851787Y-86748767D01*
X103851785Y-86748766D01*
X103697441Y-86670125D01*
X103697438Y-86670123D01*
X103532706Y-86616598D01*
X103532702Y-86616597D01*
X103361614Y-86589500D01*
X103361611Y-86589500D01*
X103188389Y-86589500D01*
X103188386Y-86589500D01*
X103017297Y-86616597D01*
X103017293Y-86616598D01*
X102852561Y-86670123D01*
X102852558Y-86670125D01*
X102698214Y-86748766D01*
X102558073Y-86850585D01*
X102435585Y-86973073D01*
X102333766Y-87113214D01*
X102255125Y-87267558D01*
X102255123Y-87267561D01*
X102201598Y-87432293D01*
X102201597Y-87432297D01*
X102174500Y-87603385D01*
X99852758Y-87603385D01*
X99869962Y-85063424D01*
X102175000Y-85063424D01*
X102175000Y-85236575D01*
X102202084Y-85407579D01*
X102255588Y-85572248D01*
X102334195Y-85726524D01*
X102334197Y-85726528D01*
X102398219Y-85814646D01*
X102904532Y-85308332D01*
X102954920Y-85395606D01*
X103029394Y-85470080D01*
X103116665Y-85520465D01*
X102610352Y-86026778D01*
X102698477Y-86090805D01*
X102852751Y-86169411D01*
X103017420Y-86222915D01*
X103188425Y-86250000D01*
X103361575Y-86250000D01*
X103532579Y-86222915D01*
X103697248Y-86169411D01*
X103851524Y-86090804D01*
X103851530Y-86090800D01*
X103939646Y-86026779D01*
X103939646Y-86026778D01*
X103433333Y-85520466D01*
X103520606Y-85470080D01*
X103595080Y-85395606D01*
X103645466Y-85308333D01*
X104151778Y-85814646D01*
X104151779Y-85814646D01*
X104215800Y-85726530D01*
X104215807Y-85726519D01*
X104232147Y-85694450D01*
X110888500Y-85694450D01*
X110888500Y-85875549D01*
X110916828Y-86054406D01*
X110928654Y-86090805D01*
X110972789Y-86226639D01*
X111055004Y-86387994D01*
X111161447Y-86534501D01*
X111289499Y-86662553D01*
X111436006Y-86768996D01*
X111597361Y-86851211D01*
X111769591Y-86907171D01*
X111841136Y-86918502D01*
X111948451Y-86935500D01*
X111948454Y-86935500D01*
X112129549Y-86935500D01*
X112218977Y-86921335D01*
X112308409Y-86907171D01*
X112480639Y-86851211D01*
X112641994Y-86768996D01*
X112788501Y-86662553D01*
X112916553Y-86534501D01*
X113022996Y-86387994D01*
X113105211Y-86226639D01*
X113161171Y-86054409D01*
X113189500Y-85875546D01*
X113189500Y-85694454D01*
X113189500Y-85694450D01*
X136288500Y-85694450D01*
X136288500Y-85875549D01*
X136316828Y-86054406D01*
X136328654Y-86090805D01*
X136372789Y-86226639D01*
X136455004Y-86387994D01*
X136561447Y-86534501D01*
X136689499Y-86662553D01*
X136836006Y-86768996D01*
X136997361Y-86851211D01*
X137169591Y-86907171D01*
X137241136Y-86918502D01*
X137348451Y-86935500D01*
X137348454Y-86935500D01*
X137529549Y-86935500D01*
X137618977Y-86921335D01*
X137708409Y-86907171D01*
X137880639Y-86851211D01*
X138041994Y-86768996D01*
X138188501Y-86662553D01*
X138316553Y-86534501D01*
X138422996Y-86387994D01*
X138505211Y-86226639D01*
X138561171Y-86054409D01*
X138589500Y-85875546D01*
X138589500Y-85694454D01*
X138589500Y-85694450D01*
X138561171Y-85515593D01*
X138561171Y-85515591D01*
X138505211Y-85343361D01*
X138422996Y-85182006D01*
X138316553Y-85035499D01*
X138188501Y-84907447D01*
X138041994Y-84801004D01*
X138041993Y-84801003D01*
X138041991Y-84801002D01*
X137880637Y-84718788D01*
X137708406Y-84662828D01*
X137529549Y-84634500D01*
X137529546Y-84634500D01*
X137348454Y-84634500D01*
X137348451Y-84634500D01*
X137169593Y-84662828D01*
X136997362Y-84718788D01*
X136836008Y-84801002D01*
X136762752Y-84854225D01*
X136689499Y-84907447D01*
X136561447Y-85035499D01*
X136523716Y-85087432D01*
X136455002Y-85182008D01*
X136372788Y-85343362D01*
X136316828Y-85515593D01*
X136288500Y-85694450D01*
X113189500Y-85694450D01*
X113161171Y-85515593D01*
X113161171Y-85515591D01*
X113105211Y-85343361D01*
X113022996Y-85182006D01*
X112916553Y-85035499D01*
X112788501Y-84907447D01*
X112641994Y-84801004D01*
X112641993Y-84801003D01*
X112641991Y-84801002D01*
X112480637Y-84718788D01*
X112308406Y-84662828D01*
X112129549Y-84634500D01*
X112129546Y-84634500D01*
X111948454Y-84634500D01*
X111948451Y-84634500D01*
X111769593Y-84662828D01*
X111597362Y-84718788D01*
X111436008Y-84801002D01*
X111362752Y-84854225D01*
X111289499Y-84907447D01*
X111161447Y-85035499D01*
X111123716Y-85087432D01*
X111055002Y-85182008D01*
X110972788Y-85343362D01*
X110916828Y-85515593D01*
X110888500Y-85694450D01*
X104232147Y-85694450D01*
X104257027Y-85645620D01*
X104257027Y-85645619D01*
X104294411Y-85572248D01*
X104347915Y-85407579D01*
X104375000Y-85236575D01*
X104375000Y-85063424D01*
X104347915Y-84892420D01*
X104294411Y-84727751D01*
X104215805Y-84573477D01*
X104151778Y-84485352D01*
X103645465Y-84991665D01*
X103595080Y-84904394D01*
X103520606Y-84829920D01*
X103433332Y-84779532D01*
X103939646Y-84273219D01*
X103851528Y-84209197D01*
X103851524Y-84209195D01*
X103697248Y-84130588D01*
X103532579Y-84077084D01*
X103361575Y-84050000D01*
X103188425Y-84050000D01*
X103017420Y-84077084D01*
X102852751Y-84130588D01*
X102698476Y-84209195D01*
X102610352Y-84273219D01*
X103116666Y-84779533D01*
X103029394Y-84829920D01*
X102954920Y-84904394D01*
X102904533Y-84991666D01*
X102398219Y-84485352D01*
X102334195Y-84573476D01*
X102255588Y-84727751D01*
X102202084Y-84892420D01*
X102175000Y-85063424D01*
X99869962Y-85063424D01*
X99887166Y-82523385D01*
X102174500Y-82523385D01*
X102174500Y-82696614D01*
X102201597Y-82867702D01*
X102201598Y-82867706D01*
X102255123Y-83032438D01*
X102255125Y-83032441D01*
X102333765Y-83186784D01*
X102333768Y-83186788D01*
X102435586Y-83326928D01*
X102558072Y-83449414D01*
X102698212Y-83551232D01*
X102852555Y-83629873D01*
X102852557Y-83629873D01*
X102852558Y-83629874D01*
X102852561Y-83629876D01*
X103017293Y-83683401D01*
X103017297Y-83683402D01*
X103188386Y-83710500D01*
X103188389Y-83710500D01*
X103361614Y-83710500D01*
X103532702Y-83683402D01*
X103532706Y-83683401D01*
X103697438Y-83629876D01*
X103697440Y-83629874D01*
X103697445Y-83629873D01*
X103851788Y-83551232D01*
X103991928Y-83449414D01*
X104114414Y-83326928D01*
X104216232Y-83186788D01*
X104232709Y-83154450D01*
X110888500Y-83154450D01*
X110888500Y-83335549D01*
X110916828Y-83514406D01*
X110916829Y-83514409D01*
X110972789Y-83686639D01*
X111055004Y-83847994D01*
X111161447Y-83994501D01*
X111289499Y-84122553D01*
X111436006Y-84228996D01*
X111597361Y-84311211D01*
X111769591Y-84367171D01*
X111841136Y-84378502D01*
X111948451Y-84395500D01*
X111948454Y-84395500D01*
X112129549Y-84395500D01*
X112218977Y-84381335D01*
X112308409Y-84367171D01*
X112480639Y-84311211D01*
X112641994Y-84228996D01*
X112788501Y-84122553D01*
X112916553Y-83994501D01*
X113022996Y-83847994D01*
X113105211Y-83686639D01*
X113161171Y-83514409D01*
X113189500Y-83335546D01*
X113189500Y-83154454D01*
X113189500Y-83154450D01*
X136288500Y-83154450D01*
X136288500Y-83335549D01*
X136316828Y-83514406D01*
X136316829Y-83514409D01*
X136372789Y-83686639D01*
X136455004Y-83847994D01*
X136561447Y-83994501D01*
X136689499Y-84122553D01*
X136836006Y-84228996D01*
X136997361Y-84311211D01*
X137169591Y-84367171D01*
X137241136Y-84378502D01*
X137348451Y-84395500D01*
X137348454Y-84395500D01*
X137529549Y-84395500D01*
X137618977Y-84381335D01*
X137708409Y-84367171D01*
X137880639Y-84311211D01*
X138041994Y-84228996D01*
X138188501Y-84122553D01*
X138316553Y-83994501D01*
X138422996Y-83847994D01*
X138505211Y-83686639D01*
X138561171Y-83514409D01*
X138589500Y-83335546D01*
X138589500Y-83154454D01*
X138589500Y-83154450D01*
X138561171Y-82975593D01*
X138561171Y-82975591D01*
X138505211Y-82803361D01*
X138422996Y-82642006D01*
X138316553Y-82495499D01*
X138188501Y-82367447D01*
X138041994Y-82261004D01*
X138041993Y-82261003D01*
X138041991Y-82261002D01*
X137880637Y-82178788D01*
X137708406Y-82122828D01*
X137529549Y-82094500D01*
X137529546Y-82094500D01*
X137348454Y-82094500D01*
X137348451Y-82094500D01*
X137169593Y-82122828D01*
X136997362Y-82178788D01*
X136836008Y-82261002D01*
X136762752Y-82314225D01*
X136689499Y-82367447D01*
X136561447Y-82495499D01*
X136544498Y-82518828D01*
X136455002Y-82642008D01*
X136372788Y-82803362D01*
X136316828Y-82975593D01*
X136288500Y-83154450D01*
X113189500Y-83154450D01*
X113161171Y-82975593D01*
X113161171Y-82975591D01*
X113105211Y-82803361D01*
X113022996Y-82642006D01*
X112916553Y-82495499D01*
X112788501Y-82367447D01*
X112641994Y-82261004D01*
X112641993Y-82261003D01*
X112641991Y-82261002D01*
X112480637Y-82178788D01*
X112308406Y-82122828D01*
X112129549Y-82094500D01*
X112129546Y-82094500D01*
X111948454Y-82094500D01*
X111948451Y-82094500D01*
X111769593Y-82122828D01*
X111597362Y-82178788D01*
X111436008Y-82261002D01*
X111362752Y-82314225D01*
X111289499Y-82367447D01*
X111161447Y-82495499D01*
X111144498Y-82518828D01*
X111055002Y-82642008D01*
X110972788Y-82803362D01*
X110916828Y-82975593D01*
X110888500Y-83154450D01*
X104232709Y-83154450D01*
X104294873Y-83032445D01*
X104294874Y-83032440D01*
X104294876Y-83032438D01*
X104348401Y-82867706D01*
X104348402Y-82867702D01*
X104375500Y-82696614D01*
X104375500Y-82523385D01*
X104348402Y-82352297D01*
X104348401Y-82352293D01*
X104294876Y-82187561D01*
X104294874Y-82187558D01*
X104294873Y-82187557D01*
X104294873Y-82187555D01*
X104216232Y-82033212D01*
X104114414Y-81893072D01*
X103991928Y-81770586D01*
X103851788Y-81668768D01*
X103851787Y-81668767D01*
X103851785Y-81668766D01*
X103697441Y-81590125D01*
X103697438Y-81590123D01*
X103532706Y-81536598D01*
X103532702Y-81536597D01*
X103361614Y-81509500D01*
X103361611Y-81509500D01*
X103188389Y-81509500D01*
X103188386Y-81509500D01*
X103017297Y-81536597D01*
X103017293Y-81536598D01*
X102852561Y-81590123D01*
X102852558Y-81590125D01*
X102698214Y-81668766D01*
X102558073Y-81770585D01*
X102435585Y-81893073D01*
X102333766Y-82033214D01*
X102255125Y-82187558D01*
X102255123Y-82187561D01*
X102201598Y-82352293D01*
X102201597Y-82352297D01*
X102174500Y-82523385D01*
X99887166Y-82523385D01*
X99904370Y-79983424D01*
X102175000Y-79983424D01*
X102175000Y-80156575D01*
X102202084Y-80327579D01*
X102255588Y-80492248D01*
X102334195Y-80646524D01*
X102334197Y-80646528D01*
X102398219Y-80734646D01*
X102904532Y-80228332D01*
X102954920Y-80315606D01*
X103029394Y-80390080D01*
X103116665Y-80440465D01*
X102610352Y-80946778D01*
X102698477Y-81010805D01*
X102852751Y-81089411D01*
X103017420Y-81142915D01*
X103188425Y-81170000D01*
X103361575Y-81170000D01*
X103532579Y-81142915D01*
X103697248Y-81089411D01*
X103851524Y-81010804D01*
X103851530Y-81010800D01*
X103939646Y-80946779D01*
X103939646Y-80946778D01*
X103433333Y-80440466D01*
X103520606Y-80390080D01*
X103595080Y-80315606D01*
X103645466Y-80228333D01*
X104151778Y-80734646D01*
X104151779Y-80734646D01*
X104215800Y-80646530D01*
X104215807Y-80646519D01*
X104232147Y-80614450D01*
X110888500Y-80614450D01*
X110888500Y-80795549D01*
X110916828Y-80974406D01*
X110928654Y-81010805D01*
X110972789Y-81146639D01*
X111055004Y-81307994D01*
X111161447Y-81454501D01*
X111289499Y-81582553D01*
X111436006Y-81688996D01*
X111597361Y-81771211D01*
X111769591Y-81827171D01*
X111841136Y-81838502D01*
X111948451Y-81855500D01*
X111948454Y-81855500D01*
X112129549Y-81855500D01*
X112218977Y-81841335D01*
X112308409Y-81827171D01*
X112480639Y-81771211D01*
X112641994Y-81688996D01*
X112788501Y-81582553D01*
X112916553Y-81454501D01*
X113022996Y-81307994D01*
X113105211Y-81146639D01*
X113161171Y-80974409D01*
X113189500Y-80795546D01*
X113189500Y-80614454D01*
X113189500Y-80614450D01*
X136288500Y-80614450D01*
X136288500Y-80795549D01*
X136316828Y-80974406D01*
X136328654Y-81010805D01*
X136372789Y-81146639D01*
X136455004Y-81307994D01*
X136561447Y-81454501D01*
X136689499Y-81582553D01*
X136836006Y-81688996D01*
X136997361Y-81771211D01*
X137169591Y-81827171D01*
X137241136Y-81838502D01*
X137348451Y-81855500D01*
X137348454Y-81855500D01*
X137529549Y-81855500D01*
X137618977Y-81841335D01*
X137708409Y-81827171D01*
X137880639Y-81771211D01*
X138041994Y-81688996D01*
X138188501Y-81582553D01*
X138316553Y-81454501D01*
X138422996Y-81307994D01*
X138505211Y-81146639D01*
X138561171Y-80974409D01*
X138589500Y-80795546D01*
X138589500Y-80614454D01*
X138589500Y-80614450D01*
X138561171Y-80435593D01*
X138561171Y-80435591D01*
X138505211Y-80263361D01*
X138422996Y-80102006D01*
X138316553Y-79955499D01*
X138188501Y-79827447D01*
X138041994Y-79721004D01*
X138041993Y-79721003D01*
X138041991Y-79721002D01*
X138024827Y-79712257D01*
X137880637Y-79638788D01*
X137708406Y-79582828D01*
X137529549Y-79554500D01*
X137529546Y-79554500D01*
X137348454Y-79554500D01*
X137348451Y-79554500D01*
X137169593Y-79582828D01*
X136997362Y-79638788D01*
X136836008Y-79721002D01*
X136762752Y-79774225D01*
X136689499Y-79827447D01*
X136561447Y-79955499D01*
X136523716Y-80007432D01*
X136455002Y-80102008D01*
X136372788Y-80263362D01*
X136316828Y-80435593D01*
X136288500Y-80614450D01*
X113189500Y-80614450D01*
X113161171Y-80435593D01*
X113161171Y-80435591D01*
X113105211Y-80263361D01*
X113022996Y-80102006D01*
X112916553Y-79955499D01*
X112788501Y-79827447D01*
X112641994Y-79721004D01*
X112641993Y-79721003D01*
X112641991Y-79721002D01*
X112480637Y-79638788D01*
X112308406Y-79582828D01*
X112129549Y-79554500D01*
X112129546Y-79554500D01*
X111948454Y-79554500D01*
X111948451Y-79554500D01*
X111769593Y-79582828D01*
X111597362Y-79638788D01*
X111436008Y-79721002D01*
X111362752Y-79774225D01*
X111289499Y-79827447D01*
X111161447Y-79955499D01*
X111123716Y-80007432D01*
X111055002Y-80102008D01*
X110972788Y-80263362D01*
X110916828Y-80435593D01*
X110888500Y-80614450D01*
X104232147Y-80614450D01*
X104257027Y-80565620D01*
X104257027Y-80565619D01*
X104294411Y-80492248D01*
X104347915Y-80327579D01*
X104375000Y-80156575D01*
X104375000Y-79983424D01*
X104347915Y-79812420D01*
X104294411Y-79647751D01*
X104215805Y-79493477D01*
X104151778Y-79405352D01*
X103645465Y-79911665D01*
X103595080Y-79824394D01*
X103520606Y-79749920D01*
X103433332Y-79699532D01*
X103939646Y-79193219D01*
X103851528Y-79129197D01*
X103851524Y-79129195D01*
X103697248Y-79050588D01*
X103532579Y-78997084D01*
X103361575Y-78970000D01*
X103188425Y-78970000D01*
X103017420Y-78997084D01*
X102852751Y-79050588D01*
X102698476Y-79129195D01*
X102610352Y-79193219D01*
X103116666Y-79699533D01*
X103029394Y-79749920D01*
X102954920Y-79824394D01*
X102904533Y-79911666D01*
X102398219Y-79405352D01*
X102334195Y-79493476D01*
X102255588Y-79647751D01*
X102202084Y-79812420D01*
X102175000Y-79983424D01*
X99904370Y-79983424D01*
X99917300Y-78074450D01*
X110888500Y-78074450D01*
X110888500Y-78255549D01*
X110916828Y-78434406D01*
X110972788Y-78606637D01*
X111055001Y-78767990D01*
X111055004Y-78767994D01*
X111161447Y-78914501D01*
X111289499Y-79042553D01*
X111436006Y-79148996D01*
X111597361Y-79231211D01*
X111769591Y-79287171D01*
X111841136Y-79298502D01*
X111948451Y-79315500D01*
X111948454Y-79315500D01*
X112129549Y-79315500D01*
X112218977Y-79301335D01*
X112308409Y-79287171D01*
X112480639Y-79231211D01*
X112641994Y-79148996D01*
X112788501Y-79042553D01*
X112916553Y-78914501D01*
X113022996Y-78767994D01*
X113105211Y-78606639D01*
X113161171Y-78434409D01*
X113175335Y-78344977D01*
X113189500Y-78255549D01*
X113189500Y-78074450D01*
X136288500Y-78074450D01*
X136288500Y-78255549D01*
X136316828Y-78434406D01*
X136372788Y-78606637D01*
X136455001Y-78767990D01*
X136455004Y-78767994D01*
X136561447Y-78914501D01*
X136689499Y-79042553D01*
X136836006Y-79148996D01*
X136997361Y-79231211D01*
X137169591Y-79287171D01*
X137241136Y-79298502D01*
X137348451Y-79315500D01*
X137348454Y-79315500D01*
X137529549Y-79315500D01*
X137618977Y-79301335D01*
X137708409Y-79287171D01*
X137880639Y-79231211D01*
X138041994Y-79148996D01*
X138188501Y-79042553D01*
X138316553Y-78914501D01*
X138422996Y-78767994D01*
X138441164Y-78732339D01*
X138458445Y-78698424D01*
X146120000Y-78698424D01*
X146120000Y-78871575D01*
X146147084Y-79042579D01*
X146200588Y-79207248D01*
X146279195Y-79361524D01*
X146279197Y-79361528D01*
X146343219Y-79449646D01*
X146849532Y-78943332D01*
X146899920Y-79030606D01*
X146974394Y-79105080D01*
X147061665Y-79155465D01*
X146555352Y-79661778D01*
X146643477Y-79725805D01*
X146797751Y-79804411D01*
X146962420Y-79857915D01*
X147133425Y-79885000D01*
X147306575Y-79885000D01*
X147477579Y-79857915D01*
X147642248Y-79804411D01*
X147796524Y-79725804D01*
X147796530Y-79725800D01*
X147884646Y-79661779D01*
X147884646Y-79661778D01*
X147378333Y-79155466D01*
X147465606Y-79105080D01*
X147540080Y-79030606D01*
X147590466Y-78943333D01*
X148096778Y-79449646D01*
X148096779Y-79449646D01*
X148160800Y-79361530D01*
X148160804Y-79361524D01*
X148239411Y-79207248D01*
X148292915Y-79042579D01*
X148320000Y-78871575D01*
X148320000Y-78698424D01*
X148292915Y-78527420D01*
X148239411Y-78362751D01*
X148160805Y-78208477D01*
X148096778Y-78120352D01*
X147590465Y-78626665D01*
X147540080Y-78539394D01*
X147465606Y-78464920D01*
X147378332Y-78414532D01*
X147884646Y-77908219D01*
X147796528Y-77844197D01*
X147796524Y-77844195D01*
X147642248Y-77765588D01*
X147477579Y-77712084D01*
X147306575Y-77685000D01*
X147133425Y-77685000D01*
X146962420Y-77712084D01*
X146797751Y-77765588D01*
X146643476Y-77844195D01*
X146555352Y-77908219D01*
X147061666Y-78414533D01*
X146974394Y-78464920D01*
X146899920Y-78539394D01*
X146849533Y-78626666D01*
X146343219Y-78120352D01*
X146279195Y-78208476D01*
X146200588Y-78362751D01*
X146147084Y-78527420D01*
X146120000Y-78698424D01*
X138458445Y-78698424D01*
X138483320Y-78649603D01*
X138483325Y-78649593D01*
X138492999Y-78630606D01*
X138505211Y-78606639D01*
X138561171Y-78434409D01*
X138575335Y-78344977D01*
X138589500Y-78255549D01*
X138589500Y-78074450D01*
X138571601Y-77961438D01*
X138561171Y-77895593D01*
X138561171Y-77895591D01*
X138505211Y-77723361D01*
X138422996Y-77562006D01*
X138316553Y-77415499D01*
X138188501Y-77287447D01*
X138041994Y-77181004D01*
X138041993Y-77181003D01*
X138041991Y-77181002D01*
X137880637Y-77098788D01*
X137708406Y-77042828D01*
X137529549Y-77014500D01*
X137529546Y-77014500D01*
X137348454Y-77014500D01*
X137348451Y-77014500D01*
X137169593Y-77042828D01*
X136997362Y-77098788D01*
X136836008Y-77181002D01*
X136762752Y-77234225D01*
X136689499Y-77287447D01*
X136561447Y-77415499D01*
X136508225Y-77488752D01*
X136455002Y-77562008D01*
X136372788Y-77723362D01*
X136316828Y-77895593D01*
X136288500Y-78074450D01*
X113189500Y-78074450D01*
X113161171Y-77895593D01*
X113161171Y-77895591D01*
X113105211Y-77723361D01*
X113022996Y-77562006D01*
X112916553Y-77415499D01*
X112788501Y-77287447D01*
X112641994Y-77181004D01*
X112641993Y-77181003D01*
X112641991Y-77181002D01*
X112480637Y-77098788D01*
X112308406Y-77042828D01*
X112129549Y-77014500D01*
X112129546Y-77014500D01*
X111948454Y-77014500D01*
X111948451Y-77014500D01*
X111769593Y-77042828D01*
X111597362Y-77098788D01*
X111436008Y-77181002D01*
X111362752Y-77234225D01*
X111289499Y-77287447D01*
X111161447Y-77415499D01*
X111108225Y-77488752D01*
X111055002Y-77562008D01*
X110972788Y-77723362D01*
X110916828Y-77895593D01*
X110888500Y-78074450D01*
X99917300Y-78074450D01*
X99927865Y-76514730D01*
X99947166Y-76456671D01*
X99996909Y-76421043D01*
X100023326Y-76416466D01*
X106516128Y-76184582D01*
X106575734Y-76176529D01*
X106623005Y-76165316D01*
X106623006Y-76165316D01*
X106656121Y-76155452D01*
X106656124Y-76155451D01*
X106656124Y-76155450D01*
X106656127Y-76155450D01*
X106752945Y-76098609D01*
X106805672Y-76052766D01*
X106805678Y-76052758D01*
X106805682Y-76052756D01*
X106820405Y-76037087D01*
X106847778Y-76007959D01*
X106898495Y-75907796D01*
X106918067Y-75840723D01*
X106930298Y-75754633D01*
X106929927Y-75534450D01*
X110888500Y-75534450D01*
X110888500Y-75715549D01*
X110916828Y-75894406D01*
X110972788Y-76066637D01*
X111055001Y-76227990D01*
X111055004Y-76227994D01*
X111161447Y-76374501D01*
X111289499Y-76502553D01*
X111436006Y-76608996D01*
X111597361Y-76691211D01*
X111769591Y-76747171D01*
X111841136Y-76758502D01*
X111948451Y-76775500D01*
X111948454Y-76775500D01*
X112129549Y-76775500D01*
X112218977Y-76761335D01*
X112308409Y-76747171D01*
X112480639Y-76691211D01*
X112641994Y-76608996D01*
X112788501Y-76502553D01*
X112916553Y-76374501D01*
X113022996Y-76227994D01*
X113105211Y-76066639D01*
X113161171Y-75894409D01*
X113175335Y-75804977D01*
X113189500Y-75715549D01*
X113189500Y-75534450D01*
X136288500Y-75534450D01*
X136288500Y-75715549D01*
X136316828Y-75894406D01*
X136372788Y-76066637D01*
X136455001Y-76227990D01*
X136455004Y-76227994D01*
X136561447Y-76374501D01*
X136689499Y-76502553D01*
X136836006Y-76608996D01*
X136997361Y-76691211D01*
X137169591Y-76747171D01*
X137241136Y-76758502D01*
X137348451Y-76775500D01*
X137348454Y-76775500D01*
X137529549Y-76775500D01*
X137618977Y-76761335D01*
X137708409Y-76747171D01*
X137880639Y-76691211D01*
X138041994Y-76608996D01*
X138188501Y-76502553D01*
X138316553Y-76374501D01*
X138422996Y-76227994D01*
X138446211Y-76182432D01*
X138458464Y-76158385D01*
X146119500Y-76158385D01*
X146119500Y-76331614D01*
X146146597Y-76502702D01*
X146146598Y-76502706D01*
X146200123Y-76667438D01*
X146200125Y-76667441D01*
X146200126Y-76667444D01*
X146200127Y-76667445D01*
X146278768Y-76821788D01*
X146380586Y-76961928D01*
X146503072Y-77084414D01*
X146643212Y-77186232D01*
X146797555Y-77264873D01*
X146797557Y-77264873D01*
X146797558Y-77264874D01*
X146797561Y-77264876D01*
X146962293Y-77318401D01*
X146962297Y-77318402D01*
X147133386Y-77345500D01*
X147133389Y-77345500D01*
X147306614Y-77345500D01*
X147477702Y-77318402D01*
X147477706Y-77318401D01*
X147642438Y-77264876D01*
X147642440Y-77264874D01*
X147642445Y-77264873D01*
X147796788Y-77186232D01*
X147936928Y-77084414D01*
X148059414Y-76961928D01*
X148161232Y-76821788D01*
X148239873Y-76667445D01*
X148239874Y-76667440D01*
X148239876Y-76667438D01*
X148293401Y-76502706D01*
X148293402Y-76502702D01*
X148320500Y-76331614D01*
X148320500Y-76158385D01*
X148293402Y-75987297D01*
X148293401Y-75987293D01*
X148239876Y-75822561D01*
X148239874Y-75822558D01*
X148239873Y-75822557D01*
X148239873Y-75822555D01*
X148161232Y-75668212D01*
X148059414Y-75528072D01*
X147936928Y-75405586D01*
X147796788Y-75303768D01*
X147796787Y-75303767D01*
X147796785Y-75303766D01*
X147642441Y-75225125D01*
X147642438Y-75225123D01*
X147477706Y-75171598D01*
X147477702Y-75171597D01*
X147306614Y-75144500D01*
X147306611Y-75144500D01*
X147133389Y-75144500D01*
X147133386Y-75144500D01*
X146962297Y-75171597D01*
X146962293Y-75171598D01*
X146797561Y-75225123D01*
X146797558Y-75225125D01*
X146643214Y-75303766D01*
X146503073Y-75405585D01*
X146380585Y-75528073D01*
X146278766Y-75668214D01*
X146200125Y-75822558D01*
X146200123Y-75822561D01*
X146146598Y-75987293D01*
X146146597Y-75987297D01*
X146119500Y-76158385D01*
X138458464Y-76158385D01*
X138483346Y-76109553D01*
X138497383Y-76082001D01*
X138505211Y-76066639D01*
X138561171Y-75894409D01*
X138575335Y-75804977D01*
X138589500Y-75715549D01*
X138589500Y-75534450D01*
X138561171Y-75355593D01*
X138561171Y-75355591D01*
X138505211Y-75183361D01*
X138422996Y-75022006D01*
X138316553Y-74875499D01*
X138188501Y-74747447D01*
X138041994Y-74641004D01*
X138041993Y-74641003D01*
X138041991Y-74641002D01*
X138024827Y-74632257D01*
X137880637Y-74558788D01*
X137708406Y-74502828D01*
X137529549Y-74474500D01*
X137529546Y-74474500D01*
X137348454Y-74474500D01*
X137348451Y-74474500D01*
X137169593Y-74502828D01*
X136997362Y-74558788D01*
X136836008Y-74641002D01*
X136762752Y-74694225D01*
X136689499Y-74747447D01*
X136561447Y-74875499D01*
X136508225Y-74948752D01*
X136455002Y-75022008D01*
X136372788Y-75183362D01*
X136316828Y-75355593D01*
X136288500Y-75534450D01*
X113189500Y-75534450D01*
X113161171Y-75355593D01*
X113161171Y-75355591D01*
X113105211Y-75183361D01*
X113022996Y-75022006D01*
X112916553Y-74875499D01*
X112788501Y-74747447D01*
X112641994Y-74641004D01*
X112641993Y-74641003D01*
X112641991Y-74641002D01*
X112480637Y-74558788D01*
X112308406Y-74502828D01*
X112129549Y-74474500D01*
X112129546Y-74474500D01*
X111948454Y-74474500D01*
X111948451Y-74474500D01*
X111769593Y-74502828D01*
X111597362Y-74558788D01*
X111436008Y-74641002D01*
X111362752Y-74694225D01*
X111289499Y-74747447D01*
X111161447Y-74875499D01*
X111108225Y-74948752D01*
X111055002Y-75022008D01*
X110972788Y-75183362D01*
X110916828Y-75355593D01*
X110888500Y-75534450D01*
X106929927Y-75534450D01*
X106926702Y-73618424D01*
X106925651Y-72994450D01*
X110888500Y-72994450D01*
X110888500Y-73175549D01*
X110916828Y-73354406D01*
X110972788Y-73526637D01*
X111055001Y-73687990D01*
X111055004Y-73687994D01*
X111161447Y-73834501D01*
X111289499Y-73962553D01*
X111436006Y-74068996D01*
X111597361Y-74151211D01*
X111769591Y-74207171D01*
X111841136Y-74218502D01*
X111948451Y-74235500D01*
X111948454Y-74235500D01*
X112129549Y-74235500D01*
X112218977Y-74221335D01*
X112308409Y-74207171D01*
X112480639Y-74151211D01*
X112641994Y-74068996D01*
X112788501Y-73962553D01*
X112916553Y-73834501D01*
X113022996Y-73687994D01*
X113105211Y-73526639D01*
X113161171Y-73354409D01*
X113175335Y-73264977D01*
X113189500Y-73175549D01*
X113189500Y-72994450D01*
X136288500Y-72994450D01*
X136288500Y-73175549D01*
X136316828Y-73354406D01*
X136372788Y-73526637D01*
X136455001Y-73687990D01*
X136455004Y-73687994D01*
X136561447Y-73834501D01*
X136689499Y-73962553D01*
X136836006Y-74068996D01*
X136997361Y-74151211D01*
X137169591Y-74207171D01*
X137241136Y-74218502D01*
X137348451Y-74235500D01*
X137348454Y-74235500D01*
X137529549Y-74235500D01*
X137618977Y-74221335D01*
X137708409Y-74207171D01*
X137880639Y-74151211D01*
X138041994Y-74068996D01*
X138188501Y-73962553D01*
X138316553Y-73834501D01*
X138422996Y-73687994D01*
X138441164Y-73652339D01*
X138458445Y-73618424D01*
X146120000Y-73618424D01*
X146120000Y-73791575D01*
X146147084Y-73962579D01*
X146200588Y-74127248D01*
X146279195Y-74281524D01*
X146279197Y-74281528D01*
X146343219Y-74369646D01*
X146849532Y-73863332D01*
X146899920Y-73950606D01*
X146974394Y-74025080D01*
X147061665Y-74075465D01*
X146555352Y-74581778D01*
X146643477Y-74645805D01*
X146797751Y-74724411D01*
X146962420Y-74777915D01*
X147133425Y-74805000D01*
X147306575Y-74805000D01*
X147477579Y-74777915D01*
X147642248Y-74724411D01*
X147796524Y-74645804D01*
X147796530Y-74645800D01*
X147884646Y-74581779D01*
X147884646Y-74581778D01*
X147378333Y-74075466D01*
X147465606Y-74025080D01*
X147540080Y-73950606D01*
X147590466Y-73863333D01*
X148096778Y-74369646D01*
X148096779Y-74369646D01*
X148160800Y-74281530D01*
X148160804Y-74281524D01*
X148239411Y-74127248D01*
X148292915Y-73962579D01*
X148320000Y-73791575D01*
X148320000Y-73618424D01*
X148292915Y-73447420D01*
X148239411Y-73282751D01*
X148160805Y-73128477D01*
X148096778Y-73040352D01*
X147590465Y-73546665D01*
X147540080Y-73459394D01*
X147465606Y-73384920D01*
X147378332Y-73334532D01*
X147884646Y-72828219D01*
X147796528Y-72764197D01*
X147796524Y-72764195D01*
X147642248Y-72685588D01*
X147477579Y-72632084D01*
X147306575Y-72605000D01*
X147133425Y-72605000D01*
X146962420Y-72632084D01*
X146797751Y-72685588D01*
X146643476Y-72764195D01*
X146555352Y-72828219D01*
X147061666Y-73334533D01*
X146974394Y-73384920D01*
X146899920Y-73459394D01*
X146849533Y-73546666D01*
X146343219Y-73040352D01*
X146279195Y-73128476D01*
X146200588Y-73282751D01*
X146147084Y-73447420D01*
X146120000Y-73618424D01*
X138458445Y-73618424D01*
X138483320Y-73569603D01*
X138483325Y-73569593D01*
X138492999Y-73550606D01*
X138505211Y-73526639D01*
X138561171Y-73354409D01*
X138575335Y-73264977D01*
X138589500Y-73175549D01*
X138589500Y-72994450D01*
X138571601Y-72881438D01*
X138561171Y-72815593D01*
X138561171Y-72815591D01*
X138505211Y-72643361D01*
X138422996Y-72482006D01*
X138316553Y-72335499D01*
X138188501Y-72207447D01*
X138041994Y-72101004D01*
X138041993Y-72101003D01*
X138041991Y-72101002D01*
X137880637Y-72018788D01*
X137708406Y-71962828D01*
X137529549Y-71934500D01*
X137529546Y-71934500D01*
X137348454Y-71934500D01*
X137348451Y-71934500D01*
X137169593Y-71962828D01*
X136997362Y-72018788D01*
X136836008Y-72101002D01*
X136826481Y-72107924D01*
X136689499Y-72207447D01*
X136561447Y-72335499D01*
X136508225Y-72408752D01*
X136455002Y-72482008D01*
X136372788Y-72643362D01*
X136316828Y-72815593D01*
X136288500Y-72994450D01*
X113189500Y-72994450D01*
X113161171Y-72815593D01*
X113161171Y-72815591D01*
X113105211Y-72643361D01*
X113022996Y-72482006D01*
X112916553Y-72335499D01*
X112788501Y-72207447D01*
X112641994Y-72101004D01*
X112641993Y-72101003D01*
X112641991Y-72101002D01*
X112480637Y-72018788D01*
X112308406Y-71962828D01*
X112129549Y-71934500D01*
X112129546Y-71934500D01*
X111948454Y-71934500D01*
X111948451Y-71934500D01*
X111769593Y-71962828D01*
X111597362Y-72018788D01*
X111436008Y-72101002D01*
X111426481Y-72107924D01*
X111289499Y-72207447D01*
X111161447Y-72335499D01*
X111108225Y-72408752D01*
X111055002Y-72482008D01*
X110972788Y-72643362D01*
X110916828Y-72815593D01*
X110888500Y-72994450D01*
X106925651Y-72994450D01*
X106925645Y-72990731D01*
X106925041Y-72632084D01*
X106921375Y-70454450D01*
X110888500Y-70454450D01*
X110888500Y-70635549D01*
X110916828Y-70814406D01*
X110916829Y-70814409D01*
X110972789Y-70986639D01*
X111055004Y-71147994D01*
X111161447Y-71294501D01*
X111289499Y-71422553D01*
X111436006Y-71528996D01*
X111597361Y-71611211D01*
X111769591Y-71667171D01*
X111841136Y-71678502D01*
X111948451Y-71695500D01*
X111948454Y-71695500D01*
X112129549Y-71695500D01*
X112218977Y-71681335D01*
X112308409Y-71667171D01*
X112480639Y-71611211D01*
X112641994Y-71528996D01*
X112788501Y-71422553D01*
X112916553Y-71294501D01*
X113022996Y-71147994D01*
X113105211Y-70986639D01*
X113161171Y-70814409D01*
X113175335Y-70724977D01*
X113189500Y-70635549D01*
X113189500Y-70454450D01*
X136288500Y-70454450D01*
X136288500Y-70635549D01*
X136316828Y-70814406D01*
X136316829Y-70814409D01*
X136372789Y-70986639D01*
X136455004Y-71147994D01*
X136561447Y-71294501D01*
X136689499Y-71422553D01*
X136836006Y-71528996D01*
X136997361Y-71611211D01*
X137169591Y-71667171D01*
X137241136Y-71678502D01*
X137348451Y-71695500D01*
X137348454Y-71695500D01*
X137529549Y-71695500D01*
X137618977Y-71681335D01*
X137708409Y-71667171D01*
X137880639Y-71611211D01*
X138041994Y-71528996D01*
X138188501Y-71422553D01*
X138316553Y-71294501D01*
X138422996Y-71147994D01*
X138505211Y-70986639D01*
X138561171Y-70814409D01*
X138575335Y-70724977D01*
X138589500Y-70635549D01*
X138589500Y-70571893D01*
X146119500Y-70571893D01*
X146119500Y-71758106D01*
X146130123Y-71846565D01*
X146185637Y-71987339D01*
X146185638Y-71987341D01*
X146185639Y-71987342D01*
X146277078Y-72107922D01*
X146397658Y-72199361D01*
X146397659Y-72199361D01*
X146397660Y-72199362D01*
X146468047Y-72227119D01*
X146538436Y-72254877D01*
X146626898Y-72265500D01*
X146626900Y-72265500D01*
X147813100Y-72265500D01*
X147813102Y-72265500D01*
X147901564Y-72254877D01*
X148042342Y-72199361D01*
X148162922Y-72107922D01*
X148254361Y-71987342D01*
X148309877Y-71846564D01*
X148320500Y-71758102D01*
X148320500Y-70571898D01*
X148309877Y-70483436D01*
X148254361Y-70342658D01*
X148162922Y-70222078D01*
X148042342Y-70130639D01*
X148042341Y-70130638D01*
X148042339Y-70130637D01*
X147901565Y-70075123D01*
X147813106Y-70064500D01*
X147813102Y-70064500D01*
X146626898Y-70064500D01*
X146626893Y-70064500D01*
X146538434Y-70075123D01*
X146397660Y-70130637D01*
X146397656Y-70130640D01*
X146277081Y-70222075D01*
X146277075Y-70222081D01*
X146185640Y-70342656D01*
X146185637Y-70342660D01*
X146130123Y-70483434D01*
X146119500Y-70571893D01*
X138589500Y-70571893D01*
X138589500Y-70454450D01*
X138561171Y-70275593D01*
X138561171Y-70275591D01*
X138505211Y-70103361D01*
X138422996Y-69942006D01*
X138316553Y-69795499D01*
X138188501Y-69667447D01*
X138041994Y-69561004D01*
X138041993Y-69561003D01*
X138041991Y-69561002D01*
X137880637Y-69478788D01*
X137708406Y-69422828D01*
X137529549Y-69394500D01*
X137529546Y-69394500D01*
X137348454Y-69394500D01*
X137348451Y-69394500D01*
X137169593Y-69422828D01*
X136997362Y-69478788D01*
X136836008Y-69561002D01*
X136762752Y-69614225D01*
X136689499Y-69667447D01*
X136561447Y-69795499D01*
X136508225Y-69868752D01*
X136455002Y-69942008D01*
X136372788Y-70103362D01*
X136316828Y-70275593D01*
X136288500Y-70454450D01*
X113189500Y-70454450D01*
X113161171Y-70275593D01*
X113161171Y-70275591D01*
X113105211Y-70103361D01*
X113022996Y-69942006D01*
X112916553Y-69795499D01*
X112788501Y-69667447D01*
X112641994Y-69561004D01*
X112641993Y-69561003D01*
X112641991Y-69561002D01*
X112480637Y-69478788D01*
X112308406Y-69422828D01*
X112129549Y-69394500D01*
X112129546Y-69394500D01*
X111948454Y-69394500D01*
X111948451Y-69394500D01*
X111769593Y-69422828D01*
X111597362Y-69478788D01*
X111436008Y-69561002D01*
X111362752Y-69614225D01*
X111289499Y-69667447D01*
X111161447Y-69795499D01*
X111108225Y-69868752D01*
X111055002Y-69942008D01*
X110972788Y-70103362D01*
X110916828Y-70275593D01*
X110888500Y-70454450D01*
X106921375Y-70454450D01*
X106917098Y-67914450D01*
X110888500Y-67914450D01*
X110888500Y-68095549D01*
X110916828Y-68274406D01*
X110916829Y-68274409D01*
X110972789Y-68446639D01*
X111055004Y-68607994D01*
X111161447Y-68754501D01*
X111289499Y-68882553D01*
X111436006Y-68988996D01*
X111597361Y-69071211D01*
X111769591Y-69127171D01*
X111841136Y-69138502D01*
X111948451Y-69155500D01*
X111948454Y-69155500D01*
X112129549Y-69155500D01*
X112218977Y-69141335D01*
X112308409Y-69127171D01*
X112480639Y-69071211D01*
X112641994Y-68988996D01*
X112788501Y-68882553D01*
X112916553Y-68754501D01*
X113022996Y-68607994D01*
X113105211Y-68446639D01*
X113161171Y-68274409D01*
X113189500Y-68095546D01*
X113189500Y-67914454D01*
X113189500Y-67914450D01*
X136288500Y-67914450D01*
X136288500Y-68095549D01*
X136316828Y-68274406D01*
X136316829Y-68274409D01*
X136372789Y-68446639D01*
X136455004Y-68607994D01*
X136561447Y-68754501D01*
X136689499Y-68882553D01*
X136836006Y-68988996D01*
X136997361Y-69071211D01*
X137169591Y-69127171D01*
X137241136Y-69138502D01*
X137348451Y-69155500D01*
X137348454Y-69155500D01*
X137529549Y-69155500D01*
X137618977Y-69141335D01*
X137708409Y-69127171D01*
X137880639Y-69071211D01*
X138041994Y-68988996D01*
X138188501Y-68882553D01*
X138316553Y-68754501D01*
X138422996Y-68607994D01*
X138505211Y-68446639D01*
X138561171Y-68274409D01*
X138589500Y-68095546D01*
X138589500Y-67914454D01*
X138589500Y-67914450D01*
X138561171Y-67735593D01*
X138561171Y-67735591D01*
X138505211Y-67563361D01*
X138422996Y-67402006D01*
X138316553Y-67255499D01*
X138188501Y-67127447D01*
X138041994Y-67021004D01*
X138041993Y-67021003D01*
X138041991Y-67021002D01*
X137880637Y-66938788D01*
X137708406Y-66882828D01*
X137529549Y-66854500D01*
X137529546Y-66854500D01*
X137348454Y-66854500D01*
X137348451Y-66854500D01*
X137169593Y-66882828D01*
X136997362Y-66938788D01*
X136836008Y-67021002D01*
X136762752Y-67074225D01*
X136689499Y-67127447D01*
X136561447Y-67255499D01*
X136508225Y-67328752D01*
X136455002Y-67402008D01*
X136372788Y-67563362D01*
X136316828Y-67735593D01*
X136288500Y-67914450D01*
X113189500Y-67914450D01*
X113161171Y-67735593D01*
X113161171Y-67735591D01*
X113105211Y-67563361D01*
X113022996Y-67402006D01*
X112916553Y-67255499D01*
X112788501Y-67127447D01*
X112641994Y-67021004D01*
X112641993Y-67021003D01*
X112641991Y-67021002D01*
X112480637Y-66938788D01*
X112308406Y-66882828D01*
X112129549Y-66854500D01*
X112129546Y-66854500D01*
X111948454Y-66854500D01*
X111948451Y-66854500D01*
X111769593Y-66882828D01*
X111597362Y-66938788D01*
X111436008Y-67021002D01*
X111362752Y-67074225D01*
X111289499Y-67127447D01*
X111161447Y-67255499D01*
X111108225Y-67328752D01*
X111055002Y-67402008D01*
X110972788Y-67563362D01*
X110916828Y-67735593D01*
X110888500Y-67914450D01*
X106917098Y-67914450D01*
X106912822Y-65374450D01*
X110888500Y-65374450D01*
X110888500Y-65555549D01*
X110916828Y-65734406D01*
X110916829Y-65734409D01*
X110972789Y-65906639D01*
X111055004Y-66067994D01*
X111161447Y-66214501D01*
X111289499Y-66342553D01*
X111436006Y-66448996D01*
X111597361Y-66531211D01*
X111769591Y-66587171D01*
X111841136Y-66598502D01*
X111948451Y-66615500D01*
X111948454Y-66615500D01*
X112129549Y-66615500D01*
X112218977Y-66601335D01*
X112308409Y-66587171D01*
X112480639Y-66531211D01*
X112641994Y-66448996D01*
X112788501Y-66342553D01*
X112916553Y-66214501D01*
X113022996Y-66067994D01*
X113105211Y-65906639D01*
X113161171Y-65734409D01*
X113189500Y-65555546D01*
X113189500Y-65374454D01*
X113189500Y-65374450D01*
X136288500Y-65374450D01*
X136288500Y-65555549D01*
X136316828Y-65734406D01*
X136316829Y-65734409D01*
X136372789Y-65906639D01*
X136455004Y-66067994D01*
X136561447Y-66214501D01*
X136689499Y-66342553D01*
X136836006Y-66448996D01*
X136997361Y-66531211D01*
X137169591Y-66587171D01*
X137241136Y-66598502D01*
X137348451Y-66615500D01*
X137348454Y-66615500D01*
X137529549Y-66615500D01*
X137618977Y-66601335D01*
X137708409Y-66587171D01*
X137880639Y-66531211D01*
X138041994Y-66448996D01*
X138188501Y-66342553D01*
X138316553Y-66214501D01*
X138422996Y-66067994D01*
X138505211Y-65906639D01*
X138561171Y-65734409D01*
X138589500Y-65555546D01*
X138589500Y-65374454D01*
X138589500Y-65374450D01*
X138561171Y-65195593D01*
X138561171Y-65195591D01*
X138505211Y-65023361D01*
X138422996Y-64862006D01*
X138316553Y-64715499D01*
X138188501Y-64587447D01*
X138041994Y-64481004D01*
X138041993Y-64481003D01*
X138041991Y-64481002D01*
X137880637Y-64398788D01*
X137708406Y-64342828D01*
X137529549Y-64314500D01*
X137529546Y-64314500D01*
X137348454Y-64314500D01*
X137348451Y-64314500D01*
X137169593Y-64342828D01*
X136997362Y-64398788D01*
X136836008Y-64481002D01*
X136762752Y-64534225D01*
X136689499Y-64587447D01*
X136561447Y-64715499D01*
X136508225Y-64788752D01*
X136455002Y-64862008D01*
X136372788Y-65023362D01*
X136316828Y-65195593D01*
X136288500Y-65374450D01*
X113189500Y-65374450D01*
X113161171Y-65195593D01*
X113161171Y-65195591D01*
X113105211Y-65023361D01*
X113022996Y-64862006D01*
X112916553Y-64715499D01*
X112788501Y-64587447D01*
X112641994Y-64481004D01*
X112641993Y-64481003D01*
X112641991Y-64481002D01*
X112480637Y-64398788D01*
X112308406Y-64342828D01*
X112129549Y-64314500D01*
X112129546Y-64314500D01*
X111948454Y-64314500D01*
X111948451Y-64314500D01*
X111769593Y-64342828D01*
X111597362Y-64398788D01*
X111436008Y-64481002D01*
X111362752Y-64534225D01*
X111289499Y-64587447D01*
X111161447Y-64715499D01*
X111108225Y-64788752D01*
X111055002Y-64862008D01*
X110972788Y-65023362D01*
X110916828Y-65195593D01*
X110888500Y-65374450D01*
X106912822Y-65374450D01*
X106904250Y-60282684D01*
X110739000Y-60282684D01*
X110739000Y-60487315D01*
X110771008Y-60689412D01*
X110834243Y-60884027D01*
X110927139Y-61066348D01*
X110927141Y-61066352D01*
X111019034Y-61192831D01*
X111588006Y-60623858D01*
X111630898Y-60698147D01*
X111725853Y-60793102D01*
X111800139Y-60835991D01*
X111231167Y-61404963D01*
X111357653Y-61496861D01*
X111539972Y-61589756D01*
X111692886Y-61639441D01*
X111742386Y-61675405D01*
X111761293Y-61733596D01*
X111742386Y-61791787D01*
X111692886Y-61827751D01*
X111597360Y-61858789D01*
X111436008Y-61941002D01*
X111362752Y-61994225D01*
X111289499Y-62047447D01*
X111161447Y-62175499D01*
X111108225Y-62248752D01*
X111055002Y-62322008D01*
X110972788Y-62483362D01*
X110916828Y-62655593D01*
X110888500Y-62834450D01*
X110888500Y-63015549D01*
X110916828Y-63194406D01*
X110916829Y-63194409D01*
X110972789Y-63366639D01*
X111055004Y-63527994D01*
X111161447Y-63674501D01*
X111289499Y-63802553D01*
X111436006Y-63908996D01*
X111597361Y-63991211D01*
X111769591Y-64047171D01*
X111841136Y-64058502D01*
X111948451Y-64075500D01*
X111948454Y-64075500D01*
X112129549Y-64075500D01*
X112218977Y-64061335D01*
X112308409Y-64047171D01*
X112480639Y-63991211D01*
X112641994Y-63908996D01*
X112788501Y-63802553D01*
X112916553Y-63674501D01*
X113022996Y-63527994D01*
X113105211Y-63366639D01*
X113161171Y-63194409D01*
X113189500Y-63015546D01*
X113189500Y-62834454D01*
X113189500Y-62834450D01*
X113161171Y-62655593D01*
X113161171Y-62655591D01*
X113105211Y-62483361D01*
X113022996Y-62322006D01*
X112916553Y-62175499D01*
X112788501Y-62047447D01*
X112641994Y-61941004D01*
X112641993Y-61941003D01*
X112641991Y-61941002D01*
X112480639Y-61858789D01*
X112385113Y-61827751D01*
X112335613Y-61791787D01*
X112316706Y-61733596D01*
X112335613Y-61675405D01*
X112385113Y-61639441D01*
X112385114Y-61639441D01*
X112538025Y-61589757D01*
X112720348Y-61496860D01*
X112720354Y-61496856D01*
X112846831Y-61404964D01*
X112846831Y-61404963D01*
X112277859Y-60835992D01*
X112352147Y-60793102D01*
X112447102Y-60698147D01*
X112489992Y-60623859D01*
X113058963Y-61192831D01*
X113058964Y-61192831D01*
X113150856Y-61066354D01*
X113150860Y-61066348D01*
X113243756Y-60884027D01*
X113306991Y-60689412D01*
X113339000Y-60487315D01*
X113339000Y-60282684D01*
X136139000Y-60282684D01*
X136139000Y-60487315D01*
X136171008Y-60689412D01*
X136234243Y-60884027D01*
X136327139Y-61066348D01*
X136327141Y-61066352D01*
X136419034Y-61192831D01*
X136988006Y-60623858D01*
X137030898Y-60698147D01*
X137125853Y-60793102D01*
X137200139Y-60835991D01*
X136631167Y-61404963D01*
X136757653Y-61496861D01*
X136939972Y-61589756D01*
X137092886Y-61639441D01*
X137142386Y-61675405D01*
X137161293Y-61733596D01*
X137142386Y-61791787D01*
X137092886Y-61827751D01*
X136997360Y-61858789D01*
X136836008Y-61941002D01*
X136762752Y-61994225D01*
X136689499Y-62047447D01*
X136561447Y-62175499D01*
X136508225Y-62248752D01*
X136455002Y-62322008D01*
X136372788Y-62483362D01*
X136316828Y-62655593D01*
X136288500Y-62834450D01*
X136288500Y-63015549D01*
X136316828Y-63194406D01*
X136316829Y-63194409D01*
X136372789Y-63366639D01*
X136455004Y-63527994D01*
X136561447Y-63674501D01*
X136689499Y-63802553D01*
X136836006Y-63908996D01*
X136997361Y-63991211D01*
X137169591Y-64047171D01*
X137241136Y-64058502D01*
X137348451Y-64075500D01*
X137348454Y-64075500D01*
X137529549Y-64075500D01*
X137618977Y-64061335D01*
X137708409Y-64047171D01*
X137880639Y-63991211D01*
X138041994Y-63908996D01*
X138188501Y-63802553D01*
X138316553Y-63674501D01*
X138422996Y-63527994D01*
X138505211Y-63366639D01*
X138561171Y-63194409D01*
X138589500Y-63015546D01*
X138589500Y-62834454D01*
X138589500Y-62834450D01*
X138561171Y-62655593D01*
X138561171Y-62655591D01*
X138505211Y-62483361D01*
X138422996Y-62322006D01*
X138316553Y-62175499D01*
X138188501Y-62047447D01*
X138041994Y-61941004D01*
X138041993Y-61941003D01*
X138041991Y-61941002D01*
X137880639Y-61858789D01*
X137785113Y-61827751D01*
X137735613Y-61791787D01*
X137716706Y-61733596D01*
X137735613Y-61675405D01*
X137785113Y-61639441D01*
X137785114Y-61639441D01*
X137938025Y-61589757D01*
X138120348Y-61496860D01*
X138120354Y-61496856D01*
X138246831Y-61404964D01*
X138246831Y-61404963D01*
X137677859Y-60835992D01*
X137752147Y-60793102D01*
X137847102Y-60698147D01*
X137889992Y-60623859D01*
X138458963Y-61192831D01*
X138458964Y-61192831D01*
X138550856Y-61066354D01*
X138550860Y-61066348D01*
X138643756Y-60884027D01*
X138706991Y-60689412D01*
X138739000Y-60487315D01*
X138739000Y-60282684D01*
X138706991Y-60080587D01*
X138643756Y-59885972D01*
X138550861Y-59703653D01*
X138458963Y-59577167D01*
X137889991Y-60146139D01*
X137847102Y-60071853D01*
X137752147Y-59976898D01*
X137677858Y-59934006D01*
X138246831Y-59365034D01*
X138120352Y-59273141D01*
X138120348Y-59273139D01*
X137938027Y-59180243D01*
X137785113Y-59130558D01*
X137735613Y-59094594D01*
X137716706Y-59036403D01*
X137735613Y-58978212D01*
X137785112Y-58942248D01*
X137880639Y-58911211D01*
X138041994Y-58828996D01*
X138188501Y-58722553D01*
X138316553Y-58594501D01*
X138422996Y-58447994D01*
X138505211Y-58286639D01*
X138561171Y-58114409D01*
X138589500Y-57935546D01*
X138589500Y-57754454D01*
X138589500Y-57754450D01*
X138561171Y-57575593D01*
X138561171Y-57575591D01*
X138505211Y-57403361D01*
X138422996Y-57242006D01*
X138316553Y-57095499D01*
X138188501Y-56967447D01*
X138041994Y-56861004D01*
X138041993Y-56861003D01*
X138041991Y-56861002D01*
X137880637Y-56778788D01*
X137708406Y-56722828D01*
X137529549Y-56694500D01*
X137529546Y-56694500D01*
X137348454Y-56694500D01*
X137348451Y-56694500D01*
X137169593Y-56722828D01*
X136997362Y-56778788D01*
X136836008Y-56861002D01*
X136762752Y-56914225D01*
X136689499Y-56967447D01*
X136561447Y-57095499D01*
X136508225Y-57168752D01*
X136455002Y-57242008D01*
X136372788Y-57403362D01*
X136316828Y-57575593D01*
X136288500Y-57754450D01*
X136288500Y-57935549D01*
X136316828Y-58114406D01*
X136316829Y-58114409D01*
X136372789Y-58286639D01*
X136455004Y-58447994D01*
X136561447Y-58594501D01*
X136689499Y-58722553D01*
X136836006Y-58828996D01*
X136997361Y-58911211D01*
X137092885Y-58942248D01*
X137142385Y-58978212D01*
X137161293Y-59036402D01*
X137142386Y-59094593D01*
X137092886Y-59130557D01*
X136939979Y-59180239D01*
X136939976Y-59180241D01*
X136757651Y-59273139D01*
X136757647Y-59273141D01*
X136631167Y-59365034D01*
X137200140Y-59934007D01*
X137125853Y-59976898D01*
X137030898Y-60071853D01*
X136988007Y-60146140D01*
X136419034Y-59577167D01*
X136327141Y-59703647D01*
X136327139Y-59703651D01*
X136234243Y-59885972D01*
X136171008Y-60080587D01*
X136139000Y-60282684D01*
X113339000Y-60282684D01*
X113306991Y-60080587D01*
X113243756Y-59885972D01*
X113150861Y-59703653D01*
X113058963Y-59577167D01*
X112489991Y-60146139D01*
X112447102Y-60071853D01*
X112352147Y-59976898D01*
X112277858Y-59934006D01*
X112846831Y-59365034D01*
X112720352Y-59273141D01*
X112720348Y-59273139D01*
X112542869Y-59182710D01*
X112499604Y-59139445D01*
X112490033Y-59079013D01*
X112517810Y-59024497D01*
X112572327Y-58996719D01*
X112587814Y-58995500D01*
X113053819Y-58995500D01*
X113053820Y-58995500D01*
X113053821Y-58995499D01*
X113053827Y-58995499D01*
X113075623Y-58991162D01*
X113097722Y-58986767D01*
X113147504Y-58953504D01*
X113180767Y-58903722D01*
X113189500Y-58859820D01*
X113189500Y-56830180D01*
X113189499Y-56830178D01*
X113189499Y-56830172D01*
X113180767Y-56786279D01*
X113180765Y-56786275D01*
X113147505Y-56736498D01*
X113147504Y-56736496D01*
X113127048Y-56722828D01*
X113097724Y-56703234D01*
X113097720Y-56703232D01*
X113053827Y-56694500D01*
X113053820Y-56694500D01*
X111024180Y-56694500D01*
X111024172Y-56694500D01*
X110980279Y-56703232D01*
X110980275Y-56703234D01*
X110930498Y-56736494D01*
X110930494Y-56736498D01*
X110897234Y-56786275D01*
X110897232Y-56786279D01*
X110888500Y-56830172D01*
X110888500Y-58859827D01*
X110897232Y-58903720D01*
X110897233Y-58903722D01*
X110930496Y-58953504D01*
X110980278Y-58986767D01*
X110991327Y-58988964D01*
X111024172Y-58995499D01*
X111024178Y-58995499D01*
X111024180Y-58995500D01*
X111024181Y-58995500D01*
X111490186Y-58995500D01*
X111548377Y-59014407D01*
X111584341Y-59063907D01*
X111584341Y-59125093D01*
X111548377Y-59174593D01*
X111535131Y-59182710D01*
X111357651Y-59273139D01*
X111357647Y-59273141D01*
X111231167Y-59365034D01*
X111800140Y-59934007D01*
X111725853Y-59976898D01*
X111630898Y-60071853D01*
X111588007Y-60146140D01*
X111019034Y-59577167D01*
X110927141Y-59703647D01*
X110927139Y-59703651D01*
X110834243Y-59885972D01*
X110771008Y-60080587D01*
X110739000Y-60282684D01*
X106904250Y-60282684D01*
X106886552Y-49770265D01*
X110708500Y-49770265D01*
X110708500Y-49999734D01*
X110738452Y-50227238D01*
X110797841Y-50448885D01*
X110885653Y-50660883D01*
X110885656Y-50660888D01*
X111000389Y-50859612D01*
X111140081Y-51041661D01*
X111302339Y-51203919D01*
X111484388Y-51343611D01*
X111683112Y-51458344D01*
X111683113Y-51458344D01*
X111683116Y-51458346D01*
X111779167Y-51498131D01*
X111895113Y-51546158D01*
X112116762Y-51605548D01*
X112344266Y-51635500D01*
X112344267Y-51635500D01*
X112573733Y-51635500D01*
X112573734Y-51635500D01*
X112801238Y-51605548D01*
X113022887Y-51546158D01*
X113234888Y-51458344D01*
X113433612Y-51343611D01*
X113615661Y-51203919D01*
X113777919Y-51041661D01*
X113917611Y-50859612D01*
X114032344Y-50660888D01*
X114120158Y-50448887D01*
X114179548Y-50227238D01*
X114209500Y-49999734D01*
X114209500Y-49770266D01*
X114209500Y-49770265D01*
X135218500Y-49770265D01*
X135218500Y-49999734D01*
X135248452Y-50227238D01*
X135307841Y-50448885D01*
X135395653Y-50660883D01*
X135395656Y-50660888D01*
X135510389Y-50859612D01*
X135650081Y-51041661D01*
X135812339Y-51203919D01*
X135994388Y-51343611D01*
X136193112Y-51458344D01*
X136193113Y-51458344D01*
X136193116Y-51458346D01*
X136289167Y-51498131D01*
X136405113Y-51546158D01*
X136626762Y-51605548D01*
X136854266Y-51635500D01*
X136854267Y-51635500D01*
X137083733Y-51635500D01*
X137083734Y-51635500D01*
X137311238Y-51605548D01*
X137532887Y-51546158D01*
X137744888Y-51458344D01*
X137943612Y-51343611D01*
X138125661Y-51203919D01*
X138287919Y-51041661D01*
X138427611Y-50859612D01*
X138542344Y-50660888D01*
X138630158Y-50448887D01*
X138689548Y-50227238D01*
X138719500Y-49999734D01*
X138719500Y-49770266D01*
X138689548Y-49542762D01*
X138630158Y-49321113D01*
X138542344Y-49109112D01*
X138427611Y-48910388D01*
X138287919Y-48728339D01*
X138125661Y-48566081D01*
X137943612Y-48426389D01*
X137943613Y-48426389D01*
X137943611Y-48426388D01*
X137744883Y-48311653D01*
X137532885Y-48223841D01*
X137311238Y-48164452D01*
X137083734Y-48134500D01*
X136854266Y-48134500D01*
X136854265Y-48134500D01*
X136626761Y-48164452D01*
X136405114Y-48223841D01*
X136193116Y-48311653D01*
X135994388Y-48426388D01*
X135812342Y-48566078D01*
X135650078Y-48728342D01*
X135510388Y-48910388D01*
X135395653Y-49109116D01*
X135307841Y-49321114D01*
X135248452Y-49542761D01*
X135218500Y-49770265D01*
X114209500Y-49770265D01*
X114179548Y-49542762D01*
X114120158Y-49321113D01*
X114032344Y-49109112D01*
X113917611Y-48910388D01*
X113777919Y-48728339D01*
X113615661Y-48566081D01*
X113433612Y-48426389D01*
X113433613Y-48426389D01*
X113433611Y-48426388D01*
X113234883Y-48311653D01*
X113022885Y-48223841D01*
X112801238Y-48164452D01*
X112573734Y-48134500D01*
X112344266Y-48134500D01*
X112344265Y-48134500D01*
X112116761Y-48164452D01*
X111895114Y-48223841D01*
X111683116Y-48311653D01*
X111484388Y-48426388D01*
X111302342Y-48566078D01*
X111140078Y-48728342D01*
X111000388Y-48910388D01*
X110885653Y-49109116D01*
X110797841Y-49321114D01*
X110738452Y-49542761D01*
X110708500Y-49770265D01*
X106886552Y-49770265D01*
X106881175Y-46576267D01*
X106899984Y-46518046D01*
X106949424Y-46481999D01*
X106979340Y-46477106D01*
X151884852Y-46099020D01*
X151943199Y-46117436D01*
G37*
%TD.AperFunction*%
%TD*%
%TA.AperFunction,Conductor*%
%TO.N,GNDPWR*%
G36*
X202109756Y-42276304D02*
G01*
X202198854Y-42286505D01*
X202226329Y-42292879D01*
X202306695Y-42321484D01*
X202332022Y-42333904D01*
X202403845Y-42379933D01*
X202425708Y-42397755D01*
X202481765Y-42455231D01*
X202485268Y-42458822D01*
X202502538Y-42481124D01*
X202546755Y-42554071D01*
X202558539Y-42579701D01*
X202585127Y-42660761D01*
X202590812Y-42688386D01*
X202597763Y-42766284D01*
X202598541Y-42775000D01*
X202599009Y-42780238D01*
X202599500Y-42791260D01*
X202599500Y-42792190D01*
X202599461Y-42795289D01*
X202598009Y-42853365D01*
X202598805Y-42860854D01*
X202599500Y-42873960D01*
X202599500Y-98343038D01*
X202598720Y-98356922D01*
X202598720Y-98356923D01*
X202588540Y-98447264D01*
X202582362Y-98474333D01*
X202554648Y-98553537D01*
X202542600Y-98578555D01*
X202497957Y-98649604D01*
X202480644Y-98671313D01*
X202421313Y-98730644D01*
X202399604Y-98747957D01*
X202328555Y-98792600D01*
X202303537Y-98804648D01*
X202224333Y-98832362D01*
X202197264Y-98838540D01*
X202117075Y-98847576D01*
X202106921Y-98848720D01*
X202093038Y-98849500D01*
X151604213Y-98849500D01*
X151537174Y-98829815D01*
X151491419Y-98777011D01*
X151480228Y-98723588D01*
X151519545Y-96174038D01*
X198399500Y-96174038D01*
X198399500Y-96425961D01*
X198438910Y-96674785D01*
X198516760Y-96914383D01*
X198574477Y-97027658D01*
X198628187Y-97133070D01*
X198631132Y-97138848D01*
X198779201Y-97342649D01*
X198779205Y-97342654D01*
X198957345Y-97520794D01*
X198957350Y-97520798D01*
X199055768Y-97592302D01*
X199161155Y-97668870D01*
X199304184Y-97741747D01*
X199385616Y-97783239D01*
X199385618Y-97783239D01*
X199385621Y-97783241D01*
X199625215Y-97861090D01*
X199874038Y-97900500D01*
X199874039Y-97900500D01*
X200125961Y-97900500D01*
X200125962Y-97900500D01*
X200374785Y-97861090D01*
X200614379Y-97783241D01*
X200838845Y-97668870D01*
X201042656Y-97520793D01*
X201220793Y-97342656D01*
X201368870Y-97138845D01*
X201483241Y-96914379D01*
X201561090Y-96674785D01*
X201600500Y-96425962D01*
X201600500Y-96174038D01*
X201561090Y-95925215D01*
X201483241Y-95685621D01*
X201483239Y-95685618D01*
X201483239Y-95685616D01*
X201396856Y-95516081D01*
X201368870Y-95461155D01*
X201321976Y-95396611D01*
X201220798Y-95257350D01*
X201220794Y-95257345D01*
X201042654Y-95079205D01*
X201042649Y-95079201D01*
X200838848Y-94931132D01*
X200838847Y-94931131D01*
X200838845Y-94931130D01*
X200753318Y-94887552D01*
X200614383Y-94816760D01*
X200374785Y-94738910D01*
X200125962Y-94699500D01*
X199874038Y-94699500D01*
X199749626Y-94719205D01*
X199625214Y-94738910D01*
X199385616Y-94816760D01*
X199161151Y-94931132D01*
X198957350Y-95079201D01*
X198957345Y-95079205D01*
X198779205Y-95257345D01*
X198779201Y-95257350D01*
X198631132Y-95461151D01*
X198516760Y-95685616D01*
X198438910Y-95925214D01*
X198399500Y-96174038D01*
X151519545Y-96174038D01*
X151519650Y-96167254D01*
X151789040Y-78698389D01*
X153739500Y-78698389D01*
X153739500Y-78871610D01*
X153766574Y-79042553D01*
X153766598Y-79042701D01*
X153820127Y-79207445D01*
X153898768Y-79361788D01*
X154000586Y-79501928D01*
X154123072Y-79624414D01*
X154263212Y-79726232D01*
X154417555Y-79804873D01*
X154582299Y-79858402D01*
X154753389Y-79885500D01*
X154753390Y-79885500D01*
X154926610Y-79885500D01*
X154926611Y-79885500D01*
X155097701Y-79858402D01*
X155262445Y-79804873D01*
X155416788Y-79726232D01*
X155556928Y-79624414D01*
X155679414Y-79501928D01*
X155781232Y-79361788D01*
X155859873Y-79207445D01*
X155913402Y-79042701D01*
X155940500Y-78871611D01*
X155940500Y-78698389D01*
X155913402Y-78527299D01*
X155859873Y-78362555D01*
X155781232Y-78208212D01*
X155679414Y-78068072D01*
X155556928Y-77945586D01*
X155416788Y-77843768D01*
X155262445Y-77765127D01*
X155097701Y-77711598D01*
X155097699Y-77711597D01*
X155097698Y-77711597D01*
X154966271Y-77690781D01*
X154926611Y-77684500D01*
X154753389Y-77684500D01*
X154713728Y-77690781D01*
X154582302Y-77711597D01*
X154417552Y-77765128D01*
X154263211Y-77843768D01*
X154191884Y-77895591D01*
X154123072Y-77945586D01*
X154123070Y-77945588D01*
X154123069Y-77945588D01*
X154000588Y-78068069D01*
X154000588Y-78068070D01*
X154000586Y-78068072D01*
X153956859Y-78128256D01*
X153898768Y-78208211D01*
X153820128Y-78362552D01*
X153766597Y-78527302D01*
X153739500Y-78698389D01*
X151789040Y-78698389D01*
X151789145Y-78691605D01*
X151828210Y-76158389D01*
X153739500Y-76158389D01*
X153739500Y-76331610D01*
X153766574Y-76502553D01*
X153766598Y-76502701D01*
X153820127Y-76667445D01*
X153898768Y-76821788D01*
X154000586Y-76961928D01*
X154123072Y-77084414D01*
X154263212Y-77186232D01*
X154417555Y-77264873D01*
X154582299Y-77318402D01*
X154753389Y-77345500D01*
X154753390Y-77345500D01*
X154926610Y-77345500D01*
X154926611Y-77345500D01*
X155097701Y-77318402D01*
X155262445Y-77264873D01*
X155416788Y-77186232D01*
X155556928Y-77084414D01*
X155679414Y-76961928D01*
X155781232Y-76821788D01*
X155859873Y-76667445D01*
X155913402Y-76502701D01*
X155940500Y-76331611D01*
X155940500Y-76158389D01*
X155913402Y-75987299D01*
X155859873Y-75822555D01*
X155781232Y-75668212D01*
X155679414Y-75528072D01*
X155556928Y-75405586D01*
X155416788Y-75303768D01*
X155262445Y-75225127D01*
X155097701Y-75171598D01*
X155097699Y-75171597D01*
X155097698Y-75171597D01*
X154966271Y-75150781D01*
X154926611Y-75144500D01*
X154753389Y-75144500D01*
X154713728Y-75150781D01*
X154582302Y-75171597D01*
X154417552Y-75225128D01*
X154263211Y-75303768D01*
X154191884Y-75355591D01*
X154123072Y-75405586D01*
X154123070Y-75405588D01*
X154123069Y-75405588D01*
X154000588Y-75528069D01*
X154000588Y-75528070D01*
X154000586Y-75528072D01*
X153956859Y-75588256D01*
X153898768Y-75668211D01*
X153820128Y-75822552D01*
X153766597Y-75987302D01*
X153739500Y-76158389D01*
X151828210Y-76158389D01*
X151867380Y-73618389D01*
X153739500Y-73618389D01*
X153739500Y-73791610D01*
X153766574Y-73962553D01*
X153766598Y-73962701D01*
X153820127Y-74127445D01*
X153898768Y-74281788D01*
X154000586Y-74421928D01*
X154123072Y-74544414D01*
X154263212Y-74646232D01*
X154417555Y-74724873D01*
X154582299Y-74778402D01*
X154753389Y-74805500D01*
X154753390Y-74805500D01*
X154926610Y-74805500D01*
X154926611Y-74805500D01*
X155097701Y-74778402D01*
X155262445Y-74724873D01*
X155416788Y-74646232D01*
X155556928Y-74544414D01*
X155679414Y-74421928D01*
X155781232Y-74281788D01*
X155859873Y-74127445D01*
X155913402Y-73962701D01*
X155940500Y-73791611D01*
X155940500Y-73618389D01*
X155913402Y-73447299D01*
X155859873Y-73282555D01*
X155781232Y-73128212D01*
X155679414Y-72988072D01*
X155556928Y-72865586D01*
X155416788Y-72763768D01*
X155262445Y-72685127D01*
X155097701Y-72631598D01*
X155097699Y-72631597D01*
X155097698Y-72631597D01*
X154966271Y-72610781D01*
X154926611Y-72604500D01*
X154753389Y-72604500D01*
X154713728Y-72610781D01*
X154582302Y-72631597D01*
X154417552Y-72685128D01*
X154263211Y-72763768D01*
X154191884Y-72815591D01*
X154123072Y-72865586D01*
X154123070Y-72865588D01*
X154123069Y-72865588D01*
X154000588Y-72988069D01*
X154000588Y-72988070D01*
X154000586Y-72988072D01*
X153956859Y-73048256D01*
X153898768Y-73128211D01*
X153820128Y-73282552D01*
X153766597Y-73447302D01*
X153739500Y-73618389D01*
X151867380Y-73618389D01*
X151906550Y-71078389D01*
X153739500Y-71078389D01*
X153739500Y-71251610D01*
X153766574Y-71422553D01*
X153766598Y-71422701D01*
X153820127Y-71587445D01*
X153898768Y-71741788D01*
X154000586Y-71881928D01*
X154123072Y-72004414D01*
X154263212Y-72106232D01*
X154417555Y-72184873D01*
X154582299Y-72238402D01*
X154753389Y-72265500D01*
X154753390Y-72265500D01*
X154926610Y-72265500D01*
X154926611Y-72265500D01*
X155097701Y-72238402D01*
X155262445Y-72184873D01*
X155416788Y-72106232D01*
X155556928Y-72004414D01*
X155679414Y-71881928D01*
X155781232Y-71741788D01*
X155859873Y-71587445D01*
X155913402Y-71422701D01*
X155940500Y-71251611D01*
X155940500Y-71078389D01*
X155913402Y-70907299D01*
X155859873Y-70742555D01*
X155781232Y-70588212D01*
X155679414Y-70448072D01*
X155556928Y-70325586D01*
X155416788Y-70223768D01*
X155262445Y-70145127D01*
X155097701Y-70091598D01*
X155097699Y-70091597D01*
X155097698Y-70091597D01*
X154966271Y-70070781D01*
X154926611Y-70064500D01*
X154753389Y-70064500D01*
X154713728Y-70070781D01*
X154582302Y-70091597D01*
X154417552Y-70145128D01*
X154263211Y-70223768D01*
X154191884Y-70275591D01*
X154123072Y-70325586D01*
X154123070Y-70325588D01*
X154123069Y-70325588D01*
X154000588Y-70448069D01*
X154000588Y-70448070D01*
X154000586Y-70448072D01*
X153956859Y-70508256D01*
X153898768Y-70588211D01*
X153820128Y-70742552D01*
X153766597Y-70907302D01*
X153739500Y-71078389D01*
X151906550Y-71078389D01*
X151906655Y-71071605D01*
X152296526Y-45790045D01*
X152296526Y-45790044D01*
X106575000Y-46175000D01*
X106624798Y-75755147D01*
X106605226Y-75822220D01*
X106552499Y-75868063D01*
X106505224Y-75879277D01*
X99624999Y-76124999D01*
X99624999Y-76125000D01*
X99471911Y-98726340D01*
X99451773Y-98793244D01*
X99398660Y-98838641D01*
X99347914Y-98849500D01*
X96511204Y-98849500D01*
X96444165Y-98829815D01*
X96398410Y-98777011D01*
X96388466Y-98707853D01*
X96417491Y-98644297D01*
X96423523Y-98637819D01*
X96494414Y-98566928D01*
X96596232Y-98426788D01*
X96674873Y-98272445D01*
X96728402Y-98107701D01*
X96755500Y-97936611D01*
X96755500Y-97763389D01*
X96728402Y-97592299D01*
X96674873Y-97427555D01*
X96596232Y-97273212D01*
X96494414Y-97133072D01*
X96371928Y-97010586D01*
X96231788Y-96908768D01*
X96077445Y-96830127D01*
X95912701Y-96776598D01*
X95912699Y-96776597D01*
X95912698Y-96776597D01*
X95781271Y-96755781D01*
X95741611Y-96749500D01*
X95568389Y-96749500D01*
X95528728Y-96755781D01*
X95397302Y-96776597D01*
X95232552Y-96830128D01*
X95078211Y-96908768D01*
X95021827Y-96949734D01*
X94938072Y-97010586D01*
X94938070Y-97010588D01*
X94938069Y-97010588D01*
X94815588Y-97133069D01*
X94815588Y-97133070D01*
X94815586Y-97133072D01*
X94771859Y-97193256D01*
X94713768Y-97273211D01*
X94635128Y-97427552D01*
X94581597Y-97592302D01*
X94569471Y-97668867D01*
X94554500Y-97763389D01*
X94554500Y-97936611D01*
X94581598Y-98107701D01*
X94635127Y-98272445D01*
X94713768Y-98426788D01*
X94815586Y-98566928D01*
X94815588Y-98566930D01*
X94886477Y-98637819D01*
X94919962Y-98699142D01*
X94914978Y-98768834D01*
X94873106Y-98824767D01*
X94807642Y-98849184D01*
X94798796Y-98849500D01*
X46956962Y-98849500D01*
X46943078Y-98848720D01*
X46930553Y-98847308D01*
X46852735Y-98838540D01*
X46825666Y-98832362D01*
X46746462Y-98804648D01*
X46721444Y-98792600D01*
X46650395Y-98747957D01*
X46628686Y-98730644D01*
X46569355Y-98671313D01*
X46552042Y-98649604D01*
X46548707Y-98644297D01*
X46507398Y-98578553D01*
X46495351Y-98553537D01*
X46467637Y-98474333D01*
X46461459Y-98447263D01*
X46460990Y-98443102D01*
X46451280Y-98356922D01*
X46450500Y-98343038D01*
X46450500Y-96174038D01*
X47399500Y-96174038D01*
X47399500Y-96425961D01*
X47438910Y-96674785D01*
X47516760Y-96914383D01*
X47574477Y-97027658D01*
X47628187Y-97133070D01*
X47631132Y-97138848D01*
X47779201Y-97342649D01*
X47779205Y-97342654D01*
X47957345Y-97520794D01*
X47957350Y-97520798D01*
X48055768Y-97592302D01*
X48161155Y-97668870D01*
X48304184Y-97741747D01*
X48385616Y-97783239D01*
X48385618Y-97783239D01*
X48385621Y-97783241D01*
X48625215Y-97861090D01*
X48874038Y-97900500D01*
X48874039Y-97900500D01*
X49125961Y-97900500D01*
X49125962Y-97900500D01*
X49374785Y-97861090D01*
X49614379Y-97783241D01*
X49838845Y-97668870D01*
X50042656Y-97520793D01*
X50220793Y-97342656D01*
X50368870Y-97138845D01*
X50483241Y-96914379D01*
X50561090Y-96674785D01*
X50600500Y-96425962D01*
X50600500Y-96174038D01*
X50561090Y-95925215D01*
X50483241Y-95685621D01*
X50483239Y-95685618D01*
X50483239Y-95685616D01*
X50396856Y-95516081D01*
X50368870Y-95461155D01*
X50321976Y-95396611D01*
X50245538Y-95291402D01*
X50245537Y-95291401D01*
X50220796Y-95257347D01*
X50186838Y-95223389D01*
X94554500Y-95223389D01*
X94554500Y-95396611D01*
X94581598Y-95567701D01*
X94635127Y-95732445D01*
X94713768Y-95886788D01*
X94815586Y-96026928D01*
X94938072Y-96149414D01*
X95078212Y-96251232D01*
X95232555Y-96329873D01*
X95397299Y-96383402D01*
X95568389Y-96410500D01*
X95568390Y-96410500D01*
X95741610Y-96410500D01*
X95741611Y-96410500D01*
X95912701Y-96383402D01*
X96077445Y-96329873D01*
X96231788Y-96251232D01*
X96371928Y-96149414D01*
X96494414Y-96026928D01*
X96596232Y-95886788D01*
X96674873Y-95732445D01*
X96728402Y-95567701D01*
X96755500Y-95396611D01*
X96755500Y-95223389D01*
X96728402Y-95052299D01*
X96674873Y-94887555D01*
X96596232Y-94733212D01*
X96494414Y-94593072D01*
X96371928Y-94470586D01*
X96231788Y-94368768D01*
X96077445Y-94290127D01*
X95912701Y-94236598D01*
X95912699Y-94236597D01*
X95912698Y-94236597D01*
X95781271Y-94215781D01*
X95741611Y-94209500D01*
X95568389Y-94209500D01*
X95528728Y-94215781D01*
X95397302Y-94236597D01*
X95232552Y-94290128D01*
X95078211Y-94368768D01*
X94998256Y-94426859D01*
X94938072Y-94470586D01*
X94938070Y-94470588D01*
X94938069Y-94470588D01*
X94815588Y-94593069D01*
X94815588Y-94593070D01*
X94815586Y-94593072D01*
X94771859Y-94653256D01*
X94713768Y-94733211D01*
X94635128Y-94887552D01*
X94581597Y-95052302D01*
X94571754Y-95114452D01*
X94554500Y-95223389D01*
X50186838Y-95223389D01*
X50042654Y-95079205D01*
X50042649Y-95079201D01*
X49838848Y-94931132D01*
X49838847Y-94931131D01*
X49838845Y-94931130D01*
X49753318Y-94887552D01*
X49614383Y-94816760D01*
X49374785Y-94738910D01*
X49125962Y-94699500D01*
X48874038Y-94699500D01*
X48749626Y-94719205D01*
X48625214Y-94738910D01*
X48385616Y-94816760D01*
X48161151Y-94931132D01*
X47957350Y-95079201D01*
X47957345Y-95079205D01*
X47779205Y-95257345D01*
X47779201Y-95257350D01*
X47631132Y-95461151D01*
X47516760Y-95685616D01*
X47438910Y-95925214D01*
X47399500Y-96174038D01*
X46450500Y-96174038D01*
X46450500Y-92683389D01*
X94554500Y-92683389D01*
X94554500Y-92856610D01*
X94571407Y-92963361D01*
X94581598Y-93027701D01*
X94635127Y-93192445D01*
X94713768Y-93346788D01*
X94815586Y-93486928D01*
X94938072Y-93609414D01*
X95078212Y-93711232D01*
X95232555Y-93789873D01*
X95397299Y-93843402D01*
X95568389Y-93870500D01*
X95568390Y-93870500D01*
X95741610Y-93870500D01*
X95741611Y-93870500D01*
X95912701Y-93843402D01*
X96077445Y-93789873D01*
X96231788Y-93711232D01*
X96371928Y-93609414D01*
X96494414Y-93486928D01*
X96596232Y-93346788D01*
X96674873Y-93192445D01*
X96728402Y-93027701D01*
X96755500Y-92856611D01*
X96755500Y-92683389D01*
X96728402Y-92512299D01*
X96674873Y-92347555D01*
X96596232Y-92193212D01*
X96494414Y-92053072D01*
X96371928Y-91930586D01*
X96231788Y-91828768D01*
X96077445Y-91750127D01*
X95912701Y-91696598D01*
X95912699Y-91696597D01*
X95912698Y-91696597D01*
X95781271Y-91675781D01*
X95741611Y-91669500D01*
X95568389Y-91669500D01*
X95528728Y-91675781D01*
X95397302Y-91696597D01*
X95232552Y-91750128D01*
X95078211Y-91828768D01*
X94998256Y-91886859D01*
X94938072Y-91930586D01*
X94938070Y-91930588D01*
X94938069Y-91930588D01*
X94815588Y-92053069D01*
X94815588Y-92053070D01*
X94815586Y-92053072D01*
X94771859Y-92113256D01*
X94713768Y-92193211D01*
X94635128Y-92347552D01*
X94581597Y-92512302D01*
X94554500Y-92683389D01*
X46450500Y-92683389D01*
X46450500Y-90143389D01*
X94554500Y-90143389D01*
X94554500Y-90316610D01*
X94571407Y-90423361D01*
X94581598Y-90487701D01*
X94635127Y-90652445D01*
X94713768Y-90806788D01*
X94815586Y-90946928D01*
X94938072Y-91069414D01*
X95078212Y-91171232D01*
X95232555Y-91249873D01*
X95397299Y-91303402D01*
X95568389Y-91330500D01*
X95568390Y-91330500D01*
X95741610Y-91330500D01*
X95741611Y-91330500D01*
X95912701Y-91303402D01*
X96077445Y-91249873D01*
X96231788Y-91171232D01*
X96371928Y-91069414D01*
X96494414Y-90946928D01*
X96596232Y-90806788D01*
X96674873Y-90652445D01*
X96728402Y-90487701D01*
X96755500Y-90316611D01*
X96755500Y-90143389D01*
X96728402Y-89972299D01*
X96674873Y-89807555D01*
X96596232Y-89653212D01*
X96494414Y-89513072D01*
X96371928Y-89390586D01*
X96231788Y-89288768D01*
X96077445Y-89210127D01*
X95912701Y-89156598D01*
X95912699Y-89156597D01*
X95912698Y-89156597D01*
X95781271Y-89135781D01*
X95741611Y-89129500D01*
X95568389Y-89129500D01*
X95528728Y-89135781D01*
X95397302Y-89156597D01*
X95232552Y-89210128D01*
X95078211Y-89288768D01*
X94998256Y-89346859D01*
X94938072Y-89390586D01*
X94938070Y-89390588D01*
X94938069Y-89390588D01*
X94815588Y-89513069D01*
X94815588Y-89513070D01*
X94815586Y-89513072D01*
X94771859Y-89573256D01*
X94713768Y-89653211D01*
X94635128Y-89807552D01*
X94581597Y-89972302D01*
X94554500Y-90143389D01*
X46450500Y-90143389D01*
X46450500Y-87603389D01*
X94554500Y-87603389D01*
X94554500Y-87776610D01*
X94571407Y-87883361D01*
X94581598Y-87947701D01*
X94635127Y-88112445D01*
X94713768Y-88266788D01*
X94815586Y-88406928D01*
X94938072Y-88529414D01*
X95078212Y-88631232D01*
X95232555Y-88709873D01*
X95397299Y-88763402D01*
X95568389Y-88790500D01*
X95568390Y-88790500D01*
X95741610Y-88790500D01*
X95741611Y-88790500D01*
X95912701Y-88763402D01*
X96077445Y-88709873D01*
X96231788Y-88631232D01*
X96371928Y-88529414D01*
X96494414Y-88406928D01*
X96596232Y-88266788D01*
X96674873Y-88112445D01*
X96728402Y-87947701D01*
X96755500Y-87776611D01*
X96755500Y-87603389D01*
X96728402Y-87432299D01*
X96674873Y-87267555D01*
X96596232Y-87113212D01*
X96494414Y-86973072D01*
X96371928Y-86850586D01*
X96231788Y-86748768D01*
X96077445Y-86670127D01*
X95912701Y-86616598D01*
X95912699Y-86616597D01*
X95912698Y-86616597D01*
X95781271Y-86595781D01*
X95741611Y-86589500D01*
X95568389Y-86589500D01*
X95528728Y-86595781D01*
X95397302Y-86616597D01*
X95232552Y-86670128D01*
X95078211Y-86748768D01*
X94998256Y-86806859D01*
X94938072Y-86850586D01*
X94938070Y-86850588D01*
X94938069Y-86850588D01*
X94815588Y-86973069D01*
X94815588Y-86973070D01*
X94815586Y-86973072D01*
X94771859Y-87033256D01*
X94713768Y-87113211D01*
X94635128Y-87267552D01*
X94581597Y-87432302D01*
X94554500Y-87603389D01*
X46450500Y-87603389D01*
X46450500Y-85063389D01*
X94554500Y-85063389D01*
X94554500Y-85236610D01*
X94571407Y-85343361D01*
X94581598Y-85407701D01*
X94635127Y-85572445D01*
X94713768Y-85726788D01*
X94815586Y-85866928D01*
X94938072Y-85989414D01*
X95078212Y-86091232D01*
X95232555Y-86169873D01*
X95397299Y-86223402D01*
X95568389Y-86250500D01*
X95568390Y-86250500D01*
X95741610Y-86250500D01*
X95741611Y-86250500D01*
X95912701Y-86223402D01*
X96077445Y-86169873D01*
X96231788Y-86091232D01*
X96371928Y-85989414D01*
X96494414Y-85866928D01*
X96596232Y-85726788D01*
X96674873Y-85572445D01*
X96728402Y-85407701D01*
X96755500Y-85236611D01*
X96755500Y-85063389D01*
X96728402Y-84892299D01*
X96674873Y-84727555D01*
X96596232Y-84573212D01*
X96494414Y-84433072D01*
X96371928Y-84310586D01*
X96231788Y-84208768D01*
X96077445Y-84130127D01*
X95912701Y-84076598D01*
X95912699Y-84076597D01*
X95912698Y-84076597D01*
X95781271Y-84055781D01*
X95741611Y-84049500D01*
X95568389Y-84049500D01*
X95528728Y-84055781D01*
X95397302Y-84076597D01*
X95232552Y-84130128D01*
X95078211Y-84208768D01*
X94998256Y-84266859D01*
X94938072Y-84310586D01*
X94938070Y-84310588D01*
X94938069Y-84310588D01*
X94815588Y-84433069D01*
X94815588Y-84433070D01*
X94815586Y-84433072D01*
X94771859Y-84493256D01*
X94713768Y-84573211D01*
X94635128Y-84727552D01*
X94581597Y-84892302D01*
X94554500Y-85063389D01*
X46450500Y-85063389D01*
X46450500Y-82523389D01*
X94554500Y-82523389D01*
X94554500Y-82696610D01*
X94571407Y-82803361D01*
X94581598Y-82867701D01*
X94635127Y-83032445D01*
X94713768Y-83186788D01*
X94815586Y-83326928D01*
X94938072Y-83449414D01*
X95078212Y-83551232D01*
X95232555Y-83629873D01*
X95397299Y-83683402D01*
X95568389Y-83710500D01*
X95568390Y-83710500D01*
X95741610Y-83710500D01*
X95741611Y-83710500D01*
X95912701Y-83683402D01*
X96077445Y-83629873D01*
X96231788Y-83551232D01*
X96371928Y-83449414D01*
X96494414Y-83326928D01*
X96596232Y-83186788D01*
X96674873Y-83032445D01*
X96728402Y-82867701D01*
X96755500Y-82696611D01*
X96755500Y-82523389D01*
X96728402Y-82352299D01*
X96674873Y-82187555D01*
X96596232Y-82033212D01*
X96494414Y-81893072D01*
X96371928Y-81770586D01*
X96231788Y-81668768D01*
X96077445Y-81590127D01*
X95912701Y-81536598D01*
X95912699Y-81536597D01*
X95912698Y-81536597D01*
X95781271Y-81515781D01*
X95741611Y-81509500D01*
X95568389Y-81509500D01*
X95528728Y-81515781D01*
X95397302Y-81536597D01*
X95232552Y-81590128D01*
X95078211Y-81668768D01*
X94998256Y-81726859D01*
X94938072Y-81770586D01*
X94938070Y-81770588D01*
X94938069Y-81770588D01*
X94815588Y-81893069D01*
X94815588Y-81893070D01*
X94815586Y-81893072D01*
X94771859Y-81953256D01*
X94713768Y-82033211D01*
X94635128Y-82187552D01*
X94581597Y-82352302D01*
X94554500Y-82523389D01*
X46450500Y-82523389D01*
X46450500Y-79983389D01*
X94554500Y-79983389D01*
X94554500Y-80156610D01*
X94571407Y-80263361D01*
X94581598Y-80327701D01*
X94635127Y-80492445D01*
X94713768Y-80646788D01*
X94815586Y-80786928D01*
X94938072Y-80909414D01*
X95078212Y-81011232D01*
X95232555Y-81089873D01*
X95397299Y-81143402D01*
X95568389Y-81170500D01*
X95568390Y-81170500D01*
X95741610Y-81170500D01*
X95741611Y-81170500D01*
X95912701Y-81143402D01*
X96077445Y-81089873D01*
X96231788Y-81011232D01*
X96371928Y-80909414D01*
X96494414Y-80786928D01*
X96596232Y-80646788D01*
X96674873Y-80492445D01*
X96728402Y-80327701D01*
X96755500Y-80156611D01*
X96755500Y-79983389D01*
X96728402Y-79812299D01*
X96674873Y-79647555D01*
X96596232Y-79493212D01*
X96494414Y-79353072D01*
X96371928Y-79230586D01*
X96231788Y-79128768D01*
X96077445Y-79050127D01*
X95912701Y-78996598D01*
X95912699Y-78996597D01*
X95912698Y-78996597D01*
X95781271Y-78975781D01*
X95741611Y-78969500D01*
X95568389Y-78969500D01*
X95528728Y-78975781D01*
X95397302Y-78996597D01*
X95232552Y-79050128D01*
X95078211Y-79128768D01*
X94998256Y-79186859D01*
X94938072Y-79230586D01*
X94938070Y-79230588D01*
X94938069Y-79230588D01*
X94815588Y-79353069D01*
X94815588Y-79353070D01*
X94815586Y-79353072D01*
X94771859Y-79413256D01*
X94713768Y-79493211D01*
X94635128Y-79647552D01*
X94581597Y-79812302D01*
X94554500Y-79983389D01*
X46450500Y-79983389D01*
X46450500Y-52677444D01*
X93774500Y-52677444D01*
X93774500Y-54572555D01*
X93780784Y-54663093D01*
X93780786Y-54663109D01*
X93830659Y-54875156D01*
X93830661Y-54875161D01*
X93830662Y-54875164D01*
X93918657Y-55074454D01*
X94019486Y-55221646D01*
X94041773Y-55254181D01*
X94041778Y-55254187D01*
X94195812Y-55408221D01*
X94195818Y-55408226D01*
X94375546Y-55531343D01*
X94574836Y-55619338D01*
X94574841Y-55619339D01*
X94574843Y-55619340D01*
X94786890Y-55669213D01*
X94786895Y-55669213D01*
X94786901Y-55669215D01*
X94837204Y-55672706D01*
X94877444Y-55675500D01*
X94877448Y-55675500D01*
X96772556Y-55675500D01*
X96808770Y-55672986D01*
X96863099Y-55669215D01*
X96863105Y-55669213D01*
X96863109Y-55669213D01*
X97075156Y-55619340D01*
X97075156Y-55619339D01*
X97075164Y-55619338D01*
X97274454Y-55531343D01*
X97454182Y-55408226D01*
X97608226Y-55254182D01*
X97731343Y-55074454D01*
X97819338Y-54875164D01*
X97829927Y-54830143D01*
X97829930Y-54830131D01*
X98474500Y-54830131D01*
X98474500Y-58419856D01*
X98474502Y-58419882D01*
X98477413Y-58444987D01*
X98477415Y-58444991D01*
X98522793Y-58547764D01*
X98522794Y-58547765D01*
X98602235Y-58627206D01*
X98705009Y-58672585D01*
X98730135Y-58675500D01*
X102319864Y-58675499D01*
X102319879Y-58675497D01*
X102319882Y-58675497D01*
X102344987Y-58672586D01*
X102344988Y-58672585D01*
X102344991Y-58672585D01*
X102447765Y-58627206D01*
X102527206Y-58547765D01*
X102572585Y-58444991D01*
X102575500Y-58419865D01*
X102575499Y-54830136D01*
X102575497Y-54830117D01*
X102572586Y-54805012D01*
X102572585Y-54805010D01*
X102572585Y-54805009D01*
X102527206Y-54702235D01*
X102447765Y-54622794D01*
X102447763Y-54622793D01*
X102344992Y-54577415D01*
X102319865Y-54574500D01*
X98730143Y-54574500D01*
X98730117Y-54574502D01*
X98705012Y-54577413D01*
X98705008Y-54577415D01*
X98602235Y-54622793D01*
X98522794Y-54702234D01*
X98477415Y-54805006D01*
X98477415Y-54805008D01*
X98474500Y-54830131D01*
X97829930Y-54830131D01*
X97837449Y-54798164D01*
X97869213Y-54663109D01*
X97869213Y-54663105D01*
X97869215Y-54663099D01*
X97873405Y-54602734D01*
X97875500Y-54572555D01*
X97875500Y-52677444D01*
X97871859Y-52624998D01*
X97869215Y-52586901D01*
X97869213Y-52586895D01*
X97869213Y-52586890D01*
X97819340Y-52374843D01*
X97819339Y-52374841D01*
X97819338Y-52374836D01*
X97731343Y-52175546D01*
X97608226Y-51995818D01*
X97608221Y-51995812D01*
X97454187Y-51841778D01*
X97454181Y-51841773D01*
X97377899Y-51789519D01*
X97274454Y-51718657D01*
X97075164Y-51630662D01*
X97075161Y-51630661D01*
X97075156Y-51630659D01*
X96863109Y-51580786D01*
X96863093Y-51580784D01*
X96772556Y-51574500D01*
X96772552Y-51574500D01*
X94877448Y-51574500D01*
X94877444Y-51574500D01*
X94786906Y-51580784D01*
X94786890Y-51580786D01*
X94574843Y-51630659D01*
X94574836Y-51630662D01*
X94375550Y-51718655D01*
X94375549Y-51718655D01*
X94375546Y-51718657D01*
X94299107Y-51771018D01*
X94195818Y-51841773D01*
X94195812Y-51841778D01*
X94041778Y-51995812D01*
X94041773Y-51995818D01*
X93971018Y-52099107D01*
X93918657Y-52175546D01*
X93918655Y-52175549D01*
X93918655Y-52175550D01*
X93830662Y-52374836D01*
X93830659Y-52374843D01*
X93780786Y-52586890D01*
X93780784Y-52586906D01*
X93774500Y-52677444D01*
X46450500Y-52677444D01*
X46450500Y-49810803D01*
X98275000Y-49810803D01*
X98275000Y-50375000D01*
X99091988Y-50375000D01*
X99059075Y-50432007D01*
X99025000Y-50559174D01*
X99025000Y-50690826D01*
X99059075Y-50817993D01*
X99091988Y-50875000D01*
X98275001Y-50875000D01*
X98275001Y-51439197D01*
X98285400Y-51571332D01*
X98340377Y-51789519D01*
X98433428Y-51994374D01*
X98433431Y-51994380D01*
X98561559Y-52179323D01*
X98561569Y-52179335D01*
X98720664Y-52338430D01*
X98720676Y-52338440D01*
X98905619Y-52466568D01*
X98905625Y-52466571D01*
X99110480Y-52559622D01*
X99328667Y-52614599D01*
X99460810Y-52624999D01*
X100274999Y-52624999D01*
X100275000Y-52624998D01*
X100275000Y-51125000D01*
X100775000Y-51125000D01*
X100775000Y-52624999D01*
X101589182Y-52624999D01*
X101589197Y-52624998D01*
X101721332Y-52614599D01*
X101939519Y-52559622D01*
X102144374Y-52466571D01*
X102144380Y-52466568D01*
X102329323Y-52338440D01*
X102329335Y-52338430D01*
X102488430Y-52179335D01*
X102488440Y-52179323D01*
X102616568Y-51994380D01*
X102616571Y-51994374D01*
X102709622Y-51789519D01*
X102764599Y-51571332D01*
X102774999Y-51439196D01*
X102775000Y-51439184D01*
X102775000Y-50875000D01*
X101958012Y-50875000D01*
X101990925Y-50817993D01*
X102025000Y-50690826D01*
X102025000Y-50559174D01*
X101990925Y-50432007D01*
X101958012Y-50375000D01*
X102774999Y-50375000D01*
X102774999Y-49810817D01*
X102774998Y-49810802D01*
X102764599Y-49678667D01*
X102709622Y-49460480D01*
X102616571Y-49255625D01*
X102616568Y-49255619D01*
X102488440Y-49070676D01*
X102488430Y-49070664D01*
X102329335Y-48911569D01*
X102329323Y-48911559D01*
X102144380Y-48783431D01*
X102144374Y-48783428D01*
X101939519Y-48690377D01*
X101721332Y-48635400D01*
X101589196Y-48625000D01*
X100775000Y-48625000D01*
X100775000Y-50125000D01*
X100275000Y-50125000D01*
X100275000Y-48625000D01*
X99460817Y-48625000D01*
X99460802Y-48625001D01*
X99328667Y-48635400D01*
X99110480Y-48690377D01*
X98905625Y-48783428D01*
X98905619Y-48783431D01*
X98720676Y-48911559D01*
X98720664Y-48911569D01*
X98561569Y-49070664D01*
X98561559Y-49070676D01*
X98433431Y-49255619D01*
X98433428Y-49255625D01*
X98340377Y-49460480D01*
X98285400Y-49678667D01*
X98275000Y-49810803D01*
X46450500Y-49810803D01*
X46450500Y-44874038D01*
X47399500Y-44874038D01*
X47399500Y-45125961D01*
X47438910Y-45374785D01*
X47516760Y-45614383D01*
X47631132Y-45838848D01*
X47779201Y-46042649D01*
X47779205Y-46042654D01*
X47957345Y-46220794D01*
X47957350Y-46220798D01*
X48135117Y-46349952D01*
X48161155Y-46368870D01*
X48304184Y-46441747D01*
X48385616Y-46483239D01*
X48385618Y-46483239D01*
X48385621Y-46483241D01*
X48625215Y-46561090D01*
X48874038Y-46600500D01*
X48874039Y-46600500D01*
X49125961Y-46600500D01*
X49125962Y-46600500D01*
X49374785Y-46561090D01*
X49614379Y-46483241D01*
X49838845Y-46368870D01*
X50042656Y-46220793D01*
X50220793Y-46042656D01*
X50368870Y-45838845D01*
X50483241Y-45614379D01*
X50561090Y-45374785D01*
X50600500Y-45125962D01*
X50600500Y-44874038D01*
X198399500Y-44874038D01*
X198399500Y-45125961D01*
X198438910Y-45374785D01*
X198516760Y-45614383D01*
X198631132Y-45838848D01*
X198779201Y-46042649D01*
X198779205Y-46042654D01*
X198957345Y-46220794D01*
X198957350Y-46220798D01*
X199135117Y-46349952D01*
X199161155Y-46368870D01*
X199304184Y-46441747D01*
X199385616Y-46483239D01*
X199385618Y-46483239D01*
X199385621Y-46483241D01*
X199625215Y-46561090D01*
X199874038Y-46600500D01*
X199874039Y-46600500D01*
X200125961Y-46600500D01*
X200125962Y-46600500D01*
X200374785Y-46561090D01*
X200614379Y-46483241D01*
X200838845Y-46368870D01*
X201042656Y-46220793D01*
X201220793Y-46042656D01*
X201368870Y-45838845D01*
X201483241Y-45614379D01*
X201561090Y-45374785D01*
X201600500Y-45125962D01*
X201600500Y-44874038D01*
X201561090Y-44625215D01*
X201483241Y-44385621D01*
X201483239Y-44385618D01*
X201483239Y-44385616D01*
X201441747Y-44304184D01*
X201368870Y-44161155D01*
X201349952Y-44135117D01*
X201220798Y-43957350D01*
X201220794Y-43957345D01*
X201042654Y-43779205D01*
X201042649Y-43779201D01*
X200838848Y-43631132D01*
X200838847Y-43631131D01*
X200838845Y-43631130D01*
X200768747Y-43595413D01*
X200614383Y-43516760D01*
X200374785Y-43438910D01*
X200125962Y-43399500D01*
X199874038Y-43399500D01*
X199749626Y-43419205D01*
X199625214Y-43438910D01*
X199385616Y-43516760D01*
X199161151Y-43631132D01*
X198957350Y-43779201D01*
X198957345Y-43779205D01*
X198779205Y-43957345D01*
X198779201Y-43957350D01*
X198631132Y-44161151D01*
X198516760Y-44385616D01*
X198438910Y-44625214D01*
X198399500Y-44874038D01*
X50600500Y-44874038D01*
X50561090Y-44625215D01*
X50483241Y-44385621D01*
X50483239Y-44385618D01*
X50483239Y-44385616D01*
X50441747Y-44304184D01*
X50368870Y-44161155D01*
X50349952Y-44135117D01*
X50220798Y-43957350D01*
X50220794Y-43957345D01*
X50042654Y-43779205D01*
X50042649Y-43779201D01*
X49838848Y-43631132D01*
X49838847Y-43631131D01*
X49838845Y-43631130D01*
X49768747Y-43595413D01*
X49614383Y-43516760D01*
X49374785Y-43438910D01*
X49125962Y-43399500D01*
X48874038Y-43399500D01*
X48749626Y-43419205D01*
X48625214Y-43438910D01*
X48385616Y-43516760D01*
X48161151Y-43631132D01*
X47957350Y-43779201D01*
X47957345Y-43779205D01*
X47779205Y-43957345D01*
X47779201Y-43957350D01*
X47631132Y-44161151D01*
X47516760Y-44385616D01*
X47438910Y-44625214D01*
X47399500Y-44874038D01*
X46450500Y-44874038D01*
X46450500Y-42781961D01*
X46451280Y-42768077D01*
X46461459Y-42677731D01*
X46467635Y-42650670D01*
X46495353Y-42571456D01*
X46507396Y-42546450D01*
X46552046Y-42475389D01*
X46569351Y-42453690D01*
X46628690Y-42394351D01*
X46650389Y-42377046D01*
X46721450Y-42332396D01*
X46746456Y-42320353D01*
X46825670Y-42292635D01*
X46852733Y-42286459D01*
X46915419Y-42279396D01*
X46943079Y-42276280D01*
X46956962Y-42275500D01*
X47015892Y-42275500D01*
X202095653Y-42275500D01*
X202109756Y-42276304D01*
G37*
%TD.AperFunction*%
%TD*%
M02*
