M48
; DRILL file {KiCad 9.0.4} date 2026-07-15T12:50:04-0500
; FORMAT={-:-/ absolute / metric / decimal}
; #@! TF.CreationDate,2026-07-15T12:50:04-05:00
; #@! TF.GenerationSoftware,Kicad,Pcbnew,9.0.4
; #@! TF.FileFunction,Plated,1,2,PTH
FMAT,2
METRIC
; #@! TA.AperFunction,Plated,PTH,ViaDrill
T1C0.600
; #@! TA.AperFunction,Plated,PTH,ComponentDrill
T2C0.800
; #@! TA.AperFunction,Plated,PTH,ComponentDrill
T3C1.000
; #@! TA.AperFunction,Plated,PTH,ComponentDrill
T4C1.020
%
G90
G05
T1
X85.975Y-57.975
X86.1Y-76.8
X86.15Y-93.85
X87.6Y-83.55
X87.75Y-66.4
X90.325Y-50.55
X96.75Y-61.4
X98.575Y-44.25
X98.575Y-45.875
X98.575Y-47.3
X100.475Y-45.875
X100.5Y-44.275
X100.5Y-47.3
X102.3Y-44.3
X102.375Y-45.875
X102.4Y-47.35
X102.725Y-61.475
X162.05Y-56.25
X162.35Y-91.875
X162.475Y-75.25
X169.8Y-57.375
X169.8Y-76.5
X169.85Y-93.775
T2
X95.655Y-80.07
X95.655Y-82.61
X95.655Y-85.15
X95.655Y-87.69
X95.655Y-90.23
X95.655Y-92.77
X95.655Y-95.31
X95.655Y-97.85
X103.275Y-80.07
X103.275Y-82.61
X103.275Y-85.15
X103.275Y-87.69
X103.275Y-90.23
X103.275Y-92.77
X103.275Y-95.31
X103.275Y-97.85
X147.22Y-71.165
X147.22Y-73.705
X147.22Y-76.245
X147.22Y-78.785
X154.84Y-71.165
X154.84Y-73.705
X154.84Y-76.245
X154.84Y-78.785
T4
X112.039Y-57.845
X112.039Y-60.385
X112.039Y-62.925
X112.039Y-65.465
X112.039Y-68.005
X112.039Y-70.545
X112.039Y-73.085
X112.039Y-75.625
X112.039Y-78.165
X112.039Y-80.705
X112.039Y-83.245
X112.039Y-85.785
X112.039Y-88.325
X112.039Y-90.865
X112.039Y-93.405
X137.439Y-57.845
X137.439Y-60.385
X137.439Y-62.925
X137.439Y-65.465
X137.439Y-68.005
X137.439Y-70.545
X137.439Y-73.085
X137.439Y-75.625
X137.439Y-78.165
X137.439Y-80.705
X137.439Y-83.245
X137.439Y-85.785
X137.439Y-88.325
X137.439Y-90.865
X137.439Y-93.405
T3
G00X95.825Y-52.625
M15
G01X95.825Y-54.625
M16
G05
G00X101.525Y-50.625
M15
G01X99.525Y-50.625
M16
G05
G00X101.525Y-56.625
M15
G01X99.525Y-56.625
M16
G05
M30
